<?xml version="1.0" encoding="UTF-8" standalone="no"?>
<!-- Generator: Adobe Illustrator 26.2.1, SVG Export Plug-In . SVG Version: 6.00 Build 0)  -->

<svg
   version="1.1"
   x="0px"
   y="0px"
   viewBox="0 0 1030 1024"
   xml:space="preserve"
   id="svg30"
   sodipodi:docname="Avatar.svg"
   width="1030"
   height="1024"
   inkscape:version="1.1.2 (b8e25be833, 2022-02-05)"
   xmlns:inkscape="http://www.inkscape.org/namespaces/inkscape"
   xmlns:sodipodi="http://sodipodi.sourceforge.net/DTD/sodipodi-0.dtd"
   xmlns:xlink="http://www.w3.org/1999/xlink"
   xmlns="http://www.w3.org/2000/svg"
   xmlns:svg="http://www.w3.org/2000/svg"><defs
   id="defs34">
	
	
	
	
	
	
	
	
</defs><sodipodi:namedview
   id="namedview32"
   pagecolor="#ffffff"
   bordercolor="#666666"
   borderopacity="1.0"
   inkscape:pageshadow="2"
   inkscape:pageopacity="0.0"
   inkscape:pagecheckerboard="0"
   showgrid="false"
   inkscape:zoom="0.76269531"
   inkscape:cx="371.0525"
   inkscape:cy="373.67478"
   inkscape:window-width="1920"
   inkscape:window-height="974"
   inkscape:window-x="-9"
   inkscape:window-y="-9"
   inkscape:window-maximized="1"
   inkscape:current-layer="svg30" />
<style
   type="text/css"
   id="style2">
	.st0{fill:#E9D6B8;}
	.st1{fill:#404084;}
	.st2{fill:#47479C;}
	.st3{fill:none;stroke:#47479C;stroke-width:9;stroke-miterlimit:10;}
	.st4{fill:none;}
	.st5{fill:none;stroke:#47479C;stroke-miterlimit:10;}
	.st6{display:none;}
</style>
<path
   class="st0"
   d="m 524.37926,612.59113 c 0,0 -131.25553,23.51722 -172.41068,-237.52402 0,0 26.75085,-144.19 342.61663,-69.96375 0,0 21.45947,316.74767 -170.20595,307.48777 z"
   id="path4"
   style="stroke-width:1.46983" /><path
   class="st0"
   d="m 459.41292,663.7411 71.2866,89.0715 69.08186,-83.78013 -11.17068,-89.65943 c 0,0 -78.78272,25.13404 -116.11632,5.87931 z"
   id="path6"
   style="stroke-width:1.46983" /><path
   class="st1"
   d="m 348.58798,344.20075 v 39.68533 c 0,0 94.06891,-116.99822 354.66921,-50.85601 l 2.93965,-41.5961 c 0,-0.14698 -283.52959,-37.62757 -357.60886,52.76678 z"
   id="path8"
   style="stroke-width:1.46983" /><path
   class="st2"
   d="m 797.3261,229.11331 -91.12926,62.17368 c 0,0 -272.65287,-37.48059 -357.60886,52.91376 L 182.0566,253.65942 562.00683,31.127643 Z"
   id="path10"
   style="stroke-width:1.46983" /><line
   class="st3"
   x1="190.14064"
   y1="253.65941"
   x2="190.14064"
   y2="427.24597"
   id="line12" /><ellipse
   class="st1"
   cx="190.14064"
   cy="437.53476"
   rx="18.960766"
   ry="19.842661"
   id="ellipse14"
   style="stroke-width:1.46983" /><g
   id="g22"
   transform="matrix(1.4698268,0,0,1.4698268,-387.3543,-151.13088)">
		<path
   class="st4"
   d="M 544.6,592.1 H 558 l 8.2,49.8 58.8,-19.1 59,17.9 1,-53.8 c 0,0 128.9,3.5 201,82.7 C 933.6,610 962,534.5 962,452.4 962,260 806,104 613.5,104 421,104 265,260 265,452.5 c 0,92.7 36.2,176.9 95.2,239.4 28,-38.9 81.6,-80 184.4,-99.8 z"
   id="path16" />
		<path
   class="st4"
   d="m 601.8,800.8 c 3.9,0.1 7.8,0.2 11.7,0.2 10.8,0 21.5,-0.5 32,-1.5 -14.2,0.6 -28.7,1.1 -43.7,1.3 z"
   id="path18" />
		<path
   class="st2"
   d="M 886,669.7 C 813.9,590.5 685,587 685,587 l -1,53.8 -59,-17.9 -58.8,19.1 -8.2,-49.8 h -13.4 c -102.7,19.8 -156.4,60.9 -184.4,99.7 61,64.6 146.5,105.8 241.6,108.9 14.9,-0.2 29.5,-0.7 43.7,-1.3 97.2,-8.8 182.9,-57.6 240.5,-129.8 z"
   id="path20" />
	</g><circle
   class="st5"
   cx="515.11938"
   cy="517.64032"
   r="509.29498"
   id="circle24"
   style="stroke-width:4.07;stroke-miterlimit:10;stroke-dasharray:none" />
<g
   id="Layer_2"
   class="st6">
	
		<image
   style="display:inline;overflow:visible;opacity:0.38"
   width="800"
   height="500"
   xlink:href="82FF5779F06B9BF5.jpg"
   transform="matrix(5.08,0,0,5.0654,-1350,-180)"
   id="image27">
	</image>
</g>
</svg>
