<svg id="Layer_3" data-name="Layer 3" xmlns="http://www.w3.org/2000/svg" xmlns:xlink="http://www.w3.org/1999/xlink" viewBox="0 0 1530.29 540.96"><defs><style>.cls-1{fill:url(#linear-gradient);}.cls-2{fill:#fff;}.cls-3{fill:none;stroke:#fff;stroke-linecap:round;stroke-linejoin:bevel;stroke-width:0.5px;}.cls-4{fill:#55a;}</style><linearGradient id="linear-gradient" x1="38.83" y1="1098.29" x2="39.83" y2="1098.29" gradientTransform="translate(-548994.56 16012.38) rotate(-89.59) scale(499.99)" gradientUnits="userSpaceOnUse"><stop offset="0" stop-color="#4b49a6"/><stop offset="0.3" stop-color="#7b7dc3"/><stop offset="0.76" stop-color="#c1c9ed"/><stop offset="0.98" stop-color="#dce7fd"/><stop offset="1" stop-color="#dce7fd"/></linearGradient></defs><circle class="cls-1" cx="267.6" cy="266" r="266"/><path class="cls-2" d="M360.53,105.52a6.9,6.9,0,0,0-.88-1.68,9.54,9.54,0,0,0-.61-1,6.59,6.59,0,0,0-2.35-3.39,37.91,37.91,0,0,0-29.94-14.29c-20.56,0-37.29,15.77-37.29,35.18,0,7.79,4.85,19.61,15.32,37.29,7.11,12,14.22,22.24,14.51,22.66l5.12,7.34a2.9,2.9,0,0,0,2.34,1.17,2.81,2.81,0,0,0,2.32-1.17l5.09-7.23c.29-.42,7.32-10.5,14.52-22.66,10.44-17.65,15.31-29.5,15.31-37.29A33.11,33.11,0,0,0,360.53,105.52Zm-33.78.39c8.31,0,15.08,6.39,15.08,14.23s-6.77,14.23-15.08,14.23-15.1-6.39-15.1-14.23,6.79-14.23,15.1-14.23Z"/><path class="cls-2" d="M388.77,242.92a11.13,11.13,0,0,0-1.66-2.77c-1.09-2.1-3.6-3.68-5.55-4.63a19,19,0,0,0-9.18-1.93H272.31a8,8,0,0,0-5.88,2.53,17.84,17.84,0,0,0-1.45,1.8,7.91,7.91,0,0,0-1.4,4.54V453.32a8.4,8.4,0,0,0,.09,1.42,2.1,2.1,0,0,1,.05.43c.06.94.08,1.91.12,2.89a9.49,9.49,0,0,0,.23,1.6,7.31,7.31,0,0,0,2.66,5,13.78,13.78,0,0,0,7.07,2.69l.16.06a3,3,0,0,0,1.1.15,8.39,8.39,0,0,0,1.41.12c20-.14,35.58,2.8,47.63,7.75,45,18.51,43.38,39.28,39.16,59.6-.9,4.36,2,2.37,6.37,3.27,2.49-32.19-.55,0,0,0H382c4.46,0,7.83,3.08,7.83-1.38h0V247.08A8.2,8.2,0,0,0,388.77,242.92Zm-62,203.43a8.07,8.07,0,0,1-8.07,8.07H308.1a8.07,8.07,0,0,1-8.08-8.06h0V401.67a8.07,8.07,0,0,1,8.07-8.07H318.7a8.07,8.07,0,0,1,8.07,8.07Zm0-98.49a8.07,8.07,0,0,1-8.06,8.08H308.1a8.08,8.08,0,0,1-8.08-8.08V303.19a8.08,8.08,0,0,1,8.08-8.08h10.6a8.07,8.07,0,0,1,8.07,8.07h0Z"/><path class="cls-2" d="M41.21,541l305.88-.32s20.46-57.31-64.95-55.9l-210.59-6.3c-1.36,0-5.38.18-4,.5C88.66,484,53.09,454.23,41.21,541Z"/><path class="cls-2" d="M216.3,173.38l0,0-.35-.27a14.57,14.57,0,0,0-1.47-1.15,3.47,3.47,0,0,0-.45-.26h1.16c-2-2.22-4.13-4.31-6.33-6.34a4,4,0,0,1-.7-.59l-.13-.1a4.77,4.77,0,0,1-.7-.56l-.09-.06-.21-.1-.51-.39a4.72,4.72,0,0,1-.72-.43,5.11,5.11,0,0,1-.9-.54c-107.78-55.8-83.12-44.44-194.5,4.14a5.35,5.35,0,0,1-2.72,2.1,5.65,5.65,0,0,1-1.44,2.42A6.48,6.48,0,0,1,6,172.74l202.16-1a2.6,2.6,0,0,0-.49,1,3.06,3.06,0,0,0,2.1,3.69,10.62,10.62,0,0,1,1.17.38,4.51,4.51,0,0,0,.53.31,25.42,25.42,0,0,0,2.27,1.71,3,3,0,0,0,4.16-.81,2.94,2.94,0,0,0,.51-1.61C217.65,175.44,217,174.42,216.3,173.38Z"/><path class="cls-2" d="M195.7,453.36c1.18,12.28,12,10.29,21.39,7.24a6.61,6.61,0,0,0,4.62-6.3V189.06c-.86-5.49-2.15-10.75-5.51-15.65a7.09,7.09,0,0,0-6-3.57H8.38c-3.61,0-6.16,2.79-6.75,6.24a20.4,20.4,0,0,0-.7,4.73c-.1,1.24-.73,2.35-.68,3.61v272.8a6.62,6.62,0,0,0,6.62,6.62H33.49a.46.46,0,0,0-.11-.58,6.16,6.16,0,0,1-2.66-4.69v-70A6.61,6.61,0,0,1,37.37,382H97a6.61,6.61,0,0,1,6.61,6.61h0v64.91a18,18,0,0,0,.57,6.29c1,4.32,8.55,3.41,13.56,2.37a6.57,6.57,0,0,0,5.19-6.46V388.62a6.61,6.61,0,0,1,6.61-6.61h59.57a6.62,6.62,0,0,1,6.62,6.62ZM30,267.5V209.76a6.63,6.63,0,0,1,6.62-6.61H96.2a6.6,6.6,0,0,1,6.62,6.6h0V267.5a6.61,6.61,0,0,1-6.61,6.61H36.62A6.63,6.63,0,0,1,30,267.5Zm67,95.68H37.38a6.61,6.61,0,0,1-6.61-6.61V298.83a6.61,6.61,0,0,1,6.61-6.61H97a6.61,6.61,0,0,1,6.61,6.61v57.74A6.61,6.61,0,0,1,97,363.18Zm24.45-95V210.49a6.62,6.62,0,0,1,6.6-6.62h59.6a6.61,6.61,0,0,1,6.61,6.61h0v57.73a6.61,6.61,0,0,1-6.6,6.62H128a6.61,6.61,0,0,1-6.63-6.59v0ZM122.88,358V300.28a6.61,6.61,0,0,1,6.61-6.61h59.59a6.6,6.6,0,0,1,6.62,6.6h0V358a6.62,6.62,0,0,1-6.62,6.62H129.5A6.62,6.62,0,0,1,122.88,358Z"/><path class="cls-3" d="M195.7,453.36c1.18,12.28,12,10.29,21.39,7.24a6.61,6.61,0,0,0,4.62-6.3V189.06c-.86-5.49-2.15-10.75-5.51-15.65a7.09,7.09,0,0,0-6-3.57H8.38c-3.61,0-6.16,2.79-6.75,6.24a20.4,20.4,0,0,0-.7,4.73c-.1,1.24-.73,2.35-.68,3.61v272.8a6.62,6.62,0,0,0,6.62,6.62H33.49a.46.46,0,0,0-.11-.58,6.16,6.16,0,0,1-2.66-4.69v-70A6.61,6.61,0,0,1,37.37,382H97a6.61,6.61,0,0,1,6.61,6.61h0v64.91a18,18,0,0,0,.57,6.29c1,4.32,8.55,3.41,13.56,2.37a6.57,6.57,0,0,0,5.19-6.46V388.62a6.61,6.61,0,0,1,6.61-6.61h59.57a6.62,6.62,0,0,1,6.62,6.62ZM30,267.5V209.76a6.63,6.63,0,0,1,6.62-6.61H96.2a6.6,6.6,0,0,1,6.62,6.6h0V267.5a6.61,6.61,0,0,1-6.61,6.61H36.62A6.63,6.63,0,0,1,30,267.5Zm67,95.68H37.38a6.61,6.61,0,0,1-6.61-6.61V298.83a6.61,6.61,0,0,1,6.61-6.61H97a6.61,6.61,0,0,1,6.61,6.61v57.74A6.61,6.61,0,0,1,97,363.18Zm24.45-95V210.49a6.62,6.62,0,0,1,6.6-6.62h59.6a6.61,6.61,0,0,1,6.61,6.61h0v57.73a6.61,6.61,0,0,1-6.6,6.62H128a6.61,6.61,0,0,1-6.63-6.59v0ZM122.88,358V300.28a6.61,6.61,0,0,1,6.61-6.61h59.59a6.6,6.6,0,0,1,6.62,6.6h0V358a6.62,6.62,0,0,1-6.62,6.62H129.5A6.62,6.62,0,0,1,122.88,358Z"/><rect class="cls-2" x="98.6" y="91" width="25" height="46" rx="12"/><path class="cls-2" d="M186.1,102.5h-2a9,9,0,0,1-9-9v-1a9,9,0,0,1,9-9h2.5V80a12,12,0,0,0-12-12h-64a12,12,0,0,0-12,12v23a12,12,0,0,0,12,12h64a12,12,0,0,0,12-12v-.53C186.43,102.48,186.27,102.5,186.1,102.5Z"/><path class="cls-4" d="M719.08,272.56c-1.21-23.72-2.6-52.53-2-75.91h-1c-4.13,23.11-9.79,48.8-14.91,69l-21.84,86.15h-23l-20.8-83.71c-5.4-21.53-11.28-47.77-14.92-71.42h-.89c-.27,23.92-1.7,51.92-2.92,77L613,354.28H583.81l14-211.63h35.71L654,228.33c6.42,27.33,11.75,49.52,15.88,73.52h.77c3.64-23.78,8.35-46,14.45-73.52l20-85.68h36.07l12.51,211.63H723.21Z"/><path class="cls-4" d="M805,201.42l17.34,83.29C824.49,295,825.88,304,827.5,313h.63c1.35-8.21,3.2-18.18,5-27.88l15.1-83.65h32.93l-28.4,109.13c-8.36,33.06-18.68,66-35.77,87.16-12,14.52-25.58,21.61-31.54,23.72l-10.84-28.82c7-3.1,14.35-8.62,20.86-15.59a73.91,73.91,0,0,0,13.24-21.57c1.25-3.14,1.92-4.89,1.92-7.09a17.77,17.77,0,0,0-1-5.65L769.16,201.42Z"/><path class="cls-4" d="M933.92,142.65V282.09c0,34.3,10.78,45.31,24,45.31,14.52,0,24.44-10.88,24.44-45.31V142.65h33.52V276.41c0,54.72-21.54,80.39-58,80.39-38.66,0-57.47-26.2-57.47-78.86V142.65Z"/><path class="cls-4" d="M1049.24,244.5c0-17.28-.76-29.54-1.26-43.08h29l1.7,18h.62a41.25,41.25,0,0,1,36.15-20.5c25.48,0,39,19.79,39,55.24V354.28H1121V257.34c0-15.28-3.23-30.19-17.83-30.19-8.32,0-15.78,6.38-18.74,18.71a51.69,51.69,0,0,0-1.71,13.9v94.52h-33.51Z"/><path class="cls-4" d="M1220,161.37c.18,11.51-7.56,19.3-18.54,19.3-9.76,0-17.59-7.79-17.41-19.3-.18-11.91,8-19.48,17.91-19.48C1212.42,141.89,1220,149.46,1220,161.37Zm-34.47,192.91V201.42H1219V354.28Z"/></svg>