<?xml version="1.0" encoding="utf-8"?>
<!-- Generator: Adobe Illustrator 26.2.1, SVG Export Plug-In . SVG Version: 6.00 Build 0)  -->
<svg version="1.1" id="Layer_3_00000050640511986371181710000014335841934430697660_"
	 xmlns="http://www.w3.org/2000/svg" xmlns:xlink="http://www.w3.org/1999/xlink" x="0px" y="0px" viewBox="0 0 556.3 558.7"
	 style="enable-background:new 0 0 556.3 558.7;" xml:space="preserve">
<style type="text/css">
	.st0{fill:url(#SVGID_1_);}
	.st1{fill:#FFFFFF;}
	.st2{fill:none;stroke:#FFFFFF;stroke-width:0.5;stroke-linecap:round;stroke-linejoin:bevel;}
</style>
<g>
	
		<linearGradient id="SVGID_1_" gradientUnits="userSpaceOnUse" x1="39.9173" y1="1107.1632" x2="40.9173" y2="1107.1632" gradientTransform="matrix(3.57 -499.98 499.98 3.57 -553436.4375 16540.9336)">
		<stop  offset="0" style="stop-color:#4B49A6"/>
		<stop  offset="0.3" style="stop-color:#7B7DC3"/>
		<stop  offset="0.76" style="stop-color:#C1C9ED"/>
		<stop  offset="0.98" style="stop-color:#DCE7FD"/>
		<stop  offset="1" style="stop-color:#DCE7FD"/>
	</linearGradient>
	<circle class="st0" cx="267.4" cy="281" r="266"/>
	<path class="st1" d="M360.3,120.5c-0.2-0.6-0.5-1.2-0.9-1.7c-0.2-0.3-0.4-0.7-0.6-1c-0.4-1.4-1.2-2.6-2.3-3.4
		c-7.5-9.2-18.4-14.4-29.9-14.3c-20.6,0-37.3,15.8-37.3,35.2c0,7.8,4.8,19.6,15.3,37.3c7.1,12,14.2,22.2,14.5,22.7l5.1,7.3
		c0.6,0.8,1.4,1.2,2.3,1.2c0.9,0,1.8-0.4,2.3-1.2l5.1-7.2c0.3-0.4,7.3-10.5,14.5-22.7c10.4-17.6,15.3-29.5,15.3-37.3
		C363.8,130.3,362.6,125.1,360.3,120.5z M326.5,120.9c8.3,0,15.1,6.4,15.1,14.2s-6.8,14.2-15.1,14.2s-15.1-6.4-15.1-14.2
		S318.2,120.9,326.5,120.9L326.5,120.9z"/>
	<path class="st1" d="M388.5,257.9c-0.4-1-1-1.9-1.7-2.8c-1.1-2.1-3.6-3.7-5.5-4.6c-2.9-1.4-6-2.1-9.2-1.9h-0.2h-99.9
		c-2.2,0-4.4,0.9-5.9,2.5c-0.5,0.6-1,1.2-1.5,1.8c-0.9,1.3-1.4,2.9-1.4,4.5v210.9c0,0.5,0,1,0.1,1.4c0,0.1,0,0.3,0,0.4
		c0.1,0.9,0.1,1.9,0.1,2.9c0,0.5,0.1,1.1,0.2,1.6c0.2,2,1.1,3.8,2.7,5c2.1,1.5,4.5,2.5,7.1,2.7l0.2,0.1c0.4,0.1,0.7,0.2,1.1,0.2
		c0.5,0.1,0.9,0.1,1.4,0.1c20-0.1,35.6,2.8,47.6,7.8c45,18.5,43.4,39.3,39.2,59.6c-0.9,4.4,2,2.4,6.4,3.3c2.5-32.2-0.6,0,0,0h12.4
		c4.5,0,7.8,3.1,7.8-1.4c0,0,0-25.7,0,0V262.1C389.6,260.6,389.3,259.2,388.5,257.9z M326.5,461.3c0,4.5-3.6,8.1-8.1,8.1h-10.6
		c-4.5,0-8.1-3.6-8.1-8.1v0v-44.7c0-4.5,3.6-8.1,8.1-8.1h0h10.6c4.5,0,8.1,3.6,8.1,8.1V461.3z M326.5,362.9c0,4.5-3.6,8.1-8.1,8.1h0
		h-10.6c-4.5,0-8.1-3.6-8.1-8.1v-44.7c0-4.5,3.6-8.1,8.1-8.1h10.6c4.5,0,8.1,3.6,8.1,8.1v0V362.9z"/>
	<path class="st1" d="M41,556l272.2-0.2c0,0,18.2-40.7-57.8-39.7L68,511.5c-1.2,0-4.8,0.1-3.6,0.4C83.2,515.5,51.5,494.3,41,556z"/>
	<path class="st1" d="M216,188.4L216,188.4l-0.4-0.3c-0.5-0.4-1-0.8-1.5-1.2c-0.1-0.1-0.3-0.2-0.5-0.3h1.2c-2-2.2-4.1-4.3-6.3-6.3
		c-0.3-0.2-0.5-0.4-0.7-0.6l-0.1-0.1c-0.3-0.2-0.5-0.4-0.7-0.6L207,179l-0.2-0.1l-0.5-0.4c-0.3-0.1-0.5-0.3-0.7-0.4
		c-0.3-0.1-0.6-0.3-0.9-0.5c-107.8-55.8-83.1-44.4-194.5,4.1c-0.6,1-1.6,1.7-2.7,2.1c-0.3,0.9-0.8,1.8-1.4,2.4c0,0.5-0.1,1-0.2,1.5
		l202.2-1c-0.2,0.3-0.4,0.6-0.5,1c-0.4,1.6,0.5,3.2,2.1,3.7c0.4,0.1,0.8,0.2,1.2,0.4c0,0,0.6,0.4,0.5,0.3c0.7,0.6,1.5,1.2,2.3,1.7
		c1.4,0.9,3.2,0.6,4.2-0.8c0.3-0.5,0.5-1.1,0.5-1.6C217.4,190.4,216.7,189.4,216,188.4z"/>
	<path class="st1" d="M195.5,468.4c1.2,12.3,12,10.3,21.4,7.2c2.7-0.9,4.6-3.4,4.6-6.3V204.1c-0.9-5.5-2.1-10.8-5.5-15.7
		c-1.2-2.2-3.5-3.5-6-3.6H8.1c-3.6,0-6.2,2.8-6.8,6.2c-0.4,1.5-0.7,3.1-0.7,4.7C0.6,197,0,198.2,0,199.4v272.8c0,3.7,3,6.6,6.6,6.6
		h26.6c0.1-0.2,0.1-0.4-0.1-0.6c-1.6-1.1-2.5-2.8-2.7-4.7v-70c0-3.7,3-6.6,6.6-6.6l0,0h59.6c3.7,0,6.6,3,6.6,6.6v0v64.9
		c-0.2,2.2,0,4.3,0.6,6.3c1,4.3,8.6,3.4,13.6,2.4c3-0.7,5.2-3.3,5.2-6.5v-67.1c0-3.7,3-6.6,6.6-6.6h0h59.6c3.7,0,6.6,3,6.6,6.6
		V468.4z M29.8,282.5v-57.7c0-3.7,3-6.6,6.6-6.6H96c3.7,0,6.6,2.9,6.6,6.6v0v57.7c0,3.7-3,6.6-6.6,6.6h0H36.4
		C32.7,289.1,29.8,286.2,29.8,282.5z M96.7,378.2H37.1c-3.7,0-6.6-3-6.6-6.6v-57.7c0-3.7,3-6.6,6.6-6.6h59.6c3.7,0,6.6,3,6.6,6.6
		v57.7C103.3,375.2,100.4,378.2,96.7,378.2L96.7,378.2z M121.2,283.2v-57.7c0-3.7,2.9-6.6,6.6-6.6h0h59.6c3.7,0,6.6,3,6.6,6.6v0
		v57.7c0,3.7-2.9,6.6-6.6,6.6h0h-59.6C124.1,289.9,121.1,286.9,121.2,283.2L121.2,283.2L121.2,283.2z M122.6,373v-57.7
		c0-3.7,3-6.6,6.6-6.6h0h59.6c3.7,0,6.6,2.9,6.6,6.6v0V373c0,3.7-3,6.6-6.6,6.6h-59.6C125.6,379.6,122.6,376.7,122.6,373z"/>
	<path class="st2" d="M195.5,468.4c1.2,12.3,12,10.3,21.4,7.2c2.7-0.9,4.6-3.4,4.6-6.3V204.1c-0.9-5.5-2.1-10.8-5.5-15.7
		c-1.2-2.2-3.5-3.5-6-3.6H8.1c-3.6,0-6.2,2.8-6.8,6.2c-0.4,1.5-0.7,3.1-0.7,4.7C0.6,197,0,198.2,0,199.4v272.8c0,3.7,3,6.6,6.6,6.6
		h26.6c0.1-0.2,0.1-0.4-0.1-0.6c-1.6-1.1-2.5-2.8-2.7-4.7v-70c0-3.7,3-6.6,6.6-6.6l0,0h59.6c3.7,0,6.6,3,6.6,6.6v0v64.9
		c-0.2,2.2,0,4.3,0.6,6.3c1,4.3,8.6,3.4,13.6,2.4c3-0.7,5.2-3.3,5.2-6.5v-67.1c0-3.7,3-6.6,6.6-6.6h0h59.6c3.7,0,6.6,3,6.6,6.6
		V468.4z M29.8,282.5v-57.7c0-3.7,3-6.6,6.6-6.6H96c3.7,0,6.6,2.9,6.6,6.6v0v57.7c0,3.7-3,6.6-6.6,6.6h0H36.4
		C32.7,289.1,29.8,286.2,29.8,282.5z M96.7,378.2H37.1c-3.7,0-6.6-3-6.6-6.6v-57.7c0-3.7,3-6.6,6.6-6.6h59.6c3.7,0,6.6,3,6.6,6.6
		v57.7C103.3,375.2,100.4,378.2,96.7,378.2L96.7,378.2z M121.2,283.2v-57.7c0-3.7,2.9-6.6,6.6-6.6h0h59.6c3.7,0,6.6,3,6.6,6.6v0
		v57.7c0,3.7-2.9,6.6-6.6,6.6h0h-59.6C124.1,289.9,121.1,286.9,121.2,283.2L121.2,283.2L121.2,283.2z M122.6,373v-57.7
		c0-3.7,3-6.6,6.6-6.6h0h59.6c3.7,0,6.6,2.9,6.6,6.6v0V373c0,3.7-3,6.6-6.6,6.6h-59.6C125.6,379.6,122.6,376.7,122.6,373z"/>
	<path class="st1" d="M110.4,106h1c6.6,0,12,5.4,12,12v22c0,6.6-5.4,12-12,12h-1c-6.6,0-12-5.4-12-12v-22
		C98.4,111.4,103.7,106,110.4,106z"/>
	<path class="st1" d="M185.9,117.5h-2c-5,0-9-4-9-9v-1c0-5,4-9,9-9h2c0.2,0,0.3,0,0.5,0V95c0-6.6-5.4-12-12-12h-64
		c-6.6,0-12,5.4-12,12v23c0,6.6,5.4,12,12,12h64c6.6,0,12-5.4,12-12v-0.5C186.2,117.5,186,117.5,185.9,117.5z"/>
</g>
</svg>
