<?xml version="1.0" encoding="utf-8"?>
<!-- Generator: Adobe Illustrator 26.2.1, SVG Export Plug-In . SVG Version: 6.00 Build 0)  -->
<svg version="1.1" id="Layer_3" xmlns="http://www.w3.org/2000/svg" xmlns:xlink="http://www.w3.org/1999/xlink" x="0px" y="0px"
	 viewBox="0 0 1530.3 541" style="enable-background:new 0 0 1530.3 541;" xml:space="preserve">
<style type="text/css">
	.st0{fill:url(#SVGID_1_);}
	.st1{fill:#FFFFFF;}
	.st2{fill:none;stroke:#FFFFFF;stroke-width:0.5;stroke-linecap:round;stroke-linejoin:bevel;}
	.st3{fill:#5555AA;}
</style>
<linearGradient id="SVGID_1_" gradientUnits="userSpaceOnUse" x1="-155.7052" y1="-287.6847" x2="-154.7052" y2="-287.6847" gradientTransform="matrix(3.5779 -499.9772 -499.9772 -3.5779 -143012.9688 -78350.5547)">
	<stop  offset="0" style="stop-color:#4B49A6"/>
	<stop  offset="0.3" style="stop-color:#7B7DC3"/>
	<stop  offset="0.76" style="stop-color:#C1C9ED"/>
	<stop  offset="0.98" style="stop-color:#DCE7FD"/>
	<stop  offset="1" style="stop-color:#DCE7FD"/>
</linearGradient>
<circle class="st0" cx="267.6" cy="266" r="266"/>
<path class="st1" d="M360.5,105.5c-0.2-0.6-0.5-1.2-0.9-1.7c-0.2-0.3-0.4-0.7-0.6-1c-0.4-1.4-1.2-2.5-2.4-3.4
	c-7.3-9.1-18.3-14.4-29.9-14.3c-20.6,0-37.3,15.8-37.3,35.2c0,7.8,4.9,19.6,15.3,37.3c7.1,12,14.2,22.2,14.5,22.7l5.1,7.3
	c0.5,0.7,1.4,1.2,2.3,1.2c0.9,0,1.8-0.4,2.3-1.2l5.1-7.2c0.3-0.4,7.3-10.5,14.5-22.7c10.4-17.6,15.3-29.5,15.3-37.3
	C364,115.3,362.8,110.2,360.5,105.5z M326.8,105.9c8.3,0,15.1,6.4,15.1,14.2s-6.8,14.2-15.1,14.2s-15.1-6.4-15.1-14.2
	S318.4,105.9,326.8,105.9z"/>
<path class="st1" d="M388.8,242.9c-0.4-1-1-1.9-1.7-2.8c-1.1-2.1-3.6-3.7-5.5-4.6c-2.9-1.4-6-2.1-9.2-1.9H272.3
	c-2.2,0-4.4,0.9-5.9,2.5c-0.5,0.6-1,1.2-1.5,1.8c-0.9,1.3-1.4,2.9-1.4,4.5v210.9c0,0.5,0,1,0.1,1.4c0,0.1,0,0.3,0,0.4
	c0.1,0.9,0.1,1.9,0.1,2.9c0,0.5,0.1,1.1,0.2,1.6c0.2,2,1.1,3.8,2.7,5c2.1,1.5,4.5,2.5,7.1,2.7l0.2,0.1c0.4,0.1,0.7,0.2,1.1,0.1
	c0.5,0.1,0.9,0.1,1.4,0.1c20-0.1,35.6,2.8,47.6,7.8c45,18.5,43.4,39.3,39.2,59.6c-0.9,4.4,2,2.4,6.4,3.3c2.5-32.2-0.5,0,0,0H382
	c4.5,0,7.8,3.1,7.8-1.4l0,0V247.1C389.9,245.6,389.5,244.2,388.8,242.9z M326.8,446.3c0,4.5-3.6,8.1-8.1,8.1c0,0,0,0,0,0h-10.6
	c-4.5,0-8.1-3.6-8.1-8.1l0,0v-44.7c0-4.5,3.6-8.1,8.1-8.1c0,0,0,0,0,0h10.6c4.5,0,8.1,3.6,8.1,8.1c0,0,0,0,0,0L326.8,446.3z
	 M326.8,347.9c0,4.5-3.6,8.1-8.1,8.1h-10.6c-4.5,0-8.1-3.6-8.1-8.1v-44.7c0-4.5,3.6-8.1,8.1-8.1h10.6c4.5,0,8.1,3.6,8.1,8.1
	c0,0,0,0,0,0l0,0L326.8,347.9z"/>
<path class="st1" d="M41.2,541l305.9-0.3c0,0,20.5-57.3-64.9-55.9l-210.6-6.3c-1.4,0-5.4,0.2-4,0.5C88.7,484,53.1,454.2,41.2,541z"
	/>
<path class="st1" d="M216.3,173.4L216.3,173.4l-0.4-0.3c-0.5-0.4-1-0.8-1.5-1.1c-0.1-0.1-0.3-0.2-0.4-0.3h1.2
	c-2-2.2-4.1-4.3-6.3-6.3c-0.3-0.2-0.5-0.4-0.7-0.6l-0.1-0.1c-0.3-0.2-0.5-0.4-0.7-0.6l-0.1-0.1L207,164l-0.5-0.4
	c-0.3-0.1-0.5-0.3-0.7-0.4c-0.3-0.1-0.6-0.3-0.9-0.5c-107.8-55.8-83.1-44.4-194.5,4.1c-0.7,1-1.6,1.7-2.7,2.1
	c-0.3,0.9-0.8,1.7-1.4,2.4c0,0.5-0.1,1-0.2,1.5l202.2-1c-0.2,0.3-0.4,0.6-0.5,1c-0.4,1.6,0.5,3.2,2.1,3.7c0.4,0.1,0.8,0.2,1.2,0.4
	c0.2,0.1,0.3,0.2,0.5,0.3c0.7,0.6,1.5,1.2,2.3,1.7c1.4,0.9,3.2,0.6,4.2-0.8c0.3-0.5,0.5-1,0.5-1.6
	C217.6,175.4,217,174.4,216.3,173.4z"/>
<path class="st1" d="M195.7,453.4c1.2,12.3,12,10.3,21.4,7.2c2.7-0.9,4.6-3.4,4.6-6.3V189.1c-0.9-5.5-2.1-10.8-5.5-15.6
	c-1.2-2.2-3.5-3.5-6-3.6H8.4c-3.6,0-6.2,2.8-6.8,6.2c-0.4,1.5-0.7,3.1-0.7,4.7c-0.1,1.2-0.7,2.4-0.7,3.6v272.8c0,3.7,3,6.6,6.6,6.6
	h26.6c0.1-0.2,0.1-0.4-0.1-0.6c-1.6-1.1-2.5-2.8-2.7-4.7v-70c0-3.7,3-6.6,6.6-6.6c0,0,0,0,0,0H97c3.7,0,6.6,3,6.6,6.6l0,0v64.9
	c-0.2,2.1,0,4.2,0.6,6.3c1,4.3,8.6,3.4,13.6,2.4c3-0.7,5.2-3.3,5.2-6.5v-67.1c0-3.7,3-6.6,6.6-6.6h59.6c3.7,0,6.6,3,6.6,6.6
	L195.7,453.4z M30,267.5v-57.7c0-3.6,3-6.6,6.6-6.6h59.6c3.6,0,6.6,2.9,6.6,6.6c0,0,0,0,0,0l0,0v57.8c0,3.7-3,6.6-6.6,6.6H36.6
	C33,274.1,30,271.1,30,267.5z M97,363.2H37.4c-3.7,0-6.6-3-6.6-6.6v-57.7c0-3.7,3-6.6,6.6-6.6H97c3.7,0,6.6,3,6.6,6.6v57.7
	C103.6,360.2,100.7,363.2,97,363.2C97,363.2,97,363.2,97,363.2z M121.4,268.2v-57.7c0-3.6,3-6.6,6.6-6.6h59.6c3.7,0,6.6,3,6.6,6.6
	l0,0l0,0v57.7c0,3.7-2.9,6.6-6.6,6.6h0H128C124.3,274.8,121.4,271.9,121.4,268.2C121.4,268.2,121.4,268.2,121.4,268.2L121.4,268.2
	L121.4,268.2z M122.9,358v-57.7c0-3.7,3-6.6,6.6-6.6h59.6c3.6,0,6.6,2.9,6.6,6.6c0,0,0,0,0,0l0,0V358c0,3.7-3,6.6-6.6,6.6h-59.6
	C125.8,364.6,122.9,361.7,122.9,358z"/>
<path class="st2" d="M195.7,453.4c1.2,12.3,12,10.3,21.4,7.2c2.7-0.9,4.6-3.4,4.6-6.3V189.1c-0.9-5.5-2.1-10.8-5.5-15.6
	c-1.2-2.2-3.5-3.5-6-3.6H8.4c-3.6,0-6.2,2.8-6.8,6.2c-0.4,1.5-0.7,3.1-0.7,4.7c-0.1,1.2-0.7,2.4-0.7,3.6v272.8c0,3.7,3,6.6,6.6,6.6
	h26.6c0.1-0.2,0.1-0.4-0.1-0.6c-1.6-1.1-2.5-2.8-2.7-4.7v-70c0-3.7,3-6.6,6.6-6.6c0,0,0,0,0,0H97c3.7,0,6.6,3,6.6,6.6l0,0v64.9
	c-0.2,2.1,0,4.2,0.6,6.3c1,4.3,8.6,3.4,13.6,2.4c3-0.7,5.2-3.3,5.2-6.5v-67.1c0-3.7,3-6.6,6.6-6.6h59.6c3.7,0,6.6,3,6.6,6.6
	L195.7,453.4z M30,267.5v-57.7c0-3.6,3-6.6,6.6-6.6h59.6c3.6,0,6.6,2.9,6.6,6.6c0,0,0,0,0,0l0,0v57.8c0,3.7-3,6.6-6.6,6.6H36.6
	C33,274.1,30,271.1,30,267.5z M97,363.2H37.4c-3.7,0-6.6-3-6.6-6.6v-57.7c0-3.7,3-6.6,6.6-6.6H97c3.7,0,6.6,3,6.6,6.6v57.7
	C103.6,360.2,100.7,363.2,97,363.2C97,363.2,97,363.2,97,363.2z M121.4,268.2v-57.7c0-3.6,3-6.6,6.6-6.6h59.6c3.7,0,6.6,3,6.6,6.6
	l0,0l0,0v57.7c0,3.7-2.9,6.6-6.6,6.6h0H128C124.3,274.8,121.4,271.9,121.4,268.2C121.4,268.2,121.4,268.2,121.4,268.2L121.4,268.2
	L121.4,268.2z M122.9,358v-57.7c0-3.7,3-6.6,6.6-6.6h59.6c3.6,0,6.6,2.9,6.6,6.6c0,0,0,0,0,0l0,0V358c0,3.7-3,6.6-6.6,6.6h-59.6
	C125.8,364.6,122.9,361.7,122.9,358z"/>
<path class="st1" d="M110.6,91h1c6.6,0,12,5.4,12,12v22c0,6.6-5.4,12-12,12h-1c-6.6,0-12-5.4-12-12v-22C98.6,96.4,104,91,110.6,91z"
	/>
<path class="st1" d="M186.1,102.5h-2c-5,0-9-4-9-9v-1c0-5,4-9,9-9h2.5V80c0-6.6-5.4-12-12-12h-64c-6.6,0-12,5.4-12,12v23
	c0,6.6,5.4,12,12,12h64c6.6,0,12-5.4,12-12v-0.5C186.4,102.5,186.3,102.5,186.1,102.5z"/>
<path class="st3" d="M782.7,292.8c-1.2-23.7-2.6-52.5-2-75.9h-1c-4.1,23.1-9.8,48.8-14.9,69L742.9,372h-23l-20.8-83.7
	c-5.4-21.5-11.3-47.8-14.9-71.4h-0.9c-0.3,23.9-1.7,51.9-2.9,77l-3.8,80.6h-29.2l14-211.6h35.7l20.5,85.7
	c6.4,27.3,11.8,49.5,15.9,73.5h0.8c3.6-23.8,8.3-46,14.5-73.5l20-85.7h36.1l12.5,211.6h-30.5L782.7,292.8z"/>
<path class="st3" d="M868.6,212l17.3,83.3c2.1,10.3,3.5,19.3,5.2,28.3h0.6c1.3-8.2,3.2-18.2,5-27.9l15.1-83.6h32.9l-28.4,109.1
	c-8.4,33.1-18.7,66-35.8,87.2c-12,14.5-25.6,21.6-31.5,23.7l-10.8-28.8c7-3.1,14.3-8.6,20.9-15.6c5.6-6.4,10.1-13.7,13.2-21.6
	c1.2-3.1,1.9-4.9,1.9-7.1c0-1.9-0.4-3.8-1-5.6L832.8,212H868.6z"/>
<path class="st3" d="M997.5,153.2v139.4c0,34.3,10.8,45.3,24,45.3c14.5,0,24.4-10.9,24.4-45.3V153.2h33.5v133.8
	c0,54.7-21.5,80.4-58,80.4c-38.7,0-57.5-26.2-57.5-78.9V153.2H997.5z"/>
<path class="st3" d="M1112.8,255c0-17.3-0.8-29.5-1.3-43.1h29l1.7,18h0.6c7.5-12.8,21.3-20.7,36.2-20.5c25.5,0,39,19.8,39,55.2
	v100.1h-33.4v-96.9c0-15.3-3.2-30.2-17.8-30.2c-8.3,0-15.8,6.4-18.7,18.7c-1.2,4.5-1.8,9.2-1.7,13.9v94.5h-33.5L1112.8,255z"/>
<path class="st3" d="M1283.6,171.9c0.2,11.5-7.6,19.3-18.5,19.3c-9.8,0-17.6-7.8-17.4-19.3c-0.2-11.9,8-19.5,17.9-19.5
	C1276,152.4,1283.6,160,1283.6,171.9z M1249.1,364.8V212h33.5v152.9H1249.1z"/>
</svg>
