<?xml version="1.0" encoding="UTF-8" standalone="no"?>
<!-- Generator: Adobe Illustrator 26.2.1, SVG Export Plug-In . SVG Version: 6.00 Build 0)  -->

<svg
   version="1.1"
   id="Layer_3"
   x="0px"
   y="0px"
   viewBox="0 0 1530.3 541"
   style="enable-background:new 0 0 1530.3 541;"
   xml:space="preserve"
   sodipodi:docname="My Uni public page.svg"
   inkscape:version="1.1.2 (b8e25be833, 2022-02-05)"
   xmlns:inkscape="http://www.inkscape.org/namespaces/inkscape"
   xmlns:sodipodi="http://sodipodi.sourceforge.net/DTD/sodipodi-0.dtd"
   xmlns="http://www.w3.org/2000/svg"
   xmlns:svg="http://www.w3.org/2000/svg"><defs
   id="defs32" /><sodipodi:namedview
   id="namedview30"
   pagecolor="#ffffff"
   bordercolor="#666666"
   borderopacity="1.0"
   inkscape:pageshadow="2"
   inkscape:pageopacity="0.0"
   inkscape:pagecheckerboard="0"
   showgrid="false"
   inkscape:zoom="0.29595627"
   inkscape:cx="1027.1788"
   inkscape:cy="489.93725"
   inkscape:window-width="1920"
   inkscape:window-height="974"
   inkscape:window-x="-9"
   inkscape:window-y="-9"
   inkscape:window-maximized="1"
   inkscape:current-layer="Layer_3" />
<style
   type="text/css"
   id="style2">
	.st0{fill:#5555AA;}
	.st1{fill:url(#SVGID_1_);}
	.st2{fill:url(#SVGID_00000073710829774044674250000012627970282933730211_);}
	.st3{fill:url(#SVGID_00000041283495733953836260000014387182015126903171_);}
</style>
<path
   class="st0"
   d="m 271.79326,275.74423 c -1.8183,-35.91137 -3.93965,-79.55051 -3.0305,-115.00731 h -1.51525 c -6.21251,35.00222 -14.84943,73.94409 -22.57719,104.5521 l -33.0324,130.46285 H 176.78721 L 145.27005,268.92562 c -8.18234,-32.57783 -17.1223,-72.42885 -22.5772,-108.1887 h -1.36372 c -0.45457,36.21442 -2.57592,78.64136 -4.39422,116.67408 l -5.75794,122.12898 H 66.931733 L 88.145204,78.913524 h 54.094356 l 31.06258,129.856746 c 9.69759,41.36627 17.87993,75.00478 24.09245,111.37073 h 1.21219 c 5.4549,-36.0629 12.57656,-69.70141 21.9711,-111.37073 L 250.88284,78.913524 h 54.70044 l 18.9406,320.626456 h -46.21506 z"
   id="path4"
   style="stroke-width:1.51525" />
<path
   class="st0"
   d="m 401.95305,167.85858 26.21379,126.22015 c 3.18202,15.60705 5.30337,29.24429 7.87929,42.88152 h 0.90915 c 1.96982,-12.42504 4.84879,-27.57751 7.57624,-42.27542 l 22.88024,-126.67472 h 49.85166 l -43.03304,165.31354 c -12.72809,50.15471 -28.33514,100.00636 -54.24588,132.12962 -18.18297,21.97109 -38.79035,32.72935 -47.73031,35.91137 L 355.88951,457.7255 c 10.60674,-4.69726 21.66805,-13.03113 31.66869,-23.63786 8.48538,-9.69759 15.304,-20.7589 20.00127,-32.72936 1.8183,-4.69727 2.87897,-7.42471 2.87897,-10.75826 0,-2.87897 -0.6061,-5.75794 -1.51525,-8.48539 L 347.55565,168.01011 Z"
   id="path6"
   style="stroke-width:1.51525" />
<linearGradient
   id="SVGID_1_"
   gradientUnits="userSpaceOnUse"
   x1="900.3"
   y1="292.3"
   x2="1015.8"
   y2="292.3"
   gradientTransform="matrix(1.5152479,0,0,-1.5152479,-817.82151,683.95202)">
	<stop
   offset="0"
   style="stop-color:#FF7A00"
   id="stop8" />
	<stop
   offset="0.9382"
   style="stop-color:#E9A800"
   id="stop10" />
</linearGradient>
<path
   class="st1"
   d="m 597.2685,78.762 v 211.22556 c 0,51.973 16.36468,68.64073 36.36595,68.64073 21.9711,0 36.97205,-16.5162 36.97205,-68.64073 V 78.762 h 50.76081 v 202.74017 c 0,82.88406 -32.57783,121.82593 -87.88438,121.82593 -58.64009,0 -87.12675,-39.69949 -87.12675,-119.55305 V 78.762 Z"
   id="path13"
   style="fill:url(#SVGID_1_);stroke-width:1.51525" />
<linearGradient
   id="SVGID_00000070798405027264836750000010525560393225200560_"
   gradientUnits="userSpaceOnUse"
   x1="1047.8999"
   y1="265.4519"
   x2="1154.3998"
   y2="265.4519"
   gradientTransform="matrix(1.5152479,0,0,-1.5152479,-817.82151,683.95202)">
	<stop
   offset="0"
   style="stop-color:#FF7A00"
   id="stop15" />
	<stop
   offset="0.9382"
   style="stop-color:#E9A800"
   id="stop17" />
</linearGradient>
<path
   style="fill:url(#SVGID_00000070798405027264836750000010525560393225200560_);stroke-width:1.51525"
   d="m 771.97659,233.16577 c 0,-26.21379 -1.2122,-44.69982 -1.96983,-65.30719 h 43.94219 l 2.57592,27.27446 h 0.90915 c 11.36436,-19.39517 32.27478,-31.36563 54.85198,-31.06258 38.63882,0 59.09467,30.00191 59.09467,83.64169 V 399.38846 H 880.77139 V 252.56094 c 0,-23.18329 -4.8488,-45.76049 -26.97142,-45.76049 -12.57655,0 -23.94091,9.69759 -28.33513,28.33514 -1.8183,6.81861 -2.72745,13.94028 -2.57592,21.06194 v 143.19093 h -50.76081 z"
   id="path20" />
<linearGradient
   id="SVGID_00000029738858270960219950000003694052380563693733_"
   gradientUnits="userSpaceOnUse"
   x1="1184.0469"
   y1="293.9"
   x2="1220.0031"
   y2="293.9"
   gradientTransform="matrix(1.5152479,0,0,-1.5152479,-817.82151,683.95202)">
	<stop
   offset="0"
   style="stop-color:#FF7A00"
   id="stop22" />
	<stop
   offset="0.9382"
   style="stop-color:#E9A800"
   id="stop24" />
</linearGradient>
<path
   style="fill:url(#SVGID_00000029738858270960219950000003694052380563693733_);stroke-width:1.51525"
   d="m 1030.7809,107.24866 c 0.3031,17.42535 -11.5159,29.24429 -28.0321,29.24429 -14.84939,0 -26.66832,-11.81894 -26.36527,-29.24429 -0.30305,-18.03145 12.12198,-29.547334 27.12297,-29.547334 15.7585,0 27.2744,11.515884 27.2744,29.547334 z m -52.27603,292.29132 v -231.6814 h 50.76083 v 231.6814 z"
   id="path27" />
</svg>
