<?xml version="1.0" encoding="UTF-8" standalone="no"?>
<!-- Generator: Adobe Illustrator 26.2.1, SVG Export Plug-In . SVG Version: 6.00 Build 0)  -->

<svg
   version="1.1"
   id="Layer_3"
   x="0px"
   y="0px"
   viewBox="0 0 1530.3 541"
   style="enable-background:new 0 0 1530.3 541;"
   xml:space="preserve"
   sodipodi:docname="My Uni public page.svg"
   inkscape:version="1.1.2 (b8e25be833, 2022-02-05)"
   xmlns:inkscape="http://www.inkscape.org/namespaces/inkscape"
   xmlns:sodipodi="http://sodipodi.sourceforge.net/DTD/sodipodi-0.dtd"
   xmlns="http://www.w3.org/2000/svg"
   xmlns:svg="http://www.w3.org/2000/svg"><defs
   id="defs48" /><sodipodi:namedview
   id="namedview46"
   pagecolor="#ffffff"
   bordercolor="#666666"
   borderopacity="1.0"
   inkscape:pageshadow="2"
   inkscape:pageopacity="0.0"
   inkscape:pagecheckerboard="0"
   showgrid="false"
   inkscape:zoom="0.83709074"
   inkscape:cx="434.83936"
   inkscape:cy="174.41359"
   inkscape:window-width="2100"
   inkscape:window-height="1246"
   inkscape:window-x="2391"
   inkscape:window-y="24"
   inkscape:window-maximized="1"
   inkscape:current-layer="Layer_3" />
<style
   type="text/css"
   id="style2">
	.st0{fill:#FFFFFF;}
	.st1{fill:none;stroke:#FFFFFF;stroke-width:0.5;stroke-linecap:round;stroke-linejoin:bevel;}
	.st2{fill:#5555AA;}
	.st3{fill:url(#SVGID_1_);}
	.st4{fill:url(#SVGID_00000047773252213448529970000008772572310864657810_);}
	.st5{fill:url(#SVGID_00000168801663493453729890000003151542648200964273_);}
</style>
<path
   class="st0"
   d="M360.5,105.5c-0.2-0.6-0.5-1.2-0.9-1.7c-0.2-0.3-0.4-0.7-0.6-1c-0.4-1.4-1.2-2.5-2.4-3.4  c-7.3-9.1-18.3-14.4-29.9-14.3c-20.6,0-37.3,15.8-37.3,35.2c0,7.8,4.9,19.6,15.3,37.3c7.1,12,14.2,22.2,14.5,22.7l5.1,7.3  c0.5,0.7,1.4,1.2,2.3,1.2c0.9,0,1.8-0.4,2.3-1.2l5.1-7.2c0.3-0.4,7.3-10.5,14.5-22.7c10.4-17.6,15.3-29.5,15.3-37.3  C364,115.3,362.8,110.2,360.5,105.5z M326.8,105.9c8.3,0,15.1,6.4,15.1,14.2s-6.8,14.2-15.1,14.2s-15.1-6.4-15.1-14.2  S318.4,105.9,326.8,105.9z"
   id="path4" />
<path
   class="st0"
   d="M388.8,242.9c-0.4-1-1-1.9-1.7-2.8c-1.1-2.1-3.6-3.7-5.5-4.6c-2.9-1.4-6-2.1-9.2-1.9H272.3  c-2.2,0-4.4,0.9-5.9,2.5c-0.5,0.6-1,1.2-1.5,1.8c-0.9,1.3-1.4,2.9-1.4,4.5v210.9c0,0.5,0,1,0.1,1.4c0,0.1,0,0.3,0,0.4  c0.1,0.9,0.1,1.9,0.1,2.9c0,0.5,0.1,1.1,0.2,1.6c0.2,2,1.1,3.8,2.7,5c2.1,1.5,4.5,2.5,7.1,2.7l0.2,0.1c0.4,0.1,0.7,0.2,1.1,0.1  c0.5,0.1,0.9,0.1,1.4,0.1c20-0.1,35.6,2.8,47.6,7.8c45,18.5,43.4,39.3,39.2,59.6c-0.9,4.4,2,2.4,6.4,3.3c2.5-32.2-0.5,0,0,0H382  c4.5,0,7.8,3.1,7.8-1.4l0,0V247.1C389.9,245.6,389.5,244.2,388.8,242.9z M326.8,446.3c0,4.5-3.6,8.1-8.1,8.1c0,0,0,0,0,0h-10.6  c-4.5,0-8.1-3.6-8.1-8.1l0,0v-44.7c0-4.5,3.6-8.1,8.1-8.1c0,0,0,0,0,0h10.6c4.5,0,8.1,3.6,8.1,8.1c0,0,0,0,0,0L326.8,446.3z   M326.8,347.9c0,4.5-3.6,8.1-8.1,8.1h-10.6c-4.5,0-8.1-3.6-8.1-8.1v-44.7c0-4.5,3.6-8.1,8.1-8.1h10.6c4.5,0,8.1,3.6,8.1,8.1  c0,0,0,0,0,0l0,0L326.8,347.9z"
   id="path6" />
<path
   class="st0"
   d="M41.2,541l305.9-0.3c0,0,20.5-57.3-64.9-55.9l-210.6-6.3c-1.4,0-5.4,0.2-4,0.5C88.7,484,53.1,454.2,41.2,541z"
   id="path8" />
<path
   class="st0"
   d="M216.3,173.4L216.3,173.4l-0.4-0.3c-0.5-0.4-1-0.8-1.5-1.1c-0.1-0.1-0.3-0.2-0.4-0.3h1.2  c-2-2.2-4.1-4.3-6.3-6.3c-0.3-0.2-0.5-0.4-0.7-0.6l-0.1-0.1c-0.3-0.2-0.5-0.4-0.7-0.6l-0.1-0.1L207,164l-0.5-0.4  c-0.3-0.1-0.5-0.3-0.7-0.4c-0.3-0.1-0.6-0.3-0.9-0.5c-107.8-55.8-83.1-44.4-194.5,4.1c-0.7,1-1.6,1.7-2.7,2.1  c-0.3,0.9-0.8,1.7-1.4,2.4c0,0.5-0.1,1-0.2,1.5l202.2-1c-0.2,0.3-0.4,0.6-0.5,1c-0.4,1.6,0.5,3.2,2.1,3.7c0.4,0.1,0.8,0.2,1.2,0.4  c0.2,0.1,0.3,0.2,0.5,0.3c0.7,0.6,1.5,1.2,2.3,1.7c1.4,0.9,3.2,0.6,4.2-0.8c0.3-0.5,0.5-1,0.5-1.6  C217.6,175.4,217,174.4,216.3,173.4z"
   id="path10" />
<path
   class="st0"
   d="M195.7,453.4c1.2,12.3,12,10.3,21.4,7.2c2.7-0.9,4.6-3.4,4.6-6.3V189.1c-0.9-5.5-2.1-10.8-5.5-15.6  c-1.2-2.2-3.5-3.5-6-3.6H8.4c-3.6,0-6.2,2.8-6.8,6.2c-0.4,1.5-0.7,3.1-0.7,4.7c-0.1,1.2-0.7,2.4-0.7,3.6v272.8c0,3.7,3,6.6,6.6,6.6  h26.6c0.1-0.2,0.1-0.4-0.1-0.6c-1.6-1.1-2.5-2.8-2.7-4.7v-70c0-3.7,3-6.6,6.6-6.6c0,0,0,0,0,0H97c3.7,0,6.6,3,6.6,6.6l0,0v64.9  c-0.2,2.1,0,4.2,0.6,6.3c1,4.3,8.6,3.4,13.6,2.4c3-0.7,5.2-3.3,5.2-6.5v-67.1c0-3.7,3-6.6,6.6-6.6h59.6c3.7,0,6.6,3,6.6,6.6  L195.7,453.4z M30,267.5v-57.7c0-3.6,3-6.6,6.6-6.6h59.6c3.6,0,6.6,2.9,6.6,6.6c0,0,0,0,0,0l0,0v57.8c0,3.7-3,6.6-6.6,6.6H36.6  C33,274.1,30,271.1,30,267.5z M97,363.2H37.4c-3.7,0-6.6-3-6.6-6.6v-57.7c0-3.7,3-6.6,6.6-6.6H97c3.7,0,6.6,3,6.6,6.6v57.7  C103.6,360.2,100.7,363.2,97,363.2C97,363.2,97,363.2,97,363.2z M121.4,268.2v-57.7c0-3.6,3-6.6,6.6-6.6h59.6c3.7,0,6.6,3,6.6,6.6  l0,0l0,0v57.7c0,3.7-2.9,6.6-6.6,6.6h0H128C124.3,274.8,121.4,271.9,121.4,268.2C121.4,268.2,121.4,268.2,121.4,268.2L121.4,268.2  L121.4,268.2z M122.9,358v-57.7c0-3.7,3-6.6,6.6-6.6h59.6c3.6,0,6.6,2.9,6.6,6.6c0,0,0,0,0,0l0,0V358c0,3.7-3,6.6-6.6,6.6h-59.6  C125.8,364.6,122.9,361.7,122.9,358z"
   id="path12" />
<path
   class="st1"
   d="M195.7,453.4c1.2,12.3,12,10.3,21.4,7.2c2.7-0.9,4.6-3.4,4.6-6.3V189.1c-0.9-5.5-2.1-10.8-5.5-15.6  c-1.2-2.2-3.5-3.5-6-3.6H8.4c-3.6,0-6.2,2.8-6.8,6.2c-0.4,1.5-0.7,3.1-0.7,4.7c-0.1,1.2-0.7,2.4-0.7,3.6v272.8c0,3.7,3,6.6,6.6,6.6  h26.6c0.1-0.2,0.1-0.4-0.1-0.6c-1.6-1.1-2.5-2.8-2.7-4.7v-70c0-3.7,3-6.6,6.6-6.6c0,0,0,0,0,0H97c3.7,0,6.6,3,6.6,6.6l0,0v64.9  c-0.2,2.1,0,4.2,0.6,6.3c1,4.3,8.6,3.4,13.6,2.4c3-0.7,5.2-3.3,5.2-6.5v-67.1c0-3.7,3-6.6,6.6-6.6h59.6c3.7,0,6.6,3,6.6,6.6  L195.7,453.4z M30,267.5v-57.7c0-3.6,3-6.6,6.6-6.6h59.6c3.6,0,6.6,2.9,6.6,6.6c0,0,0,0,0,0l0,0v57.8c0,3.7-3,6.6-6.6,6.6H36.6  C33,274.1,30,271.1,30,267.5z M97,363.2H37.4c-3.7,0-6.6-3-6.6-6.6v-57.7c0-3.7,3-6.6,6.6-6.6H97c3.7,0,6.6,3,6.6,6.6v57.7  C103.6,360.2,100.7,363.2,97,363.2C97,363.2,97,363.2,97,363.2z M121.4,268.2v-57.7c0-3.6,3-6.6,6.6-6.6h59.6c3.7,0,6.6,3,6.6,6.6  l0,0l0,0v57.7c0,3.7-2.9,6.6-6.6,6.6h0H128C124.3,274.8,121.4,271.9,121.4,268.2C121.4,268.2,121.4,268.2,121.4,268.2L121.4,268.2  L121.4,268.2z M122.9,358v-57.7c0-3.7,3-6.6,6.6-6.6h59.6c3.6,0,6.6,2.9,6.6,6.6c0,0,0,0,0,0l0,0V358c0,3.7-3,6.6-6.6,6.6h-59.6  C125.8,364.6,122.9,361.7,122.9,358z"
   id="path14" />
<path
   class="st0"
   d="M110.6,91h1c6.6,0,12,5.4,12,12v22c0,6.6-5.4,12-12,12h-1c-6.6,0-12-5.4-12-12v-22C98.6,96.4,104,91,110.6,91z"
   id="path16" />
<path
   class="st0"
   d="M186.1,102.5h-2c-5,0-9-4-9-9v-1c0-5,4-9,9-9h2.5V80c0-6.6-5.4-12-12-12h-64c-6.6,0-12,5.4-12,12v23  c0,6.6,5.4,12,12,12h64c6.6,0,12-5.4,12-12v-0.5C186.4,102.5,186.3,102.5,186.1,102.5z"
   id="path18" />
<path
   class="st2"
   d="m 258.84467,278.20134 c -1.69846,-33.44649 -3.67999,-74.09033 -2.83076,-107.11345 h -1.41539 c -5.80306,32.59975 -13.87074,68.86873 -21.08919,97.37587 L 202.65398,389.97189 H 170.10017 L 140.66021,271.85074 C 133.01714,241.50899 124.66638,204.39326 119.571,171.08789 h -1.27385 c -0.42461,33.72874 -2.40615,73.24358 -4.10461,108.66582 L 108.81409,393.5 H 67.484912 L 87.300277,94.880695 h 50.529163 l 29.01535,120.943635 c 9.05845,38.52698 16.70151,69.8566 22.50458,103.72647 h 1.13231 c 5.09537,-33.58762 11.74768,-64.91725 20.52305,-103.72647 L 239.31239,94.880695 h 51.09532 L 308.1,393.5 h -43.16918 z"
   id="path20"
   style="stroke-width:1.41331" />
<path
   class="st2"
   d="m 380.42607,177.72074 24.48611,117.55666 c 2.97231,14.53582 4.95384,27.23701 7.35999,39.93822 h 0.84923 c 1.84,-11.57221 4.52924,-25.68465 7.07692,-39.37372 L 441.5706,177.86186 h 46.56609 l -40.19687,153.96676 c -11.88921,46.7122 -26.46765,93.14213 -50.6707,123.06052 -16.98459,20.46303 -36.2338,30.48288 -44.58456,33.44649 l -15.28614,-40.64384 c 9.90769,-4.37485 20.23998,-12.13671 29.5815,-22.01541 7.92614,-9.03196 14.29538,-19.33405 18.68306,-30.48288 1.69846,-4.37486 2.68923,-6.9151 2.68923,-10.01984 0,-2.68136 -0.56615,-5.36272 -1.41538,-7.90296 L 329.61382,177.86186 h 50.81225 z"
   id="path22"
   style="stroke-width:1.41331" />
<linearGradient
   id="SVGID_1_"
   gradientUnits="userSpaceOnUse"
   x1="900.41"
   y1="249.725"
   x2="1015.88"
   y2="249.725"
   gradientTransform="matrix(1.4153829,0,0,1.4112444,-758.95713,-106.50388)">
	<stop
   offset="0"
   style="stop-color:#FF7A00"
   id="stop24" />
	<stop
   offset="0.9382"
   style="stop-color:#E9A800"
   id="stop26" />
</linearGradient>
<path
   class="st3"
   d="M 562.86891,94.739571 V 291.46703 c 0,48.40569 15.28614,63.92938 33.96919,63.92938 20.52305,0 34.53534,-15.38256 34.53534,-63.92938 V 94.739571 h 47.41533 V 283.56407 c 0,77.19506 -30.43073,113.46404 -82.09221,113.46404 -54.77531,0 -81.38451,-36.9746 -81.38451,-111.34718 V 94.739571 Z"
   id="path29"
   style="fill:url(#SVGID_1_);stroke-width:1.41331" />
<linearGradient
   id="SVGID_00000120523815020757097720000008066046318698132667_"
   gradientUnits="userSpaceOnUse"
   x1="1047.98"
   y1="276.5985"
   x2="1154.45"
   y2="276.5985"
   gradientTransform="matrix(1.4153829,0,0,1.4112444,-758.95713,-106.50388)">
	<stop
   offset="0"
   style="stop-color:#FF7A00"
   id="stop31" />
	<stop
   offset="0.9382"
   style="stop-color:#E9A800"
   id="stop33" />
</linearGradient>
<path
   style="fill:url(#SVGID_00000120523815020757097720000008066046318698132667_);stroke-width:1.41331"
   d="m 726.06256,238.54537 c 0,-24.41453 -1.13231,-41.6317 -1.84,-60.82463 h 41.0461 l 2.40615,25.4024 h 0.84923 c 10.61537,-18.06393 30.14766,-29.21276 51.23685,-28.93051 36.09227,0 55.19994,27.94264 55.19994,77.90069 V 393.35888 H 827.68705 V 256.6093 c 0,-21.59204 -4.52923,-42.61958 -25.19382,-42.61958 -11.74768,0 -22.36305,9.03197 -26.46766,26.39027 -1.69846,6.3506 -2.54769,12.98344 -2.40615,19.6163 v 133.36259 h -47.41533 z"
   id="path36" />
<linearGradient
   id="SVGID_00000168085415002414273240000000038543821531138700_"
   gradientUnits="userSpaceOnUse"
   x1="1184.0469"
   y1="248.085"
   x2="1220.0031"
   y2="248.085"
   gradientTransform="matrix(1.4153829,0,0,1.4112444,-758.95713,-106.50388)">
	<stop
   offset="0"
   style="stop-color:#FF7A00"
   id="stop38" />
	<stop
   offset="0.9382"
   style="stop-color:#E9A800"
   id="stop40" />
</linearGradient>
<path
   style="fill:url(#SVGID_00000168085415002414273240000000038543821531138700_);stroke-width:1.41331"
   d="m 967.80995,121.27097 c 0.28308,16.2293 -10.75692,27.23701 -26.18458,27.23701 -13.87076,0 -24.91075,-11.00771 -24.62767,-27.23701 -0.28308,-16.79382 11.32306,-27.51927 25.33536,-27.51927 14.71997,0 25.47689,10.72545 25.47689,27.51927 z M 918.97924,393.5 V 177.72074 h 47.41532 V 393.5 Z"
   id="path43" />
</svg>
