<?xml version="1.0" encoding="UTF-8" standalone="no"?>
<svg
   viewBox="0 0 2245.0394 1587.4015"
   version="1.1"
   id="svg869"
   sodipodi:docname="1-floor — копия (2).svg"
   inkscape:version="1.1.2 (b8e25be833, 2022-02-05)"
   width="594mm"
   height="420mm"
   xmlns:inkscape="http://www.inkscape.org/namespaces/inkscape"
   xmlns:sodipodi="http://sodipodi.sourceforge.net/DTD/sodipodi-0.dtd"
   xmlns="http://www.w3.org/2000/svg"
   xmlns:svg="http://www.w3.org/2000/svg">
  <sodipodi:namedview
     id="namedview871"
     pagecolor="#ffffff"
     bordercolor="#666666"
     borderopacity="1.0"
     inkscape:pageshadow="2"
     inkscape:pageopacity="0.0"
     inkscape:pagecheckerboard="0"
     showgrid="false"
     inkscape:zoom="0.58179568"
     inkscape:cx="1515.1367"
     inkscape:cy="1089.7296"
     inkscape:window-width="1920"
     inkscape:window-height="974"
     inkscape:window-x="-9"
     inkscape:window-y="-9"
     inkscape:window-maximized="1"
     inkscape:current-layer="g424"
     units="mm"
     inkscape:document-units="mm"
     showguides="false" />
  <defs
     id="defs443">
    <style
       id="style441">.cls-1{fill:#eae3fc;}.cls-2{fill:#6a5fd3;}.cls-3{fill:#47479c;}.cls-4{fill:#dce7fd;}.cls-5{fill:#849ff3;}.cls-6{fill:#5757cb;}.cls-7{font-size:27px;font-family:ArialRoundedMTBold, Arial Rounded MT Bold;}.cls-8{font-size:14px;}.cls-10,.cls-22,.cls-8{font-family:MyriadPro-Regular, Myriad Pro;}.cls-9{fill:#8ac4dd;}.cls-10{font-size:12px;}.cls-11{letter-spacing:0.01em;}.cls-12{letter-spacing:-0.01em;}.cls-13{letter-spacing:-0.01em;}.cls-14{letter-spacing:0.02em;}.cls-15{letter-spacing:0em;}.cls-16{letter-spacing:-0.01em;}.cls-17{letter-spacing:0em;}.cls-18{letter-spacing:0em;}.cls-19{letter-spacing:0em;}.cls-20{letter-spacing:0em;}.cls-21{letter-spacing:0em;}.cls-22{font-size:5px;}.cls-23{letter-spacing:-0.01em;}.cls-24{letter-spacing:0em;}.cls-25{letter-spacing:0em;}.cls-26{letter-spacing:-0.01em;}.cls-27{letter-spacing:0em;}.cls-28{letter-spacing:0.01em;}.cls-29,.cls-30{fill:none;stroke:#6a5fd3;stroke-miterlimit:10;}.cls-29{stroke-linecap:round;stroke-width:2px;}.cls-30{stroke-width:5px;}</style>
  </defs>
  <g
     id="Layer_2"
     data-name="Layer 2"
     transform="matrix(1.5747307,0,0,1.5747307,-246.63097,-188.6586)">
    <g
       id="g424"
       transform="matrix(0.89928248,0,0,0.89928248,-59.010639,227.62426)">
      <g
         id="overlay">
        <path
           class="cls-1"
           d="m 544,916.6 a 3,3 0 0 1 -3,-3 v -47.29 a 3,3 0 0 1 3,-3 h 90 V 737 h -57.84 v 17.33 a 3,3 0 0 1 -3,3 h -58.8 a 3,3 0 0 1 -3,-3 V 737 h -251 a 3,3 0 0 1 -3,-3 V 481 a 3,3 0 0 1 3,-3 H 569 v -17 a 3,3 0 0 1 3,-3 h 68 a 3,3 0 0 1 3,3 v 18.27 l 365,3 v -20.49 a 2.7,2.7 0 0 1 0,-0.49 31.67,31.67 0 0 1 20.45,-24.62 31.2,31.2 0 0 1 10.45,-1.8 32.13,32.13 0 0 1 22.7,9.52 2.44,2.44 0 0 1 0.32,0.4 l 14.18,20.38 1.38,-1.09 452.7,-329.78 a 3,3 0 0 1 1.76,-0.57 2.63,2.63 0 0 1 0.49,0 3,3 0 0 1 2,1.22 l 156.12,220.5 59.74,-40.8 a 3.06,3.06 0 0 1 1.7,-0.52 3.41,3.41 0 0 1 0.55,0.05 3,3 0 0 1 1.93,1.26 l 42.5,62.65 a 3,3 0 0 1 -0.76,4.14 l -760.74,533.83 a 3,3 0 0 1 -1.72,0.54 z"
           id="path445" />
        <path
           class="cls-2"
           d="m 1532,136.73 157.83,222.9 62.17,-42.46 42.5,62.64 -760.75,533.79 H 544 v -47.29 h 93 V 734 h -63.84 v 20.33 h -58.8 V 734 h -254 V 481 H 572 v -20 h 68 v 21.25 l 371,3.07 v -23.54 a 28.65,28.65 0 0 1 18.5,-22.28 28,28 0 0 1 9.44,-1.63 29,29 0 0 1 20.56,8.63 l 16,23 3.78,-3 L 1532,136.73 m 0,-6 a 5.94,5.94 0 0 0 -3.53,1.15 l -451.64,329 -12.38,-17.81 a 6.18,6.18 0 0 0 -0.66,-0.78 35.11,35.11 0 0 0 -24.79,-10.42 33.87,33.87 0 0 0 -11.47,2 34.68,34.68 0 0 0 -22.4,26.94 6.61,6.61 0 0 0 -0.08,1 v 17.49 l -359,-3 V 461 a 6,6 0 0 0 -6,-6 H 572 a 6,6 0 0 0 -6,6 v 14 H 260.32 a 6,6 0 0 0 -6,6 v 253 a 6,6 0 0 0 6,6 h 248 v 14.33 a 6,6 0 0 0 6,6 h 58.8 a 6,6 0 0 0 6,-6 V 740 H 631 v 120.31 h -87 a 6,6 0 0 0 -6,6 v 47.29 a 6,6 0 0 0 6,6 h 489.75 a 6,6 0 0 0 3.44,-1.09 l 760.74,-533.79 a 6,6 0 0 0 1.52,-8.28 L 1757,313.8 a 6,6 0 0 0 -3.84,-2.53 6.14,6.14 0 0 0 -1.12,-0.1 6.07,6.07 0 0 0 -3.39,1 l -57.31,39.14 -154.46,-218.05 a 6,6 0 0 0 -3.93,-2.45 5.22,5.22 0 0 0 -1,-0.08 z"
           id="path447" />
      </g>
      <rect
         class="cls-3"
         x="1437.34"
         y="174.77"
         width="134.75"
         height="102.7"
         rx="10"
         transform="rotate(-35.6,1504.5895,226.132)"
         id="rect450" />
      <rect
         class="cls-4"
         x="1411.79"
         y="227.53999"
         width="40.110001"
         height="119.85"
         rx="10"
         transform="matrix(0.81,-0.58,0.58,0.81,100.24,887.17)"
         id="rect452" />
      <rect
         class="cls-4"
         x="1012.79"
         y="453.98001"
         width="518.12"
         height="43"
         rx="10"
         transform="rotate(-35.6,1271.7311,475.47612)"
         id="rect454" />
      <rect
         class="cls-5"
         x="1356.33"
         y="407.23001"
         width="181.55"
         height="185.63"
         rx="9"
         transform="rotate(-34.61,1446.9696,500.04582)"
         id="rect456" />
      <rect
         class="cls-6"
         x="1294.08"
         y="484.70999"
         width="81.709999"
         height="185.28999"
         rx="10"
         transform="rotate(-34.61,1334.8054,577.33822)"
         id="rect458" />
      <rect
         class="cls-5"
         x="1505.01"
         y="307.45999"
         width="184.87"
         height="174.69"
         rx="10"
         transform="rotate(55.32,1597.3849,394.74438)"
         id="rect460" />
      <rect
         class="cls-5"
         x="1496.36"
         y="282.12"
         width="188.24001"
         height="134.52"
         rx="10"
         transform="rotate(55.32,1590.4129,349.33139)"
         id="rect462" />
      <rect
         class="cls-5"
         x="1242.52"
         y="299.39001"
         width="181.3"
         height="89.760002"
         rx="10"
         transform="rotate(-35.6,1333.0413,344.28191)"
         id="rect464" />
      <text
         class="cls-7"
         transform="rotate(-34.67,1241.973,-1928.7505)"
         id="text466">105</text>
      <text
         class="cls-7"
         transform="rotate(-34.67,1442.3534,-2328.5418)"
         id="text468">106</text>
      <text
         class="cls-7"
         transform="rotate(-34.67,1570.1887,-2028.4654)"
         id="text470">107</text>
      <rect
         class="cls-5"
         x="1098.86"
         y="435.16"
         width="89.410004"
         height="89.099998"
         rx="10"
         transform="rotate(-35.6,1143.4615,479.69603)"
         id="rect472" />
      <rect
         class="cls-5"
         x="1174.71"
         y="382.70999"
         width="87.860001"
         height="88.089996"
         rx="10"
         transform="rotate(-35.6,1218.5394,426.75533)"
         id="rect474" />
      <text
         class="cls-7"
         transform="matrix(0.82,-0.57,0.57,0.82,1200.05,444.89)"
         id="text478">104<tspan
   class="cls-8"
   x="48.130001"
   y="0"
   id="tspan476">а</tspan></text>
      <text
         class="cls-7"
         transform="matrix(0.83,-0.56,0.56,0.83,1129.06,498.63)"
         id="text480">104</text>
      <rect
         class="cls-5"
         x="1206"
         y="554"
         width="88"
         height="45"
         rx="10"
         transform="rotate(55,1250.0077,576.50746)"
         id="rect482" />
      <text
         class="cls-7"
         transform="rotate(53.69,58.670344,1493.2543)"
         id="text484">109</text>
      <text
         class="cls-7"
         transform="rotate(54.99,122.25405,1534.1829)"
         id="text486">108</text>
      <path
         class="cls-9"
         d="M 1017,572 V 461.4 c 0,0 7.22,-33.69 37.61,-9.54 30.39,24.15 64.46,87.1 64.46,87.1 L 1094,557 1057.68,507.57 c 0,0 -5.68,-6.57 -9.68,2.43 v 66 h -31 z"
         id="path488" />
      <text
         class="cls-10"
         transform="translate(1026.15,488.06)"
         id="text498">1-1 <tspan
   class="cls-11"
   x="18.540001"
   y="0"
   id="tspan490">с</tspan><tspan
   class="cls-12"
   x="24.02"
   y="0"
   id="tspan492">х</tspan><tspan
   class="cls-13"
   x="29.41"
   y="0"
   id="tspan494">о</tspan><tspan
   x="35.919998"
   y="0"
   id="tspan496">ди</tspan></text>
      <text
         class="cls-10"
         transform="translate(1087.33,709.29)"
         id="text510">ве<tspan
   class="cls-14"
   x="12.01"
   y="0"
   id="tspan500">с</tspan><tspan
   class="cls-13"
   x="17.58"
   y="0"
   id="tspan502">т</tspan><tspan
   x="22.43"
   y="0"
   id="tspan504">иб</tspan><tspan
   class="cls-15"
   x="35.41"
   y="0"
   id="tspan506">ю</tspan><tspan
   x="43.919998"
   y="0"
   id="tspan508">ль</tspan></text>
      <text
         class="cls-10"
         transform="translate(779.71,885.59)"
         id="text520"><tspan
           class="cls-12"
           id="tspan512">т</tspan><tspan
           x="4.7600002"
           y="0"
           id="tspan514">ам</tspan><tspan
           class="cls-16"
           x="18.219999"
           y="0"
           id="tspan516">б</tspan><tspan
           class="cls-17"
           x="24.43"
           y="0"
           id="tspan518">ур 1-13</tspan></text>
      <rect
         class="cls-4"
         x="640"
         y="729"
         width="476"
         height="122"
         rx="10"
         id="rect522" />
      <rect
         class="cls-4"
         x="640"
         y="788"
         width="390"
         height="123"
         rx="10"
         id="rect524" />
      <text
         class="cls-10"
         transform="translate(921.02,697.86)"
         id="text548"><tspan
           class="cls-18"
           id="tspan526">д</tspan><tspan
           x="6.3099999"
           y="0"
           id="tspan528">опо</tspan><tspan
           class="cls-19"
           x="25.98"
           y="0"
           id="tspan530">м</tspan><tspan
           x="33.68"
           y="0"
           id="tspan532">іжне</tspan><tspan
           x="0"
           y="14.4"
           id="tspan534">при</tspan><tspan
           class="cls-20"
           x="19.969999"
           y="14.4"
           id="tspan536">м</tspan><tspan
           class="cls-21"
           x="27.67"
           y="14.4"
           id="tspan538">і</tspan><tspan
           class="cls-18"
           x="30.48"
           y="14.4"
           id="tspan540">щ</tspan><tspan
           x="39.419998"
           y="14.4"
           id="tspan542">ен</tspan><tspan
           class="cls-15"
           x="51.98"
           y="14.4"
           id="tspan544">н</tspan><tspan
           class="cls-21"
           x="58.580002"
           y="14.4"
           id="tspan546">я 1</tspan></text>
      <text
         class="cls-22"
         transform="translate(976.32,676.79)"
         id="text550">1-11</text>
      <text
         class="cls-22"
         transform="translate(995.18,676.87)"
         id="text552">1-12</text>
      <rect
         class="cls-5"
         x="767"
         y="635"
         width="143"
         height="92"
         rx="10"
         id="rect554" />
      <text
         class="cls-7"
         transform="translate(828.35,691.29)"
         id="text556">4</text>
      <rect
         class="cls-5"
         x="639"
         y="635"
         width="91"
         height="91"
         rx="10"
         id="rect558" />
      <text
         class="cls-7"
         transform="translate(674.05,689.92)"
         id="text560">5</text>
      <rect
         class="cls-5"
         x="824"
         y="488"
         width="182"
         height="88"
         rx="10"
         id="rect562" />
      <rect
         class="cls-5"
         x="643"
         y="488"
         width="175"
         height="88"
         rx="10"
         id="rect564" />
      <text
         class="cls-7"
         transform="translate(719.93,540.91)"
         id="text566">3</text>
      <text
         class="cls-7"
         transform="translate(909.74,537.67)"
         id="text568">2</text>
      <text
         class="cls-10"
         transform="translate(589.82,608.86)"
         id="text578"><tspan
           class="cls-23"
           id="tspan570">к</tspan><tspan
           x="5.6799998"
           y="0"
           id="tspan572">ори</tspan><tspan
           class="cls-24"
           x="25.74"
           y="0"
           id="tspan574">д</tspan><tspan
           x="32.049999"
           y="0"
           id="tspan576">ор</tspan></text>
      <text
         class="cls-10"
         transform="translate(612.13,530.91)"
         id="text586"><tspan
           class="cls-12"
           id="tspan580">х</tspan><tspan
           class="cls-25"
           x="5.3899999"
           y="0"
           id="tspan582">о</tspan><tspan
           x="12.02"
           y="0"
           id="tspan584">л</tspan></text>
      <text
         class="cls-10"
         transform="translate(549,508.52)"
         id="text602"><tspan
           class="cls-20"
           id="tspan588">с</tspan><tspan
           x="5.4099998"
           y="0"
           id="tspan590">ан</tspan><tspan
           class="cls-26"
           x="17.75"
           y="0"
           id="tspan592">в</tspan><tspan
           class="cls-27"
           x="23.620001"
           y="0"
           id="tspan594">у</tspan><tspan
           x="29.33"
           y="0"
           id="tspan596">з</tspan><tspan
           class="cls-25"
           x="34.5"
           y="0"
           id="tspan598">о</tspan><tspan
           x="41.139999"
           y="0"
           id="tspan600">л</tspan></text>
      <rect
         class="cls-6"
         x="512"
         y="525"
         width="101"
         height="27"
         rx="10"
         transform="rotate(90,562.5,538.5)"
         id="rect604" />
      <rect
         class="cls-6"
         x="555.56"
         y="552"
         width="69.440002"
         height="37"
         rx="10"
         transform="rotate(180,590.28,570.5)"
         id="rect606" />
      <rect
         class="cls-6"
         x="600.87"
         y="555.13"
         width="37.040001"
         height="30.780001"
         rx="10"
         transform="rotate(-90,619.39,570.52)"
         id="rect608" />
      <rect
         class="cls-6"
         x="557"
         y="488"
         width="43"
         height="37"
         rx="8.5"
         transform="rotate(180,578.5,506.5)"
         id="rect610" />
      <rect
         class="cls-4"
         x="517"
         y="729"
         width="42"
         height="22"
         rx="8.5"
         id="rect612" />
      <rect
         class="cls-4"
         x="572"
         y="465"
         width="46"
         height="20"
         rx="10"
         id="rect614" />
      <rect
         class="cls-5"
         x="451"
         y="638"
         width="89"
         height="88"
         rx="10"
         id="rect616" />
      <text
         class="cls-7"
         transform="translate(470.76,690.77)"
         id="text618">101</text>
      <rect
         class="cls-5"
         x="363"
         y="638"
         width="77"
         height="88"
         rx="10"
         id="rect620" />
      <text
         class="cls-7"
         transform="translate(372.45,690.9)"
         id="text624">102<tspan
   class="cls-8"
   x="48.130001"
   y="0"
   id="tspan622">б</tspan></text>
      <rect
         class="cls-3"
         x="366"
         y="486"
         width="77"
         height="103"
         rx="10"
         id="rect626" />
      <rect
         class="cls-5"
         x="449"
         y="486"
         width="94"
         height="103"
         rx="10"
         id="rect628" />
      <text
         class="cls-7"
         transform="translate(470.52,546.71)"
         id="text630">103</text>
      <rect
         class="cls-4"
         x="344"
         y="591"
         width="698"
         height="35"
         rx="10"
         id="rect632" />
      <rect
         class="cls-4"
         x="548"
         y="605"
         width="77"
         height="121"
         rx="10"
         id="rect634" />
      <rect
         class="cls-4"
         x="739"
         y="611"
         width="21"
         height="134"
         rx="10"
         id="rect636" />
      <text
         class="cls-10"
         transform="translate(278.24,503.02)"
         id="text646">б<tspan
   class="cls-28"
   x="6.3400002"
   y="0"
   id="tspan638">а</tspan><tspan
   x="12.19"
   y="0"
   id="tspan640">л</tspan><tspan
   class="cls-23"
   x="18.280001"
   y="0"
   id="tspan642">к</tspan><tspan
   x="23.950001"
   y="0"
   id="tspan644">он</tspan></text>
      <rect
         class="cls-3"
         x="1701.3"
         y="336.60999"
         width="76.309998"
         height="68.639999"
         rx="10"
         transform="rotate(-34.68,1739.5894,370.92008)"
         id="rect648" />
      <rect
         class="cls-4"
         x="294"
         y="526"
         width="65"
         height="167"
         rx="10"
         id="rect650" />
      <rect
         class="cls-3"
         x="921"
         y="635"
         width="90"
         height="90"
         rx="10"
         id="rect652" />
      <path
         class="cls-3"
         d="M 350,696 H 302 A 12,12 0 0 1 290,684 V 534 a 12,12 0 0 1 12,-12 h 48 a 12,12 0 0 1 9,4.1 V 499 a 12,12 0 0 0 -12,-12 h -68 a 12,12 0 0 0 -12,12 v 219 a 12,12 0 0 0 12,12 h 68 a 12,12 0 0 0 12,-12 v -26.1 a 12,12 0 0 1 -9,4.1 z"
         id="path654" />
      <rect
         class="cls-4"
         x="1014"
         y="591"
         width="204"
         height="197"
         rx="22.309999"
         id="rect666" />
      <rect
         class="cls-4"
         x="602"
         y="465"
         width="35"
         height="84"
         rx="12"
         id="rect668" />
      <rect
         class="cls-4"
         x="577"
         y="528"
         width="47"
         height="21"
         rx="10.5"
         id="rect670" />
      <rect
         class="cls-4"
         x="1104.3101"
         y="570.46997"
         width="161.14999"
         height="206.81"
         rx="12"
         transform="rotate(-35.6,1184.7644,673.84658)"
         id="rect672" />
      <rect
         class="cls-4"
         x="1047"
         y="666.65997"
         width="158.45"
         height="158.23"
         rx="10"
         transform="rotate(-34.61,1126.1035,745.73551)"
         id="rect674" />
      <rect
         class="cls-4"
         x="1240.72"
         y="625.78003"
         width="100.99"
         height="77.120003"
         rx="12"
         transform="rotate(56.25,1291.2496,664.39019)"
         id="rect676" />
      <rect
         class="cls-4"
         x="548"
         y="869"
         width="129"
         height="42"
         rx="10"
         id="rect678" />
      <rect
         class="cls-4"
         x="990.21997"
         y="822.87"
         width="144.83"
         height="55.990002"
         rx="10"
         transform="rotate(-33.98,1062.6499,850.87293)"
         id="rect680" />
      <rect
         class="cls-4"
         x="979.64001"
         y="504.48999"
         width="156.88"
         height="54.73"
         rx="10"
         transform="rotate(73.67,1058.046,531.79765)"
         id="rect682" />
      <circle
         class="cls-4"
         cx="1039.5"
         cy="468.5"
         r="27.5"
         id="circle684" />
      <rect
         class="cls-4"
         x="966.5"
         y="506.5"
         width="148"
         height="57"
         rx="10"
         transform="rotate(-90,1040.5,535)"
         id="rect686" />
      <rect
         class="cls-4"
         x="995.96002"
         y="493.54999"
         width="146.92999"
         height="56.220001"
         rx="10"
         transform="rotate(-120,1069.4269,521.65944)"
         id="rect688" />
      <rect
         class="cls-4"
         x="1000.96"
         y="490.54999"
         width="146.92999"
         height="56.220001"
         rx="10"
         transform="rotate(-125.6,1074.4028,518.67791)"
         id="rect690" />
      <line
         class="cls-29"
         x1="1017"
         y1="572"
         x2="1047"
         y2="572"
         id="line692" />
      <line
         class="cls-29"
         x1="1092.8"
         y1="555.72998"
         x2="1117.2"
         y2="538.27002"
         id="line694" />
      <line
         class="cls-29"
         x1="1090.8"
         y1="552.72998"
         x2="1115.2"
         y2="535.27002"
         id="line696" />
      <line
         class="cls-29"
         x1="1088.8"
         y1="549.72998"
         x2="1113.2"
         y2="532.27002"
         id="line698" />
      <line
         class="cls-29"
         x1="1086.8"
         y1="546.72998"
         x2="1111.2"
         y2="529.27002"
         id="line700" />
      <line
         class="cls-29"
         x1="1084.8"
         y1="543.72998"
         x2="1109.2"
         y2="526.27002"
         id="line702" />
      <line
         class="cls-29"
         x1="1082.8"
         y1="540.72998"
         x2="1107.2"
         y2="523.27002"
         id="line704" />
      <line
         class="cls-29"
         x1="1080.8"
         y1="537.72998"
         x2="1105.2"
         y2="520.27002"
         id="line706" />
      <line
         class="cls-29"
         x1="1078.8"
         y1="534.72998"
         x2="1103.2"
         y2="517.27002"
         id="line708" />
      <line
         class="cls-29"
         x1="1076.8"
         y1="531.72998"
         x2="1101.2"
         y2="514.27002"
         id="line710" />
      <line
         class="cls-29"
         x1="1074.8"
         y1="528.72998"
         x2="1099.2"
         y2="511.26999"
         id="line712" />
      <line
         class="cls-29"
         x1="1072.8"
         y1="525.72998"
         x2="1097.2"
         y2="508.26999"
         id="line714" />
      <line
         class="cls-29"
         x1="1070.8"
         y1="522.72998"
         x2="1095.2"
         y2="505.26999"
         id="line716" />
      <line
         class="cls-29"
         x1="1068.8"
         y1="519.72998"
         x2="1093.2"
         y2="502.26999"
         id="line718" />
      <line
         class="cls-29"
         x1="1066.8"
         y1="516.72998"
         x2="1091.2"
         y2="499.26999"
         id="line720" />
      <line
         class="cls-29"
         x1="1017"
         y1="568"
         x2="1047"
         y2="568"
         id="line722" />
      <line
         class="cls-29"
         x1="1017"
         y1="564"
         x2="1047"
         y2="564"
         id="line724" />
      <line
         class="cls-29"
         x1="1017"
         y1="560"
         x2="1047"
         y2="560"
         id="line726" />
      <line
         class="cls-29"
         x1="358"
         y1="691"
         x2="346"
         y2="691"
         id="line728" />
      <line
         class="cls-29"
         x1="358"
         y1="687"
         x2="346"
         y2="687"
         id="line730" />
      <line
         class="cls-29"
         x1="358"
         y1="683"
         x2="346"
         y2="683"
         id="line732" />
      <line
         class="cls-29"
         x1="358"
         y1="679"
         x2="346"
         y2="679"
         id="line734" />
      <line
         class="cls-29"
         x1="358"
         y1="675"
         x2="346"
         y2="675"
         id="line736" />
      <line
         class="cls-29"
         x1="358"
         y1="671"
         x2="346"
         y2="671"
         id="line738" />
      <line
         class="cls-29"
         x1="358"
         y1="667"
         x2="346"
         y2="667"
         id="line740" />
      <line
         class="cls-29"
         x1="576"
         y1="718"
         x2="576"
         y2="704"
         id="line742" />
      <line
         class="cls-29"
         x1="581"
         y1="718"
         x2="581"
         y2="704"
         id="line744" />
      <line
         class="cls-29"
         x1="586"
         y1="718"
         x2="586"
         y2="704"
         id="line746" />
      <line
         class="cls-29"
         x1="578"
         y1="481"
         x2="578"
         y2="467"
         id="line748" />
      <line
         class="cls-29"
         x1="582"
         y1="481"
         x2="582"
         y2="467"
         id="line750" />
      <line
         class="cls-29"
         x1="586"
         y1="481"
         x2="586"
         y2="467"
         id="line752" />
      <line
         class="cls-29"
         x1="590"
         y1="481"
         x2="590"
         y2="467"
         id="line754" />
      <line
         class="cls-29"
         x1="594"
         y1="481"
         x2="594"
         y2="467"
         id="line756" />
      <line
         class="cls-29"
         x1="598"
         y1="481"
         x2="598"
         y2="467"
         id="line758" />
      <line
         class="cls-29"
         x1="602"
         y1="481"
         x2="602"
         y2="467"
         id="line760" />
      <line
         class="cls-29"
         x1="566"
         y1="694"
         x2="566"
         y2="680"
         id="line762" />
      <line
         class="cls-29"
         x1="571"
         y1="694"
         x2="571"
         y2="680"
         id="line764" />
      <line
         class="cls-29"
         x1="576"
         y1="694"
         x2="576"
         y2="680"
         id="line766" />
      <line
         class="cls-29"
         x1="581"
         y1="694"
         x2="581"
         y2="680"
         id="line768" />
      <line
         class="cls-29"
         x1="586"
         y1="694"
         x2="586"
         y2="680"
         id="line770" />
      <line
         class="cls-29"
         x1="591"
         y1="694"
         x2="591"
         y2="680"
         id="line772" />
      <line
         class="cls-29"
         x1="596"
         y1="694"
         x2="596"
         y2="680"
         id="line774" />
      <line
         class="cls-29"
         x1="601"
         y1="694"
         x2="601"
         y2="680"
         id="line776" />
      <line
         class="cls-29"
         x1="606"
         y1="694"
         x2="606"
         y2="680"
         id="line778" />
      <line
         class="cls-29"
         x1="591"
         y1="718"
         x2="591"
         y2="704"
         id="line780" />
      <line
         class="cls-29"
         x1="596"
         y1="718"
         x2="596"
         y2="704"
         id="line782" />
      <line
         class="cls-29"
         x1="601"
         y1="718"
         x2="601"
         y2="704"
         id="line784" />
      <line
         class="cls-29"
         x1="606"
         y1="718"
         x2="606"
         y2="704"
         id="line786" />
      <line
         class="cls-29"
         x1="611"
         y1="718"
         x2="611"
         y2="704"
         id="line788" />
      <line
         class="cls-29"
         x1="616"
         y1="718"
         x2="616"
         y2="704"
         id="line790" />
      <line
         class="cls-29"
         x1="524"
         y1="749"
         x2="524"
         y2="735"
         id="line792" />
      <line
         class="cls-29"
         x1="528"
         y1="749"
         x2="528"
         y2="735"
         id="line794" />
      <line
         class="cls-29"
         x1="532"
         y1="749"
         x2="532"
         y2="735"
         id="line796" />
      <line
         class="cls-29"
         x1="536"
         y1="749"
         x2="536"
         y2="735"
         id="line798" />
      <line
         class="cls-29"
         x1="540"
         y1="749"
         x2="540"
         y2="735"
         id="line800" />
      <line
         class="cls-29"
         x1="544"
         y1="749"
         x2="544"
         y2="735"
         id="line802" />
      <line
         class="cls-29"
         x1="548"
         y1="749"
         x2="548"
         y2="735"
         id="line804" />
      <line
         class="cls-29"
         x1="1017"
         y1="556"
         x2="1047"
         y2="556"
         id="line806" />
      <line
         class="cls-29"
         x1="1017"
         y1="552"
         x2="1047"
         y2="552"
         id="line808" />
      <line
         class="cls-29"
         x1="1017"
         y1="548"
         x2="1047"
         y2="548"
         id="line810" />
      <line
         class="cls-29"
         x1="1017"
         y1="544"
         x2="1047"
         y2="544"
         id="line812" />
      <line
         class="cls-29"
         x1="1017"
         y1="540"
         x2="1047"
         y2="540"
         id="line814" />
      <line
         class="cls-29"
         x1="1017"
         y1="536"
         x2="1047"
         y2="536"
         id="line816" />
      <line
         class="cls-29"
         x1="1017"
         y1="532"
         x2="1047"
         y2="532"
         id="line818" />
      <line
         class="cls-29"
         x1="1017"
         y1="528"
         x2="1047"
         y2="528"
         id="line820" />
      <line
         class="cls-29"
         x1="1017"
         y1="524"
         x2="1047"
         y2="524"
         id="line822" />
      <path
         class="cls-4"
         d="m 1085,499.28 -15.64,11.2 a 5.6,5.6 0 0 1 -7.65,-1.07 c -10.92,-13.8 -13.73,-2 -14.45,5.55 a 5.58,5.58 0 0 1 -5.57,5 h -19.79 a 5.59,5.59 0 0 1 -5.57,-5 c -3.83,-34.58 2.28,-134.58 70.2,-23.22 a 5.59,5.59 0 0 1 -1.53,7.54 z"
         id="path824" />
      <line
         class="cls-29"
         x1="1108.98"
         y1="550.02002"
         x2="1076.02"
         y2="503.98001"
         id="line826" />
      <polygon
         class="cls-2"
         points="1073.59,500.58 1079.28,504.07 1076.53,504.69 1075.06,507.09 "
         id="polygon828" />
      <line
         class="cls-29"
         x1="521"
         y1="742"
         x2="552.82001"
         y2="742"
         id="line830" />
      <polygon
         class="cls-2"
         points="557,742 550.86,744.59 551.96,742 550.86,739.41 "
         id="polygon832" />
      <line
         class="cls-29"
         x1="574"
         y1="474"
         x2="605.82001"
         y2="474"
         id="line834" />
      <polygon
         class="cls-2"
         points="610,474 603.86,476.59 604.96,474 603.86,471.41 "
         id="polygon836" />
      <line
         class="cls-29"
         x1="574"
         y1="711"
         x2="620.82001"
         y2="711"
         id="line838" />
      <polygon
         class="cls-2"
         points="625,711 618.86,713.59 619.96,711 618.86,708.41 "
         id="polygon840" />
      <line
         class="cls-29"
         x1="610"
         y1="687"
         x2="561.17999"
         y2="687"
         id="line842" />
      <polygon
         class="cls-2"
         points="557,687 563.14,684.41 562.04,687 563.14,689.59 "
         id="polygon844" />
      <line
         class="cls-29"
         x1="625"
         y1="711"
         x2="626"
         y2="711"
         id="line846" />
      <line
         class="cls-29"
         x1="626"
         y1="687"
         x2="626"
         y2="711"
         id="line848" />
      <line
         class="cls-29"
         x1="610"
         y1="687"
         x2="626"
         y2="687"
         id="line850" />
      <path
         class="cls-29"
         d="m 1076,504 c -2.91,-3.9 -7.87,-10.59 -14,-19 -13.69,-18.79 -24,-20.25 -27,6 -2.16,18.94 -2.5,28.69 -2.5,28.69 -0.48,13.83 -0.77,33 0,56.62"
         id="path852" />
      <polygon
         class="cls-2"
         points="1032.64,580.48 1029.85,574.43 1032.47,575.44 1035.03,574.26 "
         id="polygon854" />
      <line
         class="cls-30"
         x1="753"
         y1="918"
         x2="737.5"
         y2="940.5"
         id="line856" />
      <line
         class="cls-30"
         x1="786.21997"
         y1="916.90997"
         x2="803.5"
         y2="940.5"
         id="line858" />
      <line
         class="cls-30"
         x1="844"
         y1="918"
         x2="828.5"
         y2="940.5"
         id="line860" />
      <line
         class="cls-30"
         x1="877.21997"
         y1="916.90997"
         x2="894.5"
         y2="940.5"
         id="line862" />
      <line
         class="cls-30"
         x1="927"
         y1="918"
         x2="911.5"
         y2="940.5"
         id="line864" />
      <line
         class="cls-30"
         x1="960.21997"
         y1="916.90997"
         x2="977.5"
         y2="940.5"
         id="line866" />
      <path
         style="fill:none;stroke:#000000;stroke-width:0.646653px;stroke-linecap:butt;stroke-linejoin:miter;stroke-opacity:1"
         d="m 1237.2126,362.27813 -0.013,1.14619 0.1798,1.02727 0.3462,1.16003 c 0.9267,2.10705 0.5116,0.98508 0.7978,1.60848 l 42.1351,58.42216 1.1312,1.32151 1.0897,0.68332 1.1238,0.56775 1.1377,0.42993 0.9008,0.20288 1.2359,0.13211 1.1587,0.0528 1.2722,-0.16797 1.5858,-0.40681 1.0964,-0.55542 133.7204,-95.03259 1.453,-1.46779 0.9572,-1.76619 0.4682,-1.44791 0.1125,-0.50459 0.065,-0.42061 0.1035,-0.9447 -0.071,-1.60315 -0.1108,-1.24715 -0.4603,-1.07177 -0.7193,-1.38823 -42.4545,-58.86528 -0.9049,-0.73721 -1.2772,-0.97149 -1.2573,-0.46299 -1.3177,-0.43876 -0.6917,-0.132 -0.5675,-0.0673 -1.0286,-0.0714 -1.295,0.10237 -1.4014,0.31879 -1.9306,0.92197 -133.2609,94.70605 -1.4928,1.56181 -0.892,1.35371 -0.6486,1.76822 -0.2064,1.60959 z"
         id="path2936"
         sodipodi:nodetypes="cccccccccccccccccccccccccccccccccccccccccccc" />
      <path
         style="fill:none;stroke:#000000;stroke-width:0.644163px;stroke-linecap:butt;stroke-linejoin:miter;stroke-opacity:1"
         d="m 1210.594,554.49229 -0.1248,1.42532 0.1628,1.46174 0.3573,1.43827 0.6748,1.64472 0.6222,1.11127 39.2543,55.7067 1.6392,1.95294 1.3194,1.12937 1.7759,0.77719 1.3701,0.44846 0.8037,0.18622 1.1171,0.0202 2.0772,-0.25152 1.7798,-0.61699 2.1189,-1.32993 21.9179,-15.96465 1.0343,-1.74287 0.4131,-1.55751 0.3352,-1.18416 0.2354,-1.24413 0.07,-1.0564 -0.2995,-2.23482 -0.785,-2.55331 -1.1997,-2.03267 -5.7065,-7.83746 -33.1511,-47.35384 -1.9432,-1.94685 -1.4535,-0.81296 -1.3564,-0.38579 -1.7219,-0.39484 -1.1421,-0.0703 -1.6911,0.0933 -1.8767,0.64273 -1.8981,1.076 -22.2818,15.98246 -1.312,1.69976 -0.6389,1.86175 z"
         id="path2651"
         sodipodi:nodetypes="ccccccccccccccccccccccccccccccccccccccc" />
      <path
         style="fill:none;stroke:#000000;stroke-width:0.706151px;stroke-linecap:butt;stroke-linejoin:miter;stroke-opacity:1"
         d="m 1252.6199,524.27121 -0.2586,1.21154 -0.054,1.94183 0.2501,1.5422 0.6112,1.77704 96.2762,139.50821 1.44,1.22111 1.2932,0.6575 1.1335,0.43068 1.3651,0.34165 1.2694,0.16279 1.9064,-0.0215 1.6643,-0.45992 1.3468,-0.64362 53.6958,-37.05609 1.1954,-1.21282 0.6699,-1.09375 0.4604,-1.19569 0.3218,-1.0923 0.2254,-1.04739 0.1588,-1.09907 -0.063,-1.2211 -0.2196,-1.35012 -0.5572,-1.42781 -0.6066,-1.10071 -94.9548,-137.59347 -1.4362,-1.57037 -1.6122,-1.25017 -1.4698,-0.63896 -1.5769,-0.38616 -1.3845,-0.18161 -1.9467,0.15312 -1.5232,0.44642 -1.5519,0.79521 -52.6797,36.35491 -1.5376,1.35094 -0.9125,1.4099 -0.6377,1.50264 z"
         id="path7563"
         sodipodi:nodetypes="ccccccccccccccccccccccccccccccccccccccc" />
      <path
         style="fill:none;stroke:#000000;stroke-width:1.057px;stroke-linecap:butt;stroke-linejoin:miter;stroke-opacity:1"
         d="m 1326.207,471.33674 -1.211,1.91777 -0.9558,2.52156 0.017,2.12158 0.198,2.20914 0.9345,2.35308 95.8552,138.24373 2.3727,1.8344 2.5851,1.15777 2.013,0.47729 2.6234,-0.38223 2.0502,-0.83005 2.7167,-1.85951 2.9406,-2.07039 2.6026,-2.01212 119.5779,-82.5813 2.8907,-2.3801 2.1497,-1.56199 1.9075,-1.59728 1.3853,-1.27412 1.3635,-1.56002 1.0911,-2.1166 0.2126,-1.89273 -0.3844,-2.2352 -0.6916,-1.44991 -2.1441,-3.23217 -93.5396,-135.51915 -1.9486,-2.34269 -2.3955,-1.53134 -2.9423,-0.59901 -2.0355,0.14678 -2.4434,0.72641 -2.9901,1.69057 -3.2892,2.21568 -3.1746,2.18589 -117.2148,81.55422 -3.6756,2.5917 -2.7673,2.0903 -2.2998,1.82043 z"
         id="path7563-9"
         sodipodi:nodetypes="cccccccccccccccccccccccccccccccccccccccc" />
      <path
         style="fill:none;stroke:#000000;stroke-width:0.706151px;stroke-linecap:butt;stroke-linejoin:miter;stroke-opacity:1"
         d="m 1477.1528,368.53137 -0.1914,1.06097 -0.053,1.46246 0.2113,1.69652 0.9341,2.34765 94.7128,136.99785 1.3396,1.93208 1.5149,1.12283 2.282,0.96248 1.2066,0.26872 1.0123,0.12566 2.0582,-0.0856 2.1761,-0.44857 1.594,-0.96436 127.8241,-88.37054 1.6845,-1.16475 1.6053,-2.2182 0.5665,-1.375 0.3678,-1.26694 0.1632,-1.29907 -0.056,-1.85117 -0.4794,-1.90301 -0.528,-1.61219 -0.6922,-1.07939 -118.5284,-171.4291 -0.7012,-0.70835 -0.6825,-0.73752 -1.0438,-0.74733 -1.805,-1.00542 -1.3356,-0.52037 -0.9433,-0.20483 -1.0538,-0.12036 -1.0655,-0.0245 -1.4811,0.15529 -1.4884,0.47176 -1.0937,0.53154 -95.8546,66.26881 -1.6171,1.5323 -1.216,1.57934 -0.6646,1.84527 -0.1736,0.91058 -0.1257,1.21976 0.067,1.70216 0.3062,1.4465 0.6685,1.70345 19.7119,28.61255 -26.3067,18.17755 -1.2179,1.44351 -0.9851,1.51254 -0.4127,1.2088 z"
         id="path17208-7"
         sodipodi:nodetypes="ccccccccccccccccccccccccccccccccccccccccccccccccccc" />
    </g>
    <path
       style="fill:none;stroke:#000000;stroke-width:0.787142px;stroke-linecap:butt;stroke-linejoin:miter;stroke-opacity:1"
       d="m 631.81463,802.60265 -0.60469,1.10192 -0.42698,1.44748 -0.21588,1.63569 0.0152,3.44274 0.006,58.69971 -0.035,2.80726 0.0369,1.541 0.43395,2.06039 0.63861,1.48363 0.85331,1.10495 0.68693,0.89027 1.03964,0.9058 0.91396,0.60854 1.24351,0.59314 h 1.32024 114.88023 l 1.33157,-0.17055 1.16957,-0.48309 1.68949,-1.13097 1.1325,-1.32255 0.94816,-1.6041 0.69434,-2.06586 0.0904,-2.21723 0.042,-2.84356 v -58.46413 l -0.0382,-2.97677 -0.4327,-2.58643 -0.56692,-1.74747 -0.94102,-1.27513 -0.98353,-1.22478 -1.17828,-0.89584 -1.47284,-0.90247 -1.7233,-0.54575 H 638.44631 l -1.05871,0.13644 -1.63532,0.54575 -1.25605,0.74714 -0.90419,0.66811 -0.96241,0.90948 z"
       id="path2790-6-7-9"
       sodipodi:nodetypes="ccccccccccccccccccccccccccccccccccccccccc" />
    <path
       style="fill:none;stroke:#000000;stroke-width:0.581714px;stroke-linecap:butt;stroke-linejoin:miter;stroke-opacity:1"
       d="m 917.1458,650.29302 -0.12505,0.92969 -0.009,1.2054 0.0983,0.84437 0.41434,1.36176 0.59373,1.18447 37.14784,52.39192 0.69406,0.97893 1.15694,0.84683 0.95235,0.63814 1.14286,0.43396 0.90669,0.22445 0.84479,0.12682 1.20838,0.0601 1.5754,-0.14955 1.47111,-0.45988 1.4316,-0.93157 52.02066,-37.60524 0.9263,-0.84949 0.7135,-1.11441 0.6229,-1.37328 0.3818,-1.35253 0.112,-0.70599 5e-4,-0.71248 0.01,-1.22764 -0.3883,-1.58311 -0.7527,-1.699 -0.7271,-1.02545 -36.52388,-51.51201 -0.56091,-0.79129 -1.26407,-0.97028 -0.88528,-0.46157 -1.12885,-0.41822 -0.9239,-0.19838 -0.95774,-0.0607 -0.94575,-0.003 -1.17255,0.13891 -0.87142,0.21685 -0.85101,0.20344 -0.62595,0.27818 -0.73971,0.29966 -52.21409,37.74491 -0.89237,0.80008 -0.76137,1.13236 -0.62343,1.22144 -0.32046,1.22609 z"
       id="path52839"
       sodipodi:nodetypes="ccccccccccccccccccccccccccccccccccccccccccccccc" />
    <path
       style="fill:none;stroke:#000000;stroke-width:0.576054px;stroke-linecap:butt;stroke-linejoin:miter;stroke-opacity:1"
       d="m 985.34218,602.70843 -0.12391,0.92008 -0.009,1.19294 0.0974,0.83564 0.41056,1.34769 0.58832,1.17222 36.80885,51.85033 0.6877,0.96881 1.1465,0.83808 0.9436,0.63154 1.1324,0.42947 0.8985,0.22213 0.8371,0.12551 1.1972,0.0595 1.5611,-0.148 1.4578,-0.45513 1.4185,-0.92194 51.5461,-37.2165 0.9178,-0.84071 0.707,-1.10289 0.6172,-1.35908 0.3783,-1.33855 0.111,-0.69869 5e-4,-0.70512 0.01,-1.21495 -0.3847,-1.56674 -0.7459,-1.68144 -0.7204,-1.01485 -35.8925,-50.2632 -0.4177,-0.40933 -0.7433,-0.60403 -1.1331,-0.80676 -0.8431,-0.52502 -0.8969,-0.43095 -0.9496,-0.30719 -0.8978,-0.1539 -0.9883,-0.0712 -1.1022,0.01 -0.906,0.10376 -0.8432,0.20134 -0.6203,0.2753 -0.5642,0.29657 -0.9019,0.44966 -51.05578,36.86242 -0.88423,0.79181 -0.75442,1.12066 -0.61775,1.20881 -0.31753,1.21342 z"
       id="path52839-6"
       sodipodi:nodetypes="ccccccccccccccccccccccccccccccccccccccccccccccccc" />
    <path
       style="fill:none;stroke:#000000;stroke-width:0.848827px;stroke-linecap:butt;stroke-linejoin:miter;stroke-opacity:1"
       d="m 520.56401,670.3049 -0.46274,1.18072 -0.59071,1.30774 -0.28662,1.63192 -0.005,3.18601 0.0763,56.16032 0.004,2.7249 -0.0249,1.614 0.36605,1.675 0.61247,1.8699 0.83274,1.2161 1.29541,1.109 1.18479,0.5059 1.28112,0.3526 1.35023,0.2728 h 143.4719 l 1.67605,-0.5256 2.14378,-1.0458 1.38125,-1.3261 0.99002,-1.627 0.55562,-1.9371 0.11038,-2.1141 0.0512,-2.7112 v -55.74277 l -0.0466,-2.83821 -0.27814,-2.59613 -0.48345,-1.7637 -1.14769,-1.83368 -1.62884,-1.25912 -1.59022,-0.95792 -1.67153,-0.34012 h -142.24554 -1.4121 l -1.49032,0.41967 -1.64361,0.99475 -1.17379,0.96471 z"
       id="path2790-6"
       sodipodi:nodetypes="ccccccccccccccccccccccccccccccccccccc" />
    <path
       style="fill:none;stroke:#000000;stroke-width:0.567432px;stroke-linecap:butt;stroke-linejoin:miter;stroke-opacity:1"
       d="m 268.39493,805.64057 -0.58405,1.15154 -0.41812,1.68027 -0.0498,1.64898 -0.0339,2.62446 v 56.62775 l 0.002,2.50044 0.0143,0.95595 0.13754,1.23324 0.40815,1.29089 0.55935,0.94162 0.72142,1.03855 0.71622,0.87254 0.64528,0.5939 0.77765,0.5215 0.66431,0.39856 0.57559,0.24737 1.01007,0.38467 1.04137,0.25868 1.22885,0.19295 h 52.24163 l 1.54361,-0.24119 1.39585,-0.36178 0.75836,-0.33768 1.04231,-0.63872 0.76874,-0.61224 0.92332,-0.90815 0.67238,-0.83195 0.59209,-0.95423 0.46563,-0.95334 0.35578,-1.07095 0.30196,-1.74861 0.0225,-2.7375 v -56.28334 l -0.0797,-2.40267 -0.25813,-2.2355 -0.24606,-0.96064 -0.32635,-0.87181 -0.40944,-0.75919 -0.55323,-0.81581 -0.62644,-0.81974 -0.73323,-0.7585 -1.10648,-0.72396 -0.9815,-0.57238 -1.09272,-0.53982 -1.31971,-0.24119 h -53.78526 l -1.38963,0.24119 -0.9679,0.19791 -0.901,0.40113 -0.86311,0.51192 -0.89146,0.59028 -0.61958,0.58798 -0.67616,0.76687 z"
       id="path2790-6-9-1-5-2-5"
       sodipodi:nodetypes="ccccccccccccccccccccccccccccccccccccccccccccccccccccccc" />
    <path
       style="fill:none;stroke:#000000;stroke-width:0.673937px;stroke-linecap:butt;stroke-linejoin:miter;stroke-opacity:1"
       d="m 345.43546,669.38951 -0.4166,1.30889 -0.30289,1.6987 -0.0725,5.3533 v 65.74232 l 0.003,2.90289 0.0379,2.42956 0.11483,1.69468 0.53311,1.70919 0.67143,1.06571 0.75303,0.98498 0.84265,0.85749 0.71044,0.52145 0.60204,0.37871 0.72868,0.37118 0.55325,0.19458 0.82574,0.16031 h 71.35455 l 1.24382,-0.22402 1.00272,-0.48952 1.43224,-1.0188 1.06329,-1.11033 0.75836,-0.99386 0.6022,-1.16382 0.36062,-1.44278 0.16854,-1.13134 0.16175,-2.47806 0.0273,-3.17812 v -65.34249 l -0.0968,-2.78939 -0.10853,-2.4833 -0.18174,-1.53529 -0.30862,-1.29214 -0.67333,-1.2734 -0.76013,-0.89112 -0.93698,-0.95168 -0.86161,-0.62857 -1.2272,-0.81249 -1.30981,-0.5805 -1.44494,-0.3467 h -69.31809 l -1.17606,0.28576 -1.09475,0.4097 -0.96081,0.53831 -0.93664,0.71329 -0.98728,0.90663 -0.79226,0.97431 z"
       id="path2790-6-9-1-5-2"
       sodipodi:nodetypes="cccccccccccccccccccccccccccccccccccccccccccccccc" />
    <text
       xml:space="preserve"
       style="font-style:normal;font-variant:normal;font-weight:bold;font-stretch:normal;font-size:73.9758px;line-height:1.25;font-family:'Century Gothic';-inkscape-font-specification:'Century Gothic Bold';word-spacing:0px;fill:#000000;fill-opacity:1;stroke:none;stroke-width:1.16614"
       x="168.70889"
       y="205.02379"
       id="text1216"><tspan
         sodipodi:role="line"
         id="tspan1214"
         x="168.70889"
         y="205.02379"
         style="font-style:normal;font-variant:normal;font-weight:bold;font-stretch:normal;font-size:73.9758px;font-family:'Century Gothic';-inkscape-font-specification:'Century Gothic Bold';stroke-width:1.16614">Перший Поверх</tspan></text>
    <text
       class="cls-9"
       id="text198"
       x="460.92764"
       y="741.83051"
       style="font-size:21.1493px;font-family:ArialRoundedMTBold, 'Arial Rounded MT Bold';isolation:isolate;fill:#000000;fill-opacity:1;stroke-width:1.08484"
       transform="scale(0.99216101,1.0079009)">WC</text>
    <path
       style="fill:none;stroke:#000000;stroke-width:0.580717px;stroke-linecap:butt;stroke-linejoin:miter;stroke-opacity:1"
       d="m 437.7491,668.6971 0.78406,-0.55095 0.71968,-0.44845 0.86106,-0.42283 0.71967,-0.24344 1.05613,-0.1922 h 0.84589 30.77931 1.24659 l 0.92531,0.28189 1.11808,0.57658 0.71969,0.48687 0.91029,0.83284 0.69398,0.79364 0.59116,0.90971 0.38555,0.84564 0.26988,1.03784 v 0.92253 19.93677 0.9097 l -0.33414,0.97379 -0.47551,0.9097 -0.64257,0.90971 -0.83535,0.89257 -0.96142,0.71578 -0.9511,0.53604 -0.96394,0.38036 -1.55469,0.10251 -14.65113,-0.12881 -0.0302,24.14301 44.72778,0.0677 0.59963,0.005 1.0538,0.1976 0.82724,0.27932 0.9363,0.39299 1.00802,0.62395 0.77225,0.66106 0.936,1.01972 0.78152,1.02379 0.4998,0.85163 0.33623,0.82447 0.25445,1.05097 v 1.15061 16.71655 l 0.007,0.82024 -0.0834,0.98636 -0.53977,1.53755 -0.5504,0.91566 -0.69564,1.00618 -0.94237,0.96473 -1.07484,0.83128 -0.92725,0.50099 -1.40154,0.52849 -1.71943,0.20056 -61.04455,3e-5 -1.50362,-0.17938 -1.11808,-0.32032 -1.05382,-0.47408 -1.00241,-0.69189 -0.71981,-0.58938 -0.5012,-0.47625 -0.52809,-0.65287 -0.70566,-1.07686 -0.59117,-1.26847 -0.28273,-1.21722 v -1.28132 -74.04535 l 0.0386,-1.30689 0.24418,-0.84566 0.37269,-0.80719 0.32129,-0.53815 0.30844,-0.53814 0.55261,-0.7944 0.48835,-0.52533 z"
       id="path2300-8"
       sodipodi:nodetypes="ccccccccccccccccccccccccccccccccccccccccccccccccccccccccccccccccccccccccccc" />
    <path
       style="fill:none;stroke:#000000;stroke-width:0.608032px;stroke-linecap:butt;stroke-linejoin:miter;stroke-opacity:1"
       d="m 347.72966,805.6514 -0.38108,0.83019 -0.40144,1.25414 -0.11952,0.91442 -0.057,3.82597 v 56.70311 2.50379 l 0.0603,1.01103 0.07,1.17228 0.25338,0.68441 0.23528,0.60164 0.40655,0.97119 0.67833,1.03049 0.53546,0.60254 0.61036,0.62404 0.74698,0.61649 0.60975,0.37647 0.81886,0.43206 0.53223,0.26754 0.65568,0.238 0.78946,0.20863 65.45411,0.10409 0.9608,-0.16564 0.56352,-0.17809 0.5385,-0.20822 0.63182,-0.31672 0.91153,-0.52704 1.13818,-0.94896 0.94758,-1.03619 0.66719,-1.07088 0.46474,-0.86825 0.24555,-0.64877 0.0872,-0.56253 0.15265,-2.1374 0.0259,-2.74117 v -56.3582 l -0.0913,-2.4059 -0.1024,-2.14195 -0.17156,-1.32414 -0.513,-1.04628 -0.55022,-0.91069 -0.71726,-0.81973 -0.74783,-0.7697 -0.94961,-0.72977 -0.95347,-0.64962 -1.18499,-0.48364 -1.44889,-0.33305 -1.47487,-0.10233 h -62.51294 l -1.5024,0.17566 -0.95845,0.22889 -1.1847,0.44117 -0.7363,0.44674 -0.73243,0.45705 -0.8369,0.71175 -0.87457,1.05136 z"
       id="path2790-6-9-1-5-5-1-1"
       sodipodi:nodetypes="ccccccccccccccccccccccccccccccccccccccccccccccccccccccccc" />
    <path
       style="fill:none;stroke:#000000;stroke-width:0.863303px;stroke-linecap:butt;stroke-linejoin:miter;stroke-opacity:1"
       d="m 684.13957,670.14299 -0.71985,1.18072 -0.53867,1.3801 -0.27236,1.55956 0.0191,3.28249 0.007,55.96744 -0.0442,2.67659 0.0466,1.46928 0.54747,1.96448 0.63354,1.86988 0.86138,1.21613 1.33998,1.109 1.22554,0.5059 1.32519,0.35256 1.39668,0.27284 h 148.40736 l 1.73371,-0.52565 2.21752,-1.04581 1.42877,-1.32603 1.02408,-1.627 0.57473,-1.93718 0.11418,-2.11403 0.053,-2.7112 v -55.74283 l -0.0482,-2.83821 -0.2877,-2.59613 -0.50008,-1.7637 -1.18718,-1.83368 -1.58507,-1.42795 -1.74472,-0.78909 -1.72903,-0.34012 h -147.13933 -1.46068 l -1.54159,0.41967 -1.70015,0.99475 -1.21417,0.96471 z"
       id="path2790-6-7"
       sodipodi:nodetypes="ccccccccccccccccccccccccccccccccccccc" />
    <path
       style="fill:none;stroke:#000000;stroke-width:0.623509px;stroke-linecap:butt;stroke-linejoin:miter;stroke-opacity:1"
       d="m 516.92907,803.12008 -0.39025,0.85249 -0.41109,1.28781 -0.1224,0.93898 -0.0584,3.92871 v 58.22577 2.57103 l 0.0618,1.03818 0.0717,1.20376 0.25948,0.70279 0.24094,0.61779 0.41633,0.99728 0.69465,1.05816 0.54834,0.61871 0.62504,0.6408 0.76495,0.63305 0.62442,0.38658 0.83856,0.44366 0.54503,0.27472 0.67146,0.2444 0.80845,0.21423 67.02869,0.10688 0.98391,-0.17008 0.57708,-0.18287 0.55145,-0.21382 0.64702,-0.32522 0.93346,-0.54119 1.16556,-0.97445 0.97037,-1.06401 0.68325,-1.09964 0.47591,-0.89156 0.25146,-0.6662 0.0893,-0.57763 0.15632,-2.1948 0.0265,-2.81478 v -57.8716 l -0.0935,-2.47051 -0.10486,-2.19947 -0.17569,-1.3597 -0.52534,-1.07437 -0.56346,-0.93515 -0.73451,-0.84174 -0.76582,-0.79036 -0.97246,-0.74937 -0.9764,-0.66707 -1.2135,-0.49663 -1.48375,-0.34199 -1.51035,-0.10508 h -64.01676 l -1.53855,0.18038 -0.9815,0.23504 -1.2132,0.45301 -0.75401,0.45874 -0.75005,0.46933 -0.85704,0.73085 -0.89561,1.0796 z"
       id="path2790-6-9-1-5-5-1-1-8"
       sodipodi:nodetypes="ccccccccccccccccccccccccccccccccccccccccccccccccccccccccc" />
  </g>
</svg>
