<?xml version="1.0" encoding="UTF-8" standalone="no"?>
<svg
   viewBox="0 0 2245.0394 1587.4015"
   version="1.1"
   id="svg869"
   sodipodi:docname="1-floor.svg"
   inkscape:version="1.1.2 (b8e25be833, 2022-02-05)"
   width="594mm"
   height="420mm"
   xmlns:inkscape="http://www.inkscape.org/namespaces/inkscape"
   xmlns:sodipodi="http://sodipodi.sourceforge.net/DTD/sodipodi-0.dtd"
   xmlns="http://www.w3.org/2000/svg"
   xmlns:svg="http://www.w3.org/2000/svg">
  <sodipodi:namedview
     id="namedview871"
     pagecolor="#ffffff"
     bordercolor="#666666"
     borderopacity="1.0"
     inkscape:pageshadow="2"
     inkscape:pageopacity="0.0"
     inkscape:pagecheckerboard="0"
     showgrid="false"
     inkscape:zoom="0.41139167"
     inkscape:cx="1595.8029"
     inkscape:cy="865.35539"
     inkscape:window-width="2100"
     inkscape:window-height="1246"
     inkscape:window-x="2391"
     inkscape:window-y="24"
     inkscape:window-maximized="1"
     inkscape:current-layer="Layer_2"
     units="mm"
     inkscape:document-units="mm" />
  <defs
     id="defs443">
    <style
       id="style441">.cls-1{fill:#eae3fc;}.cls-2{fill:#6a5fd3;}.cls-3{fill:#47479c;}.cls-4{fill:#dce7fd;}.cls-5{fill:#849ff3;}.cls-6{fill:#5757cb;}.cls-7{font-size:27px;font-family:ArialRoundedMTBold, Arial Rounded MT Bold;}.cls-8{font-size:14px;}.cls-10,.cls-22,.cls-8{font-family:MyriadPro-Regular, Myriad Pro;}.cls-9{fill:#8ac4dd;}.cls-10{font-size:12px;}.cls-11{letter-spacing:0.01em;}.cls-12{letter-spacing:-0.01em;}.cls-13{letter-spacing:-0.01em;}.cls-14{letter-spacing:0.02em;}.cls-15{letter-spacing:0em;}.cls-16{letter-spacing:-0.01em;}.cls-17{letter-spacing:0em;}.cls-18{letter-spacing:0em;}.cls-19{letter-spacing:0em;}.cls-20{letter-spacing:0em;}.cls-21{letter-spacing:0em;}.cls-22{font-size:5px;}.cls-23{letter-spacing:-0.01em;}.cls-24{letter-spacing:0em;}.cls-25{letter-spacing:0em;}.cls-26{letter-spacing:-0.01em;}.cls-27{letter-spacing:0em;}.cls-28{letter-spacing:0.01em;}.cls-29,.cls-30{fill:none;stroke:#6a5fd3;stroke-miterlimit:10;}.cls-29{stroke-linecap:round;stroke-width:2px;}.cls-30{stroke-width:5px;}</style>
  </defs>
  <g
     id="Layer_2"
     data-name="Layer 2"
     transform="matrix(1.5747307,0,0,1.5747307,-246.63097,-188.6586)">
    <g
       id="g424"
       transform="matrix(0.89928248,0,0,0.89928248,-59.010639,227.62426)">
      <g
         id="overlay">
        <path
           class="cls-1"
           d="m 544,916.6 a 3,3 0 0 1 -3,-3 v -47.29 a 3,3 0 0 1 3,-3 h 90 V 737 h -57.84 v 17.33 a 3,3 0 0 1 -3,3 h -58.8 a 3,3 0 0 1 -3,-3 V 737 h -251 a 3,3 0 0 1 -3,-3 V 481 a 3,3 0 0 1 3,-3 H 569 v -17 a 3,3 0 0 1 3,-3 h 68 a 3,3 0 0 1 3,3 v 18.27 l 365,3 v -20.49 a 2.7,2.7 0 0 1 0,-0.49 31.67,31.67 0 0 1 20.45,-24.62 31.2,31.2 0 0 1 10.45,-1.8 32.13,32.13 0 0 1 22.7,9.52 2.44,2.44 0 0 1 0.32,0.4 l 14.18,20.38 1.38,-1.09 452.7,-329.78 a 3,3 0 0 1 1.76,-0.57 2.63,2.63 0 0 1 0.49,0 3,3 0 0 1 2,1.22 l 156.12,220.5 59.74,-40.8 a 3.06,3.06 0 0 1 1.7,-0.52 3.41,3.41 0 0 1 0.55,0.05 3,3 0 0 1 1.93,1.26 l 42.5,62.65 a 3,3 0 0 1 -0.76,4.14 l -760.74,533.83 a 3,3 0 0 1 -1.72,0.54 z"
           id="path445" />
        <path
           class="cls-2"
           d="m 1532,136.73 157.83,222.9 62.17,-42.46 42.5,62.64 -760.75,533.79 H 544 v -47.29 h 93 V 734 h -63.84 v 20.33 h -58.8 V 734 h -254 V 481 H 572 v -20 h 68 v 21.25 l 371,3.07 v -23.54 a 28.65,28.65 0 0 1 18.5,-22.28 28,28 0 0 1 9.44,-1.63 29,29 0 0 1 20.56,8.63 l 16,23 3.78,-3 L 1532,136.73 m 0,-6 a 5.94,5.94 0 0 0 -3.53,1.15 l -451.64,329 -12.38,-17.81 a 6.18,6.18 0 0 0 -0.66,-0.78 35.11,35.11 0 0 0 -24.79,-10.42 33.87,33.87 0 0 0 -11.47,2 34.68,34.68 0 0 0 -22.4,26.94 6.61,6.61 0 0 0 -0.08,1 v 17.49 l -359,-3 V 461 a 6,6 0 0 0 -6,-6 H 572 a 6,6 0 0 0 -6,6 v 14 H 260.32 a 6,6 0 0 0 -6,6 v 253 a 6,6 0 0 0 6,6 h 248 v 14.33 a 6,6 0 0 0 6,6 h 58.8 a 6,6 0 0 0 6,-6 V 740 H 631 v 120.31 h -87 a 6,6 0 0 0 -6,6 v 47.29 a 6,6 0 0 0 6,6 h 489.75 a 6,6 0 0 0 3.44,-1.09 l 760.74,-533.79 a 6,6 0 0 0 1.52,-8.28 L 1757,313.8 a 6,6 0 0 0 -3.84,-2.53 6.14,6.14 0 0 0 -1.12,-0.1 6.07,6.07 0 0 0 -3.39,1 l -57.31,39.14 -154.46,-218.05 a 6,6 0 0 0 -3.93,-2.45 5.22,5.22 0 0 0 -1,-0.08 z"
           id="path447" />
      </g>
      <rect
         class="cls-3"
         x="1437.34"
         y="174.77"
         width="134.75"
         height="102.7"
         rx="10"
         transform="rotate(-35.6,1504.5895,226.132)"
         id="rect450" />
      <rect
         class="cls-4"
         x="1411.79"
         y="227.53999"
         width="40.110001"
         height="119.85"
         rx="10"
         transform="matrix(0.81,-0.58,0.58,0.81,100.24,887.17)"
         id="rect452" />
      <rect
         class="cls-4"
         x="1012.79"
         y="453.98001"
         width="518.12"
         height="43"
         rx="10"
         transform="rotate(-35.6,1271.7311,475.47612)"
         id="rect454" />
      <rect
         class="cls-5"
         x="1356.33"
         y="407.23001"
         width="181.55"
         height="185.63"
         rx="9"
         transform="rotate(-34.61,1446.9696,500.04582)"
         id="rect456" />
      <rect
         class="cls-6"
         x="1294.08"
         y="484.70999"
         width="81.709999"
         height="185.28999"
         rx="10"
         transform="rotate(-34.61,1334.8054,577.33822)"
         id="rect458" />
      <rect
         class="cls-5"
         x="1505.01"
         y="307.45999"
         width="184.87"
         height="174.69"
         rx="10"
         transform="rotate(55.32,1597.3849,394.74438)"
         id="rect460" />
      <rect
         class="cls-5"
         x="1496.36"
         y="282.12"
         width="188.24001"
         height="134.52"
         rx="10"
         transform="rotate(55.32,1590.4129,349.33139)"
         id="rect462" />
      <rect
         class="cls-5"
         x="1242.52"
         y="299.39001"
         width="181.3"
         height="89.760002"
         rx="10"
         transform="rotate(-35.6,1333.0413,344.28191)"
         id="rect464" />
      <text
         class="cls-7"
         transform="rotate(-34.67,1241.973,-1928.7505)"
         id="text466">105</text>
      <text
         class="cls-7"
         transform="rotate(-34.67,1442.3534,-2328.5418)"
         id="text468">106</text>
      <text
         class="cls-7"
         transform="rotate(-34.67,1570.1887,-2028.4654)"
         id="text470">107</text>
      <rect
         class="cls-5"
         x="1098.86"
         y="435.16"
         width="89.410004"
         height="89.099998"
         rx="10"
         transform="rotate(-35.6,1143.4615,479.69603)"
         id="rect472" />
      <rect
         class="cls-5"
         x="1174.71"
         y="382.70999"
         width="87.860001"
         height="88.089996"
         rx="10"
         transform="rotate(-35.6,1218.5394,426.75533)"
         id="rect474" />
      <text
         class="cls-7"
         transform="matrix(0.82,-0.57,0.57,0.82,1200.05,444.89)"
         id="text478">104<tspan
   class="cls-8"
   x="48.130001"
   y="0"
   id="tspan476">а</tspan></text>
      <text
         class="cls-7"
         transform="matrix(0.83,-0.56,0.56,0.83,1129.06,498.63)"
         id="text480">104</text>
      <rect
         class="cls-5"
         x="1206"
         y="554"
         width="88"
         height="45"
         rx="10"
         transform="rotate(55,1250.0077,576.50746)"
         id="rect482" />
      <text
         class="cls-7"
         transform="rotate(53.69,58.670344,1493.2543)"
         id="text484">109</text>
      <text
         class="cls-7"
         transform="rotate(54.99,122.25405,1534.1829)"
         id="text486">108</text>
      <path
         class="cls-9"
         d="M 1017,572 V 461.4 c 0,0 7.22,-33.69 37.61,-9.54 30.39,24.15 64.46,87.1 64.46,87.1 L 1094,557 1057.68,507.57 c 0,0 -5.68,-6.57 -9.68,2.43 v 66 h -31 z"
         id="path488" />
      <text
         class="cls-10"
         transform="translate(1026.15,488.06)"
         id="text498">1-1 <tspan
   class="cls-11"
   x="18.540001"
   y="0"
   id="tspan490">с</tspan><tspan
   class="cls-12"
   x="24.02"
   y="0"
   id="tspan492">х</tspan><tspan
   class="cls-13"
   x="29.41"
   y="0"
   id="tspan494">о</tspan><tspan
   x="35.919998"
   y="0"
   id="tspan496">ди</tspan></text>
      <text
         class="cls-10"
         transform="translate(1087.33,709.29)"
         id="text510">ве<tspan
   class="cls-14"
   x="12.01"
   y="0"
   id="tspan500">с</tspan><tspan
   class="cls-13"
   x="17.58"
   y="0"
   id="tspan502">т</tspan><tspan
   x="22.43"
   y="0"
   id="tspan504">иб</tspan><tspan
   class="cls-15"
   x="35.41"
   y="0"
   id="tspan506">ю</tspan><tspan
   x="43.919998"
   y="0"
   id="tspan508">ль</tspan></text>
      <text
         class="cls-10"
         transform="translate(779.71,885.59)"
         id="text520"><tspan
           class="cls-12"
           id="tspan512">т</tspan><tspan
           x="4.7600002"
           y="0"
           id="tspan514">ам</tspan><tspan
           class="cls-16"
           x="18.219999"
           y="0"
           id="tspan516">б</tspan><tspan
           class="cls-17"
           x="24.43"
           y="0"
           id="tspan518">ур 1-13</tspan></text>
      <rect
         class="cls-4"
         x="640"
         y="729"
         width="476"
         height="122"
         rx="10"
         id="rect522" />
      <rect
         class="cls-4"
         x="640"
         y="788"
         width="390"
         height="123"
         rx="10"
         id="rect524" />
      <text
         class="cls-10"
         transform="translate(921.02,697.86)"
         id="text548"><tspan
           class="cls-18"
           id="tspan526">д</tspan><tspan
           x="6.3099999"
           y="0"
           id="tspan528">опо</tspan><tspan
           class="cls-19"
           x="25.98"
           y="0"
           id="tspan530">м</tspan><tspan
           x="33.68"
           y="0"
           id="tspan532">іжне</tspan><tspan
           x="0"
           y="14.4"
           id="tspan534">при</tspan><tspan
           class="cls-20"
           x="19.969999"
           y="14.4"
           id="tspan536">м</tspan><tspan
           class="cls-21"
           x="27.67"
           y="14.4"
           id="tspan538">і</tspan><tspan
           class="cls-18"
           x="30.48"
           y="14.4"
           id="tspan540">щ</tspan><tspan
           x="39.419998"
           y="14.4"
           id="tspan542">ен</tspan><tspan
           class="cls-15"
           x="51.98"
           y="14.4"
           id="tspan544">н</tspan><tspan
           class="cls-21"
           x="58.580002"
           y="14.4"
           id="tspan546">я 1</tspan></text>
      <text
         class="cls-22"
         transform="translate(976.32,676.79)"
         id="text550">1-11</text>
      <text
         class="cls-22"
         transform="translate(995.18,676.87)"
         id="text552">1-12</text>
      <rect
         class="cls-5"
         x="767"
         y="635"
         width="143"
         height="92"
         rx="10"
         id="rect554" />
      <text
         class="cls-7"
         transform="translate(828.35,691.29)"
         id="text556">4</text>
      <rect
         class="cls-5"
         x="639"
         y="635"
         width="91"
         height="91"
         rx="10"
         id="rect558" />
      <text
         class="cls-7"
         transform="translate(674.05,689.92)"
         id="text560">5</text>
      <rect
         class="cls-5"
         x="824"
         y="488"
         width="182"
         height="88"
         rx="10"
         id="rect562" />
      <rect
         class="cls-5"
         x="643"
         y="488"
         width="175"
         height="88"
         rx="10"
         id="rect564" />
      <text
         class="cls-7"
         transform="translate(719.93,540.91)"
         id="text566">3</text>
      <text
         class="cls-7"
         transform="translate(909.74,537.67)"
         id="text568">2</text>
      <text
         class="cls-10"
         transform="translate(589.82,608.86)"
         id="text578"><tspan
           class="cls-23"
           id="tspan570">к</tspan><tspan
           x="5.6799998"
           y="0"
           id="tspan572">ори</tspan><tspan
           class="cls-24"
           x="25.74"
           y="0"
           id="tspan574">д</tspan><tspan
           x="32.049999"
           y="0"
           id="tspan576">ор</tspan></text>
      <text
         class="cls-10"
         transform="translate(612.13,530.91)"
         id="text586"><tspan
           class="cls-12"
           id="tspan580">х</tspan><tspan
           class="cls-25"
           x="5.3899999"
           y="0"
           id="tspan582">о</tspan><tspan
           x="12.02"
           y="0"
           id="tspan584">л</tspan></text>
      <text
         class="cls-10"
         transform="translate(549,508.52)"
         id="text602"><tspan
           class="cls-20"
           id="tspan588">с</tspan><tspan
           x="5.4099998"
           y="0"
           id="tspan590">ан</tspan><tspan
           class="cls-26"
           x="17.75"
           y="0"
           id="tspan592">в</tspan><tspan
           class="cls-27"
           x="23.620001"
           y="0"
           id="tspan594">у</tspan><tspan
           x="29.33"
           y="0"
           id="tspan596">з</tspan><tspan
           class="cls-25"
           x="34.5"
           y="0"
           id="tspan598">о</tspan><tspan
           x="41.139999"
           y="0"
           id="tspan600">л</tspan></text>
      <rect
         class="cls-6"
         x="512"
         y="525"
         width="101"
         height="27"
         rx="10"
         transform="rotate(90,562.5,538.5)"
         id="rect604" />
      <rect
         class="cls-6"
         x="555.56"
         y="552"
         width="69.440002"
         height="37"
         rx="10"
         transform="rotate(180,590.28,570.5)"
         id="rect606" />
      <rect
         class="cls-6"
         x="600.87"
         y="555.13"
         width="37.040001"
         height="30.780001"
         rx="10"
         transform="rotate(-90,619.39,570.52)"
         id="rect608" />
      <rect
         class="cls-6"
         x="557"
         y="488"
         width="43"
         height="37"
         rx="8.5"
         transform="rotate(180,578.5,506.5)"
         id="rect610" />
      <rect
         class="cls-4"
         x="517"
         y="729"
         width="42"
         height="22"
         rx="8.5"
         id="rect612" />
      <rect
         class="cls-4"
         x="572"
         y="465"
         width="46"
         height="20"
         rx="10"
         id="rect614" />
      <rect
         class="cls-5"
         x="451"
         y="638"
         width="89"
         height="88"
         rx="10"
         id="rect616" />
      <text
         class="cls-7"
         transform="translate(470.76,690.77)"
         id="text618">101</text>
      <rect
         class="cls-5"
         x="363"
         y="638"
         width="77"
         height="88"
         rx="10"
         id="rect620" />
      <text
         class="cls-7"
         transform="translate(372.45,690.9)"
         id="text624">102<tspan
   class="cls-8"
   x="48.130001"
   y="0"
   id="tspan622">б</tspan></text>
      <rect
         class="cls-3"
         x="366"
         y="486"
         width="77"
         height="103"
         rx="10"
         id="rect626" />
      <rect
         class="cls-5"
         x="449"
         y="486"
         width="94"
         height="103"
         rx="10"
         id="rect628" />
      <text
         class="cls-7"
         transform="translate(470.52,546.71)"
         id="text630">103</text>
      <rect
         class="cls-4"
         x="344"
         y="591"
         width="698"
         height="35"
         rx="10"
         id="rect632" />
      <rect
         class="cls-4"
         x="548"
         y="605"
         width="77"
         height="121"
         rx="10"
         id="rect634" />
      <rect
         class="cls-4"
         x="739"
         y="611"
         width="21"
         height="134"
         rx="10"
         id="rect636" />
      <text
         class="cls-10"
         transform="translate(278.24,503.02)"
         id="text646">б<tspan
   class="cls-28"
   x="6.3400002"
   y="0"
   id="tspan638">а</tspan><tspan
   x="12.19"
   y="0"
   id="tspan640">л</tspan><tspan
   class="cls-23"
   x="18.280001"
   y="0"
   id="tspan642">к</tspan><tspan
   x="23.950001"
   y="0"
   id="tspan644">он</tspan></text>
      <rect
         class="cls-3"
         x="1701.3"
         y="336.60999"
         width="76.309998"
         height="68.639999"
         rx="10"
         transform="rotate(-34.68,1739.5894,370.92008)"
         id="rect648" />
      <rect
         class="cls-4"
         x="294"
         y="526"
         width="65"
         height="167"
         rx="10"
         id="rect650" />
      <rect
         class="cls-3"
         x="921"
         y="635"
         width="90"
         height="90"
         rx="10"
         id="rect652" />
      <path
         class="cls-3"
         d="M 350,696 H 302 A 12,12 0 0 1 290,684 V 534 a 12,12 0 0 1 12,-12 h 48 a 12,12 0 0 1 9,4.1 V 499 a 12,12 0 0 0 -12,-12 h -68 a 12,12 0 0 0 -12,12 v 219 a 12,12 0 0 0 12,12 h 68 a 12,12 0 0 0 12,-12 v -26.1 a 12,12 0 0 1 -9,4.1 z"
         id="path654" />
      <rect
         class="cls-4"
         x="1014"
         y="591"
         width="204"
         height="197"
         rx="22.309999"
         id="rect666" />
      <rect
         class="cls-4"
         x="602"
         y="465"
         width="35"
         height="84"
         rx="12"
         id="rect668" />
      <rect
         class="cls-4"
         x="577"
         y="528"
         width="47"
         height="21"
         rx="10.5"
         id="rect670" />
      <rect
         class="cls-4"
         x="1104.3101"
         y="570.46997"
         width="161.14999"
         height="206.81"
         rx="12"
         transform="rotate(-35.6,1184.7644,673.84658)"
         id="rect672" />
      <rect
         class="cls-4"
         x="1047"
         y="666.65997"
         width="158.45"
         height="158.23"
         rx="10"
         transform="rotate(-34.61,1126.1035,745.73551)"
         id="rect674" />
      <rect
         class="cls-4"
         x="1240.72"
         y="625.78003"
         width="100.99"
         height="77.120003"
         rx="12"
         transform="rotate(56.25,1291.2496,664.39019)"
         id="rect676" />
      <rect
         class="cls-4"
         x="548"
         y="869"
         width="129"
         height="42"
         rx="10"
         id="rect678" />
      <rect
         class="cls-4"
         x="990.21997"
         y="822.87"
         width="144.83"
         height="55.990002"
         rx="10"
         transform="rotate(-33.98,1062.6499,850.87293)"
         id="rect680" />
      <rect
         class="cls-4"
         x="979.64001"
         y="504.48999"
         width="156.88"
         height="54.73"
         rx="10"
         transform="rotate(73.67,1058.046,531.79765)"
         id="rect682" />
      <circle
         class="cls-4"
         cx="1039.5"
         cy="468.5"
         r="27.5"
         id="circle684" />
      <rect
         class="cls-4"
         x="966.5"
         y="506.5"
         width="148"
         height="57"
         rx="10"
         transform="rotate(-90,1040.5,535)"
         id="rect686" />
      <rect
         class="cls-4"
         x="995.96002"
         y="493.54999"
         width="146.92999"
         height="56.220001"
         rx="10"
         transform="rotate(-120,1069.4269,521.65944)"
         id="rect688" />
      <rect
         class="cls-4"
         x="1000.96"
         y="490.54999"
         width="146.92999"
         height="56.220001"
         rx="10"
         transform="rotate(-125.6,1074.4028,518.67791)"
         id="rect690" />
      <line
         class="cls-29"
         x1="1017"
         y1="572"
         x2="1047"
         y2="572"
         id="line692" />
      <line
         class="cls-29"
         x1="1092.8"
         y1="555.72998"
         x2="1117.2"
         y2="538.27002"
         id="line694" />
      <line
         class="cls-29"
         x1="1090.8"
         y1="552.72998"
         x2="1115.2"
         y2="535.27002"
         id="line696" />
      <line
         class="cls-29"
         x1="1088.8"
         y1="549.72998"
         x2="1113.2"
         y2="532.27002"
         id="line698" />
      <line
         class="cls-29"
         x1="1086.8"
         y1="546.72998"
         x2="1111.2"
         y2="529.27002"
         id="line700" />
      <line
         class="cls-29"
         x1="1084.8"
         y1="543.72998"
         x2="1109.2"
         y2="526.27002"
         id="line702" />
      <line
         class="cls-29"
         x1="1082.8"
         y1="540.72998"
         x2="1107.2"
         y2="523.27002"
         id="line704" />
      <line
         class="cls-29"
         x1="1080.8"
         y1="537.72998"
         x2="1105.2"
         y2="520.27002"
         id="line706" />
      <line
         class="cls-29"
         x1="1078.8"
         y1="534.72998"
         x2="1103.2"
         y2="517.27002"
         id="line708" />
      <line
         class="cls-29"
         x1="1076.8"
         y1="531.72998"
         x2="1101.2"
         y2="514.27002"
         id="line710" />
      <line
         class="cls-29"
         x1="1074.8"
         y1="528.72998"
         x2="1099.2"
         y2="511.26999"
         id="line712" />
      <line
         class="cls-29"
         x1="1072.8"
         y1="525.72998"
         x2="1097.2"
         y2="508.26999"
         id="line714" />
      <line
         class="cls-29"
         x1="1070.8"
         y1="522.72998"
         x2="1095.2"
         y2="505.26999"
         id="line716" />
      <line
         class="cls-29"
         x1="1068.8"
         y1="519.72998"
         x2="1093.2"
         y2="502.26999"
         id="line718" />
      <line
         class="cls-29"
         x1="1066.8"
         y1="516.72998"
         x2="1091.2"
         y2="499.26999"
         id="line720" />
      <line
         class="cls-29"
         x1="1017"
         y1="568"
         x2="1047"
         y2="568"
         id="line722" />
      <line
         class="cls-29"
         x1="1017"
         y1="564"
         x2="1047"
         y2="564"
         id="line724" />
      <line
         class="cls-29"
         x1="1017"
         y1="560"
         x2="1047"
         y2="560"
         id="line726" />
      <line
         class="cls-29"
         x1="358"
         y1="691"
         x2="346"
         y2="691"
         id="line728" />
      <line
         class="cls-29"
         x1="358"
         y1="687"
         x2="346"
         y2="687"
         id="line730" />
      <line
         class="cls-29"
         x1="358"
         y1="683"
         x2="346"
         y2="683"
         id="line732" />
      <line
         class="cls-29"
         x1="358"
         y1="679"
         x2="346"
         y2="679"
         id="line734" />
      <line
         class="cls-29"
         x1="358"
         y1="675"
         x2="346"
         y2="675"
         id="line736" />
      <line
         class="cls-29"
         x1="358"
         y1="671"
         x2="346"
         y2="671"
         id="line738" />
      <line
         class="cls-29"
         x1="358"
         y1="667"
         x2="346"
         y2="667"
         id="line740" />
      <line
         class="cls-29"
         x1="576"
         y1="718"
         x2="576"
         y2="704"
         id="line742" />
      <line
         class="cls-29"
         x1="581"
         y1="718"
         x2="581"
         y2="704"
         id="line744" />
      <line
         class="cls-29"
         x1="586"
         y1="718"
         x2="586"
         y2="704"
         id="line746" />
      <line
         class="cls-29"
         x1="578"
         y1="481"
         x2="578"
         y2="467"
         id="line748" />
      <line
         class="cls-29"
         x1="582"
         y1="481"
         x2="582"
         y2="467"
         id="line750" />
      <line
         class="cls-29"
         x1="586"
         y1="481"
         x2="586"
         y2="467"
         id="line752" />
      <line
         class="cls-29"
         x1="590"
         y1="481"
         x2="590"
         y2="467"
         id="line754" />
      <line
         class="cls-29"
         x1="594"
         y1="481"
         x2="594"
         y2="467"
         id="line756" />
      <line
         class="cls-29"
         x1="598"
         y1="481"
         x2="598"
         y2="467"
         id="line758" />
      <line
         class="cls-29"
         x1="602"
         y1="481"
         x2="602"
         y2="467"
         id="line760" />
      <line
         class="cls-29"
         x1="566"
         y1="694"
         x2="566"
         y2="680"
         id="line762" />
      <line
         class="cls-29"
         x1="571"
         y1="694"
         x2="571"
         y2="680"
         id="line764" />
      <line
         class="cls-29"
         x1="576"
         y1="694"
         x2="576"
         y2="680"
         id="line766" />
      <line
         class="cls-29"
         x1="581"
         y1="694"
         x2="581"
         y2="680"
         id="line768" />
      <line
         class="cls-29"
         x1="586"
         y1="694"
         x2="586"
         y2="680"
         id="line770" />
      <line
         class="cls-29"
         x1="591"
         y1="694"
         x2="591"
         y2="680"
         id="line772" />
      <line
         class="cls-29"
         x1="596"
         y1="694"
         x2="596"
         y2="680"
         id="line774" />
      <line
         class="cls-29"
         x1="601"
         y1="694"
         x2="601"
         y2="680"
         id="line776" />
      <line
         class="cls-29"
         x1="606"
         y1="694"
         x2="606"
         y2="680"
         id="line778" />
      <line
         class="cls-29"
         x1="591"
         y1="718"
         x2="591"
         y2="704"
         id="line780" />
      <line
         class="cls-29"
         x1="596"
         y1="718"
         x2="596"
         y2="704"
         id="line782" />
      <line
         class="cls-29"
         x1="601"
         y1="718"
         x2="601"
         y2="704"
         id="line784" />
      <line
         class="cls-29"
         x1="606"
         y1="718"
         x2="606"
         y2="704"
         id="line786" />
      <line
         class="cls-29"
         x1="611"
         y1="718"
         x2="611"
         y2="704"
         id="line788" />
      <line
         class="cls-29"
         x1="616"
         y1="718"
         x2="616"
         y2="704"
         id="line790" />
      <line
         class="cls-29"
         x1="524"
         y1="749"
         x2="524"
         y2="735"
         id="line792" />
      <line
         class="cls-29"
         x1="528"
         y1="749"
         x2="528"
         y2="735"
         id="line794" />
      <line
         class="cls-29"
         x1="532"
         y1="749"
         x2="532"
         y2="735"
         id="line796" />
      <line
         class="cls-29"
         x1="536"
         y1="749"
         x2="536"
         y2="735"
         id="line798" />
      <line
         class="cls-29"
         x1="540"
         y1="749"
         x2="540"
         y2="735"
         id="line800" />
      <line
         class="cls-29"
         x1="544"
         y1="749"
         x2="544"
         y2="735"
         id="line802" />
      <line
         class="cls-29"
         x1="548"
         y1="749"
         x2="548"
         y2="735"
         id="line804" />
      <line
         class="cls-29"
         x1="1017"
         y1="556"
         x2="1047"
         y2="556"
         id="line806" />
      <line
         class="cls-29"
         x1="1017"
         y1="552"
         x2="1047"
         y2="552"
         id="line808" />
      <line
         class="cls-29"
         x1="1017"
         y1="548"
         x2="1047"
         y2="548"
         id="line810" />
      <line
         class="cls-29"
         x1="1017"
         y1="544"
         x2="1047"
         y2="544"
         id="line812" />
      <line
         class="cls-29"
         x1="1017"
         y1="540"
         x2="1047"
         y2="540"
         id="line814" />
      <line
         class="cls-29"
         x1="1017"
         y1="536"
         x2="1047"
         y2="536"
         id="line816" />
      <line
         class="cls-29"
         x1="1017"
         y1="532"
         x2="1047"
         y2="532"
         id="line818" />
      <line
         class="cls-29"
         x1="1017"
         y1="528"
         x2="1047"
         y2="528"
         id="line820" />
      <line
         class="cls-29"
         x1="1017"
         y1="524"
         x2="1047"
         y2="524"
         id="line822" />
      <path
         class="cls-4"
         d="m 1085,499.28 -15.64,11.2 a 5.6,5.6 0 0 1 -7.65,-1.07 c -10.92,-13.8 -13.73,-2 -14.45,5.55 a 5.58,5.58 0 0 1 -5.57,5 h -19.79 a 5.59,5.59 0 0 1 -5.57,-5 c -3.83,-34.58 2.28,-134.58 70.2,-23.22 a 5.59,5.59 0 0 1 -1.53,7.54 z"
         id="path824" />
      <line
         class="cls-29"
         x1="1108.98"
         y1="550.02002"
         x2="1076.02"
         y2="503.98001"
         id="line826" />
      <polygon
         class="cls-2"
         points="1073.59,500.58 1079.28,504.07 1076.53,504.69 1075.06,507.09 "
         id="polygon828" />
      <line
         class="cls-29"
         x1="521"
         y1="742"
         x2="552.82001"
         y2="742"
         id="line830" />
      <polygon
         class="cls-2"
         points="557,742 550.86,744.59 551.96,742 550.86,739.41 "
         id="polygon832" />
      <line
         class="cls-29"
         x1="574"
         y1="474"
         x2="605.82001"
         y2="474"
         id="line834" />
      <polygon
         class="cls-2"
         points="610,474 603.86,476.59 604.96,474 603.86,471.41 "
         id="polygon836" />
      <line
         class="cls-29"
         x1="574"
         y1="711"
         x2="620.82001"
         y2="711"
         id="line838" />
      <polygon
         class="cls-2"
         points="625,711 618.86,713.59 619.96,711 618.86,708.41 "
         id="polygon840" />
      <line
         class="cls-29"
         x1="610"
         y1="687"
         x2="561.17999"
         y2="687"
         id="line842" />
      <polygon
         class="cls-2"
         points="557,687 563.14,684.41 562.04,687 563.14,689.59 "
         id="polygon844" />
      <line
         class="cls-29"
         x1="625"
         y1="711"
         x2="626"
         y2="711"
         id="line846" />
      <line
         class="cls-29"
         x1="626"
         y1="687"
         x2="626"
         y2="711"
         id="line848" />
      <line
         class="cls-29"
         x1="610"
         y1="687"
         x2="626"
         y2="687"
         id="line850" />
      <path
         class="cls-29"
         d="m 1076,504 c -2.91,-3.9 -7.87,-10.59 -14,-19 -13.69,-18.79 -24,-20.25 -27,6 -2.16,18.94 -2.5,28.69 -2.5,28.69 -0.48,13.83 -0.77,33 0,56.62"
         id="path852" />
      <polygon
         class="cls-2"
         points="1032.64,580.48 1029.85,574.43 1032.47,575.44 1035.03,574.26 "
         id="polygon854" />
      <line
         class="cls-30"
         x1="753"
         y1="918"
         x2="737.5"
         y2="940.5"
         id="line856" />
      <line
         class="cls-30"
         x1="786.21997"
         y1="916.90997"
         x2="803.5"
         y2="940.5"
         id="line858" />
      <line
         class="cls-30"
         x1="844"
         y1="918"
         x2="828.5"
         y2="940.5"
         id="line860" />
      <line
         class="cls-30"
         x1="877.21997"
         y1="916.90997"
         x2="894.5"
         y2="940.5"
         id="line862" />
      <line
         class="cls-30"
         x1="927"
         y1="918"
         x2="911.5"
         y2="940.5"
         id="line864" />
      <line
         class="cls-30"
         x1="960.21997"
         y1="916.90997"
         x2="977.5"
         y2="940.5"
         id="line866" />
    </g>
    <text
       xml:space="preserve"
       style="font-style:normal;font-variant:normal;font-weight:bold;font-stretch:normal;font-size:73.9758px;line-height:1.25;font-family:'Century Gothic';-inkscape-font-specification:'Century Gothic Bold';word-spacing:0px;fill:#000000;fill-opacity:1;stroke:none;stroke-width:1.16614"
       x="168.70889"
       y="205.02379"
       id="text1216"><tspan
         sodipodi:role="line"
         id="tspan1214"
         x="168.70889"
         y="205.02379"
         style="font-style:normal;font-variant:normal;font-weight:bold;font-stretch:normal;font-size:73.9758px;font-family:'Century Gothic';-inkscape-font-specification:'Century Gothic Bold';stroke-width:1.16614">Перший Поверх</tspan></text>
  </g>
</svg>
