<?xml version="1.0" encoding="UTF-8" standalone="no"?>
<svg
   viewBox="0 0 2245.0394 1587.4017"
   version="1.1"
   id="svg265"
   sodipodi:docname="2-floor — копия.svg"
   inkscape:version="1.1.2 (b8e25be833, 2022-02-05)"
   width="594mm"
   height="420mm"
   xmlns:inkscape="http://www.inkscape.org/namespaces/inkscape"
   xmlns:sodipodi="http://sodipodi.sourceforge.net/DTD/sodipodi-0.dtd"
   xmlns="http://www.w3.org/2000/svg"
   xmlns:svg="http://www.w3.org/2000/svg">
  <sodipodi:namedview
     id="namedview267"
     pagecolor="#ffffff"
     bordercolor="#666666"
     borderopacity="1.0"
     inkscape:pageshadow="2"
     inkscape:pageopacity="0.0"
     inkscape:pagecheckerboard="0"
     showgrid="false"
     inkscape:zoom="41.060625"
     inkscape:cx="1882.8135"
     inkscape:cy="507.10383"
     inkscape:window-width="1920"
     inkscape:window-height="974"
     inkscape:window-x="-9"
     inkscape:window-y="-9"
     inkscape:window-maximized="1"
     inkscape:current-layer="g526"
     units="mm"
     inkscape:document-units="mm" />
  <defs
     id="defs4">
    <style
       id="style2">.cls-1{fill:#eae3fc;stroke-width:6px;}.cls-1,.cls-6{stroke:#6a5fd3;stroke-miterlimit:10;}.cls-2{fill:#dce7fd;}.cls-3{fill:#849ff3;}.cls-4{fill:#47479c;}.cls-5{fill:#5757cb;}.cls-6{fill:none;stroke-linecap:round;stroke-width:2px;}.cls-7{fill:#6a5fd3;}.cls-8{font-size:27px;font-family:ArialRoundedMTBold, Arial Rounded MT Bold;}.cls-9{font-size:14px;font-family:MyriadPro-Regular, Myriad Pro;}</style>
  </defs>
  <g
     id="g526"
     transform="matrix(1.3908387,0,0,1.3908387,-195.64037,133.94949)">
    <g
       id="Overlay">
      <g
         id="Layer_4"
         data-name="Layer 4">
        <path
           class="cls-1"
           d="m 154.74,491.58 v 287.8 L 1105.91,781.6 1724.1,321.51 1568,106 1063.11,475.83 c 0,0 -64.8,-75.28 -77.21,20.17 z"
           id="path6" />
      </g>
    </g>
    <rect
       class="cls-2"
       x="999.59326"
       y="1009.8522"
       width="44.400002"
       height="132.67"
       rx="11.07"
       transform="rotate(-35.6)"
       id="rect10" />
    <rect
       class="cls-2"
       x="467.70697"
       y="1118.0288"
       width="575.72998"
       height="47.779999"
       rx="11.11"
       transform="rotate(-35.6)"
       id="rect12" />
    <rect
       class="cls-3"
       x="796.8562"
       y="1010.7098"
       width="201.46001"
       height="99.739998"
       rx="11.11"
       transform="rotate(-35.6)"
       id="rect14" />
    <rect
       class="cls-4"
       x="587.25037"
       y="1013.2704"
       width="99.349998"
       height="99.010002"
       rx="11.11"
       transform="rotate(-35.6)"
       id="rect16" />
    <rect
       class="cls-3"
       x="695.30029"
       y="1010.8312"
       width="97.629997"
       height="97.879997"
       rx="11.11"
       transform="rotate(-35.6)"
       id="rect18" />
    <path
       class="cls-4"
       d="m 1242,563 44.33,61.45 a 11.2,11.2 0 0 1 -2.46,15.59 l -22.45,16.39 a 11.06,11.06 0 0 1 -15.5,-2.48 l -44.33,-61.44 A 11.2,11.2 0 0 1 1204,577 l 22.45,-16.39 A 11,11 0 0 1 1242,563 Z"
       id="path20" />
    <path
       class="cls-4"
       d="m 690.78,666 h 83.44 c 3.74,0 6.78,5 6.78,11.11 v 80 c 0,6.14 -3,11.12 -6.78,11.12 h -83.44 c -3.74,0 -6.78,-5 -6.78,-11.12 v -80 C 684,671 687,666 690.78,666 Z"
       id="path22" />
    <path
       class="cls-5"
       d="m 793.78,666 h 83.44 c 3.74,0 6.78,5 6.78,11.11 v 80 c 0,6.14 -3,11.12 -6.78,11.12 h -83.44 c -3.74,0 -6.78,-5 -6.78,-11.12 v -80 C 787,671 790,666 793.78,666 Z"
       id="path24" />
    <rect
       class="cls-4"
       x="577.88"
       y="667.03998"
       width="101.12"
       height="101.12"
       rx="11.11"
       id="rect26" />
    <rect
       class="cls-5"
       x="487.87"
       y="502.69"
       width="30"
       height="112.23"
       rx="11.11"
       id="rect28" />
    <rect
       class="cls-5"
       x="495.64999"
       y="573.81"
       width="76.669998"
       height="41.110001"
       rx="11.11"
       id="rect30" />
    <rect
       class="cls-5"
       x="548.98999"
       y="573.81"
       width="34.450001"
       height="41.110001"
       rx="11.11"
       id="rect32" />
    <rect
       class="cls-5"
       x="496.76001"
       y="502.69"
       width="47.779999"
       height="41.110001"
       rx="9.4499998"
       id="rect34" />
    <path
       class="cls-3"
       d="m 387.67,669.37 h 80.53 c 6.44,0 11.67,5 11.67,11.11 V 756 c 0,6.14 -5.23,11.11 -11.67,11.11 h -80.53 c -6.44,0 -11.67,-5 -11.67,-11.11 v -75.52 c 0,-6.13 5.23,-11.11 11.67,-11.11 z"
       id="path36" />
    <path
       class="cls-2"
       d="m 369.8149,617.15 h 631.38 c 5.14,0 9.31,5 9.31,11.11 v 16.66 c 0,6.14 -4.17,11.12 -9.31,11.12 h -631.38 c -5.14,0 -9.31,-5 -9.31,-11.12 v -16.66 c 0,-6.14 4.17,-11.11 9.31,-11.11 z"
       id="path38" />
    <path
       class="cls-2"
       d="m 493.69,632.7 h 66.62 c 6.46,0 11.69,5 11.69,11.11 V 756 c 0,6.14 -5.23,11.11 -11.69,11.11 h -66.62 c -6.46,0 -11.69,-5 -11.69,-11.11 V 643.81 c 0,-6.13 5.23,-11.11 11.69,-11.11 z"
       id="path40" />
    <path
       class="cls-5"
       d="m 900.34,666 h 77.79 a 11.22,11.22 0 0 1 11.11,11.33 v 79.3 A 11.22,11.22 0 0 1 978.13,768 h -77.79 a 11.22,11.22 0 0 1 -11.11,-11.33 v -79.3 A 11.22,11.22 0 0 1 900.34,666 Z"
       id="path42" />
    <path
       class="cls-2"
       d="m 1017.36,617.15 h 177.1 c 13.69,0 24.79,8 24.79,17.76 L 1180,705 c 0,9.81 -63.31,67 -77,67 l -85.64,2 c -13.69,0 -24.79,-8 -24.79,-17.76 V 634.91 c 0,-9.81 11.1,-17.76 24.79,-17.76 z"
       id="path44" />
    <path
       class="cls-2"
       d="m 560.1,498 h 12.22 c 7.36,0 13.33,4.64 13.33,10.35 v 51.77 c 0,5.72 -6,10.36 -13.33,10.36 H 560.1 c -7.37,0 -13.34,-4.64 -13.34,-10.36 v -51.77 c 0,-5.71 5.97,-10.35 13.34,-10.35 z"
       id="path46" />
    <path
       class="cls-2"
       d="m 530.67,547.14 h 28.89 a 11.66,11.66 0 0 1 11.67,11.67 v 0 a 11.67,11.67 0 0 1 -11.67,11.67 H 530.67 A 11.68,11.68 0 0 1 519,558.81 v 0 a 11.67,11.67 0 0 1 11.67,-11.67 z"
       id="path48" />
    <path
       class="cls-2"
       d="m 1051.72,625.47 81.56,-58.82 a 8.74,8.74 0 0 1 12.25,2 l 77.83,109.51 a 8.88,8.88 0 0 1 -2,12.33 l -81.56,58.82 a 8.73,8.73 0 0 1 -12.24,-2 L 1049.69,637.8 a 8.88,8.88 0 0 1 2.03,-12.33 z"
       id="path50" />
    <path
       class="cls-2"
       d="m 1071.72,608.47 81.56,-58.82 a 8.74,8.74 0 0 1 12.25,2 l 77.83,109.51 a 8.88,8.88 0 0 1 -2,12.33 l -81.56,58.82 a 8.73,8.73 0 0 1 -12.24,-2 L 1069.69,620.8 a 8.88,8.88 0 0 1 2.03,-12.33 z"
       id="path52" />
    <path
       class="cls-2"
       d="m 1039,479 53,136.81 a 11.12,11.12 0 0 1 -7.54,13.79 l -37,10.85 a 11.11,11.11 0 0 1 -13.78,-7.54 L 1003,485 a 8.42,8.42 0 0 1 -4.54,-11.84 l 37,-10.85 A 10,10 0 0 0 1032,469 c -0.24,4.13 2.55,8.21 7,10 z"
       id="path54" />
    <path
       class="cls-2"
       d="m 1018,452 c 7.81,-0.6 22.67,5.44 30,19 1.65,3 3.2,5.92 3.48,10 0.94,13.51 -12.76,31.6 -30.55,30.55 -17.79,-1.05 -26.69,-20.78 -26.93,-31.25 0,-0.18 0,-0.65 0,-1.3 0,-0.92 0.66,-15.53 13.1,-23.71 A 27.44,27.44 0 0 1 1018,452 Z"
       id="path56" />
    <path
       class="cls-2"
       d="M 990.35,626 997,477 c 0.33,-0.33 0.66,-0.67 1,-1 q 1.74,-1.72 3.46,-3.31 h 41.11 a 11.12,11.12 0 0 1 11.12,11.11 V 626 a 11.12,11.12 0 0 1 -11.12,11.12 h -41.11 A 11.11,11.11 0 0 1 990.35,626 Z"
       id="path58" />
    <path
       class="cls-2"
       d="M 1065.28,616.75 998.41,494.6 a 11.45,11.45 0 0 1 3.86,-15.18 l 33,-20.12 a 18.41,18.41 0 0 1 4,1.7 19.44,19.44 0 0 1 5.69,5 l 71.58,119.51 a 11.46,11.46 0 0 1 -3.85,15.18 l -33,20.13 a 10.25,10.25 0 0 1 -14.41,-4.07 z"
       id="path60" />
    <path
       class="cls-2"
       d="M 1124,576.25 1048.9,467 a 24.64,24.64 0 0 1 -2.81,-2.49 16.83,16.83 0 0 1 -3.53,-2.44 27.19,27.19 0 0 0 -11.11,-2 l -31,23.23 A 11.33,11.33 0 0 0 998,498.61 l 77.88,113.69 a 10.23,10.23 0 0 0 14.7,2.54 l 31,-23.22 a 11.33,11.33 0 0 0 2.42,-15.37 z"
       id="path62" />
    <line
       class="cls-6"
       x1="995.90002"
       y1="596.03003"
       x2="1029.24"
       y2="596.03003"
       id="line64" />
    <line
       class="cls-6"
       x1="1080.15"
       y1="577.91998"
       x2="1107.27"
       y2="558.51001"
       id="line66" />
    <line
       class="cls-6"
       x1="1077.9301"
       y1="574.58002"
       x2="1105.04"
       y2="555.17999"
       id="line68" />
    <line
       class="cls-6"
       x1="1075.71"
       y1="571.25"
       x2="1102.8199"
       y2="551.84998"
       id="line70" />
    <line
       class="cls-6"
       x1="1073.49"
       y1="567.90997"
       x2="1100.6"
       y2="548.51001"
       id="line72" />
    <line
       class="cls-6"
       x1="1071.26"
       y1="564.58002"
       x2="1098.38"
       y2="545.17999"
       id="line74" />
    <line
       class="cls-6"
       x1="1069.04"
       y1="561.25"
       x2="1096.15"
       y2="541.84998"
       id="line76" />
    <line
       class="cls-6"
       x1="1066.8199"
       y1="557.90997"
       x2="1093.9301"
       y2="538.51001"
       id="line78" />
    <line
       class="cls-6"
       x1="1064.6"
       y1="554.58002"
       x2="1091.71"
       y2="535.17999"
       id="line80" />
    <line
       class="cls-6"
       x1="1062.37"
       y1="551.25"
       x2="1089.49"
       y2="531.84998"
       id="line82" />
    <line
       class="cls-6"
       x1="1060.15"
       y1="547.90997"
       x2="1087.26"
       y2="528.51001"
       id="line84" />
    <line
       class="cls-6"
       x1="1057.9301"
       y1="544.58002"
       x2="1085.04"
       y2="525.17999"
       id="line86" />
    <line
       class="cls-6"
       x1="1055.71"
       y1="541.25"
       x2="1082.8199"
       y2="521.84998"
       id="line88" />
    <line
       class="cls-6"
       x1="1053.48"
       y1="537.90997"
       x2="1080.6"
       y2="518.51001"
       id="line90" />
    <line
       class="cls-6"
       x1="1051.26"
       y1="534.58002"
       x2="1078.38"
       y2="515.17999"
       id="line92" />
    <line
       class="cls-6"
       x1="995.90002"
       y1="591.59003"
       x2="1029.24"
       y2="591.59003"
       id="line94" />
    <line
       class="cls-6"
       x1="995.90002"
       y1="587.14001"
       x2="1029.24"
       y2="587.14001"
       id="line96" />
    <line
       class="cls-6"
       x1="995.90002"
       y1="582.70001"
       x2="1029.24"
       y2="582.70001"
       id="line98" />
    <line
       class="cls-6"
       x1="505.87"
       y1="758.27002"
       x2="505.87"
       y2="742.71002"
       id="line100" />
    <line
       class="cls-6"
       x1="511.42999"
       y1="758.27002"
       x2="511.42999"
       y2="742.71002"
       id="line102" />
    <line
       class="cls-6"
       x1="516.97998"
       y1="758.27002"
       x2="516.97998"
       y2="742.71002"
       id="line104" />
    <line
       class="cls-6"
       x1="494.76001"
       y1="731.59998"
       x2="494.76001"
       y2="716.03998"
       id="line106" />
    <line
       class="cls-6"
       x1="500.32001"
       y1="731.59998"
       x2="500.32001"
       y2="716.03998"
       id="line108" />
    <line
       class="cls-6"
       x1="505.87"
       y1="731.59998"
       x2="505.87"
       y2="716.03998"
       id="line110" />
    <line
       class="cls-6"
       x1="511.42999"
       y1="731.59998"
       x2="511.42999"
       y2="716.03998"
       id="line112" />
    <line
       class="cls-6"
       x1="516.97998"
       y1="731.59998"
       x2="516.97998"
       y2="716.03998"
       id="line114" />
    <line
       class="cls-6"
       x1="522.53998"
       y1="731.59998"
       x2="522.53998"
       y2="716.03998"
       id="line116" />
    <line
       class="cls-6"
       x1="528.09998"
       y1="731.59998"
       x2="528.09998"
       y2="716.03998"
       id="line118" />
    <line
       class="cls-6"
       x1="533.65002"
       y1="731.59998"
       x2="533.65002"
       y2="716.03998"
       id="line120" />
    <line
       class="cls-6"
       x1="539.21002"
       y1="731.59998"
       x2="539.21002"
       y2="716.03998"
       id="line122" />
    <line
       class="cls-6"
       x1="522.53998"
       y1="758.27002"
       x2="522.53998"
       y2="742.71002"
       id="line124" />
    <line
       class="cls-6"
       x1="528.09998"
       y1="758.27002"
       x2="528.09998"
       y2="742.71002"
       id="line126" />
    <line
       class="cls-6"
       x1="533.65002"
       y1="758.27002"
       x2="533.65002"
       y2="742.71002"
       id="line128" />
    <line
       class="cls-6"
       x1="539.21002"
       y1="758.27002"
       x2="539.21002"
       y2="742.71002"
       id="line130" />
    <line
       class="cls-6"
       x1="544.76001"
       y1="758.27002"
       x2="544.76001"
       y2="742.71002"
       id="line132" />
    <line
       class="cls-6"
       x1="550.32001"
       y1="758.27002"
       x2="550.32001"
       y2="742.71002"
       id="line134" />
    <line
       class="cls-6"
       x1="995.90002"
       y1="578.25"
       x2="1029.24"
       y2="578.25"
       id="line136" />
    <line
       class="cls-6"
       x1="995.90002"
       y1="573.81"
       x2="1029.24"
       y2="573.81"
       id="line138" />
    <line
       class="cls-6"
       x1="995.90002"
       y1="569.35999"
       x2="1029.24"
       y2="569.35999"
       id="line140" />
    <line
       class="cls-6"
       x1="995.90002"
       y1="564.91998"
       x2="1029.24"
       y2="564.91998"
       id="line142" />
    <line
       class="cls-6"
       x1="995.90002"
       y1="560.46997"
       x2="1029.24"
       y2="560.46997"
       id="line144" />
    <line
       class="cls-6"
       x1="995.90002"
       y1="556.03003"
       x2="1029.24"
       y2="556.03003"
       id="line146" />
    <line
       class="cls-6"
       x1="995.90002"
       y1="551.59003"
       x2="1029.24"
       y2="551.59003"
       id="line148" />
    <line
       class="cls-6"
       x1="995.90002"
       y1="547.14001"
       x2="1029.24"
       y2="547.14001"
       id="line150" />
    <line
       class="cls-6"
       x1="995.90002"
       y1="542.70001"
       x2="1029.24"
       y2="542.70001"
       id="line152" />
    <path
       class="cls-2"
       d="m 1071.49,517 -17.38,12.45 a 6.23,6.23 0 0 1 -8.5,-1.19 c -12.14,-15.34 -15.26,-2.23 -16.06,6.16 a 6.2,6.2 0 0 1 -6.19,5.56 h -22 a 6.21,6.21 0 0 1 -6.19,-5.56 c -4.25,-38.42 2.53,-149.54 78,-25.8 a 6.22,6.22 0 0 1 -1.68,8.38 z"
       id="path154" />
    <line
       class="cls-6"
       x1="1098.13"
       y1="571.57001"
       x2="1061.51"
       y2="520.40997"
       id="line156" />
    <polygon
       class="cls-7"
       points="1065.13,520.51 1062.07,521.2 1060.44,523.87 1058.81,516.63 "
       id="polygon158" />
    <line
       class="cls-6"
       x1="503.64999"
       y1="750.48999"
       x2="555.88"
       y2="750.48999"
       id="line160" />
    <polygon
       class="cls-7"
       points="553.52,753.33 554.74,750.45 553.52,747.57 560.34,750.45 "
       id="polygon162" />
    <line
       class="cls-6"
       x1="543.65002"
       y1="723.82001"
       x2="489.20001"
       y2="723.82001"
       id="line164" />
    <polygon
       class="cls-7"
       points="491.6,720.9 490.38,723.78 491.6,726.66 484.78,723.78 "
       id="polygon166" />
    <line
       class="cls-6"
       x1="560.32001"
       y1="750.48999"
       x2="561.42999"
       y2="750.48999"
       id="line168" />
    <line
       class="cls-6"
       x1="561.42999"
       y1="723.82001"
       x2="561.42999"
       y2="750.48999"
       id="line170" />
    <line
       class="cls-6"
       x1="543.65002"
       y1="723.82001"
       x2="561.42999"
       y2="723.82001"
       id="line172" />
    <path
       class="cls-6"
       d="m 1061.49,520.43 c -3.24,-4.33 -8.75,-11.76 -15.56,-21.11 -15.21,-20.88 -26.67,-22.5 -30,6.67 -2.4,21 -2.78,31.88 -2.78,31.88 -0.53,15.37 -0.86,36.67 0,62.91"
       id="path174" />
    <polygon
       class="cls-7"
       points="1010.2,598.7 1013.12,599.82 1015.96,598.51 1013.3,605.42 "
       id="polygon176" />
    <rect
       class="cls-4"
       x="1175.3741"
       y="-771.39392"
       width="98.089996"
       height="93"
       rx="10"
       transform="rotate(53.93)"
       id="rect178" />
    <rect
       class="cls-3"
       x="779.38452"
       y="1176.9215"
       width="204.78999"
       height="94.029999"
       rx="10"
       transform="rotate(-36.07)"
       id="rect180" />
    <rect
       class="cls-3"
       x="991.39825"
       y="1177.1718"
       width="203.44"
       height="92.540001"
       rx="10"
       transform="rotate(-36.07)"
       id="rect182" />
    <rect
       class="cls-3"
       x="1039.0889"
       y="1017.9893"
       width="160.60001"
       height="82.75"
       rx="10"
       transform="rotate(-36.07)"
       id="rect184" />
    <path
       style="fill:none;stroke:#000000;stroke-width:0.72732px;stroke-linecap:butt;stroke-linejoin:miter;stroke-opacity:1"
       d="m 1443.9444,210.63305 -0.3718,1.85625 0.1935,1.81811 0.5677,2.92467 34.3208,47.58752 3.5489,4.65713 1.7736,1.9736 2.3918,1.4939 2.6547,0.6822 2.3364,-0.032 2.5404,-0.68796 2.8564,-1.639 113.2363,-82.38098 2.486,-2.71317 1.1312,-2.21255 0.3909,-2.17965 -0.018,-1.84675 -0.2653,-1.94929 -0.8765,-1.48586 -39.3817,-53.76603 -2.0735,-1.7253 -1.8946,-0.73806 -1.9222,-0.19614 -2.482,0.16403 -2.188,0.62363 -1.4124,0.69796 -2.2495,1.6081 -2.2395,1.75257 -108.9756,79.47987 -2.1207,2.06934 -1.4325,2.45439 z"
       id="path3051"
       sodipodi:nodetypes="cccccccccccccccccccccccccccccccc" />
    <rect
       class="cls-2"
       x="1011.3833"
       y="1109.3624"
       width="183.73"
       height="64.360001"
       rx="10"
       transform="rotate(-36.07)"
       id="rect186" />
    <rect
       class="cls-3"
       x="788"
       y="500"
       width="96"
       height="102"
       rx="10"
       id="rect188" />
    <rect
       class="cls-3"
       x="687"
       y="500"
       width="96"
       height="102"
       rx="10"
       id="rect190" />
    <rect
       class="cls-3"
       x="588"
       y="500"
       width="96"
       height="102"
       rx="10"
       id="rect192" />
    <rect
       class="cls-4"
       x="376"
       y="501"
       width="106"
       height="102"
       rx="10"
       id="rect194" />
    <rect
       class="cls-3"
       x="890"
       y="501"
       width="95"
       height="102"
       rx="10"
       id="rect196" />
    <path
       style="fill:none;stroke:#000000;stroke-width:0.748944px;stroke-linecap:butt;stroke-linejoin:miter;stroke-opacity:1"
       d="m 891.43884,506.35131 -0.60115,1.24183 -0.51882,1.87411 -0.0812,5.90609 v 72.53094 3.20264 l 0.15473,2.79279 0.19592,1.57758 0.26912,0.85988 0.48503,1.07074 0.75149,1.26563 0.79801,1.10918 1.12299,1.05836 0.61546,0.41802 0.65155,0.46276 0.54607,0.31963 0.79901,0.34948 0.74459,0.15439 h 79.87311 l 1.39232,-0.24715 1.12242,-0.54007 1.60327,-1.12399 1.19022,-1.225 0.84891,-1.09648 0.67406,-1.284 0.40371,-1.59176 0.18866,-1.24816 0.18105,-2.73396 0.0309,-3.50629 v -72.08982 l -0.10842,-3.07743 -0.12144,-2.73973 -0.20347,-1.69383 -0.34548,-1.42557 -0.75372,-1.40488 -0.85085,-0.98314 -1.04886,-1.04996 -0.96446,-0.69347 -1.3737,-0.89639 -1.46617,-0.64044 -1.61744,-0.38251 h -75.85639 l -1.78209,0.22468 -1.1368,0.2928 -1.40512,0.56436 -0.87336,0.57143 -0.86875,0.58472 -0.99271,0.91038 -0.90938,1.05244 z"
       id="path2790-6-9-1-5-5"
       sodipodi:nodetypes="cccccccccccccccccccccccccccccccccccccccccccccccccc" />
    <rect
       class="cls-3"
       x="162"
       y="500"
       width="205"
       height="102"
       rx="10"
       id="rect198" />
    <rect
       class="cls-3"
       x="166"
       y="609"
       width="172"
       height="52"
       rx="10"
       id="rect200" />
    <rect
       class="cls-3"
       x="162"
       y="667"
       width="205"
       height="102"
       rx="10"
       id="rect202" />
    <text
       class="cls-8"
       id="text204"
       x="513.32001"
       y="605.54999">WC</text>
    <text
       class="cls-8"
       id="text206"
       x="706.90997"
       y="727.54999">203</text>
    <text
       class="cls-8"
       id="text210"
       x="605.90002"
       y="727.35999">203<tspan
   class="cls-9"
   x="654.03003"
   y="727.35999"
   id="tspan208">а</tspan></text>
    <text
       class="cls-8"
       id="text212"
       x="811.78998"
       y="727.52002">202</text>
    <text
       class="cls-8"
       id="text214"
       x="916.22998"
       y="727.62">201</text>
    <text
       class="cls-8"
       id="text216"
       x="403.70001"
       y="727.37">204</text>
    <text
       class="cls-8"
       id="text220"
       x="237"
       y="730.64001">205<tspan
   class="cls-9"
   x="285.13"
   y="730.64001"
   id="tspan218">а</tspan></text>
    <text
       class="cls-8"
       id="text224"
       x="228"
       y="641.64001">205<tspan
   class="cls-9"
   x="276.13"
   y="641.64001"
   id="tspan222">б</tspan></text>
    <text
       class="cls-8"
       id="text228"
       x="237"
       y="561.64001">205<tspan
   class="cls-9"
   x="285.13"
   y="561.64001"
   id="tspan226">в</tspan></text>
    <text
       class="cls-8"
       id="text232"
       x="613"
       y="561.64001">207<tspan
   class="cls-9"
   x="661.13"
   y="561.64001"
   id="tspan230">а</tspan></text>
    <text
       class="cls-8"
       id="text236"
       x="810"
       y="560.64001">208<tspan
   class="cls-9"
   x="858.13"
   y="560.64001"
   id="tspan234">а</tspan></text>
    <text
       class="cls-8"
       id="text238"
       x="403.39999"
       y="556.84003">206</text>
    <text
       class="cls-8"
       id="text240"
       x="709.38"
       y="558.27002">207</text>
    <text
       class="cls-8"
       id="text242"
       x="916.06"
       y="560.67999">208</text>
    <text
       class="cls-8"
       transform="rotate(-34.007492)"
       id="text244"
       x="640.94165"
       y="1052.1917"
       style="stroke-width:1.00125">209</text>
    <text
       class="cls-8"
       transform="rotate(-34.007492)"
       id="text246"
       x="746.00909"
       y="1047.6732"
       style="stroke-width:1.00125">210</text>
    <text
       class="cls-8"
       transform="rotate(55.15)"
       id="text248"
       x="1185.5332"
       y="-664.5589">215</text>
    <text
       class="cls-8"
       transform="rotate(-38.125182)"
       id="text250"
       x="657.19513"
       y="1259.8015"
       style="stroke-width:1.00424">214</text>
    <text
       class="cls-8"
       transform="rotate(-36.33)"
       id="text252"
       x="861.91449"
       y="1075.7061">211</text>
    <text
       class="cls-8"
       transform="rotate(-36.56)"
       id="text254"
       x="1088.1791"
       y="1080.3201">212</text>
    <text
       class="cls-8"
       transform="rotate(-36.34)"
       id="text256"
       x="856.42926"
       y="1238.1263">213</text>
    <text
       class="cls-8"
       transform="rotate(-36.06941)"
       id="text260"
       x="1086.2965"
       y="1234.9102"
       style="stroke-width:1.0021">212<tspan
   class="cls-9"
   x="1134.5276"
   y="1234.9102"
   id="tspan258"
   style="stroke-width:1.0021">а</tspan></text>
    <rect
       class="cls-5"
       x="877"
       y="731"
       width="20"
       height="17"
       id="rect262" />
    <path
       style="fill:none;stroke:#000000;stroke-width:0.753222px;stroke-linecap:butt;stroke-linejoin:miter;stroke-opacity:1"
       d="m 688.27925,505.52821 -0.47169,1.44405 -0.34293,1.87411 -0.0821,5.90609 v 72.53094 l 0.003,3.20264 0.0429,2.68045 0.13001,1.86967 0.6036,1.88568 0.7602,1.17576 0.8526,1.0867 0.95406,0.94602 0.80437,0.5753 0.68164,0.41782 0.82502,0.40951 0.6264,0.21467 0.93492,0.17686 h 80.78881 l 1.40828,-0.24715 1.13529,-0.54007 1.62161,-1.124 1.20388,-1.22499 0.85862,-1.09648 0.68182,-1.284 0.40831,-1.59176 0.19082,-1.24816 0.18313,-2.73396 0.0309,-3.50629 V 515.2378 l -0.10964,-3.07743 -0.12288,-2.73973 -0.20577,-1.69383 -0.34943,-1.42557 -0.76235,-1.40488 -0.86063,-0.98314 -1.06087,-1.04996 -0.97553,-0.69347 -1.38945,-0.89639 -1.48299,-0.64044 -1.63599,-0.38251 h -78.4831 l -1.33155,0.31527 -1.2395,0.45201 -1.08784,0.5939 -1.06048,0.78694 -1.11782,1.00025 -0.897,1.07491 z"
       id="path2790-6-9-1-5-2"
       sodipodi:nodetypes="cccccccccccccccccccccccccccccccccccccccccccccccc" />
    <path
       style="fill:none;stroke:#000000;stroke-width:0.753222px;stroke-linecap:butt;stroke-linejoin:miter;stroke-opacity:1"
       d="m 789.18436,505.55339 -0.47168,1.44405 -0.34293,1.87411 -0.0821,5.90609 v 72.53094 l 0.003,3.20264 0.0429,2.68045 0.13001,1.86967 0.6036,1.88568 0.7602,1.17576 0.8526,1.0867 0.95406,0.94602 0.80437,0.5753 0.68164,0.41782 0.82502,0.40951 0.6264,0.21467 0.93492,0.17686 h 80.78881 l 1.40828,-0.24715 1.13529,-0.54007 1.62161,-1.124 1.20388,-1.22499 0.85862,-1.09648 0.68182,-1.284 0.40831,-1.59176 0.19082,-1.24816 0.18313,-2.73396 0.0309,-3.50629 v -72.08982 l -0.10964,-3.07743 -0.12288,-2.73973 -0.20577,-1.69383 -0.34943,-1.42557 -0.76235,-1.40488 -0.86063,-0.98314 -1.06087,-1.04996 -0.97553,-0.69347 -1.38945,-0.89639 -1.48299,-0.64044 -1.63599,-0.38251 h -78.4831 l -1.33155,0.31527 -1.2395,0.45201 -1.08784,0.5939 -1.06048,0.78694 -1.11782,1.00025 -0.897,1.07491 z"
       id="path2790-6-9-1-5-2-3"
       sodipodi:nodetypes="cccccccccccccccccccccccccccccccccccccccccccccccc" />
    <path
       style="fill:none;stroke:#000000;stroke-width:0.758299px;stroke-linecap:butt;stroke-linejoin:miter;stroke-opacity:1"
       d="m 787.98859,671.63153 -0.47649,1.44879 -0.34643,1.88027 -0.0829,5.92551 v 72.76941 l 0.003,3.21317 0.0433,2.68927 0.13134,1.87581 0.60976,1.89188 0.76795,1.17963 0.8613,1.09027 0.9638,0.94913 0.81257,0.57719 0.6886,0.4192 0.83344,0.41085 0.63279,0.21538 0.94446,0.17744 h 81.61311 l 1.42265,-0.24796 1.71644,-0.61614 1.2667,-0.90482 1.01806,-1.3776 0.86738,-1.10009 0.68877,-1.28822 0.41248,-1.59699 0.19277,-1.25227 0.18499,-2.74294 0.0312,-3.51782 v -72.32684 l -0.11076,-3.08755 -0.12413,-2.74874 -0.20787,-1.6994 -0.353,-1.43025 -0.59679,-1.6819 -1.24086,-2.24931 -1.19551,-1.12771 -1.10929,-0.67099 -1.156,-0.305 -1.39906,-0.0235 -1.55364,-0.0123 h -79.28388 l -2.28614,0.0934 -0.85594,0.1811 -1.1237,0.54632 -1.12083,1.0124 -0.8073,1.05306 -0.70804,1.22703 z"
       id="path2790-6-9-1-5-2-3-2"
       sodipodi:nodetypes="cccccccccccccccccccccccccccccccccccccccccccccccc" />
    <path
       style="fill:none;stroke:#000000;stroke-width:0.771659px;stroke-linecap:butt;stroke-linejoin:miter;stroke-opacity:1"
       d="m 890.62769,671.20174 -0.80861,1.44879 -0.35875,1.88027 -0.0858,5.92551 v 72.76941 l 0.003,3.21317 0.0448,2.68927 0.32863,1.80577 0.68397,1.66424 0.79524,1.21465 0.75183,0.84513 0.91051,0.82655 0.70137,0.6122 0.66055,0.43672 1.00315,0.49841 0.77785,0.47802 1.03056,0.31754 1.0128,0.0875 h 82.00152 l 1.32476,-0.14008 1.49074,-0.45809 1.47977,-0.91382 1.36426,-1.07992 1.17682,-1.13246 0.79315,-1.08257 0.71325,-1.21819 0.5147,-1.26429 0.35722,-1.09467 0.19156,-2.74294 0.0323,-3.51782 v -72.32685 l -0.1147,-3.08755 -0.12854,-2.74874 -0.33783,-1.64686 -0.55817,-1.37772 -1.05576,-1.69942 -1.10987,-1.25121 -1.04539,-0.90008 -1.20125,-0.95114 -1.14456,-0.58517 -1.06356,-0.44375 -1.60887,-0.345 H 898.0483 l -1.40433,0.40859 -1.27159,0.5138 -1.09361,0.61636 -1.0381,0.81978 -0.99359,0.84294 -0.83827,1.13948 z"
       id="path2790-6-9-1-5-2-3-2-9"
       sodipodi:nodetypes="cccccccccccccccccccccccccccccccccccccccccccccccccc" />
    <path
       style="fill:none;stroke:#000000;stroke-width:0.718991px;stroke-linecap:butt;stroke-linejoin:miter;stroke-opacity:1"
       d="m 1071.9286,482.74954 -0.1553,1.14353 -0.01,1.48269 0.1221,1.03858 0.5146,1.67499 0.7374,1.45694 46.1368,64.44319 0.862,1.20413 1.4369,1.04161 1.1828,0.78493 1.4194,0.53378 1.1261,0.27608 1.0492,0.15599 1.5008,0.0738 1.9566,-0.18395 1.8271,-0.56566 1.778,-1.14585 64.6087,-46.25528 1.1503,-1.04488 0.8861,-1.37076 0.7737,-1.68918 0.4743,-1.66363 0.139,-0.86836 7e-4,-0.87639 0.01,-1.51001 -0.4824,-1.94725 -0.9347,-2.08984 -0.903,-1.26131 -45.362,-63.36092 -0.6967,-0.97329 -1.5699,-1.19348 -1.0995,-0.56773 -1.402,-0.51441 -1.2746,-0.36989 -0.9353,-0.15861 -1.4288,-0.0462 -1.4563,0.0871 -1.167,0.26673 -1.0993,0.41805 -0.6927,0.34216 -65.598,46.96348 -1.1083,0.98411 -0.9456,1.39286 -0.7743,1.50236 -0.398,1.50815 z"
       id="path52839"
       sodipodi:nodetypes="cccccccccccccccccccccccccccccccccccccccccccccc" />
    <path
       style="fill:none;stroke:#000000;stroke-width:0.754612px;stroke-linecap:butt;stroke-linejoin:miter;stroke-opacity:1"
       d="m 685.31229,671.58507 -0.4384,1.58413 -0.3442,1.87411 -0.0824,5.90609 v 72.53094 l 0.003,3.20264 0.0431,2.68045 0.13049,1.86967 0.60583,1.88568 0.72798,1.2458 0.89077,1.15674 0.74746,0.84096 0.84237,0.75041 0.82424,0.38279 0.68799,0.26943 0.80381,0.17965 0.93838,0.17686 h 81.08728 l 1.65863,-0.21213 1.4897,-0.43501 1.27739,-0.77379 1.24334,-1.33005 0.82678,-1.44669 0.43919,-1.31902 0.40981,-1.59176 0.33161,-1.59837 0.14879,-2.38375 -0.0741,-3.50629 v -72.08982 l 0.0651,-2.97237 -0.0183,-2.98487 -0.24155,-1.55375 -0.35072,-1.42557 -0.59007,-1.86015 -1.00389,-1.61352 -1.16986,-1.40017 -1.53946,-0.93861 -1.00935,-0.19598 -1.41843,-0.0451 -1.71208,0.003 H 692.7695 l -1.33647,8e-5 -1.41918,-0.003 -1.44207,0.55888 -1.16947,0.85698 -0.91182,1.17536 -0.62014,1.25001 z"
       id="path2790-6-9-1-5-2-3-4"
       sodipodi:nodetypes="cccccccccccccccccccccccccccccccccccccccccccccccc" />
    <path
       style="fill:none;stroke:#000000;stroke-width:0.718991px;stroke-linecap:butt;stroke-linejoin:miter;stroke-opacity:1"
       d="m 1159.1635,416.26167 -0.3261,1.1874 -0.212,1.57244 -0.01,1.97843 0.4144,1.86039 0.9513,1.82659 46.515,64.79239 1.32,1.26573 1.4107,0.83815 1.3113,0.47874 1.6063,0.34581 0.8828,0.0326 0.942,0.0264 1.6052,-0.17919 1.956,-0.4592 2.0923,-0.92781 3.3712,-2.41782 7.2913,-5.18162 10.8463,-7.70335 41.4509,-30.04796 1.1951,-1.31121 0.9714,-1.35594 0.8705,-1.70403 0.4254,-1.63919 0.078,-0.75412 0.01,-0.84101 0.059,-1.47096 -0.3175,-1.8813 -0.6697,-1.74292 -0.9199,-1.28161 -33.7309,-46.99157 -11.8781,-16.25603 -2.6394,-2.24332 -1.7241,-0.84695 -1.5786,-0.2806 -1.0298,-0.0181 -1.8627,-0.11232 -1.8097,0.35582 -1.8382,0.88259 -64.3594,45.8354 -1.264,1.59538 -1.0464,1.83219 z"
       id="path2655"
       sodipodi:nodetypes="ccccccccccccccccccccccccccccccccccccccccccc" />
    <path
       style="fill:none;stroke:#000000;stroke-width:0.718991px;stroke-linecap:butt;stroke-linejoin:miter;stroke-opacity:1"
       d="m 1240.5167,359.78275 -0.015,1.27912 0.1991,1.14639 0.3835,1.29455 c 1.0267,2.35139 0.5668,1.09931 0.884,1.79501 l 46.6765,65.19698 1.253,1.47475 1.2072,0.76256 1.245,0.63359 1.2603,0.47978 0.9978,0.22641 1.3692,0.14743 1.2835,0.0589 1.4093,-0.18745 1.7568,-0.45398 1.2145,-0.61983 148.1331,-106.05287 1.6096,-1.638 1.0604,-1.97101 0.5187,-1.6158 0.1246,-0.56311 0.072,-0.46939 0.1148,-1.05425 -0.079,-1.78905 -0.1227,-1.39177 -0.5098,-1.19606 -0.7969,-1.54921 -47.0304,-65.69148 -1.0024,-0.82271 -1.4148,-1.08414 -1.3929,-0.51668 -1.4596,-0.48964 -0.7663,-0.14731 -0.6287,-0.0751 -1.1394,-0.0797 -1.4346,0.11424 -1.5525,0.35575 -2.1387,1.02889 -147.6241,105.68846 -1.6535,1.74292 -0.9882,1.5107 -0.7187,1.97326 -0.2286,1.79625 z"
       id="path2936"
       sodipodi:nodetypes="cccccccccccccccccccccccccccccccccccccccccccc" />
    <path
       style="fill:none;stroke:#000000;stroke-width:0.718991px;stroke-linecap:butt;stroke-linejoin:miter;stroke-opacity:1"
       d="m 1199.5685,585.037 -0.01,1.04813 0.034,1.67336 0.2751,1.66842 0.5914,1.81232 0.7035,1.2245 44.3815,61.38302 1.8532,2.15194 1.4916,1.24443 2.008,0.85639 1.5491,0.49416 0.9087,0.2052 1.263,0.0223 2.106,-0.0998 2.2546,-0.85718 2.3959,-1.46545 24.2347,-18.00511 1.1087,-1.32941 1.0736,-1.89354 0.3789,-1.30482 0.2663,-1.3709 0.079,-1.16405 -0.3387,-2.46254 -0.8875,-2.81348 -1.3563,-2.2398 -6.4518,-8.63606 L 1242,563 l -1.712,-1.90882 -1.704,-1.0731 -2.2613,-0.95705 -1.2145,-0.27567 -1.1628,-0.16103 -2.2552,0.16555 -2.2074,0.66642 -2.2748,1.56179 -24.525,17.78833 -1.6652,1.87297 -0.8437,1.28308 -0.3976,1.90765 z"
       id="path2651"
       sodipodi:nodetypes="cccccccccccccccccccccccccccccccccccccccc" />
    <path
       style="fill:none;stroke:#000000;stroke-width:0.718991px;stroke-linecap:butt;stroke-linejoin:miter;stroke-opacity:1"
       d="m 1315.9956,500.23376 1.7085,0.69518 2.0393,1.47272 4.9425,6.1128 42.4756,58.65106 1.5052,2.81071 0.5772,2.19197 -0.127,1.84289 -0.2443,1.51457 -0.3369,1.33919 -0.7753,1.44425 -1.0019,0.97378 -1.6926,1.59697 -59.6099,43.42051 -2.7475,1.25055 -2.4877,0.44843 -1.3084,-0.0802 -1.3086,-0.23906 -2.1654,-0.80556 -1.8942,-1.44151 -1.5103,-2.07349 -45.8938,-63.00537 -0.96,-1.55484 -0.7114,-2.07094 -0.2537,-2.08572 0.303,-1.67034 0.5508,-1.43454 0.5404,-1.21906 1.0058,-1.54023 1.1083,-1.25647 56.827,-41.32411 4.7654,-3.12572 2.7979,-1.1382 1.9187,-0.0449 z"
       id="path3172"
       sodipodi:nodetypes="ccccccccccccccccccccccccccccccccccc" />
    <path
       style="fill:none;stroke:#000000;stroke-width:0.718991px;stroke-linecap:butt;stroke-linejoin:miter;stroke-opacity:1"
       d="m 1327.8138,491.30716 -0.4221,1.4451 -0.1936,2.22741 0.3575,2.45204 1.043,2.12085 44.0766,60.61635 1.2004,1.36754 1.6998,1.30979 1.3467,0.73658 1.3787,0.45543 0.8875,0.27972 0.8233,0.0141 1.5552,0.0903 1.8219,-0.22205 1.9565,-0.84565 150.8565,-109.9247 1.8048,-1.41819 1.3988,-2.23964 0.3835,-1.64924 0.23,-1.70611 -0.1623,-1.98273 -0.7032,-2.46366 -1.0045,-1.59226 -43.9077,-60.27887 -2.5953,-2.1972 -2.2737,-1.30416 -1.6851,-0.33491 -1.5868,-0.1905 -1.7974,0.10252 -2.4051,1.19722 -2.1535,1.38428 -149.124,108.62351 -1.2765,1.29466 -0.9424,1.31813 z"
       id="path3170"
       sodipodi:nodetypes="ccccccccccccccccccccccccccccccccccc" />
    <path
       style="fill:none;stroke:#000000;stroke-width:0.718991px;stroke-linecap:butt;stroke-linejoin:miter;stroke-opacity:1"
       d="m 1498.5228,367.76604 -0.3141,2.13879 0.264,1.9802 0.5904,1.65065 1.3755,1.88843 42.1883,57.91835 1.5488,2.12627 2.7465,1.85011 1.8514,0.73628 1.9536,0.18296 2.7676,-0.40444 3.7194,-2.06743 148.3494,-108.05931 1.5041,-1.37966 1.1618,-2.07257 0.4119,-1.27838 0.1386,-1.44255 -0.1179,-2.31177 -0.306,-2.09394 -1.5493,-2.46089 -42.4938,-58.33763 -2.5641,-2.56045 -2.0003,-1.0701 -1.8665,-0.77436 -2.4498,-0.0757 -2.3642,0.45104 -1.7301,0.90248 -149.0747,108.58768 -1.7979,1.5473 -1.0345,1.51699 -0.4528,1.371 z"
       id="path3168"
       sodipodi:nodetypes="cccccccccccccccccccccccccccccccc" />
  </g>
  <path
     style="fill:none;stroke:#000000;stroke-width:1.04761px;stroke-linecap:butt;stroke-linejoin:miter;stroke-opacity:1"
     d="m 623.97579,836.3746 -0.65604,2.00844 -0.47697,2.60658 -0.11421,8.21442 V 950.0829 l 0.004,4.4543 0.0596,3.7281 0.18082,2.6004 0.83952,2.6227 1.05731,1.6353 1.18583,1.5114 1.32695,1.3158 1.11874,0.8001 0.94805,0.5811 1.14747,0.5696 0.87123,0.2986 1.30032,0.246 H 745.1326 l 1.9587,-0.3438 1.579,-0.7511 2.2554,-1.5633 1.6744,-1.7038 1.1942,-1.525 0.9483,-1.7859 0.5679,-2.2139 0.2654,-1.7359 0.2547,-3.8025 0.043,-4.8767 V 849.87907 l -0.1525,-4.28021 -0.1709,-3.81052 -0.2862,-2.35585 -0.486,-1.98274 -1.0603,-1.95395 -1.197,-1.36739 -1.4755,-1.46033 -1.3568,-0.9645 -1.9325,-1.24674 -2.0626,-0.89075 -2.2754,-0.53201 H 634.26057 l -1.85197,0.43849 -1.72395,0.62868 -1.513,0.82602 -1.47497,1.0945 -1.5547,1.39119 -1.24758,1.49502 z"
     id="path2790-6-9-1-5"
     sodipodi:nodetypes="cccccccccccccccccccccccccccccccccccccccccccccccc" />
  <path
     style="fill:none;stroke:#000000;stroke-width:1.06883px;stroke-linecap:butt;stroke-linejoin:miter;stroke-opacity:1"
     d="m 330.33278,1072.2978 -0.96139,1.4905 -0.94153,2.4047 -0.41163,1.7928 -0.16774,1.6953 0.0493,4.6158 v 96.8366 l -0.0902,4.4669 0.32796,3.5057 0.73098,1.9094 1.48708,2.5769 1.40445,1.8139 1.71287,1.5909 1.76848,1.2606 1.53842,0.669 1.47461,0.6952 1.24005,0.4511 0.77035,0.2953 v 0 0 l 1.125,0.1563 1.84375,0.1562 h 113.77007 l 2.07713,-0.2652 2.82842,-0.6629 1.38993,-0.5745 1.83008,-0.9429 1.99856,-1.379 1.29612,-1.3551 1.12178,-1.5 1.00439,-1.576 0.66898,-1.52 0.7127,-2.6478 0.30053,-2.3837 0.047,-4.6813 v -96.2476 l -0.16527,-4.1087 -0.18538,-3.6578 -0.45645,-1.6581 -0.77247,-1.6553 -0.73847,-1.5669 -1.36192,-1.8849 -1.51947,-1.5434 -1.90315,-1.4477 -1.79149,-1.1355 -2.14524,-0.9095 -1.98241,-0.4419 H 341.54607 l -1.59375,0.125 -0.99311,0.3125 -1.36414,0.5985 -1.67946,0.939 -1.49377,0.9916 -1.57632,1.2356 -1.33439,1.4364 z"
     id="path2790-6-9-1-9"
     sodipodi:nodetypes="cccccccccccccccccccccccccccccccccccccccccccccccccccccccc" />
  <path
     style="fill:none;stroke:#000000;stroke-width:1.07235px;stroke-linecap:butt;stroke-linejoin:miter;stroke-opacity:1"
     d="m 609.96397,1069.684 -0.93747,1.5386 -0.91809,2.4824 -0.40139,1.8507 -0.0602,1.8017 -0.0824,2.0219 0.0272,2.6913 v 99.9641 l 0.0326,4.5768 0.3198,3.6189 0.59223,2.0055 1.45007,2.6601 1.3695,1.8725 1.67024,1.6423 1.72447,1.3013 1.50013,0.6906 1.43791,0.7177 1.20918,0.4656 0.75118,0.3049 v 0 0 l 1.097,0.1613 1.79787,0.1613 h 110.93854 l 2.02544,-0.2738 2.75802,-0.6843 1.35534,-0.5931 1.78453,-0.9733 1.94882,-1.4235 1.26386,-1.3989 1.09387,-1.5485 0.97939,-1.6269 0.65233,-1.5691 0.69496,-2.7333 0.29305,-2.4607 0.0458,-4.8324 v -99.3561 l -0.0759,-4.2536 -0.14644,-2.308 -0.11956,-1.4558 -0.35985,-1.6872 -0.58277,-1.8063 -0.90275,-1.6418 -1.57156,-2.2259 -1.76172,-1.6906 -1.40524,-1.0196 -1.7469,-1.1722 -2.09185,-0.9388 -1.93307,-0.4562 H 620.89817 l -1.55408,0.129 -0.96839,0.3226 -1.33019,0.6179 -1.63766,0.9693 -1.4566,1.0236 -1.53708,1.2755 -1.30118,1.4828 z"
     id="path2790-6-9-1-9-8"
     sodipodi:nodetypes="cccccccccccccccccccccccccccccccccccccccccccccccccccccccccc" />
  <path
     style="fill:none;stroke:#000000;stroke-width:1px;stroke-linecap:butt;stroke-linejoin:miter;stroke-opacity:1"
     d="m 488.33853,836.71199 1.34812,-0.95018 1.23744,-0.7734 1.48051,-0.7292 1.23743,-0.41984 1.81594,-0.33146 h 1.45443 52.92252 2.14342 l 1.59099,0.48614 1.92245,0.99436 1.23744,0.83969 1.56518,1.43631 1.19324,1.36871 1.01647,1.5689 0.66291,1.4584 0.46404,1.78987 v 1.59099 34.38307 1.56889 l -0.57452,1.67938 -0.8176,1.56889 -1.10485,1.56889 -1.43631,1.53935 -1.65309,1.23443 -1.63535,0.92445 -1.65741,0.65598 -2.67317,0.17686 -25.19145,-0.22215 -0.0518,41.6372 76.90582,0.11672 1.03101,0.01 1.81192,0.34077 1.42236,0.48173 1.60992,0.67775 1.73319,1.07607 1.32783,1.14008 1.60937,1.75861 1.34375,1.76562 0.85938,1.46875 0.57812,1.42188 0.4375,1.8125 v 1.98437 28.82947 l 0.0108,1.4146 -0.14338,1.7011 -0.92808,2.6516 -0.94638,1.5792 -1.19608,1.7352 -1.62032,1.6638 -1.84811,1.4337 -1.59433,0.864 -2.40985,0.9114 -2.95641,0.3459 H 496.91238 l -2.58536,-0.3093 -1.92244,-0.5525 -1.81197,-0.8175 -1.72356,-1.1933 -1.23765,-1.0164 -0.86179,-0.8214 -0.90799,-1.1259 -1.21333,-1.8572 -1.01646,-2.1876 -0.48614,-2.0992 v -2.2097 -127.69911 l 0.0663,-2.2539 0.41985,-1.45841 0.64081,-1.39211 0.55243,-0.92808 0.53033,-0.92808 0.95017,-1.37002 0.83969,-0.90598 z"
     id="path2300"
     sodipodi:nodetypes="ccccccccccccccccccccccccccccccccccccccccccccccccccccccccccccccccccccccccccc" />
  <path
     style="fill:none;stroke:#000000;stroke-width:1.10048px;stroke-linecap:butt;stroke-linejoin:miter;stroke-opacity:1"
     d="m 329.1514,838.55781 -0.72622,2.0021 -0.35503,2.6918 -0.12643,8.1885 v 100.56042 l 0.004,4.4403 0.066,3.7163 0.20016,2.5922 0.92932,2.6144 1.13583,2.0351 1.03595,1.2263 1.15324,1.1831 1.33355,1.0741 1.6635,0.8869 1.60319,0.3536 1.98874,0.1768 h 126.65687 l 2.0938,-0.7955 1.99509,-1.3403 1.85349,-1.6984 1.33946,-1.8473 1.08426,-1.9671 0.62859,-2.2069 0.29386,-1.7305 0.28194,-3.7905 0.048,-4.8613 v -99.94882 l -0.16872,-4.2667 -0.18924,-3.7985 -0.31679,-2.34841 -0.53814,-1.97648 -1.17372,-2.26029 -1.32494,-1.76932 -1.42501,-1.36197 -1.88387,-1.27396 -2.17411,-1.14905 -2.07487,-0.57452 H 338.65946 l -2.25391,0.7513 -2.16108,1.10486 -1.49301,0.99749 -1.51347,1.54256 -1.13889,1.45915 z"
     id="path2790-6-9-1"
     sodipodi:nodetypes="cccccccccccccccccccccccccccccccccccccccccccc" />
  <path
     style="fill:none;stroke:#000000;stroke-width:1.52755px;stroke-linecap:butt;stroke-linejoin:miter;stroke-opacity:1"
     d="m 32.741327,1067.6895 -1.3141,2.7092 -1.012722,3.3168 -5.8e-5,8.359 v 100.5605 l 0.007,4.4403 0.0054,3.3266 0.507411,2.9819 1.44997,3.3215 1.84786,2.2119 1.99602,1.8008 1.79623,1.0947 2.31395,0.6322 2.43879,0.4892 H 301.91629 l 3.10033,-0.7233 4.06695,-1.6073 2.47046,-2.7429 1.54464,-3.0391 1.00356,-3.4734 0.19936,-3.7905 0.0924,-4.8613 v -99.9489 l -0.0815,-4.3398 -0.34027,-5.1867 -1.06976,-3.5035 -2.19545,-3.0671 -2.54856,-2.1129 -2.97347,-1.5825 -3.15689,-0.9867 H 42.553647 l -2.87665,0.202 -2.66064,1.2332 -2.36463,1.8569 z"
     id="path2790-6-9"
     sodipodi:nodetypes="ccccccccccccccccccccccccccccccccccc" />
  <text
     xml:space="preserve"
     style="font-style:normal;font-variant:normal;font-weight:bold;font-stretch:normal;font-size:116.492px;line-height:1.25;font-family:'Century Gothic';-inkscape-font-specification:'Century Gothic Bold';word-spacing:0px;fill:#000000;fill-opacity:1;stroke:none;stroke-width:1.83635"
     x="16.199642"
     y="152.30716"
     id="text1216"><tspan
       sodipodi:role="line"
       id="tspan1214"
       x="16.199642"
       y="152.30716"
       style="font-style:normal;font-variant:normal;font-weight:bold;font-stretch:normal;font-size:116.492px;font-family:'Century Gothic';-inkscape-font-specification:'Century Gothic Bold';stroke-width:1.83635">Другий Поверх</tspan></text>
  <path
     style="fill:none;stroke:#000000;stroke-width:1.53159px;stroke-linecap:butt;stroke-linejoin:miter;stroke-opacity:1"
     d="m 32.780062,835.73974 -1.451875,2.62016 -0.69729,2.11129 -0.209653,1.77339 -0.07139,7.95625 0.137769,101.23039 0.0071,4.91155 -0.04504,2.90928 0.66117,3.01931 1.106227,3.3705 1.504106,2.1921 2.339771,1.999 2.139978,0.9119 2.31395,0.6355 2.4388,0.4918 H 302.09288 l 3.02727,-0.9475 3.87211,-1.8851 2.49482,-2.3902 1.78818,-2.9327 1.00356,-3.4918 0.19936,-3.8106 0.0924,-4.887 V 851.04955 l -0.084,-5.11594 -0.50238,-4.67958 -0.87321,-3.1791 -2.07296,-3.30525 -2.76775,-2.57391 -3.04653,-1.42237 -3.01912,-0.61306 H 42.730147 l -2.87665,0.20311 -2.660639,1.23972 -2.674609,2.10781 z"
     id="path2790-6"
     sodipodi:nodetypes="cccccccccccccccccccccccccccccccccccc" />
  <path
     style="fill:none;stroke:#000000;stroke-width:1px;stroke-linecap:butt;stroke-linejoin:miter;stroke-opacity:1"
     d="m 40.348466,984.07204 -1.84375,1.819 -1.3125,2.125 -1.390625,3.3593 v 51.37496 l 0.6875,2.0938 1.3125,2.375 1.03125,1.2767 1.216287,1.3476 2.310241,1.5587 2.09375,1 1.71875,0.7187 H 263.54688 l 2.09375,-0.6562 2.75,-1.625 1.93546,-1.4688 1.5,-1.808 1.21875,-2.25 0.96875,-2.5312 v -51.06246 l -0.63966,-2.0845 -0.67284,-1.353 -1.375,-1.9375 -1.15625,-1.6158 -1.40421,-1.1875 -2.03125,-1.2188 -3.09375,-1.2187 H 45.984369 l -2.5625,0.9218 -1.65625,0.9219 z"
     id="path2790"
     sodipodi:nodetypes="ccccccccccccccccccccccccccccccc" />
</svg>
