<?xml version="1.0" encoding="UTF-8" standalone="no"?>
<svg
   viewBox="0 0 2823.7 1104.07"
   version="1.1"
   id="svg265"
   sodipodi:docname="2-floor.svg"
   inkscape:version="1.1.2 (b8e25be833, 2022-02-05)"
   xmlns:inkscape="http://www.inkscape.org/namespaces/inkscape"
   xmlns:sodipodi="http://sodipodi.sourceforge.net/DTD/sodipodi-0.dtd"
   xmlns="http://www.w3.org/2000/svg"
   xmlns:svg="http://www.w3.org/2000/svg">
  <sodipodi:namedview
     id="namedview267"
     pagecolor="#ffffff"
     bordercolor="#666666"
     borderopacity="1.0"
     inkscape:pageshadow="2"
     inkscape:pageopacity="0.0"
     inkscape:pagecheckerboard="0"
     showgrid="false"
     inkscape:zoom="0.32078613"
     inkscape:cx="1924.9585"
     inkscape:cy="935.20252"
     inkscape:window-width="1920"
     inkscape:window-height="974"
     inkscape:window-x="-9"
     inkscape:window-y="-9"
     inkscape:window-maximized="1"
     inkscape:current-layer="svg265" />
  <defs
     id="defs4">
    <style
       id="style2">.cls-1{fill:#eae3fc;stroke-width:6px;}.cls-1,.cls-6{stroke:#6a5fd3;stroke-miterlimit:10;}.cls-2{fill:#dce7fd;}.cls-3{fill:#849ff3;}.cls-4{fill:#47479c;}.cls-5{fill:#5757cb;}.cls-6{fill:none;stroke-linecap:round;stroke-width:2px;}.cls-7{fill:#6a5fd3;}.cls-8{font-size:27px;font-family:ArialRoundedMTBold, Arial Rounded MT Bold;}.cls-9{font-size:14px;font-family:MyriadPro-Regular, Myriad Pro;}</style>
  </defs>
  <g
     id="g526"
     transform="matrix(1.5772407,0,0,1.5772407,-58.753525,-146.69523)">
    <g
       id="Overlay">
      <g
         id="Layer_4"
         data-name="Layer 4">
        <path
           class="cls-1"
           d="m 154.74,491.58 v 287.8 L 1105.91,781.6 1724.1,321.51 1568,106 1063.11,475.83 c 0,0 -64.8,-75.28 -77.21,20.17 z"
           id="path6" />
      </g>
    </g>
    <rect
       class="cls-2"
       x="999.59326"
       y="1009.8522"
       width="44.400002"
       height="132.67"
       rx="11.07"
       transform="rotate(-35.6)"
       id="rect10" />
    <rect
       class="cls-2"
       x="467.70697"
       y="1118.0288"
       width="575.72998"
       height="47.779999"
       rx="11.11"
       transform="rotate(-35.6)"
       id="rect12" />
    <rect
       class="cls-3"
       x="796.8562"
       y="1010.7098"
       width="201.46001"
       height="99.739998"
       rx="11.11"
       transform="rotate(-35.6)"
       id="rect14" />
    <rect
       class="cls-4"
       x="587.25037"
       y="1013.2704"
       width="99.349998"
       height="99.010002"
       rx="11.11"
       transform="rotate(-35.6)"
       id="rect16" />
    <rect
       class="cls-3"
       x="695.30029"
       y="1010.8312"
       width="97.629997"
       height="97.879997"
       rx="11.11"
       transform="rotate(-35.6)"
       id="rect18" />
    <path
       class="cls-4"
       d="m 1242,563 44.33,61.45 a 11.2,11.2 0 0 1 -2.46,15.59 l -22.45,16.39 a 11.06,11.06 0 0 1 -15.5,-2.48 l -44.33,-61.44 A 11.2,11.2 0 0 1 1204,577 l 22.45,-16.39 A 11,11 0 0 1 1242,563 Z"
       id="path20" />
    <path
       class="cls-4"
       d="m 690.78,666 h 83.44 c 3.74,0 6.78,5 6.78,11.11 v 80 c 0,6.14 -3,11.12 -6.78,11.12 h -83.44 c -3.74,0 -6.78,-5 -6.78,-11.12 v -80 C 684,671 687,666 690.78,666 Z"
       id="path22" />
    <path
       class="cls-5"
       d="m 793.78,666 h 83.44 c 3.74,0 6.78,5 6.78,11.11 v 80 c 0,6.14 -3,11.12 -6.78,11.12 h -83.44 c -3.74,0 -6.78,-5 -6.78,-11.12 v -80 C 787,671 790,666 793.78,666 Z"
       id="path24" />
    <rect
       class="cls-4"
       x="577.88"
       y="667.03998"
       width="101.12"
       height="101.12"
       rx="11.11"
       id="rect26" />
    <rect
       class="cls-5"
       x="487.87"
       y="502.69"
       width="30"
       height="112.23"
       rx="11.11"
       id="rect28" />
    <rect
       class="cls-5"
       x="495.64999"
       y="573.81"
       width="76.669998"
       height="41.110001"
       rx="11.11"
       id="rect30" />
    <rect
       class="cls-5"
       x="548.98999"
       y="573.81"
       width="34.450001"
       height="41.110001"
       rx="11.11"
       id="rect32" />
    <rect
       class="cls-5"
       x="496.76001"
       y="502.69"
       width="47.779999"
       height="41.110001"
       rx="9.4499998"
       id="rect34" />
    <path
       class="cls-3"
       d="m 387.67,669.37 h 80.53 c 6.44,0 11.67,5 11.67,11.11 V 756 c 0,6.14 -5.23,11.11 -11.67,11.11 h -80.53 c -6.44,0 -11.67,-5 -11.67,-11.11 v -75.52 c 0,-6.13 5.23,-11.11 11.67,-11.11 z"
       id="path36" />
    <path
       class="cls-2"
       d="m 369.31,617.15 h 631.38 c 5.14,0 9.31,5 9.31,11.11 v 16.66 c 0,6.14 -4.17,11.12 -9.31,11.12 H 369.31 c -5.14,0 -9.31,-5 -9.31,-11.12 v -16.66 c 0,-6.14 4.17,-11.11 9.31,-11.11 z"
       id="path38" />
    <path
       class="cls-2"
       d="m 493.69,632.7 h 66.62 c 6.46,0 11.69,5 11.69,11.11 V 756 c 0,6.14 -5.23,11.11 -11.69,11.11 h -66.62 c -6.46,0 -11.69,-5 -11.69,-11.11 V 643.81 c 0,-6.13 5.23,-11.11 11.69,-11.11 z"
       id="path40" />
    <path
       class="cls-5"
       d="m 900.34,666 h 77.79 a 11.22,11.22 0 0 1 11.11,11.33 v 79.3 A 11.22,11.22 0 0 1 978.13,768 h -77.79 a 11.22,11.22 0 0 1 -11.11,-11.33 v -79.3 A 11.22,11.22 0 0 1 900.34,666 Z"
       id="path42" />
    <path
       class="cls-2"
       d="m 1017.36,617.15 h 177.1 c 13.69,0 24.79,8 24.79,17.76 L 1180,705 c 0,9.81 -63.31,67 -77,67 l -85.64,2 c -13.69,0 -24.79,-8 -24.79,-17.76 V 634.91 c 0,-9.81 11.1,-17.76 24.79,-17.76 z"
       id="path44" />
    <path
       class="cls-2"
       d="m 560.1,498 h 12.22 c 7.36,0 13.33,4.64 13.33,10.35 v 51.77 c 0,5.72 -6,10.36 -13.33,10.36 H 560.1 c -7.37,0 -13.34,-4.64 -13.34,-10.36 v -51.77 c 0,-5.71 5.97,-10.35 13.34,-10.35 z"
       id="path46" />
    <path
       class="cls-2"
       d="m 530.67,547.14 h 28.89 a 11.66,11.66 0 0 1 11.67,11.67 v 0 a 11.67,11.67 0 0 1 -11.67,11.67 H 530.67 A 11.68,11.68 0 0 1 519,558.81 v 0 a 11.67,11.67 0 0 1 11.67,-11.67 z"
       id="path48" />
    <path
       class="cls-2"
       d="m 1051.72,625.47 81.56,-58.82 a 8.74,8.74 0 0 1 12.25,2 l 77.83,109.51 a 8.88,8.88 0 0 1 -2,12.33 l -81.56,58.82 a 8.73,8.73 0 0 1 -12.24,-2 L 1049.69,637.8 a 8.88,8.88 0 0 1 2.03,-12.33 z"
       id="path50" />
    <path
       class="cls-2"
       d="m 1071.72,608.47 81.56,-58.82 a 8.74,8.74 0 0 1 12.25,2 l 77.83,109.51 a 8.88,8.88 0 0 1 -2,12.33 l -81.56,58.82 a 8.73,8.73 0 0 1 -12.24,-2 L 1069.69,620.8 a 8.88,8.88 0 0 1 2.03,-12.33 z"
       id="path52" />
    <path
       class="cls-2"
       d="m 1039,479 53,136.81 a 11.12,11.12 0 0 1 -7.54,13.79 l -37,10.85 a 11.11,11.11 0 0 1 -13.78,-7.54 L 1003,485 a 8.42,8.42 0 0 1 -4.54,-11.84 l 37,-10.85 A 10,10 0 0 0 1032,469 c -0.24,4.13 2.55,8.21 7,10 z"
       id="path54" />
    <path
       class="cls-2"
       d="m 1018,452 c 7.81,-0.6 22.67,5.44 30,19 1.65,3 3.2,5.92 3.48,10 0.94,13.51 -12.76,31.6 -30.55,30.55 -17.79,-1.05 -26.69,-20.78 -26.93,-31.25 0,-0.18 0,-0.65 0,-1.3 0,-0.92 0.66,-15.53 13.1,-23.71 A 27.44,27.44 0 0 1 1018,452 Z"
       id="path56" />
    <path
       class="cls-2"
       d="M 990.35,626 997,477 c 0.33,-0.33 0.66,-0.67 1,-1 q 1.74,-1.72 3.46,-3.31 h 41.11 a 11.12,11.12 0 0 1 11.12,11.11 V 626 a 11.12,11.12 0 0 1 -11.12,11.12 h -41.11 A 11.11,11.11 0 0 1 990.35,626 Z"
       id="path58" />
    <path
       class="cls-2"
       d="M 1065.28,616.75 998.41,494.6 a 11.45,11.45 0 0 1 3.86,-15.18 l 33,-20.12 a 18.41,18.41 0 0 1 4,1.7 19.44,19.44 0 0 1 5.69,5 l 71.58,119.51 a 11.46,11.46 0 0 1 -3.85,15.18 l -33,20.13 a 10.25,10.25 0 0 1 -14.41,-4.07 z"
       id="path60" />
    <path
       class="cls-2"
       d="M 1124,576.25 1048.9,467 a 24.64,24.64 0 0 1 -2.81,-2.49 16.83,16.83 0 0 1 -3.53,-2.44 27.19,27.19 0 0 0 -11.11,-2 l -31,23.23 A 11.33,11.33 0 0 0 998,498.61 l 77.88,113.69 a 10.23,10.23 0 0 0 14.7,2.54 l 31,-23.22 a 11.33,11.33 0 0 0 2.42,-15.37 z"
       id="path62" />
    <line
       class="cls-6"
       x1="995.90002"
       y1="596.03003"
       x2="1029.24"
       y2="596.03003"
       id="line64" />
    <line
       class="cls-6"
       x1="1080.15"
       y1="577.91998"
       x2="1107.27"
       y2="558.51001"
       id="line66" />
    <line
       class="cls-6"
       x1="1077.9301"
       y1="574.58002"
       x2="1105.04"
       y2="555.17999"
       id="line68" />
    <line
       class="cls-6"
       x1="1075.71"
       y1="571.25"
       x2="1102.8199"
       y2="551.84998"
       id="line70" />
    <line
       class="cls-6"
       x1="1073.49"
       y1="567.90997"
       x2="1100.6"
       y2="548.51001"
       id="line72" />
    <line
       class="cls-6"
       x1="1071.26"
       y1="564.58002"
       x2="1098.38"
       y2="545.17999"
       id="line74" />
    <line
       class="cls-6"
       x1="1069.04"
       y1="561.25"
       x2="1096.15"
       y2="541.84998"
       id="line76" />
    <line
       class="cls-6"
       x1="1066.8199"
       y1="557.90997"
       x2="1093.9301"
       y2="538.51001"
       id="line78" />
    <line
       class="cls-6"
       x1="1064.6"
       y1="554.58002"
       x2="1091.71"
       y2="535.17999"
       id="line80" />
    <line
       class="cls-6"
       x1="1062.37"
       y1="551.25"
       x2="1089.49"
       y2="531.84998"
       id="line82" />
    <line
       class="cls-6"
       x1="1060.15"
       y1="547.90997"
       x2="1087.26"
       y2="528.51001"
       id="line84" />
    <line
       class="cls-6"
       x1="1057.9301"
       y1="544.58002"
       x2="1085.04"
       y2="525.17999"
       id="line86" />
    <line
       class="cls-6"
       x1="1055.71"
       y1="541.25"
       x2="1082.8199"
       y2="521.84998"
       id="line88" />
    <line
       class="cls-6"
       x1="1053.48"
       y1="537.90997"
       x2="1080.6"
       y2="518.51001"
       id="line90" />
    <line
       class="cls-6"
       x1="1051.26"
       y1="534.58002"
       x2="1078.38"
       y2="515.17999"
       id="line92" />
    <line
       class="cls-6"
       x1="995.90002"
       y1="591.59003"
       x2="1029.24"
       y2="591.59003"
       id="line94" />
    <line
       class="cls-6"
       x1="995.90002"
       y1="587.14001"
       x2="1029.24"
       y2="587.14001"
       id="line96" />
    <line
       class="cls-6"
       x1="995.90002"
       y1="582.70001"
       x2="1029.24"
       y2="582.70001"
       id="line98" />
    <line
       class="cls-6"
       x1="505.87"
       y1="758.27002"
       x2="505.87"
       y2="742.71002"
       id="line100" />
    <line
       class="cls-6"
       x1="511.42999"
       y1="758.27002"
       x2="511.42999"
       y2="742.71002"
       id="line102" />
    <line
       class="cls-6"
       x1="516.97998"
       y1="758.27002"
       x2="516.97998"
       y2="742.71002"
       id="line104" />
    <line
       class="cls-6"
       x1="494.76001"
       y1="731.59998"
       x2="494.76001"
       y2="716.03998"
       id="line106" />
    <line
       class="cls-6"
       x1="500.32001"
       y1="731.59998"
       x2="500.32001"
       y2="716.03998"
       id="line108" />
    <line
       class="cls-6"
       x1="505.87"
       y1="731.59998"
       x2="505.87"
       y2="716.03998"
       id="line110" />
    <line
       class="cls-6"
       x1="511.42999"
       y1="731.59998"
       x2="511.42999"
       y2="716.03998"
       id="line112" />
    <line
       class="cls-6"
       x1="516.97998"
       y1="731.59998"
       x2="516.97998"
       y2="716.03998"
       id="line114" />
    <line
       class="cls-6"
       x1="522.53998"
       y1="731.59998"
       x2="522.53998"
       y2="716.03998"
       id="line116" />
    <line
       class="cls-6"
       x1="528.09998"
       y1="731.59998"
       x2="528.09998"
       y2="716.03998"
       id="line118" />
    <line
       class="cls-6"
       x1="533.65002"
       y1="731.59998"
       x2="533.65002"
       y2="716.03998"
       id="line120" />
    <line
       class="cls-6"
       x1="539.21002"
       y1="731.59998"
       x2="539.21002"
       y2="716.03998"
       id="line122" />
    <line
       class="cls-6"
       x1="522.53998"
       y1="758.27002"
       x2="522.53998"
       y2="742.71002"
       id="line124" />
    <line
       class="cls-6"
       x1="528.09998"
       y1="758.27002"
       x2="528.09998"
       y2="742.71002"
       id="line126" />
    <line
       class="cls-6"
       x1="533.65002"
       y1="758.27002"
       x2="533.65002"
       y2="742.71002"
       id="line128" />
    <line
       class="cls-6"
       x1="539.21002"
       y1="758.27002"
       x2="539.21002"
       y2="742.71002"
       id="line130" />
    <line
       class="cls-6"
       x1="544.76001"
       y1="758.27002"
       x2="544.76001"
       y2="742.71002"
       id="line132" />
    <line
       class="cls-6"
       x1="550.32001"
       y1="758.27002"
       x2="550.32001"
       y2="742.71002"
       id="line134" />
    <line
       class="cls-6"
       x1="995.90002"
       y1="578.25"
       x2="1029.24"
       y2="578.25"
       id="line136" />
    <line
       class="cls-6"
       x1="995.90002"
       y1="573.81"
       x2="1029.24"
       y2="573.81"
       id="line138" />
    <line
       class="cls-6"
       x1="995.90002"
       y1="569.35999"
       x2="1029.24"
       y2="569.35999"
       id="line140" />
    <line
       class="cls-6"
       x1="995.90002"
       y1="564.91998"
       x2="1029.24"
       y2="564.91998"
       id="line142" />
    <line
       class="cls-6"
       x1="995.90002"
       y1="560.46997"
       x2="1029.24"
       y2="560.46997"
       id="line144" />
    <line
       class="cls-6"
       x1="995.90002"
       y1="556.03003"
       x2="1029.24"
       y2="556.03003"
       id="line146" />
    <line
       class="cls-6"
       x1="995.90002"
       y1="551.59003"
       x2="1029.24"
       y2="551.59003"
       id="line148" />
    <line
       class="cls-6"
       x1="995.90002"
       y1="547.14001"
       x2="1029.24"
       y2="547.14001"
       id="line150" />
    <line
       class="cls-6"
       x1="995.90002"
       y1="542.70001"
       x2="1029.24"
       y2="542.70001"
       id="line152" />
    <path
       class="cls-2"
       d="m 1071.49,517 -17.38,12.45 a 6.23,6.23 0 0 1 -8.5,-1.19 c -12.14,-15.34 -15.26,-2.23 -16.06,6.16 a 6.2,6.2 0 0 1 -6.19,5.56 h -22 a 6.21,6.21 0 0 1 -6.19,-5.56 c -4.25,-38.42 2.53,-149.54 78,-25.8 a 6.22,6.22 0 0 1 -1.68,8.38 z"
       id="path154" />
    <line
       class="cls-6"
       x1="1098.13"
       y1="571.57001"
       x2="1061.51"
       y2="520.40997"
       id="line156" />
    <polygon
       class="cls-7"
       points="1058.81,516.63 1065.13,520.51 1062.07,521.2 1060.44,523.87 "
       id="polygon158" />
    <line
       class="cls-6"
       x1="503.64999"
       y1="750.48999"
       x2="555.88"
       y2="750.48999"
       id="line160" />
    <polygon
       class="cls-7"
       points="560.34,750.45 553.52,753.33 554.74,750.45 553.52,747.57 "
       id="polygon162" />
    <line
       class="cls-6"
       x1="543.65002"
       y1="723.82001"
       x2="489.20001"
       y2="723.82001"
       id="line164" />
    <polygon
       class="cls-7"
       points="484.78,723.78 491.6,720.9 490.38,723.78 491.6,726.66 "
       id="polygon166" />
    <line
       class="cls-6"
       x1="560.32001"
       y1="750.48999"
       x2="561.42999"
       y2="750.48999"
       id="line168" />
    <line
       class="cls-6"
       x1="561.42999"
       y1="723.82001"
       x2="561.42999"
       y2="750.48999"
       id="line170" />
    <line
       class="cls-6"
       x1="543.65002"
       y1="723.82001"
       x2="561.42999"
       y2="723.82001"
       id="line172" />
    <path
       class="cls-6"
       d="m 1061.49,520.43 c -3.24,-4.33 -8.75,-11.76 -15.56,-21.11 -15.21,-20.88 -26.67,-22.5 -30,6.67 -2.4,21 -2.78,31.88 -2.78,31.88 -0.53,15.37 -0.86,36.67 0,62.91"
       id="path174" />
    <polygon
       class="cls-7"
       points="1013.3,605.42 1010.2,598.7 1013.12,599.82 1015.96,598.51 "
       id="polygon176" />
    <rect
       class="cls-4"
       x="1175.3741"
       y="-771.39392"
       width="98.089996"
       height="93"
       rx="10"
       transform="rotate(53.93)"
       id="rect178" />
    <rect
       class="cls-3"
       x="779.38452"
       y="1176.9215"
       width="204.78999"
       height="94.029999"
       rx="10"
       transform="rotate(-36.07)"
       id="rect180" />
    <rect
       class="cls-3"
       x="991.39825"
       y="1177.1718"
       width="203.44"
       height="92.540001"
       rx="10"
       transform="rotate(-36.07)"
       id="rect182" />
    <rect
       class="cls-3"
       x="1039.0889"
       y="1017.9893"
       width="160.60001"
       height="82.75"
       rx="10"
       transform="rotate(-36.07)"
       id="rect184" />
    <rect
       class="cls-2"
       x="1011.3833"
       y="1109.3624"
       width="183.73"
       height="64.360001"
       rx="10"
       transform="rotate(-36.07)"
       id="rect186" />
    <rect
       class="cls-3"
       x="788"
       y="500"
       width="96"
       height="102"
       rx="10"
       id="rect188" />
    <rect
       class="cls-3"
       x="687"
       y="500"
       width="96"
       height="102"
       rx="10"
       id="rect190" />
    <rect
       class="cls-3"
       x="588"
       y="500"
       width="96"
       height="102"
       rx="10"
       id="rect192" />
    <rect
       class="cls-4"
       x="376"
       y="501"
       width="106"
       height="102"
       rx="10"
       id="rect194" />
    <rect
       class="cls-3"
       x="890"
       y="501"
       width="95"
       height="102"
       rx="10"
       id="rect196" />
    <rect
       class="cls-3"
       x="162"
       y="500"
       width="205"
       height="102"
       rx="10"
       id="rect198" />
    <rect
       class="cls-3"
       x="166"
       y="609"
       width="172"
       height="52"
       rx="10"
       id="rect200" />
    <rect
       class="cls-3"
       x="162"
       y="667"
       width="205"
       height="102"
       rx="10"
       id="rect202" />
    <text
       class="cls-8"
       id="text204"
       x="513.32001"
       y="605.54999">WC</text>
    <text
       class="cls-8"
       id="text206"
       x="706.90997"
       y="727.54999">203</text>
    <text
       class="cls-8"
       id="text210"
       x="605.90002"
       y="727.35999">203<tspan
   class="cls-9"
   x="654.03003"
   y="727.35999"
   id="tspan208">а</tspan></text>
    <text
       class="cls-8"
       id="text212"
       x="811.78998"
       y="727.52002">202</text>
    <text
       class="cls-8"
       id="text214"
       x="916.22998"
       y="727.62">201</text>
    <text
       class="cls-8"
       id="text216"
       x="403.70001"
       y="727.37">204</text>
    <text
       class="cls-8"
       id="text220"
       x="237"
       y="730.64001">205<tspan
   class="cls-9"
   x="285.13"
   y="730.64001"
   id="tspan218">а</tspan></text>
    <text
       class="cls-8"
       id="text224"
       x="228"
       y="641.64001">205<tspan
   class="cls-9"
   x="276.13"
   y="641.64001"
   id="tspan222">б</tspan></text>
    <text
       class="cls-8"
       id="text228"
       x="237"
       y="561.64001">205<tspan
   class="cls-9"
   x="285.13"
   y="561.64001"
   id="tspan226">в</tspan></text>
    <text
       class="cls-8"
       id="text232"
       x="613"
       y="561.64001">207<tspan
   class="cls-9"
   x="661.13"
   y="561.64001"
   id="tspan230">а</tspan></text>
    <text
       class="cls-8"
       id="text236"
       x="810"
       y="560.64001">208<tspan
   class="cls-9"
   x="858.13"
   y="560.64001"
   id="tspan234">а</tspan></text>
    <text
       class="cls-8"
       id="text238"
       x="403.39999"
       y="556.84003">206</text>
    <text
       class="cls-8"
       id="text240"
       x="709.38"
       y="558.27002">207</text>
    <text
       class="cls-8"
       id="text242"
       x="916.06"
       y="560.67999">208</text>
    <text
       class="cls-8"
       transform="rotate(-34.007492)"
       id="text244"
       x="640.94165"
       y="1052.1917"
       style="stroke-width:1.00125">209</text>
    <text
       class="cls-8"
       transform="rotate(-34.007492)"
       id="text246"
       x="746.00909"
       y="1047.6732"
       style="stroke-width:1.00125">210</text>
    <text
       class="cls-8"
       transform="rotate(55.15)"
       id="text248"
       x="1185.5332"
       y="-664.5589">215</text>
    <text
       class="cls-8"
       transform="rotate(-38.125182)"
       id="text250"
       x="657.19513"
       y="1259.8015"
       style="stroke-width:1.00424">214</text>
    <text
       class="cls-8"
       transform="rotate(-36.33)"
       id="text252"
       x="861.91449"
       y="1075.7061">211</text>
    <text
       class="cls-8"
       transform="rotate(-36.56)"
       id="text254"
       x="1088.1791"
       y="1080.3201">212</text>
    <text
       class="cls-8"
       transform="rotate(-36.34)"
       id="text256"
       x="856.42926"
       y="1238.1263">213</text>
    <text
       class="cls-8"
       transform="rotate(-36.06941)"
       id="text260"
       x="1086.2965"
       y="1234.9102"
       style="stroke-width:1.0021">212<tspan
   class="cls-9"
   x="1134.5276"
   y="1234.9102"
   id="tspan258"
   style="stroke-width:1.0021">а</tspan></text>
    <rect
       class="cls-5"
       x="877"
       y="731"
       width="20"
       height="17"
       id="rect262" />
  </g>
</svg>
