<?xml version="1.0" encoding="UTF-8" standalone="no"?>
<svg
   id="Layer_1"
   data-name="Layer 1"
   viewBox="0 0 2245.0394 1587.4015"
   version="1.1"
   sodipodi:docname="3-floor — копия.svg"
   inkscape:version="1.1.2 (b8e25be833, 2022-02-05)"
   width="594mm"
   height="420mm"
   xmlns:inkscape="http://www.inkscape.org/namespaces/inkscape"
   xmlns:sodipodi="http://sodipodi.sourceforge.net/DTD/sodipodi-0.dtd"
   xmlns="http://www.w3.org/2000/svg"
   xmlns:svg="http://www.w3.org/2000/svg">
  <sodipodi:namedview
     id="namedview263"
     pagecolor="#ffffff"
     bordercolor="#666666"
     borderopacity="1.0"
     inkscape:pageshadow="2"
     inkscape:pageopacity="0.0"
     inkscape:pagecheckerboard="0"
     showgrid="false"
     inkscape:zoom="1.4142136"
     inkscape:cx="325.62268"
     inkscape:cy="935.50228"
     inkscape:window-width="1920"
     inkscape:window-height="974"
     inkscape:window-x="-9"
     inkscape:window-y="-9"
     inkscape:window-maximized="1"
     inkscape:current-layer="Layer_1"
     units="mm"
     showguides="false"
     inkscape:guide-bbox="true"
     inkscape:document-units="mm">
    <sodipodi:guide
       position="1140.4623,1927.9404"
       orientation="0,-1"
       id="guide33938" />
    <sodipodi:guide
       position="-733.64414,1973.6502"
       orientation="0.70710678,-0.70710678"
       id="guide33940" />
    <sodipodi:guide
       position="18.283966,844.61543"
       orientation="1,0"
       id="guide48852" />
  </sodipodi:namedview>
  <defs
     id="defs4">
    <linearGradient
       id="linearGradient1523"
       inkscape:swatch="solid">
      <stop
         style="stop-color:#000000;stop-opacity:1;"
         offset="0"
         id="stop1521" />
    </linearGradient>
    <style
       id="style2">.cls-1{fill:#eae3fc;stroke-width:6px;}.cls-1,.cls-7{stroke:#6a5fd3;stroke-miterlimit:10;}.cls-2{fill:#dce7fd;}.cls-3{fill:#849ff3;}.cls-4{fill:#47479c;}.cls-5{fill:#8ac4dd;}.cls-6{fill:#5757cb;}.cls-7{fill:none;stroke-linecap:round;stroke-width:2px;}.cls-8{fill:#6a5fd3;}.cls-10,.cls-12,.cls-13,.cls-14,.cls-15,.cls-9{isolation:isolate;}.cls-9{font-size:27px;}.cls-12,.cls-13,.cls-14,.cls-9{font-family:ArialRoundedMTBold, Arial Rounded MT Bold;}.cls-10,.cls-11{font-size:14px;}.cls-10,.cls-15{font-family:ArialMT, Arial;}.cls-11{font-family:MyriadPro-Regular, Myriad Pro;}.cls-12{font-size:27.03px;}.cls-13{font-size:27.11px;}.cls-14{font-size:27.06px;}.cls-15{font-size:14.03px;}</style>
  </defs>
  <g
     id="Overlay"
     transform="matrix(1.3849533,0,0,1.3849533,-227.22699,90.041959)">
    <g
       id="Layer_4"
       data-name="Layer 4">
      <path
         class="cls-1"
         d="M 182.19,531.16 V 819 l 951.17,2.22 618.19,-460.09 -156.1,-215.51 -504.89,369.79 c 0,0 -64.8,-75.28 -77.21,20.17 z"
         id="path6" />
    </g>
  </g>
  <path
     class="cls-2"
     d="m 1762.854,472.17081 24.2228,-17.68585 a 14.625107,14.625107 0 0 1 20.6635,3.49008 l 86.1164,122.66532 a 15.303734,15.303734 0 0 1 -3.4347,21.07898 l -24.2228,17.68586 a 14.625107,14.625107 0 0 1 -20.6635,-3.49008 L 1759.4331,493.2498 a 15.234486,15.234486 0 0 1 3.4209,-21.07899 z"
     id="path10"
     style="stroke-width:1.38495" />
  <path
     class="cls-2"
     d="m 1251.3353,1020.7785 620.1405,-444.08526 a 15.234486,15.234486 0 0 1 21.356,3.54548 l 20.5112,28.64083 a 15.317583,15.317583 0 0 1 -3.5455,21.36983 L 1289.657,1074.3208 a 15.303734,15.303734 0 0 1 -21.356,-3.5455 l -20.5527,-28.6408 a 15.303734,15.303734 0 0 1 3.587,-21.356 z"
     id="path12"
     style="stroke-width:1.38495" />
  <rect
     class="cls-3"
     x="863.90149"
     y="1409.5808"
     width="279.0127"
     height="138.13524"
     rx="15.386831"
     transform="rotate(-35.6)"
     id="rect14"
     style="stroke-width:1.38495" />
  <rect
     class="cls-3"
     x="573.6098"
     y="1413.1331"
     width="137.59511"
     height="137.12424"
     rx="15.386831"
     transform="rotate(-35.6)"
     id="rect16"
     style="stroke-width:1.38495" />
  <rect
     class="cls-4"
     x="723.24805"
     y="1409.7434"
     width="135.21298"
     height="135.55922"
     rx="15.386831"
     transform="rotate(-35.6)"
     id="rect18"
     style="stroke-width:1.38495" />
  <path
     class="cls-4"
     d="m 1530.902,927.23877 61.395,85.06383 a 15.497627,15.497627 0 0 1 -3.407,21.5914 l -31.0922,22.7271 a 15.303734,15.303734 0 0 1 -21.3976,-3.3516 l -0.069,-0.083 -61.4504,-85.07766 a 15.525326,15.525326 0 0 1 3.3378,-21.48063 l 31.0922,-22.69938 a 15.234486,15.234486 0 0 1 21.3421,3.03305 1.9804832,1.9804832 0 0 1 0.2493,0.27699 z"
     id="path20"
     style="stroke-width:1.38495" />
  <path
     class="cls-5"
     d="M 1190.065,972.94223 V 802.78686 c 0,0 11.0796,-51.85265 57.891,-14.6805 46.8114,37.17215 99.1904,134.03578 99.1904,134.03578 l -38.571,27.69907 -55.8967,-76.03394 c 0,0 -8.739,-10.11016 -14.9021,3.73937 v 101.51708 h -47.7116 z"
     id="path22"
     style="stroke-width:1.38495" />
  <path
     class="cls-3"
     d="m 910.13821,1069.889 h 115.56049 c 5.1797,0 9.39,6.9247 9.39,15.3868 v 110.7963 c 0,8.5036 -4.1549,15.4006 -9.39,15.4006 H 910.13821 c -5.17973,0 -9.38998,-6.9247 -9.38998,-15.4006 v -110.7963 c 0,-8.4621 4.15486,-15.3868 9.38998,-15.3868 z"
     id="path24"
     style="stroke-width:1.38495" />
  <rect
     class="cls-6"
     x="486.46716"
     y="843.71228"
     width="41.548599"
     height="155.43332"
     rx="15.38683"
     id="rect26"
     style="stroke-width:1.38495" />
  <rect
     class="cls-6"
     x="497.24203"
     y="942.21014"
     width="106.18436"
     height="56.935432"
     rx="15.38683"
     id="rect28"
     style="stroke-width:1.38495" />
  <rect
     class="cls-6"
     x="571.11548"
     y="942.21014"
     width="47.711643"
     height="56.935432"
     rx="15.38683"
     id="rect30"
     style="stroke-width:1.38495" />
  <rect
     class="cls-6"
     x="498.77942"
     y="843.71228"
     width="66.173065"
     height="56.935432"
     rx="13.087809"
     id="rect32"
     style="stroke-width:1.38495" />
  <path
     class="cls-3"
     d="m 342.94443,1075.6919 h 111.53029 c 8.9191,0 16.16241,6.9248 16.16241,15.3868 v 104.5917 c 0,8.5036 -7.24331,15.3868 -16.16241,15.3868 H 342.94443 c -8.9191,0 -16.1624,-6.9247 -16.1624,-15.3868 v -104.5917 c -0.0277,-8.4897 7.2433,-15.3868 16.1624,-15.3868 z"
     id="path34"
     style="stroke-width:1.38495" />
  <path
     class="cls-2"
     d="M 305.28755,1002.234 H 1196.505 c 7.2433,0 13.1294,6.9248 13.1294,15.3868 v 23.0733 c 0,8.5037 -5.8861,15.4007 -13.1294,15.4007 H 305.28755 c -7.25715,0 -13.1432,-6.9247 -13.1432,-15.4007 v -23.0733 c -0.0138,-8.5036 5.88605,-15.3868 13.1432,-15.3868 z"
     id="path36"
     style="stroke-width:1.38495" />
  <path
     class="cls-2"
     d="m 494.52757,1023.77 h 92.26559 c 8.9468,0 16.19011,6.9248 16.19011,15.3868 v 155.378 c 0,8.5036 -7.24331,15.3868 -16.19011,15.3868 h -92.26559 c -8.9468,0 -16.1901,-6.9248 -16.1901,-15.3868 v -155.378 c 0,-8.4897 7.2433,-15.3868 16.1901,-15.3868 z"
     id="path38"
     style="stroke-width:1.38495" />
  <path
     class="cls-4"
     d="m 1057.7188,1069.889 h 107.7355 a 15.539176,15.539176 0 0 1 15.3869,15.6915 v 0 109.8268 a 15.539176,15.539176 0 0 1 -15.3176,15.7469 h -107.8048 a 15.539176,15.539176 0 0 1 -15.3868,-15.6915 v 0 -109.7576 a 15.539176,15.539176 0 0 1 15.3314,-15.7469 z"
     id="path40"
     style="stroke-width:1.38495" />
  <path
     class="cls-2"
     d="m 1219.7861,1002.234 h 245.2752 c 18.96,0 34.333,11.0796 34.333,24.5968 l -54.3594,97.0713 c 0,13.5864 -87.6814,92.7919 -106.6414,92.7919 l -118.6074,2.7699 c -18.96,0 -34.333,-11.0796 -34.333,-24.5968 v -168.0363 c -0.028,-13.5864 15.373,-24.5968 34.333,-24.5968 z"
     id="path42"
     style="stroke-width:1.38495" />
  <path
     class="cls-2"
     d="m 586.50232,837.2168 h 16.92413 c 10.19326,0 18.46143,6.42619 18.46143,14.33427 v 71.69903 c 0,7.92194 -8.30972,14.34812 -18.46143,14.34812 h -16.92413 c -10.2071,0 -18.47528,-6.42618 -18.47528,-14.34812 v -71.69903 c 0,-7.90808 8.26818,-14.33427 18.47528,-14.33427 z"
     id="path44"
     style="stroke-width:1.38495" />
  <path
     class="cls-2"
     d="m 545.74315,905.27341 h 39.99745 a 16.134706,16.134706 0 0 1 16.1624,16.13471 v 0 0 a 16.162405,16.162405 0 0 1 -16.1624,16.1901 h -39.99745 a 16.190104,16.190104 0 0 1 -16.16241,-16.16241 v 0 a 16.162405,16.162405 0 0 1 16.16241,-16.1624 z"
     id="path46"
     style="stroke-width:1.38495" />
  <path
     class="cls-2"
     d="m 1267.3731,1013.7568 112.9568,-81.46295 a 12.090642,12.090642 0 0 1 16.9102,2.68681 v 0.0831 L 1505.031,1086.73 a 12.284536,12.284536 0 0 1 -2.7699,17.0765 l -112.9567,81.4629 a 12.090642,12.090642 0 0 1 -16.8826,-2.6868 v -0.083 l -107.8463,-151.6662 a 12.312235,12.312235 0 0 1 2.7976,-17.0765 z"
     id="path48"
     style="stroke-width:1.38495" />
  <path
     class="cls-2"
     d="m 1295.0721,990.2126 112.9568,-81.46296 a 12.090642,12.090642 0 0 1 16.9103,2.68681 v 0.0831 l 107.7909,151.66625 a 12.284536,12.284536 0 0 1 -2.7699,17.0765 l -112.9568,81.4629 a 12.090642,12.090642 0 0 1 -16.8826,-2.6868 v -0.083 l -107.8463,-151.6662 a 12.312235,12.312235 0 0 1 2.7976,-17.0765 z"
     id="path50"
     style="stroke-width:1.38495" />
  <path
     class="cls-2"
     d="m 1203.6375,820.66661 49.3459,-13.84953 a 14.888248,14.888248 0 0 1 18.3645,9.69467 l 56.9631,186.88565 a 14.140373,14.140373 0 0 1 -10.0409,17.6443 l -49.3459,13.8495 a 14.888248,14.888248 0 0 1 -18.3645,-9.6947 l -56.9631,-186.88558 a 14.140373,14.140373 0 0 1 10.0409,-17.64431 z"
     id="path52"
     style="stroke-width:1.38495" />
  <path
     class="cls-2"
     d="m 1200.743,802.16364 h 54.6087 a 15.082141,15.082141 0 0 1 14.7497,15.38683 v 196.99573 a 15.082141,15.082141 0 0 1 -14.7497,15.3869 h -54.6087 a 15.082141,15.082141 0 0 1 -14.7498,-15.3869 V 817.55047 a 15.082141,15.082141 0 0 1 14.7498,-15.38683 z"
     id="path54"
     style="stroke-width:1.38495" />
  <path
     class="cls-2"
     d="m 1193.3889,816.35941 46.3543,-27.18664 a 14.652806,14.652806 0 0 1 20.1788,5.53982 l 93.8029,164.96178 a 15.13754,15.13754 0 0 1 -5.4152,20.49731 l -46.3544,27.18662 a 14.638956,14.638956 0 0 1 -20.1787,-5.5398 l -93.8029,-165.01718 a 15.151389,15.151389 0 0 1 5.4152,-20.44191 z"
     id="path56"
     style="stroke-width:1.38495" />
  <path
     class="cls-2"
     d="m 1189.9819,815.36224 45.7034,-32.42176 a 31.535387,31.535387 0 0 0 9.3346,3.86402 c 5.0274,1.19106 7.8389,3.54548 10.4841,3.1577 41.7425,50.59234 79.0254,102.08491 116.5577,155.19786 a 15.234486,15.234486 0 0 1 -3.587,21.45293 l -45.7035,32.40791 a 15.608424,15.608424 0 0 1 -21.6468,-3.54548 l -114.7296,-158.6741 a 15.234486,15.234486 0 0 1 3.5871,-21.43908 z"
     id="path58"
     style="stroke-width:1.38495" />
  <line
     class="cls-7"
     x1="1190.0649"
     y1="972.98376"
     x2="1236.2393"
     y2="972.98376"
     id="line60" />
  <line
     class="cls-7"
     x1="1306.7472"
     y1="947.90228"
     x2="1344.3071"
     y2="921.02039"
     id="line62" />
  <line
     class="cls-7"
     x1="1303.6727"
     y1="943.27649"
     x2="1341.2188"
     y2="916.40845"
     id="line64" />
  <line
     class="cls-7"
     x1="1300.5981"
     y1="938.66467"
     x2="1338.1442"
     y2="911.79651"
     id="line66" />
  <line
     class="cls-7"
     x1="1297.5234"
     y1="934.03888"
     x2="1335.0697"
     y2="907.17084"
     id="line68" />
  <line
     class="cls-7"
     x1="1294.4349"
     y1="929.42694"
     x2="1331.9949"
     y2="902.5589"
     id="line70" />
  <line
     class="cls-7"
     x1="1291.3605"
     y1="924.81512"
     x2="1328.9065"
     y2="897.94702"
     id="line72" />
  <line
     class="cls-7"
     x1="1288.2859"
     y1="920.18933"
     x2="1325.8319"
     y2="893.32129"
     id="line74" />
  <line
     class="cls-7"
     x1="1285.2113"
     y1="915.57745"
     x2="1322.7574"
     y2="888.70941"
     id="line76" />
  <line
     class="cls-7"
     x1="1282.1227"
     y1="910.96558"
     x2="1319.6826"
     y2="884.09747"
     id="line78" />
  <line
     class="cls-7"
     x1="1279.0482"
     y1="906.33978"
     x2="1316.5942"
     y2="879.47174"
     id="line80" />
  <line
     class="cls-7"
     x1="1275.9736"
     y1="901.72791"
     x2="1313.5197"
     y2="874.85986"
     id="line82" />
  <line
     class="cls-7"
     x1="1272.899"
     y1="897.11603"
     x2="1310.4452"
     y2="870.24792"
     id="line84" />
  <line
     class="cls-7"
     x1="1269.8107"
     y1="892.4903"
     x2="1307.3706"
     y2="865.62225"
     id="line86" />
  <line
     class="cls-7"
     x1="1266.736"
     y1="887.87836"
     x2="1304.2959"
     y2="861.01031"
     id="line88" />
  <line
     class="cls-7"
     x1="1190.0649"
     y1="966.83453"
     x2="1236.2393"
     y2="966.83453"
     id="line90" />
  <line
     class="cls-7"
     x1="1190.0649"
     y1="960.67151"
     x2="1236.2393"
     y2="960.67151"
     id="line92" />
  <line
     class="cls-7"
     x1="1190.0649"
     y1="954.5224"
     x2="1236.2393"
     y2="954.5224"
     id="line94" />
  <line
     class="cls-7"
     x1="511.3963"
     y1="1197.6786"
     x2="511.3963"
     y2="1176.1287"
     id="line96" />
  <line
     class="cls-7"
     x1="519.09668"
     y1="1197.6786"
     x2="519.09668"
     y2="1176.1287"
     id="line98" />
  <line
     class="cls-7"
     x1="526.78314"
     y1="1197.6786"
     x2="526.78314"
     y2="1176.1287"
     id="line100" />
  <line
     class="cls-7"
     x1="496.00949"
     y1="1160.7419"
     x2="496.00949"
     y2="1139.192"
     id="line102" />
  <line
     class="cls-7"
     x1="503.70984"
     y1="1160.7419"
     x2="503.70984"
     y2="1139.192"
     id="line104" />
  <line
     class="cls-7"
     x1="511.3963"
     y1="1160.7419"
     x2="511.3963"
     y2="1139.192"
     id="line106" />
  <line
     class="cls-7"
     x1="519.09668"
     y1="1160.7419"
     x2="519.09668"
     y2="1139.192"
     id="line108" />
  <line
     class="cls-7"
     x1="526.78314"
     y1="1160.7419"
     x2="526.78314"
     y2="1139.192"
     id="line110" />
  <line
     class="cls-7"
     x1="534.48346"
     y1="1160.7419"
     x2="534.48346"
     y2="1139.192"
     id="line112" />
  <line
     class="cls-7"
     x1="542.18378"
     y1="1160.7419"
     x2="542.18378"
     y2="1139.192"
     id="line114" />
  <line
     class="cls-7"
     x1="549.8703"
     y1="1160.7419"
     x2="549.8703"
     y2="1139.192"
     id="line116" />
  <line
     class="cls-7"
     x1="557.57062"
     y1="1160.7419"
     x2="557.57062"
     y2="1139.192"
     id="line118" />
  <line
     class="cls-7"
     x1="534.48346"
     y1="1197.6786"
     x2="534.48346"
     y2="1176.1287"
     id="line120" />
  <line
     class="cls-7"
     x1="542.18378"
     y1="1197.6786"
     x2="542.18378"
     y2="1176.1287"
     id="line122" />
  <line
     class="cls-7"
     x1="549.8703"
     y1="1197.6786"
     x2="549.8703"
     y2="1176.1287"
     id="line124" />
  <line
     class="cls-7"
     x1="557.57062"
     y1="1197.6786"
     x2="557.57062"
     y2="1176.1287"
     id="line126" />
  <line
     class="cls-7"
     x1="565.25714"
     y1="1197.6786"
     x2="565.25714"
     y2="1176.1287"
     id="line128" />
  <line
     class="cls-7"
     x1="572.95752"
     y1="1197.6786"
     x2="572.95752"
     y2="1176.1287"
     id="line130" />
  <line
     class="cls-7"
     x1="1190.0649"
     y1="948.35931"
     x2="1236.2393"
     y2="948.35931"
     id="line132" />
  <line
     class="cls-7"
     x1="1190.0649"
     y1="942.21014"
     x2="1236.2393"
     y2="942.21014"
     id="line134" />
  <line
     class="cls-7"
     x1="1190.0649"
     y1="936.04706"
     x2="1236.2393"
     y2="936.04706"
     id="line136" />
  <line
     class="cls-7"
     x1="1190.0649"
     y1="929.89789"
     x2="1236.2393"
     y2="929.89789"
     id="line138" />
  <line
     class="cls-7"
     x1="1190.0649"
     y1="923.7348"
     x2="1236.2393"
     y2="923.7348"
     id="line140" />
  <line
     class="cls-7"
     x1="1190.0649"
     y1="917.58563"
     x2="1236.2393"
     y2="917.58563"
     id="line142" />
  <line
     class="cls-7"
     x1="1190.0649"
     y1="911.4364"
     x2="1236.2393"
     y2="911.4364"
     id="line144" />
  <line
     class="cls-7"
     x1="1190.0649"
     y1="905.27338"
     x2="1236.2393"
     y2="905.27338"
     id="line146" />
  <line
     class="cls-7"
     x1="1190.0649"
     y1="899.12427"
     x2="1236.2393"
     y2="899.12427"
     id="line148" />
  <path
     class="cls-2"
     d="m 1293.0501,862.93539 -24.0705,16.84103 a 8.7529049,8.7529049 0 0 1 -11.7721,-1.60655 c -16.8133,-20.7743 -21.1344,-3.00535 -22.2423,8.30972 a 8.5174628,8.5174628 0 0 1 -8.5729,7.50645 h -30.469 a 8.5313123,8.5313123 0 0 1 -8.5728,-7.50645 c -5.8861,-51.99114 3.5039,-202.32782 108.0263,-34.91467 a 8.3097198,8.3097198 0 0 1 -2.3267,11.37047 z"
     id="path150"
     style="stroke-width:1.38495" />
  <line
     class="cls-7"
     x1="1331.6487"
     y1="939.10785"
     x2="1280.9316"
     y2="868.2536"
     id="line152" />
  <polygon
     class="cls-8"
     points="1089.52,560.78 1087.89,563.45 1086.26,556.21 1092.58,560.09 "
     id="polygon154"
     transform="matrix(1.3849533,0,0,1.3849533,-227.22699,92.693609)" />
  <line
     class="cls-7"
     x1="508.32169"
     y1="1186.9037"
     x2="580.65784"
     y2="1186.9037"
     id="line156" />
  <polygon
     class="cls-8"
     points="582.19,790.03 580.97,787.15 587.79,790.03 580.97,792.91 "
     id="polygon158"
     transform="matrix(1.3849533,0,0,1.3849533,-227.22699,92.693609)" />
  <line
     class="cls-7"
     x1="563.71979"
     y1="1149.967"
     x2="488.30917"
     y2="1149.967"
     id="line160" />
  <polygon
     class="cls-8"
     points="517.83,763.36 519.05,766.24 512.23,763.36 519.05,760.48 "
     id="polygon162"
     transform="matrix(1.3849533,0,0,1.3849533,-227.22699,92.693609)" />
  <line
     class="cls-7"
     x1="586.80707"
     y1="1186.9037"
     x2="588.3443"
     y2="1186.9037"
     id="line164" />
  <line
     class="cls-7"
     x1="588.3443"
     y1="1149.967"
     x2="588.3443"
     y2="1186.9037"
     id="line166" />
  <line
     class="cls-7"
     x1="563.71979"
     y1="1149.967"
     x2="588.3443"
     y2="1149.967"
     id="line168" />
  <path
     class="cls-7"
     d="m 1280.9041,868.26746 c -4.4873,-5.99685 -12.1184,-16.28705 -21.5499,-29.23637 -21.0652,-28.91782 -36.9367,-31.16145 -41.5486,9.23764 -3.3239,29.08402 -3.8502,44.15231 -3.8502,44.15231 -0.734,21.28673 -1.191,50.78624 0,87.12741"
     id="path170" />
  <polygon
     class="cls-8"
     points="1040.57,639.4 1043.41,638.09 1040.75,645 1037.65,638.28 "
     id="polygon172"
     transform="matrix(1.3849533,0,0,1.3849533,-227.22699,92.693609)" />
  <rect
     class="cls-4"
     x="699.75763"
     y="1635.6656"
     width="128.80066"
     height="135.85007"
     rx="13.849533"
     transform="rotate(-36.069999)"
     id="rect174"
     style="stroke-width:1.38495" />
  <rect
     class="cls-3"
     x="839.62573"
     y="1637.8055"
     width="283.62457"
     height="130.22716"
     rx="13.849533"
     transform="rotate(-36.069999)"
     id="rect176"
     style="stroke-width:1.38495" />
  <rect
     class="cls-3"
     x="1133.2549"
     y="1638.1664"
     width="281.75491"
     height="128.16359"
     rx="13.849533"
     transform="rotate(-36.069999)"
     id="rect178"
     style="stroke-width:1.38495" />
  <path
     class="cls-3"
     d="m 1816.9641,436.43902 153.7298,-114.66029 a 13.309401,13.309401 0 0 1 18.8769,3.0469 l 49.9553,70.24483 a 14.057276,14.057276 0 0 1 -2.9638,19.38935 l -153.6467,114.64643 a 13.323251,13.323251 0 0 1 -18.8908,-3.03304 l -49.9553,-70.24484 a 14.084975,14.084975 0 0 1 2.8946,-19.38934 z"
     id="path180"
     style="stroke-width:1.38495" />
  <rect
     class="cls-3"
     x="902.13318"
     y="839.98676"
     width="132.95552"
     height="141.26524"
     rx="13.849533"
     id="rect182"
     style="stroke-width:1.38495" />
  <path
     class="cls-3"
     d="m 755.92366,839.98671 h 123.09465 c 8.9468,0 16.1901,6.20459 16.1901,13.84953 v 113.56617 c 0,7.64495 -7.2433,13.84954 -16.1901,13.84954 H 755.92366 c -8.9468,0 -16.20396,-6.20459 -16.20396,-13.84954 V 853.83624 c 0,-7.64494 7.25716,-13.84953 16.20396,-13.84953 z"
     id="path184"
     style="stroke-width:1.38495" />
  <path
     class="cls-3"
     d="m 643.10536,839.98671 h 136.4456 c 9.91627,0 18.00439,6.20459 18.00439,13.84953 v 113.56617 c 0,7.64495 -8.04657,13.84954 -18.00439,13.84954 h -136.4456 c -9.91626,0 -18.00439,-6.20459 -18.00439,-13.84954 V 853.83624 c 0.0416,-7.64494 8.08813,-13.84953 18.00439,-13.84953 z"
     id="path186"
     style="stroke-width:1.38495" />
  <rect
     class="cls-3"
     x="331.53244"
     y="841.3717"
     width="146.80505"
     height="141.26524"
     rx="13.849533"
     id="rect188"
     style="stroke-width:1.38495" />
  <rect
     class="cls-3"
     x="1043.3984"
     y="841.3717"
     width="131.57056"
     height="141.26524"
     rx="13.849533"
     id="rect190"
     style="stroke-width:1.38495" />
  <rect
     class="cls-4"
     x="35.152409"
     y="839.98676"
     width="283.91544"
     height="141.26524"
     rx="13.849533"
     id="rect192"
     style="stroke-width:1.38495" />
  <rect
     class="cls-3"
     x="40.692223"
     y="990.94666"
     width="238.21198"
     height="72.01757"
     rx="13.849533"
     id="rect194"
     style="stroke-width:1.38495" />
  <rect
     class="cls-3"
     x="35.152409"
     y="1071.2739"
     width="283.91544"
     height="141.26524"
     rx="13.849533"
     id="rect196"
     style="stroke-width:1.38330707;stroke:none;stroke-miterlimit:4;stroke-dasharray:none" />
  <text
     class="cls-9"
     id="text198"
     x="521.71423"
     y="986.16852"
     style="stroke-width:1.38495">WC</text>
  <text
     class="cls-9"
     id="text200"
     x="789.82733"
     y="1155.1328"
     style="stroke-width:1.38495">203</text>
  <text
     class="cls-9"
     id="text202"
     x="935.08124"
     y="1155.0913"
     style="stroke-width:1.38495">302</text>
  <text
     class="cls-9"
     id="text204"
     x="1079.7257"
     y="1155.2299"
     style="stroke-width:1.38495">301</text>
  <text
     class="cls-9"
     id="text206"
     x="365.92081"
     y="1155.576"
     style="stroke-width:1.38495">304</text>
  <text
     class="cls-9"
     id="text208"
     x="128.38747"
     y="1153.9001"
     style="stroke-width:1.38495">305</text>
  <text
     class="cls-10"
     id="text210"
     x="197.57974"
     y="1153.9001"
     style="stroke-width:1.38495">а</text>
  <text
     class="cls-9"
     id="text212"
     x="126.55933"
     y="1036.1515"
     style="stroke-width:1.38495">305</text>
  <text
     class="cls-10"
     id="text214"
     x="193.21713"
     y="1036.1515"
     style="stroke-width:1.38495">б</text>
  <text
     class="cls-9"
     id="text216"
     x="139.02391"
     y="925.35522"
     style="stroke-width:1.38495">305</text>
  <text
     class="cls-10"
     id="text218"
     x="206.96973"
     y="925.35522"
     style="stroke-width:1.38495">в</text>
  <text
     class="cls-9"
     id="text220"
     x="726.74268"
     y="919.60767"
     style="stroke-width:1.38495">307</text>
  <text
     class="cls-9"
     id="text224"
     x="929.58295"
     y="918.70746"
     style="stroke-width:1.38495">308<tspan
   class="cls-11"
   x="996.24078"
   y="918.70746"
   id="tspan222"
   style="stroke-width:1.38495">а</tspan></text>
  <text
     class="cls-9"
     id="text226"
     x="371.30829"
     y="921.43579"
     style="stroke-width:1.38495">306</text>
  <text
     class="cls-9"
     id="text228"
     x="1076.5542"
     y="919.15063"
     style="stroke-width:1.38495">308</text>
  <text
     class="cls-12"
     transform="rotate(-34.010001)"
     id="text230"
     x="653.13159"
     y="1473.3323"
     style="stroke-width:1.38495">309</text>
  <text
     class="cls-12"
     transform="rotate(-34.010001)"
     id="text232"
     x="799.46271"
     y="1469.2864"
     style="stroke-width:1.38495">310</text>
  <text
     class="cls-9"
     transform="rotate(55.195988)"
     id="text234"
     x="1654.2952"
     y="-682.14404"
     style="stroke-width:1.38308">315</text>
  <text
     class="cls-13"
     transform="rotate(-38.129999)"
     id="text236"
     x="670.12329"
     y="1744.0487"
     style="stroke-width:1.38495">314</text>
  <text
     class="cls-9"
     transform="rotate(-36.069409)"
     id="text238"
     x="957.44147"
     y="1496.6464"
     style="stroke-width:1.38786">311</text>
  <text
     class="cls-9"
     transform="rotate(-36.069409)"
     id="text240"
     x="954.41138"
     y="1716.9592"
     style="stroke-width:1.38786">313</text>
  <text
     class="cls-14"
     transform="rotate(-36.069999)"
     id="text242"
     x="1243.556"
     y="1723.924"
     style="stroke-width:1.38495">312</text>
  <text
     class="cls-15"
     transform="rotate(-36.069999)"
     id="text244"
     x="1316.5118"
     y="1723.7614"
     style="stroke-width:1.38495">в</text>
  <rect
     class="cls-3"
     x="1211.0107"
     y="1547.6901"
     width="206.05336"
     height="82.931007"
     rx="13.849533"
     transform="rotate(-36.069999)"
     id="rect246"
     style="stroke-width:1.38495" />
  <rect
     class="cls-3"
     x="613.07959"
     y="1071.3293"
     width="278.55566"
     height="139.82489"
     rx="13.849533"
     id="rect248"
     style="stroke-width:1.38495" />
  <text
     class="cls-9"
     transform="rotate(-36.56)"
     id="text252"
     x="1262.6295"
     y="1613.0139"
     style="stroke-width:1.38495">312<tspan
   class="cls-11"
   x="1329.2874"
   y="1613.0139"
   id="tspan250"
   style="stroke-width:1.38495">б</tspan></text>
  <text
     class="cls-9"
     transform="rotate(-36.56)"
     id="text256"
     x="1259.7994"
     y="1500.9961"
     style="stroke-width:1.38495">312<tspan
   class="cls-11"
   x="1326.4572"
   y="1500.9961"
   id="tspan254"
   style="stroke-width:1.38495">а</tspan></text>
  <text
     class="cls-9"
     id="text258"
     x="724.91455"
     y="1156.4762"
     style="stroke-width:1.38495">303</text>
  <path
     class="cls-2"
     d="m 1188.5138,810.72265 c 0,13.01856 22.0623,-4.5288 39.5404,-4.5288 17.4781,0 34.2499,8.9745 34.2499,-4.03021 0,-13.00472 -26.8127,-28.91783 -44.3185,-28.91783 -17.5058,0 -29.4718,24.47213 -29.4718,37.47684 z"
     id="path260"
     style="stroke-width:1.38495" />
  <text
     xml:space="preserve"
     style="font-style:normal;font-variant:normal;font-weight:bold;font-stretch:normal;font-size:116.492px;line-height:1.25;font-family:'Century Gothic';-inkscape-font-specification:'Century Gothic Bold';word-spacing:0px;fill:#000000;fill-opacity:1;stroke:none;stroke-width:1.83635"
     x="12.465546"
     y="130.44809"
     id="text1216"><tspan
       sodipodi:role="line"
       id="tspan1214"
       x="12.465546"
       y="130.44809"
       style="font-style:normal;font-variant:normal;font-weight:bold;font-stretch:normal;font-size:116.492px;font-family:'Century Gothic';-inkscape-font-specification:'Century Gothic Bold';stroke-width:1.83635">Третій Поверх</tspan></text>
  <path
     style="fill:none;stroke:#000000;stroke-width:1px;stroke-linecap:butt;stroke-linejoin:miter;stroke-opacity:1"
     d="m 491.65998,846.91636 1.34812,-0.95018 1.23744,-0.7734 1.48051,-0.7292 1.23743,-0.41984 1.81594,-0.33146 h 1.45443 52.92252 2.14342 l 1.59099,0.48614 1.92245,0.99436 1.23744,0.83969 1.56518,1.43631 1.19324,1.36871 1.01647,1.5689 0.66291,1.4584 0.46404,1.78987 v 1.59099 l 0,34.38307 v 1.56889 l -0.57452,1.67938 -0.8176,1.56889 -1.10485,1.56889 -1.43631,1.53935 -1.65309,1.23443 -1.63535,0.92445 -1.65741,0.65598 -2.67317,0.17686 -25.19145,-0.22215 -0.0518,41.6372 76.90582,0.11672 1.03101,0.01 1.81192,0.34077 1.42236,0.48173 1.60992,0.67775 1.73319,1.07607 1.32783,1.14008 1.60937,1.75861 1.34375,1.76562 0.85938,1.46875 0.57812,1.42188 0.4375,1.8125 v 1.98437 28.82944 l 0.0108,1.4146 -0.14338,1.70109 -0.92808,2.65165 -0.94638,1.57916 -1.19608,1.73526 -1.62032,1.6638 -1.84811,1.43363 -1.59433,0.86401 -2.40985,0.91142 -2.95641,0.3459 -104.96116,4e-5 -2.58536,-0.30935 -1.92244,-0.55243 -1.81197,-0.81759 -1.72356,-1.19324 -1.23765,-1.01646 -0.86179,-0.82135 -0.90799,-1.12594 -1.21333,-1.85716 -1.01646,-2.18762 -0.48614,-2.09922 v -2.20971 -127.69907 l 0.0663,-2.2539 0.41985,-1.45841 0.64081,-1.39211 0.55243,-0.92808 0.53033,-0.92808 0.95017,-1.37002 0.83969,-0.90598 z"
     id="path2300"
     sodipodi:nodetypes="ccccccccccccccccccccccccccccccccccccccccccccccccccccccccccccccccccccccccccc" />
  <path
     style="fill:none;stroke:#000000;stroke-width:1px;stroke-linecap:butt;stroke-linejoin:miter;stroke-opacity:1"
     d="m 1471.8949,957.31013 -0.011,1.45778 0.047,2.32738 0.3826,2.3205 0.8225,2.52065 0.9784,1.70308 61.7276,85.37388 2.5775,2.993 2.0745,1.7308 2.7928,1.1911 2.1546,0.6873 1.2639,0.2854 1.7566,0.031 2.9291,-0.1388 3.1358,-1.1922 3.3323,-2.0382 33.7066,-25.0422 1.5419,-1.849 1.4933,-2.6336 0.527,-1.8148 0.3703,-1.9067 0.1103,-1.619 -0.471,-3.425 -1.2344,-3.9131 -1.8864,-3.1152 -8.9734,-12.01136 -52.13,-72.57262 -2.3811,-2.65485 -2.3701,-1.49251 -3.1451,-1.3311 -1.6891,-0.38342 -1.6173,-0.22396 -3.1366,0.23025 -3.0701,0.92688 -3.1639,2.1722 -34.1104,24.7407 -2.316,2.60499 -1.1734,1.78456 -0.553,2.65324 z"
     id="path2651"
     sodipodi:nodetypes="cccccccccccccccccccccccccccccccccccccccc" />
  <path
     style="fill:none;stroke:#000000;stroke-width:1px;stroke-linecap:butt;stroke-linejoin:miter;stroke-opacity:1"
     d="m 1415.171,723.80497 -0.4536,1.65148 -0.2948,2.18702 -0.01,2.75167 0.5764,2.5875 1.3231,2.5405 64.6948,90.11576 1.8359,1.76042 1.962,1.16574 1.8239,0.66585 2.2341,0.48096 1.2278,0.0454 1.3102,0.0367 2.2326,-0.24922 2.7204,-0.63867 2.9101,-1.29044 4.6888,-3.3628 10.141,-7.2068 15.0855,-10.71411 57.6514,-41.79187 1.6622,-1.82367 1.3511,-1.8859 1.2108,-2.37003 0.5916,-2.27985 0.1088,-1.04886 0.01,-1.16971 0.082,-2.04586 -0.4415,-2.61659 -0.9315,-2.42412 -1.2795,-1.78251 -46.9142,-65.3577 -16.5205,-22.60951 -3.6709,-3.1201 -2.398,-1.17796 -2.1956,-0.39028 -1.4323,-0.0252 -2.5907,-0.15622 -2.517,0.49489 -2.5567,1.22754 -89.5135,63.74965 -1.758,2.21891 -1.4554,2.54828 z"
     id="path2655"
     sodipodi:nodetypes="ccccccccccccccccccccccccccccccccccccccccccc" />
  <path
     style="fill:none;stroke:#000000;stroke-width:1px;stroke-linecap:butt;stroke-linejoin:miter;stroke-opacity:1"
     d="m 1528.6758,646.32808 -0.021,1.77906 0.2769,1.59444 0.5334,1.80051 c 1.428,3.2704 0.7884,1.52896 1.2295,2.49657 l 64.9195,90.67848 1.7427,2.05114 1.6791,1.0606 1.7315,0.88121 1.7529,0.6673 1.3878,0.3149 1.9043,0.20505 1.7852,0.0819 1.9601,-0.26072 2.4434,-0.63141 1.6892,-0.86209 206.0292,-147.50242 2.2387,-2.27819 1.4749,-2.74136 0.7214,-2.24732 0.1733,-0.7832 0.1004,-0.65284 0.1597,-1.46629 -0.1106,-2.48828 -0.1706,-1.93573 -0.7091,-1.66353 -1.1083,-2.1547 -65.4118,-91.36624 -1.3942,-1.14426 -1.9677,-1.50787 -1.9373,-0.71861 -2.0301,-0.68101 -1.0657,-0.20489 -0.8745,-0.1044 -1.5847,-0.11089 -1.9953,0.15889 -2.1593,0.49479 -2.9746,1.43102 -205.3213,146.99559 -2.2997,2.42413 -1.3744,2.10113 -0.9996,2.74449 -0.318,2.49829 z"
     id="path2936"
     sodipodi:nodetypes="cccccccccccccccccccccccccccccccccccccccccccc" />
  <path
     style="fill:none;stroke:#000000;stroke-width:1px;stroke-linecap:butt;stroke-linejoin:miter;stroke-opacity:1"
     d="m 1811.4308,444.77016 -0.5053,2.58174 0.263,2.5287 1.9834,3.92999 51.2577,72.75293 3.1654,3.38652 3.1162,1.46056 2.0611,0.51046 2.7949,0.24782 3.5242,-0.81072 4.1203,-2.25524 153.907,-114.57865 3.3789,-3.77358 1.5374,-3.07729 0.5313,-3.03155 -0.025,-2.56853 -0.3605,-2.71115 -1.1914,-2.06659 -53.5263,-74.77987 -2.8181,-2.39962 -2.5751,-1.02651 -2.6126,-0.27281 -3.3734,0.22814 -2.9739,0.86738 -1.9197,0.97074 -3.0575,2.23661 -3.0438,2.43754 -148.116,110.54368 -2.8823,2.87812 -1.9471,3.41366 z"
     id="path3051"
     sodipodi:nodetypes="ccccccccccccccccccccccccccccccc" />
  <path
     style="fill:none;stroke:#000000;stroke-width:1px;stroke-linecap:butt;stroke-linejoin:miter;stroke-opacity:1"
     d="m 1895.3997,538.69166 -0.2562,1.90893 0.206,3.0407 1.7158,3.91056 34.787,47.75741 2.2803,2.15828 3.6012,1.98513 2.1624,0.43837 2.922,0.0813 3.0914,-0.76556 3.7367,-1.99947 145.7511,-106.16665 2.5574,-2.53832 1.6453,-3.12993 0.6615,-2.3806 0.1914,-3.01346 -0.2346,-2.15121 -1.375,-3.23452 -34.7798,-47.74741 -2.7822,-2.16263 -2.9903,-1.963 -3.0564,-0.75037 -3.0211,-0.0408 -2.184,0.3229 -3.037,1.44838 -147.2847,107.28374 -2.3001,2.56044 -1.35,2.90611 z"
     id="path3166"
     sodipodi:nodetypes="ccccccccccccccccccccccccccccc" />
  <path
     style="fill:none;stroke:#000000;stroke-width:1px;stroke-linecap:butt;stroke-linejoin:miter;stroke-opacity:1"
     d="m 1885.9966,657.4273 -0.4369,2.97471 0.3672,2.75414 0.8211,2.29579 1.9132,2.6265 58.6771,80.55507 2.1541,2.9573 3.82,2.57321 2.5749,1.02405 2.7172,0.25446 3.8493,-0.56251 5.173,-2.87546 206.3301,-150.29306 2.092,-1.91888 1.6159,-2.88262 0.5728,-1.77802 0.1928,-2.00635 -0.1639,-3.2153 -0.4257,-2.91233 -2.1548,-3.42271 -59.102,-81.13823 -3.5663,-3.56116 -2.7821,-1.48834 -2.5959,-1.07701 -3.4073,-0.10531 -3.2882,0.62732 -2.4063,1.2552 -207.3389,151.02794 -2.5005,2.15205 -1.4389,2.10989 -0.6298,1.90683 z"
     id="path3168"
     sodipodi:nodetypes="cccccccccccccccccccccccccccccccc" />
  <path
     style="fill:none;stroke:#000000;stroke-width:1px;stroke-linecap:butt;stroke-linejoin:miter;stroke-opacity:1"
     d="m 1648.621,827.98368 -0.3922,2.0099 -0.098,3.3415 0.9354,4.04361 1.0854,1.97559 62.7782,86.18524 2.1206,1.94347 1.8731,1.02447 1.9175,0.63343 1.2344,0.38905 1.145,0.0196 2.1631,0.12566 2.5339,-0.30884 2.7212,-1.17617 209.8171,-152.88752 2.5102,-1.97247 1.9454,-3.11497 0.5334,-2.29383 0.3199,-2.37292 -0.2257,-2.75767 -0.9781,-3.42655 -1.397,-2.21457 -61.0686,-83.83818 -3.6096,-3.05596 -3.1623,-1.81387 -2.3438,-0.46581 -2.207,-0.26495 -2.4998,0.14259 -3.3451,1.66514 -2.9952,1.92531 -207.4074,151.07777 -1.7754,1.80067 -1.3108,1.8333 z"
     id="path3170"
     sodipodi:nodetypes="cccccccccccccccccccccccccccccccccc" />
  <path
     style="fill:none;stroke:#000000;stroke-width:1px;stroke-linecap:butt;stroke-linejoin:miter;stroke-opacity:1"
     d="m 1633.5429,839.89168 2.3762,0.96687 2.8364,2.04832 6.8742,8.50192 59.0767,81.57416 2.0935,3.90924 0.8028,3.04868 -0.1766,2.56317 -0.3398,2.10652 -0.4686,1.86259 -1.0783,2.00872 -1.3935,1.35437 -2.3541,2.22113 -82.9078,60.39093 -3.8214,1.7393 -3.4599,0.6237 -1.8198,-0.1116 -1.8201,-0.3325 -3.0116,-1.1204 -2.6346,-2.0049 -2.1006,-2.8839 -63.8309,-87.6303 -1.3352,-2.16253 -0.9894,-2.88034 -0.3529,-2.90091 0.4215,-2.32316 0.766,-1.99522 0.7516,-1.69552 1.399,-2.14221 1.5414,-1.74754 79.0372,-57.47517 6.6279,-4.34738 3.8915,-1.58305 2.6686,-0.0625 z"
     id="path3172"
     sodipodi:nodetypes="ccccccccccccccccccccccccccccccccccc" />
  <path
     style="fill:none;stroke:#000000;stroke-width:1px;stroke-linecap:butt;stroke-linejoin:miter;stroke-opacity:1"
     d="m 45.239097,993.9154 -1.84375,1.81897 -1.3125,2.125 -1.390625,3.35933 v 51.375 l 0.6875,2.0938 1.3125,2.375 1.03125,1.2767 1.216287,1.3476 2.310241,1.5587 2.09375,1 1.71875,0.7187 h 217.375 l 2.09375,-0.6562 2.75,-1.625 1.93546,-1.4688 1.5,-1.808 1.21875,-2.25 0.96875,-2.5312 v -51.0625 l -0.63966,-2.08454 -0.67284,-1.35296 -1.375,-1.9375 -1.15625,-1.61584 -1.40421,-1.1875 -2.03125,-1.21875 -3.09375,-1.21875 H 50.875 l -2.5625,0.92187 -1.65625,0.92188 z"
     id="path2790"
     sodipodi:nodetypes="ccccccccccccccccccccccccccccccc" />
  <path
     style="fill:none;stroke:#000000;stroke-width:1.53159px;stroke-linecap:butt;stroke-linejoin:miter;stroke-opacity:1"
     d="m 37.696132,845.44804 -1.314106,2.72349 -0.769175,3.50581 -0.243598,8.23179 v 101.09266 l 0.0071,4.4638 0.127171,3.73589 0.385633,2.60597 1.106227,3.37046 1.504106,2.19211 2.339771,1.99899 2.139977,0.91193 2.313952,0.63548 2.438794,0.49182 H 306.87119 l 3.02727,-0.94747 3.87211,-1.88509 2.49482,-2.39023 1.78818,-2.93266 1.00356,-3.49183 0.19936,-3.81059 0.0924,-4.88699 V 860.58564 l -0.32506,-4.28933 -0.36462,-3.81853 -1.04542,-4.28124 -1.65965,-2.96083 -2.76775,-2.71168 -3.04653,-1.83568 -3.15689,-0.99192 H 47.508449 l -2.87665,0.20311 -2.660639,1.23972 -2.36463,1.86672 z"
     id="path2790-6"
     sodipodi:nodetypes="ccccccccccccccccccccccccccccccccccc" />
  <path
     style="fill:none;stroke:#000000;stroke-width:1.48521px;stroke-linecap:butt;stroke-linejoin:miter;stroke-opacity:1"
     d="m 627.57343,846.14113 -1.24853,2.69556 -0.73079,3.46984 -0.23144,8.14735 v 100.05565 l 0.007,4.41801 0.12082,3.69757 0.36639,2.57924 1.05103,3.33588 1.71631,2.03704 2.22301,1.75752 1.70174,1.01305 2.24267,0.87205 2.3171,0.48676 h 246.20775 l 2.8762,-0.93778 3.67889,-1.86572 2.37032,-2.36571 1.69895,-2.90258 0.95348,-3.45601 0.18941,-3.7715 0.0878,-4.83686 v -99.44704 l -0.30884,-4.24533 -0.34643,-3.77936 -0.99325,-4.23732 -1.57683,-2.93046 -2.62963,-2.68386 -2.89451,-1.81685 -2.99935,-0.98175 H 636.8961 l -1.60845,0.19801 -1.54449,0.55545 -2.3511,1.24909 -2.24663,1.78129 z"
     id="path2790-6-6"
     sodipodi:nodetypes="cccccccccccccccccccccccccccccccccccc" />
  <path
     style="fill:none;stroke:#000000;stroke-width:1.51023px;stroke-linecap:butt;stroke-linejoin:miter;stroke-opacity:1"
     d="m 615.5827,1077.2381 -1.29095,2.6956 -0.75562,3.4698 -0.2393,8.1474 v 100.0556 l 0.007,4.418 0.12492,3.6976 0.37884,2.5792 1.08674,3.3359 1.77463,2.0371 2.29854,1.7575 1.75956,1.013 2.31887,0.8721 2.39582,0.4867 h 254.57309 l 2.97392,-0.9377 3.80389,-1.8658 2.45086,-2.3657 1.75667,-2.9026 0.98588,-3.456 0.19584,-3.7715 0.0908,-4.8368 v -99.4471 l -0.31934,-4.2453 -0.3582,-3.7794 -1.027,-4.2373 -1.6304,-2.9304 -2.71898,-2.6839 -2.99285,-1.8168 -3.10126,-0.9818 H 625.22213 l -1.6631,0.198 -1.59697,0.5555 -2.43098,1.249 -2.32296,1.7813 z"
     id="path2790-6-6-3"
     sodipodi:nodetypes="cccccccccccccccccccccccccccccccccccc" />
  <path
     style="fill:none;stroke:#000000;stroke-width:1.52755px;stroke-linecap:butt;stroke-linejoin:miter;stroke-opacity:1"
     d="m 37.242009,1077.6857 -1.3141,2.7092 -0.76918,3.4873 -0.2436,8.1885 v 100.5604 l 0.007,4.4403 0.12717,3.7163 0.38564,2.5922 1.44997,3.3215 1.84786,2.2119 1.99602,1.8008 1.79623,1.0947 2.31395,0.6322 2.43879,0.4892 H 306.41697 l 3.02727,-0.9425 3.87211,-1.8752 2.49482,-2.3776 1.78818,-2.9173 1.00356,-3.4734 0.19936,-3.7905 0.0924,-4.8613 v -99.9488 l -0.32506,-4.2667 -0.36462,-3.7985 -1.04542,-4.2586 -1.65965,-2.9453 -2.76775,-2.6974 -3.04653,-1.826 -3.15689,-0.9867 H 47.054329 l -2.87665,0.202 -2.66064,1.2332 -2.36463,1.8569 z"
     id="path2790-6-9"
     sodipodi:nodetypes="ccccccccccccccccccccccccccccccccccc" />
  <path
     style="fill:none;stroke:#000000;stroke-width:1.10048px;stroke-linecap:butt;stroke-linejoin:miter;stroke-opacity:1"
     d="m 332.68743,848.4407 -0.72622,2.0021 -0.35503,2.6918 -0.12643,8.1885 v 100.5604 l 0.004,4.4403 0.066,3.7163 0.20016,2.5922 0.92932,2.61439 1.13583,2.03513 1.03595,1.22627 1.15324,1.18309 1.33355,1.07414 1.6635,0.88695 1.60319,0.35355 1.98874,0.17678 H 469.2501 l 2.0938,-0.7955 1.99509,-1.34024 1.85349,-1.69843 1.33946,-1.84727 1.08426,-1.96712 0.62859,-2.20694 0.29386,-1.7305 0.28194,-3.7905 0.048,-4.8613 V 861.996 l -0.16872,-4.2667 -0.18924,-3.7985 -0.31679,-2.34841 -0.53814,-1.97648 -1.17372,-2.26029 -1.32494,-1.76932 -1.42501,-1.36197 -1.88387,-1.27396 -2.17411,-1.14905 -2.07487,-0.57452 H 342.19549 l -2.25391,0.7513 -2.16108,1.10486 -1.49301,0.99749 -1.51347,1.54256 -1.13889,1.45915 z"
     id="path2790-6-9-1"
     sodipodi:nodetypes="cccccccccccccccccccccccccccccccccccccccccccc" />
  <path
     style="fill:none;stroke:#000000;stroke-width:1.04761px;stroke-linecap:butt;stroke-linejoin:miter;stroke-opacity:1"
     d="m 903.51509,846.98866 -0.65604,2.00844 -0.47697,2.60658 -0.11421,8.21442 v 100.87883 l 0.004,4.45436 0.0596,3.72807 0.18082,2.60041 0.83952,2.62268 1.05731,1.63529 1.18583,1.51143 1.32695,1.31576 1.11874,0.80015 0.94805,0.58112 1.14747,0.56956 0.87123,0.29857 1.30032,0.24598 h 112.36419 l 1.9587,-0.34375 1.579,-0.75114 2.2554,-1.5633 1.6744,-1.70377 1.1942,-1.52503 0.9483,-1.78583 0.5679,-2.21389 0.2654,-1.73598 0.2547,-3.8025 0.043,-4.87669 v -100.2653 l -0.1525,-4.28021 -0.1709,-3.81052 -0.2862,-2.35585 -0.486,-1.98274 -1.0603,-1.95395 -1.197,-1.36739 -1.4755,-1.46033 -1.3568,-0.9645 -1.9325,-1.24674 -2.0626,-0.89075 -2.2754,-0.53201 H 913.79987 l -1.85197,0.43849 -1.72395,0.62868 -1.513,0.82602 -1.47497,1.0945 -1.5547,1.39119 -1.24758,1.49502 z"
     id="path2790-6-9-1-5"
     sodipodi:nodetypes="cccccccccccccccccccccccccccccccccccccccccccccccc" />
  <path
     style="fill:none;stroke:#000000;stroke-width:1.06883px;stroke-linecap:butt;stroke-linejoin:miter;stroke-opacity:1"
     d="m 328.66171,1083.0545 -0.96139,1.4905 -0.94153,2.4047 -0.4576,3.4881 -0.0725,4.6158 v 96.8366 l 0.129,4.3695 0.59585,3.5787 0.63357,1.9338 1.3166,2.4551 1.33139,1.7409 1.6398,1.4934 1.81719,1.3581 1.80632,1.0343 0.81704,0.3542 1.50795,0.6216 0.77035,0.2953 v 0 0 l 1.125,0.1563 1.84375,0.1562 h 113.77007 l 2.07713,-0.2652 2.82842,-0.6629 1.38993,-0.5745 1.83008,-0.9429 1.99856,-1.379 1.41789,-1.282 1.26791,-1.6462 1.15051,-1.6734 0.57157,-1.3739 0.42044,-1.357 0.27618,-3.6501 0.047,-4.6813 v -96.2476 l -0.16527,-4.1087 -0.18538,-3.6578 -0.31032,-1.7312 -0.74812,-1.9475 -0.8846,-1.4695 -1.38627,-1.8362 -1.61689,-1.6652 -1.75702,-1.4477 -1.86455,-1.0624 -2.12089,-0.6416 -1.98241,-0.4419 -117.71147,0 -1.59375,0.125 -0.99311,0.3125 -1.36414,0.5985 -1.67946,0.939 -1.49377,0.9916 -1.57632,1.2356 -1.33439,1.4364 z"
     id="path2790-6-9-1-9"
     sodipodi:nodetypes="ccccccccccccccccccccccccccccccccccccccccccccccccccccccc" />
  <path
     style="fill:none;stroke:#000000;stroke-width:1.04166px;stroke-linecap:butt;stroke-linejoin:miter;stroke-opacity:1"
     d="m 1044.6065,848.52414 -0.8361,1.72719 -0.7216,2.60658 -0.1129,8.21442 v 100.87883 4.45436 l 0.2152,3.88432 0.2725,2.19416 0.3743,1.19595 0.6746,1.48923 1.0452,1.76029 1.1099,1.54268 1.5619,1.47201 0.856,0.5814 0.9062,0.64362 0.7595,0.44456 1.1113,0.48607 1.0356,0.21473 h 111.0906 l 1.9365,-0.34375 1.5611,-0.75114 2.2299,-1.5633 1.6554,-1.70377 1.1807,-1.52503 0.9375,-1.78583 0.5615,-2.21389 0.2624,-1.73598 0.2518,-3.8025 0.043,-4.87669 v -100.2653 l -0.1508,-4.28021 -0.1689,-3.81052 -0.283,-2.35585 -0.4805,-1.98274 -1.0483,-1.95395 -1.1834,-1.36739 -1.4588,-1.46033 -1.3414,-0.9645 -1.9106,-1.24674 -2.0392,-0.89075 -2.2496,-0.53201 H 1056.75 l -2.4786,0.3125 -1.5811,0.40724 -1.9543,0.78493 -1.2147,0.79477 -1.2083,0.81325 -1.3807,1.26619 -1.2648,1.46377 z"
     id="path2790-6-9-1-5-5"
     sodipodi:nodetypes="cccccccccccccccccccccccccccccccccccccccccccccccccc" />
  <path
     style="fill:none;stroke:#000000;stroke-width:1.06009px;stroke-linecap:butt;stroke-linejoin:miter;stroke-opacity:1"
     d="m 902.09897,1076.8517 -0.85841,1.7424 -0.74085,2.6295 -0.11591,8.2867 v 101.766 4.4936 l 0.22094,3.9184 0.27977,2.2134 0.38429,1.2066 0.69259,1.5023 1.07308,1.7757 1.13951,1.5563 1.60358,1.485 0.87883,0.5865 0.93038,0.6492 0.77976,0.4485 1.14094,0.4903 1.06323,0.2167 h 114.0541 l 1.9882,-0.3468 1.6027,-0.7577 2.2894,-1.5771 1.6995,-1.7188 1.2122,-1.5384 0.9626,-1.8015 0.5764,-2.2334 0.2694,-1.7512 0.2586,-3.836 0.044,-4.9196 v -101.147 l -0.1548,-4.3179 -0.1734,-3.8441 -0.2906,-2.3765 -0.4933,-2.0002 -1.0763,-1.9711 -1.2149,-1.3794 -1.4977,-1.4732 -1.3772,-0.973 -1.9616,-1.2577 -2.0936,-0.8986 -2.3096,-0.5366 H 914.56642 l -2.54472,0.3152 -1.62328,0.4108 -2.00643,0.7918 -1.2471,0.8018 -1.24054,0.8203 -1.41754,1.2774 -1.29854,1.4767 z"
     id="path2790-6-9-1-5-5-1"
     sodipodi:nodetypes="cccccccccccccccccccccccccccccccccccccccccccccccccc" />
  <path
     style="fill:none;stroke:#000000;stroke-width:1.06903px;stroke-linecap:butt;stroke-linejoin:miter;stroke-opacity:1"
     d="m 1043.6929,1078.1055 -0.6628,1.4755 -0.6982,2.229 -0.2079,1.6252 -0.099,6.7999 v 100.7787 4.45 l 0.105,1.7969 0.1218,2.0835 0.4407,1.2164 0.4092,1.0693 0.7071,1.7261 1.1798,1.8315 0.9313,1.0709 1.0616,1.1091 1.2992,1.0957 1.0605,0.6691 1.4242,0.7679 0.9257,0.4755 1.1404,0.423 1.3731,0.3708 113.842,0.185 1.6711,-0.2944 0.9801,-0.3165 0.9366,-0.3701 1.0989,-0.5629 1.5854,-0.9367 1.9796,-1.6866 1.8854,-2.0235 1.1604,-1.7214 0.66,-1.3916 0.3381,-1.3046 0.1517,-0.9998 0.2655,-3.7988 0.045,-4.8719 V 1090.91 l -0.1589,-4.276 -0.1781,-3.8069 -0.2984,-2.3534 -0.5066,-1.9808 -1.1053,-1.952 -1.2475,-1.366 -1.538,-1.4589 -1.4143,-0.9636 -2.0143,-1.2455 -2.15,-0.8899 -2.3717,-0.5313 h -111.2324 l -2.6131,0.3122 -1.667,0.4068 -2.0605,0.7841 -1.2806,0.794 -1.2739,0.8123 -1.4556,1.265 -1.5211,1.8686 z"
     id="path2790-6-9-1-5-5-1-1"
     sodipodi:nodetypes="cccccccccccccccccccccccccccccccccccccccccccccccccccccccc" />
  <path
     style="fill:none;stroke:#000000;stroke-width:1px;stroke-linecap:butt;stroke-linejoin:miter;stroke-opacity:1"
     d="m 1294.8976,816.21297 -0.216,1.59047 -0.014,2.06217 0.1699,1.44451 0.7157,2.32963 1.0256,2.02637 64.1688,89.63008 1.199,1.67475 1.9985,1.44872 1.6451,1.0917 1.9741,0.74241 1.5662,0.38398 1.4593,0.21696 2.0874,0.10263 2.7213,-0.25585 2.5412,-0.78674 2.4729,-1.59369 89.8602,-64.33363 1.5999,-1.45326 1.2324,-1.90651 1.0762,-2.34937 0.6596,-2.31384 0.1934,-1.20776 9e-4,-1.21891 0.01,-2.10018 -0.6709,-2.70831 -1.3,-2.90664 -1.2559,-1.75427 -63.0912,-88.12482 -0.9691,-1.35368 -2.1835,-1.65995 -1.5291,-0.78962 -1.95,-0.71546 -1.7728,-0.51445 -1.3008,-0.2206 -1.9872,-0.0643 -2.0256,0.12109 -1.623,0.37098 -1.529,0.58144 -0.9635,0.47589 -91.2361,65.31863 -1.5415,1.36873 -1.3152,1.93725 -1.0769,2.08954 -0.5536,2.09759 z"
     id="path52839"
     sodipodi:nodetypes="cccccccccccccccccccccccccccccccccccccccccccccc" />
</svg>
