<?xml version="1.0" encoding="UTF-8" standalone="no"?>
<svg
   id="Layer_1"
   data-name="Layer 1"
   viewBox="0 0 2927.72 1061.17"
   version="1.1"
   sodipodi:docname="3-floor.svg"
   inkscape:version="1.1.2 (b8e25be833, 2022-02-05)"
   xmlns:inkscape="http://www.inkscape.org/namespaces/inkscape"
   xmlns:sodipodi="http://sodipodi.sourceforge.net/DTD/sodipodi-0.dtd"
   xmlns="http://www.w3.org/2000/svg"
   xmlns:svg="http://www.w3.org/2000/svg">
  <sodipodi:namedview
     id="namedview263"
     pagecolor="#ffffff"
     bordercolor="#666666"
     borderopacity="1.0"
     inkscape:pageshadow="2"
     inkscape:pageopacity="0.0"
     inkscape:pagecheckerboard="0"
     showgrid="false"
     inkscape:zoom="0.43754185"
     inkscape:cx="1463.86"
     inkscape:cy="530.235"
     inkscape:window-width="1920"
     inkscape:window-height="974"
     inkscape:window-x="-9"
     inkscape:window-y="-9"
     inkscape:window-maximized="1"
     inkscape:current-layer="Layer_1" />
  <defs
     id="defs4">
    <style
       id="style2">.cls-1{fill:#eae3fc;stroke-width:6px;}.cls-1,.cls-7{stroke:#6a5fd3;stroke-miterlimit:10;}.cls-2{fill:#dce7fd;}.cls-3{fill:#849ff3;}.cls-4{fill:#47479c;}.cls-5{fill:#8ac4dd;}.cls-6{fill:#5757cb;}.cls-7{fill:none;stroke-linecap:round;stroke-width:2px;}.cls-8{fill:#6a5fd3;}.cls-10,.cls-12,.cls-13,.cls-14,.cls-15,.cls-9{isolation:isolate;}.cls-9{font-size:27px;}.cls-12,.cls-13,.cls-14,.cls-9{font-family:ArialRoundedMTBold, Arial Rounded MT Bold;}.cls-10,.cls-11{font-size:14px;}.cls-10,.cls-15{font-family:ArialMT, Arial;}.cls-11{font-family:MyriadPro-Regular, Myriad Pro;}.cls-12{font-size:27.03px;}.cls-13{font-size:27.11px;}.cls-14{font-size:27.06px;}.cls-15{font-size:14.03px;}</style>
  </defs>
  <g
     id="g394"
     transform="matrix(1.5322076,0,0,1.5322076,-8.49296,-207.25133)">
    <g
       id="Overlay">
      <g
         id="Layer_4"
         data-name="Layer 4">
        <path
           class="cls-1"
           d="M 182.19,531.16 V 819 l 951.17,2.22 618.19,-460.09 -156.1,-215.51 -504.89,369.79 c 0,0 -64.8,-75.28 -77.21,20.17 z"
           id="path6" />
      </g>
    </g>
    <path
       class="cls-2"
       d="m 1436.93,274 17.49,-12.77 a 10.56,10.56 0 0 1 14.92,2.52 l 62.18,88.57 a 11.05,11.05 0 0 1 -2.48,15.22 l -17.49,12.77 a 10.56,10.56 0 0 1 -14.92,-2.52 l -62.17,-88.57 a 11,11 0 0 1 2.47,-15.22 z"
       id="path10" />
    <path
       class="cls-2"
       d="m 1067.59,670.12 447.77,-320.65 a 11,11 0 0 1 15.42,2.56 l 14.81,20.68 a 11.06,11.06 0 0 1 -2.56,15.43 l -447.77,320.64 a 11.05,11.05 0 0 1 -15.42,-2.56 L 1065,685.54 a 11.05,11.05 0 0 1 2.59,-15.42 z"
       id="path12" />
    <rect
       class="cls-3"
       x="1273.9399"
       y="329.56"
       width="201.46001"
       height="99.739998"
       rx="11.11"
       transform="rotate(-35.6,1374.6667,379.4287)"
       id="rect14" />
    <rect
       class="cls-3"
       x="1114.33"
       y="483.45001"
       width="99.349998"
       height="99.010002"
       rx="11.11"
       transform="rotate(-35.6,1164.0023,532.94777)"
       id="rect16" />
    <rect
       class="cls-4"
       x="1200.6"
       y="419.17001"
       width="97.629997"
       height="97.879997"
       rx="11.11"
       transform="rotate(-35.6,1249.4074,468.11982)"
       id="rect18" />
    <path
       class="cls-4"
       d="m 1269.45,602.58 44.33,61.42 a 11.19,11.19 0 0 1 -2.46,15.59 L 1288.87,696 a 11.05,11.05 0 0 1 -15.45,-2.42 l -0.05,-0.06 -44.37,-61.43 a 11.21,11.21 0 0 1 2.41,-15.51 l 22.45,-16.39 a 11,11 0 0 1 15.41,2.19 1.43,1.43 0 0 1 0.18,0.2 z"
       id="path20" />
    <path
       class="cls-5"
       d="M 1023.35,635.58 V 512.72 c 0,0 8,-37.44 41.8,-10.6 33.8,26.84 71.62,96.78 71.62,96.78 l -27.85,20 -40.36,-54.9 c 0,0 -6.31,-7.3 -10.76,2.7 V 640 h -34.45 z"
       id="path22" />
    <path
       class="cls-3"
       d="m 821.23,705.58 h 83.44 c 3.74,0 6.78,5 6.78,11.11 v 80 c 0,6.14 -3,11.12 -6.78,11.12 h -83.44 c -3.74,0 -6.78,-5 -6.78,-11.12 v -80 c 0,-6.11 3,-11.11 6.78,-11.11 z"
       id="path24" />
    <rect
       class="cls-6"
       x="515.32001"
       y="542.27002"
       width="30"
       height="112.23"
       rx="11.11"
       id="rect26" />
    <rect
       class="cls-6"
       x="523.09998"
       y="613.39001"
       width="76.669998"
       height="41.110001"
       rx="11.11"
       id="rect28" />
    <rect
       class="cls-6"
       x="576.44"
       y="613.39001"
       width="34.450001"
       height="41.110001"
       rx="11.11"
       id="rect30" />
    <rect
       class="cls-6"
       x="524.21002"
       y="542.27002"
       width="47.779999"
       height="41.110001"
       rx="9.4499998"
       id="rect32" />
    <path
       class="cls-3"
       d="m 411.69,709.77 h 80.53 c 6.44,0 11.67,5 11.67,11.11 v 75.52 c 0,6.14 -5.23,11.11 -11.67,11.11 h -80.53 c -6.44,0 -11.67,-5 -11.67,-11.11 v -75.52 c -0.02,-6.13 5.23,-11.11 11.67,-11.11 z"
       id="path34" />
    <path
       class="cls-2"
       d="M 384.5,656.73 H 1028 c 5.23,0 9.48,5 9.48,11.11 v 16.66 c 0,6.14 -4.25,11.12 -9.48,11.12 H 384.5 c -5.24,0 -9.49,-5 -9.49,-11.12 v -16.66 c -0.01,-6.14 4.25,-11.11 9.49,-11.11 z"
       id="path36" />
    <path
       class="cls-2"
       d="m 521.14,672.28 h 66.62 c 6.46,0 11.69,5 11.69,11.11 v 112.19 c 0,6.14 -5.23,11.11 -11.69,11.11 h -66.62 c -6.46,0 -11.69,-5 -11.69,-11.11 V 683.39 c 0,-6.13 5.23,-11.11 11.69,-11.11 z"
       id="path38" />
    <path
       class="cls-4"
       d="m 927.79,705.58 h 77.79 a 11.22,11.22 0 0 1 11.11,11.33 v 0 79.3 a 11.22,11.22 0 0 1 -11.06,11.37 h -77.84 a 11.22,11.22 0 0 1 -11.11,-11.33 v 0 V 717 a 11.22,11.22 0 0 1 11.07,-11.37 z"
       id="path40" />
    <path
       class="cls-2"
       d="m 1044.81,656.73 h 177.1 c 13.69,0 24.79,8 24.79,17.76 l -39.25,70.09 c 0,9.81 -63.31,67 -77,67 l -85.64,2 c -13.69,0 -24.79,-8 -24.79,-17.76 V 674.49 c -0.02,-9.81 11.1,-17.76 24.79,-17.76 z"
       id="path42" />
    <path
       class="cls-2"
       d="m 587.55,537.58 h 12.22 c 7.36,0 13.33,4.64 13.33,10.35 v 51.77 c 0,5.72 -6,10.36 -13.33,10.36 h -12.22 c -7.37,0 -13.34,-4.64 -13.34,-10.36 v -51.77 c 0,-5.71 5.97,-10.35 13.34,-10.35 z"
       id="path44" />
    <path
       class="cls-2"
       d="M 558.12,586.72 H 587 a 11.65,11.65 0 0 1 11.67,11.65 v 0 0 A 11.67,11.67 0 0 1 587,610.06 h -28.88 a 11.69,11.69 0 0 1 -11.67,-11.67 v 0 a 11.67,11.67 0 0 1 11.67,-11.67 z"
       id="path46" />
    <path
       class="cls-2"
       d="m 1079.17,665.05 81.56,-58.82 a 8.73,8.73 0 0 1 12.21,1.94 v 0.06 l 77.83,109.51 a 8.87,8.87 0 0 1 -2,12.33 l -81.56,58.82 a 8.73,8.73 0 0 1 -12.19,-1.94 v -0.06 l -77.87,-109.51 a 8.89,8.89 0 0 1 2.02,-12.33 z"
       id="path48" />
    <path
       class="cls-2"
       d="m 1099.17,648.05 81.56,-58.82 a 8.73,8.73 0 0 1 12.21,1.94 v 0.06 l 77.83,109.51 a 8.87,8.87 0 0 1 -2,12.33 l -81.56,58.82 a 8.73,8.73 0 0 1 -12.19,-1.94 v -0.06 l -77.87,-109.51 a 8.89,8.89 0 0 1 2.02,-12.33 z"
       id="path50" />
    <path
       class="cls-2"
       d="m 1033.15,525.63 35.63,-10 a 10.75,10.75 0 0 1 13.26,7 l 41.13,134.94 a 10.21,10.21 0 0 1 -7.25,12.74 l -35.63,10 a 10.75,10.75 0 0 1 -13.26,-7 L 1025.9,538.37 a 10.21,10.21 0 0 1 7.25,-12.74 z"
       id="path52" />
    <path
       class="cls-2"
       d="m 1031.06,512.27 h 39.43 a 10.89,10.89 0 0 1 10.65,11.11 v 142.24 a 10.89,10.89 0 0 1 -10.65,11.11 h -39.43 a 10.89,10.89 0 0 1 -10.65,-11.11 V 523.38 a 10.89,10.89 0 0 1 10.65,-11.11 z"
       id="path54" />
    <path
       class="cls-2"
       d="m 1025.75,522.52 33.47,-19.63 a 10.58,10.58 0 0 1 14.57,4 L 1141.52,626 a 10.93,10.93 0 0 1 -3.91,14.8 l -33.47,19.63 a 10.57,10.57 0 0 1 -14.57,-4 l -67.73,-119.15 a 10.94,10.94 0 0 1 3.91,-14.76 z"
       id="path56" />
    <path
       class="cls-2"
       d="m 1023.29,521.8 33,-23.41 a 22.77,22.77 0 0 0 6.74,2.79 c 3.63,0.86 5.66,2.56 7.57,2.28 30.14,36.53 57.06,73.71 84.16,112.06 a 11,11 0 0 1 -2.59,15.49 l -33,23.4 a 11.27,11.27 0 0 1 -15.63,-2.56 L 1020.7,537.28 a 11,11 0 0 1 2.59,-15.48 z"
       id="path58" />
    <line
       class="cls-7"
       x1="1023.35"
       y1="635.60999"
       x2="1056.6899"
       y2="635.60999"
       id="line60" />
    <line
       class="cls-7"
       x1="1107.6"
       y1="617.5"
       x2="1134.72"
       y2="598.09003"
       id="line62" />
    <line
       class="cls-7"
       x1="1105.38"
       y1="614.15997"
       x2="1132.49"
       y2="594.76001"
       id="line64" />
    <line
       class="cls-7"
       x1="1103.16"
       y1="610.83002"
       x2="1130.27"
       y2="591.42999"
       id="line66" />
    <line
       class="cls-7"
       x1="1100.9399"
       y1="607.48999"
       x2="1128.05"
       y2="588.09003"
       id="line68" />
    <line
       class="cls-7"
       x1="1098.71"
       y1="604.15997"
       x2="1125.83"
       y2="584.76001"
       id="line70" />
    <line
       class="cls-7"
       x1="1096.49"
       y1="600.83002"
       x2="1123.6"
       y2="581.42999"
       id="line72" />
    <line
       class="cls-7"
       x1="1094.27"
       y1="597.48999"
       x2="1121.38"
       y2="578.09003"
       id="line74" />
    <line
       class="cls-7"
       x1="1092.05"
       y1="594.15997"
       x2="1119.16"
       y2="574.76001"
       id="line76" />
    <line
       class="cls-7"
       x1="1089.8199"
       y1="590.83002"
       x2="1116.9399"
       y2="571.42999"
       id="line78" />
    <line
       class="cls-7"
       x1="1087.6"
       y1="587.48999"
       x2="1114.71"
       y2="568.09003"
       id="line80" />
    <line
       class="cls-7"
       x1="1085.38"
       y1="584.15997"
       x2="1112.49"
       y2="564.76001"
       id="line82" />
    <line
       class="cls-7"
       x1="1083.16"
       y1="580.83002"
       x2="1110.27"
       y2="561.42999"
       id="line84" />
    <line
       class="cls-7"
       x1="1080.9301"
       y1="577.48999"
       x2="1108.05"
       y2="558.09003"
       id="line86" />
    <line
       class="cls-7"
       x1="1078.71"
       y1="574.15997"
       x2="1105.83"
       y2="554.76001"
       id="line88" />
    <line
       class="cls-7"
       x1="1023.35"
       y1="631.16998"
       x2="1056.6899"
       y2="631.16998"
       id="line90" />
    <line
       class="cls-7"
       x1="1023.35"
       y1="626.71997"
       x2="1056.6899"
       y2="626.71997"
       id="line92" />
    <line
       class="cls-7"
       x1="1023.35"
       y1="622.28003"
       x2="1056.6899"
       y2="622.28003"
       id="line94" />
    <line
       class="cls-7"
       x1="533.32001"
       y1="797.84998"
       x2="533.32001"
       y2="782.28998"
       id="line96" />
    <line
       class="cls-7"
       x1="538.88"
       y1="797.84998"
       x2="538.88"
       y2="782.28998"
       id="line98" />
    <line
       class="cls-7"
       x1="544.42999"
       y1="797.84998"
       x2="544.42999"
       y2="782.28998"
       id="line100" />
    <line
       class="cls-7"
       x1="522.21002"
       y1="771.17999"
       x2="522.21002"
       y2="755.62"
       id="line102" />
    <line
       class="cls-7"
       x1="527.77002"
       y1="771.17999"
       x2="527.77002"
       y2="755.62"
       id="line104" />
    <line
       class="cls-7"
       x1="533.32001"
       y1="771.17999"
       x2="533.32001"
       y2="755.62"
       id="line106" />
    <line
       class="cls-7"
       x1="538.88"
       y1="771.17999"
       x2="538.88"
       y2="755.62"
       id="line108" />
    <line
       class="cls-7"
       x1="544.42999"
       y1="771.17999"
       x2="544.42999"
       y2="755.62"
       id="line110" />
    <line
       class="cls-7"
       x1="549.98999"
       y1="771.17999"
       x2="549.98999"
       y2="755.62"
       id="line112" />
    <line
       class="cls-7"
       x1="555.54999"
       y1="771.17999"
       x2="555.54999"
       y2="755.62"
       id="line114" />
    <line
       class="cls-7"
       x1="561.09998"
       y1="771.17999"
       x2="561.09998"
       y2="755.62"
       id="line116" />
    <line
       class="cls-7"
       x1="566.65997"
       y1="771.17999"
       x2="566.65997"
       y2="755.62"
       id="line118" />
    <line
       class="cls-7"
       x1="549.98999"
       y1="797.84998"
       x2="549.98999"
       y2="782.28998"
       id="line120" />
    <line
       class="cls-7"
       x1="555.54999"
       y1="797.84998"
       x2="555.54999"
       y2="782.28998"
       id="line122" />
    <line
       class="cls-7"
       x1="561.09998"
       y1="797.84998"
       x2="561.09998"
       y2="782.28998"
       id="line124" />
    <line
       class="cls-7"
       x1="566.65997"
       y1="797.84998"
       x2="566.65997"
       y2="782.28998"
       id="line126" />
    <line
       class="cls-7"
       x1="572.21002"
       y1="797.84998"
       x2="572.21002"
       y2="782.28998"
       id="line128" />
    <line
       class="cls-7"
       x1="577.77002"
       y1="797.84998"
       x2="577.77002"
       y2="782.28998"
       id="line130" />
    <line
       class="cls-7"
       x1="1023.35"
       y1="617.83002"
       x2="1056.6899"
       y2="617.83002"
       id="line132" />
    <line
       class="cls-7"
       x1="1023.35"
       y1="613.39001"
       x2="1056.6899"
       y2="613.39001"
       id="line134" />
    <line
       class="cls-7"
       x1="1023.35"
       y1="608.94"
       x2="1056.6899"
       y2="608.94"
       id="line136" />
    <line
       class="cls-7"
       x1="1023.35"
       y1="604.5"
       x2="1056.6899"
       y2="604.5"
       id="line138" />
    <line
       class="cls-7"
       x1="1023.35"
       y1="600.04999"
       x2="1056.6899"
       y2="600.04999"
       id="line140" />
    <line
       class="cls-7"
       x1="1023.35"
       y1="595.60999"
       x2="1056.6899"
       y2="595.60999"
       id="line142" />
    <line
       class="cls-7"
       x1="1023.35"
       y1="591.16998"
       x2="1056.6899"
       y2="591.16998"
       id="line144" />
    <line
       class="cls-7"
       x1="1023.35"
       y1="586.71997"
       x2="1056.6899"
       y2="586.71997"
       id="line146" />
    <line
       class="cls-7"
       x1="1023.35"
       y1="582.28003"
       x2="1056.6899"
       y2="582.28003"
       id="line148" />
    <path
       class="cls-2"
       d="m 1097.71,556.15 -17.38,12.16 a 6.32,6.32 0 0 1 -8.5,-1.16 c -12.14,-15 -15.26,-2.17 -16.06,6 a 6.15,6.15 0 0 1 -6.19,5.42 h -22 a 6.16,6.16 0 0 1 -6.19,-5.42 c -4.25,-37.54 2.53,-146.09 78,-25.21 a 6,6 0 0 1 -1.68,8.21 z"
       id="path150" />
    <line
       class="cls-7"
       x1="1125.58"
       y1="611.15002"
       x2="1088.96"
       y2="559.98999"
       id="line152" />
    <polygon
       class="cls-8"
       points="1089.52,560.78 1087.89,563.45 1086.26,556.21 1092.58,560.09 "
       id="polygon154" />
    <line
       class="cls-7"
       x1="531.09998"
       y1="790.07001"
       x2="583.33002"
       y2="790.07001"
       id="line156" />
    <polygon
       class="cls-8"
       points="582.19,790.03 580.97,787.15 587.79,790.03 580.97,792.91 "
       id="polygon158" />
    <line
       class="cls-7"
       x1="571.09998"
       y1="763.40002"
       x2="516.65002"
       y2="763.40002"
       id="line160" />
    <polygon
       class="cls-8"
       points="517.83,763.36 519.05,766.24 512.23,763.36 519.05,760.48 "
       id="polygon162" />
    <line
       class="cls-7"
       x1="587.77002"
       y1="790.07001"
       x2="588.88"
       y2="790.07001"
       id="line164" />
    <line
       class="cls-7"
       x1="588.88"
       y1="763.40002"
       x2="588.88"
       y2="790.07001"
       id="line166" />
    <line
       class="cls-7"
       x1="571.09998"
       y1="763.40002"
       x2="588.88"
       y2="763.40002"
       id="line168" />
    <path
       class="cls-7"
       d="m 1088.94,560 c -3.24,-4.33 -8.75,-11.76 -15.56,-21.11 -15.21,-20.88 -26.67,-22.5 -30,6.67 -2.4,21 -2.78,31.88 -2.78,31.88 -0.53,15.37 -0.86,36.67 0,62.91"
       id="path170" />
    <polygon
       class="cls-8"
       points="1040.57,639.4 1043.41,638.09 1040.75,645 1037.65,638.28 "
       id="polygon172" />
    <rect
       class="cls-4"
       x="1287.79"
       y="553.42999"
       width="93"
       height="98.089996"
       rx="10"
       transform="rotate(-36.07,1334.2882,602.48214)"
       id="rect174" />
    <rect
       class="cls-3"
       x="1358.42"
       y="462.70001"
       width="204.78999"
       height="94.029999"
       rx="10"
       transform="rotate(-36.07,1460.8098,509.72048)"
       id="rect176" />
    <rect
       class="cls-3"
       x="1529.63"
       y="338.62"
       width="203.44"
       height="92.540001"
       rx="10"
       transform="rotate(-36.07,1631.3513,384.88989)"
       id="rect178" />
    <path
       class="cls-3"
       d="m 1476,248.2 111,-82.79 a 9.61,9.61 0 0 1 13.63,2.2 l 36.07,50.72 a 10.15,10.15 0 0 1 -2.14,14 l -110.94,82.78 a 9.62,9.62 0 0 1 -13.64,-2.19 l -36.07,-50.72 a 10.17,10.17 0 0 1 2.09,-14 z"
       id="path180" />
    <rect
       class="cls-3"
       x="815.45001"
       y="539.58002"
       width="96"
       height="102"
       rx="10"
       id="rect182" />
    <path
       class="cls-3"
       d="m 709.88,539.58 h 88.88 c 6.46,0 11.69,4.48 11.69,10 v 82 c 0,5.52 -5.23,10 -11.69,10 h -88.88 c -6.46,0 -11.7,-4.48 -11.7,-10 v -82 c 0,-5.52 5.24,-10 11.7,-10 z"
       id="path184" />
    <path
       class="cls-3"
       d="m 628.42,539.58 h 98.52 c 7.16,0 13,4.48 13,10 v 82 c 0,5.52 -5.81,10 -13,10 h -98.52 c -7.16,0 -13,-4.48 -13,-10 v -82 c 0.03,-5.52 5.84,-10 13,-10 z"
       id="path186" />
    <rect
       class="cls-3"
       x="403.45001"
       y="540.58002"
       width="106"
       height="102"
       rx="10"
       id="rect188" />
    <rect
       class="cls-3"
       x="917.45001"
       y="540.58002"
       width="95"
       height="102"
       rx="10"
       id="rect190" />
    <rect
       class="cls-4"
       x="189.45"
       y="539.58002"
       width="205"
       height="102"
       rx="10"
       id="rect192" />
    <rect
       class="cls-3"
       x="193.45"
       y="648.58002"
       width="172"
       height="52"
       rx="10"
       id="rect194" />
    <rect
       class="cls-3"
       x="189.45"
       y="706.58002"
       width="205"
       height="102"
       rx="10"
       id="rect196" />
    <text
       class="cls-9"
       transform="translate(540.77,645.13)"
       id="text198">WC</text>
    <text
       class="cls-9"
       transform="translate(734.36,767.13)"
       id="text200">203</text>
    <text
       class="cls-9"
       transform="translate(839.24,767.1)"
       id="text202">302</text>
    <text
       class="cls-9"
       transform="translate(943.68,767.2)"
       id="text204">301</text>
    <text
       class="cls-9"
       transform="translate(428.28,767.45)"
       id="text206">304</text>
    <text
       class="cls-9"
       transform="translate(256.77,766.24)"
       id="text208">305</text>
    <text
       class="cls-10"
       transform="translate(306.73,766.24)"
       id="text210">а</text>
    <text
       class="cls-9"
       transform="translate(255.45,681.22)"
       id="text212">305</text>
    <text
       class="cls-10"
       transform="translate(303.58,681.22)"
       id="text214">б</text>
    <text
       class="cls-9"
       transform="translate(264.45,601.22)"
       id="text216">305</text>
    <text
       class="cls-10"
       transform="translate(313.51,601.22)"
       id="text218">в</text>
    <text
       class="cls-9"
       transform="translate(688.81,597.07)"
       id="text220">307</text>
    <text
       class="cls-9"
       transform="translate(835.27,596.42)"
       id="text224">308<tspan
   class="cls-11"
   x="48.130001"
   y="0"
   id="tspan222">а</tspan></text>
    <text
       class="cls-9"
       transform="translate(432.17,598.39)"
       id="text226">306</text>
    <text
       class="cls-9"
       transform="translate(941.39,596.74)"
       id="text228">308</text>
    <text
       class="cls-12"
       transform="rotate(-34.01,1476.0613,-1604.6211)"
       id="text230">309</text>
    <text
       class="cls-12"
       transform="rotate(-34.01,1418.4562,-1775.9021)"
       id="text232">310</text>
    <text
       class="cls-9"
       transform="matrix(0.57,0.82,-0.82,0.57,1250.27,632.74)"
       id="text234">315</text>
    <text
       class="cls-13"
       transform="rotate(-38.13,1565.1686,-1600.5102)"
       id="text236">314</text>
    <text
       class="cls-9"
       transform="matrix(0.81,-0.59,0.59,0.81,1359.11,399.54)"
       id="text238">311</text>
    <text
       class="cls-9"
       transform="matrix(0.81,-0.59,0.59,0.81,1451,529.41)"
       id="text240">313</text>
    <text
       class="cls-14"
       transform="rotate(-36.07,1441.8054,-2286.6587)"
       id="text242">312</text>
    <text
       class="cls-15"
       transform="rotate(-36.07,1415.2864,-2367.4942)"
       id="text244">в</text>
    <rect
       class="cls-3"
       x="1532.1801"
       y="272"
       width="148.78"
       height="59.880001"
       rx="10"
       transform="rotate(-36.07,1606.5386,301.94347)"
       id="rect246" />
    <rect
       class="cls-3"
       x="606.73999"
       y="706.62"
       width="201.13"
       height="100.96"
       rx="10"
       id="rect248" />
    <text
       class="cls-9"
       transform="rotate(-36.56,1287.7726,-2244.0821)"
       id="text252">312<tspan
   class="cls-11"
   x="48.130001"
   y="0"
   id="tspan250">б</tspan></text>
    <text
       class="cls-9"
       transform="rotate(-36.56,1166.3686,-2200.548)"
       id="text256">312<tspan
   class="cls-11"
   x="48.130001"
   y="0"
   id="tspan254">а</tspan></text>
    <text
       class="cls-9"
       transform="translate(687.49,768.1)"
       id="text258">303</text>
    <path
       class="cls-2"
       d="m 1022.23,518.45 c 0,9.4 15.93,-3.27 28.55,-3.27 12.62,0 24.73,6.48 24.73,-2.91 0,-9.39 -19.36,-20.88 -32,-20.88 -12.64,0 -21.28,17.67 -21.28,27.06 z"
       id="path260" />
  </g>
</svg>
