<?xml version="1.0" encoding="UTF-8" standalone="no"?>
<!-- Generator: Adobe Illustrator 26.2.1, SVG Export Plug-In . SVG Version: 6.00 Build 0)  -->

<svg
   version="1.1"
   x="0px"
   y="0px"
   viewBox="0 0 2245.0394 1587.4016"
   xml:space="preserve"
   id="svg265"
   sodipodi:docname="Public page 3.svg"
   width="594mm"
   height="420mm"
   inkscape:version="1.1.2 (b8e25be833, 2022-02-05)"
   xmlns:inkscape="http://www.inkscape.org/namespaces/inkscape"
   xmlns:sodipodi="http://sodipodi.sourceforge.net/DTD/sodipodi-0.dtd"
   xmlns="http://www.w3.org/2000/svg"
   xmlns:svg="http://www.w3.org/2000/svg"><defs
   id="defs269" /><sodipodi:namedview
   id="namedview267"
   pagecolor="#ffffff"
   bordercolor="#666666"
   borderopacity="1.0"
   inkscape:pageshadow="2"
   inkscape:pageopacity="0.0"
   inkscape:pagecheckerboard="0"
   showgrid="false"
   units="mm"
   inkscape:zoom="0.22627417"
   inkscape:cx="134.79223"
   inkscape:cy="861.78639"
   inkscape:window-width="1920"
   inkscape:window-height="974"
   inkscape:window-x="-9"
   inkscape:window-y="-9"
   inkscape:window-maximized="1"
   inkscape:current-layer="svg265"
   inkscape:document-units="mm" />
<style
   type="text/css"
   id="style2">
	.st0{fill:#5353BC;stroke:#5353BC;stroke-miterlimit:10;}
	.st1{opacity:0.34;}
	.st2{fill:#FFFFFF;}
	.st3{fill:#5757CB;stroke:#5757CB;stroke-miterlimit:10;}
	.st4{fill:#FDFDFF;}
	.st5{fill:#EAF4FE;stroke:#EAF4FE;stroke-miterlimit:10;}
	.st6{fill:#678BE5;stroke:#678BE5;stroke-miterlimit:10;}
	.st7{fill:#FFAA4D;stroke:#FFAA4D;stroke-linecap:round;stroke-miterlimit:10;}
	.st8{fill:#E0813B;stroke:#E0813B;stroke-linecap:round;stroke-miterlimit:10;}
	.st9{opacity:0.51;fill:#FFFFFF;stroke:#FFFFFF;stroke-linecap:round;stroke-miterlimit:10;}
	.st10{fill:#F19E38;stroke:#F19E38;stroke-linecap:round;stroke-miterlimit:10;}
	.st11{fill:#484AF1;stroke:#FFFFFF;stroke-width:6;stroke-miterlimit:10;}
	.st12{fill:#DBDCFE;stroke:#7489F8;stroke-width:5;stroke-miterlimit:10;}
	.st13{fill:#194866;stroke:#194866;stroke-linecap:round;stroke-miterlimit:10;}
	.st14{fill:#E9D6B8;}
	.st15{fill:#E2C59C;}
	.st16{fill:#849FF3;}
	.st17{fill:#5757CB;}
	.st18{display:none;}
</style>
<g
   id="Layer_2"
   transform="matrix(1.8490674,0,0,1.8490674,-646.47563,-166.39553)">
	<path
   class="st0"
   d="m 748.2,240.3 c 0,0 13.7,-110.1 0,-126.4 -13.7,-16.3 -6.7,4.7 -17.7,19.7 -11,15 -59.1,81.7 -59.1,81.7 l 18,66 z"
   id="path4" />
	<g
   id="Earth">
		<g
   class="st1"
   id="g8">
			<path
   class="st2"
   d="m 731.5,168.5 c -9.2,29.7 -19.7,59.1 -33.4,87.1 -4.7,9.3 -9.6,18.5 -15.7,27.2 -1,1.4 -2.8,1.7 -4.2,0.7 -1.4,-1 -1.7,-3 -0.6,-4.3 12.4,-16.2 21.8,-34.8 30.5,-53.3 8.7,-18.7 16.4,-37.9 23.4,-57.4 z"
   id="path6" />
		</g>
		<path
   class="st3"
   d="m 565.9,614.7 c 0,0 -62.6,-129.1 0,-265.1 62.6,-136 55.6,-209.1 64.6,-209.1 5.5,0 25.7,36.4 40.9,74.7 9.6,24.1 17.2,49 18,66 2.1,44.3 -123.5,333.5 -123.5,333.5 z"
   id="path10" />
		<g
   class="st1"
   id="g14">
			<path
   class="st4"
   d="m 637,271 c -11.4,28.9 -22.1,58.2 -31,88 -3.5,11.8 -6.7,23.9 -8.8,36 -0.9,5.9 -1.7,12.1 -0.8,18 0.3,3.9 -5.4,4.6 -6,0.7 0,-0.6 -0.3,-2.8 -0.3,-3.3 -0.1,-5.5 0.8,-10.9 1.9,-16.3 2.6,-12.3 6.3,-24.3 10.4,-36.2 10.1,-29.5 22,-58.4 34.6,-86.9 z"
   id="path12" />
		</g>
		<path
   class="st5"
   d="m 1379.5,562.5 c 0,214 -189,376 -403,376 -214,0 -416,-170 -416,-384 0,-214 186,-370 400,-370 214,0 419,164 419,378 z"
   id="path16" />
		<path
   class="st6"
   d="m 878,192.3 c 0,0 -31.5,14.2 -30.5,21.2 0.7,4.8 7.6,8.3 11.9,10.1 1.8,0.8 3,2.5 3,4.5 0,1.3 0.1,3.1 0.3,5.7 0.8,8.7 31.6,-20.7 31.6,-20.7 0,0 16.4,-16.8 23.8,0.8 7.4,17.6 45.4,68.6 69.4,63.6 24,-5 8,-25 10,-34 2,-9 25,-26 37,-22 12,4 48.2,-19.7 39.1,-21.8 -9.1,-2.1 -21.2,-6.4 -45.6,-9.8 -23.3,-3.2 -54.9,-5.1 -57.7,-5.3 -0.1,0 -0.3,0 -0.4,0 -4.7,0.2 -82.7,2.7 -91.9,7.7 z"
   id="path18" />
		<path
   class="st6"
   d="m 1280,485.5 c 12.3,0 19.4,13.9 12.3,23.8 -9.9,13.7 -16.7,29.5 -2.8,36.2 27,13 24.4,-14 37.7,-5.5 13.3,8.5 32.1,184.8 -7.3,219.2 -39.4,34.3 -14.4,-39.7 -29.4,-47.7 -15,-8 -36,-3 -50,8 -14,11 -67,-27 -57,-66 9.2,-36 16.8,-68.6 39.1,-95.4 3.5,-4.2 4.3,-10 2.3,-15.1 -4.3,-10.8 -10.8,-29 -9.5,-36.5 0.6,-3.2 0.4,-12.2 1,-15 1.5,-6.9 8.5,-6 15.6,-6 z"
   id="path20" />
		<path
   class="st6"
   d="m 723.4,729.9 c -0.7,3.5 -0.4,7.2 0.9,10.5 5.8,14.9 29.6,55.8 123.2,96.4 20,8.7 14.7,86.5 27.8,89.1 6.3,1.2 20.3,3.7 33.1,5.9 12.6,2.2 23.7,-8.5 22.1,-21.2 -2.2,-17.5 -3,-38.7 4.5,-46 11.3,-11 31.3,-61.1 37.6,-77.2 1.4,-3.7 3.9,-6.8 7.2,-8.9 7.3,-4.8 21.6,-11.9 40.7,-10.3 1.8,0.1 3.4,0.2 5,0.1 19,-0.9 24.6,-26.6 7.8,-35.6 -8.8,-4.7 -22.3,-8.7 -41.8,-6.2 -40,5 -34,-37 -66,-55 -26.5,-14.9 -62.6,8.7 -74.3,17.2 -3.3,2.4 -7.2,3.7 -11.2,3.7 -11,0 -33.1,-4.3 -59.5,-32.9 -33.4,-36 -52.9,49.2 -57.1,70.4 z"
   id="path22" />
		<path
   class="st6"
   d="m 797,577.8 c 1,0.4 1.9,1 2.7,1.8 4.9,4.6 24,22.5 31.8,32.9 7.2,9.6 13.1,-14.6 15.2,-24.6 0.5,-2.5 0,-5.2 -1.4,-7.4 -6.6,-10.3 -25,-42.3 -5.8,-54 23,-14 62,-42.1 79.5,-41 17.5,1 7.5,-50 24.5,-58 17,-8 58,-20 54,-30 -4,-10 -59,-26 -61,-35 -2,-9 -15,-43 -27,-41 -12,2 -27,17 -35,19 -8,2 -19,22 -14,39 5,17 -37,22 -38,5 -1,-16.6 0,-44.8 82.5,-87.2 5.3,-2.7 7.1,-9.5 3.7,-14.4 -3.1,-4.3 -10.1,-7.7 -25.6,-5.1 -33.6,5.7 -26.6,-19.3 -46.6,-16.3 -20,3 -27,6 -18,12 9,6 29,11 20,19 -9,8 -62,20 -78,18 -16,-2 -20,-24.6 -37.5,-23.8 -17.5,0.8 -48.9,4.6 -69.2,28.7 -20.3,24.1 13.7,94.1 6.7,106.1 -6.8,11.7 -20.3,156.9 3,182.2 0.9,1 1.7,2.2 2.2,3.4 0.7,1.8 3.9,0.9 17.8,-30.6 17.6,-39.8 101.2,-4.2 113.5,1.3 z"
   id="path24" />
	</g>
	<path
   class="st7"
   d="m 1294.5,485.5 h -133 c -5.5,0 -10,-4.5 -10,-10 v -346 c 0,-5.5 4.5,-10 10,-10 l 139,-4 c 5.5,0 11,3.5 11,9 l -7,351 c 0,5.5 -4.5,10 -10,10 z"
   id="path27" />
	<path
   class="st8"
   d="m 1340.5,485.5 h -103 c -5.5,0 -10,-4.5 -10,-10 v -246 c 0,-5.5 4.5,-10 10,-10 l 106,-1 c 5.5,0 10,1.5 10,7 l -3,250 c 0,5.5 -4.5,10 -10,10 z"
   id="path29" />
	
		<rect
   x="1234.5"
   y="139.5"
   transform="matrix(0.9974,-0.07185601,0.07185601,0.9974,-7.0613,90.7273)"
   class="st9"
   width="46"
   height="8"
   id="rect31" />
	
		<rect
   x="1175.5"
   y="143.5"
   transform="matrix(0.9974,-0.07185601,0.07185601,0.9974,-7.5013,86.4982)"
   class="st9"
   width="46"
   height="8"
   id="rect33" />
	
		<rect
   x="1175.5"
   y="166.5"
   transform="matrix(0.9974,-0.07185601,0.07185601,0.9974,-9.1539,86.5576)"
   class="st9"
   width="46"
   height="8"
   id="rect35" />
	
		<rect
   x="1175.5"
   y="189.5"
   transform="matrix(0.9974,-0.07185601,0.07185601,0.9974,-10.8066,86.6171)"
   class="st9"
   width="46"
   height="8"
   id="rect37" />
	
		<rect
   x="1175.5"
   y="212.5"
   transform="matrix(0.9974,-0.07185601,0.07185601,0.9974,-12.4593,86.6765)"
   class="st9"
   width="46"
   height="8"
   id="rect39" />
	
		<rect
   x="1175.5"
   y="235.5"
   transform="matrix(0.9974,-0.07185601,0.07185601,0.9974,-14.112,86.736)"
   class="st9"
   width="46"
   height="8"
   id="rect41" />
	
		<rect
   x="1234.5"
   y="162.5"
   transform="matrix(0.9974,-0.07185601,0.07185601,0.9974,-8.714,90.7868)"
   class="st9"
   width="46"
   height="8"
   id="rect43" />
	
		<rect
   x="1234.5"
   y="185.5"
   transform="matrix(0.9974,-0.07185601,0.07185601,0.9974,-10.3667,90.8463)"
   class="st9"
   width="46"
   height="8"
   id="rect45" />
	
		<rect
   x="1234.5"
   y="208.5"
   transform="matrix(0.9974,-0.07185601,0.07185601,0.9974,-12.0194,90.9057)"
   class="st9"
   width="46"
   height="8"
   id="rect47" />
	<path
   class="st8"
   d="m 1172.5,485.5 h -101 c -5.5,0 -10,-4.5 -10,-10 v -252 c 0,-5.5 4.5,-10 10,-10 l 106,-4 c 5.5,0 5,8.5 5,14 v 252 c 0,5.5 -4.5,10 -10,10 z"
   id="path49" />
	<path
   class="st10"
   d="m 1099.5,485.5 h -83 c -5.5,0 -10,-4.5 -10,-10 v -104 c 0,-5.5 4.5,-10 10,-10 h 83 c 5.5,0 10,4.5 10,10 v 104 c 0,5.5 -4.5,10 -10,10 z"
   id="path51" />
	<rect
   x="1125.5"
   y="226.5"
   class="st9"
   width="36"
   height="3"
   id="rect53" />
	<rect
   x="1247.5"
   y="234.5"
   class="st9"
   width="36"
   height="3"
   id="rect55" />
	<rect
   x="1294.5"
   y="234.5"
   class="st9"
   width="36"
   height="3"
   id="rect57" />
	<rect
   x="1294.5"
   y="250.5"
   class="st9"
   width="36"
   height="3"
   id="rect59" />
	<rect
   x="1294.5"
   y="266.5"
   class="st9"
   width="36"
   height="3"
   id="rect61" />
	<rect
   x="1294.5"
   y="282.5"
   class="st9"
   width="36"
   height="3"
   id="rect63" />
	<rect
   x="1294.5"
   y="298.5"
   class="st9"
   width="36"
   height="3"
   id="rect65" />
	<rect
   x="1294.5"
   y="314.5"
   class="st9"
   width="36"
   height="3"
   id="rect67" />
	<rect
   x="1294.5"
   y="330.5"
   class="st9"
   width="36"
   height="3"
   id="rect69" />
	<rect
   x="1294.5"
   y="346.5"
   class="st9"
   width="36"
   height="3"
   id="rect71" />
	<rect
   x="1294.5"
   y="362.5"
   class="st9"
   width="36"
   height="3"
   id="rect73" />
	<rect
   x="1294.5"
   y="378.5"
   class="st9"
   width="36"
   height="3"
   id="rect75" />
	<rect
   x="1294.5"
   y="394.5"
   class="st9"
   width="36"
   height="3"
   id="rect77" />
	<rect
   x="1294.5"
   y="410.5"
   class="st9"
   width="36"
   height="3"
   id="rect79" />
	<rect
   x="1294.5"
   y="426.5"
   class="st9"
   width="36"
   height="3"
   id="rect81" />
	<rect
   x="1294.5"
   y="442.5"
   class="st9"
   width="36"
   height="3"
   id="rect83" />
	<rect
   x="1294.5"
   y="458.5"
   class="st9"
   width="36"
   height="3"
   id="rect85" />
	<rect
   x="1294.5"
   y="474.5"
   class="st9"
   width="36"
   height="3"
   id="rect87" />
	<rect
   x="1247.5"
   y="250.5"
   class="st9"
   width="36"
   height="3"
   id="rect89" />
	<rect
   x="1247.5"
   y="266.5"
   class="st9"
   width="36"
   height="3"
   id="rect91" />
	<rect
   x="1247.5"
   y="282.5"
   class="st9"
   width="36"
   height="3"
   id="rect93" />
	<rect
   x="1247.5"
   y="298.5"
   class="st9"
   width="36"
   height="3"
   id="rect95" />
	<rect
   x="1247.5"
   y="314.5"
   class="st9"
   width="36"
   height="3"
   id="rect97" />
	<rect
   x="1247.5"
   y="330.5"
   class="st9"
   width="36"
   height="3"
   id="rect99" />
	<rect
   x="1247.5"
   y="346.5"
   class="st9"
   width="36"
   height="3"
   id="rect101" />
	<rect
   x="1247.5"
   y="362.5"
   class="st9"
   width="36"
   height="3"
   id="rect103" />
	<rect
   x="1247.5"
   y="378.5"
   class="st9"
   width="36"
   height="3"
   id="rect105" />
	<rect
   x="1247.5"
   y="394.5"
   class="st9"
   width="36"
   height="3"
   id="rect107" />
	<rect
   x="1247.5"
   y="410.5"
   class="st9"
   width="36"
   height="3"
   id="rect109" />
	<rect
   x="1247.5"
   y="426.5"
   class="st9"
   width="36"
   height="3"
   id="rect111" />
	<rect
   x="1247.5"
   y="442.5"
   class="st9"
   width="36"
   height="3"
   id="rect113" />
	<rect
   x="1247.5"
   y="458.5"
   class="st9"
   width="36"
   height="3"
   id="rect115" />
	<rect
   x="1247.5"
   y="474.5"
   class="st9"
   width="36"
   height="3"
   id="rect117" />
	<rect
   x="1077.5"
   y="226.5"
   class="st9"
   width="36"
   height="3"
   id="rect119" />
	<rect
   x="1077.5"
   y="241.5"
   class="st9"
   width="36"
   height="3"
   id="rect121" />
	<rect
   x="1077.5"
   y="256.5"
   class="st9"
   width="36"
   height="3"
   id="rect123" />
	<rect
   x="1077.5"
   y="271.5"
   class="st9"
   width="36"
   height="3"
   id="rect125" />
	<rect
   x="1077.5"
   y="286.5"
   class="st9"
   width="36"
   height="3"
   id="rect127" />
	<rect
   x="1077.5"
   y="301.5"
   class="st9"
   width="36"
   height="3"
   id="rect129" />
	<rect
   x="1077.5"
   y="316.5"
   class="st9"
   width="36"
   height="3"
   id="rect131" />
	<rect
   x="1077.5"
   y="331.5"
   class="st9"
   width="36"
   height="3"
   id="rect133" />
	<rect
   x="1077.5"
   y="346.5"
   class="st9"
   width="36"
   height="3"
   id="rect135" />
	<rect
   x="1125.5"
   y="241.5"
   class="st9"
   width="36"
   height="3"
   id="rect137" />
	<rect
   x="1125.5"
   y="256.5"
   class="st9"
   width="36"
   height="3"
   id="rect139" />
	<rect
   x="1125.5"
   y="271.5"
   class="st9"
   width="36"
   height="3"
   id="rect141" />
	<rect
   x="1125.5"
   y="286.5"
   class="st9"
   width="36"
   height="3"
   id="rect143" />
	<path
   class="st10"
   d="m 1268.5,485.5 h -115 c -5.5,0 -10,-4.5 -10,-10 v -212 c 0,-5.5 4.5,-10 10,-10 h 115 c 5.5,0 10,4.5 10,10 v 212 c 0,5.5 -4.5,10 -10,10 z"
   id="path145" />
	<rect
   x="1247.5"
   y="266.5"
   class="st9"
   width="18"
   height="23"
   id="rect147" />
	<rect
   x="1217.5"
   y="266.5"
   class="st9"
   width="18"
   height="23"
   id="rect149" />
	<rect
   x="1187.5"
   y="266.5"
   class="st9"
   width="18"
   height="23"
   id="rect151" />
	<rect
   x="1158.5"
   y="266.5"
   class="st9"
   width="18"
   height="23"
   id="rect153" />
	<rect
   x="1218.5"
   y="303.5"
   class="st9"
   width="18"
   height="23"
   id="rect155" />
	<rect
   x="1219.5"
   y="340.5"
   class="st9"
   width="18"
   height="23"
   id="rect157" />
	<rect
   x="1220.5"
   y="377.5"
   class="st9"
   width="18"
   height="23"
   id="rect159" />
	<rect
   x="1221.5"
   y="414.5"
   class="st9"
   width="18"
   height="23"
   id="rect161" />
	<rect
   x="1222.5"
   y="451.5"
   class="st9"
   width="18"
   height="23"
   id="rect163" />
	<rect
   x="1248.5"
   y="303.5"
   class="st9"
   width="18"
   height="23"
   id="rect165" />
	<rect
   x="1249.5"
   y="340.5"
   class="st9"
   width="18"
   height="23"
   id="rect167" />
	<rect
   x="1250.5"
   y="377.5"
   class="st9"
   width="18"
   height="23"
   id="rect169" />
	<rect
   x="1251.5"
   y="414.5"
   class="st9"
   width="18"
   height="23"
   id="rect171" />
	<rect
   x="1252.5"
   y="451.5"
   class="st9"
   width="18"
   height="23"
   id="rect173" />
	<rect
   x="1013.5"
   y="367.5"
   class="st9"
   width="27"
   height="7"
   id="rect175" />
	<rect
   x="1044.5"
   y="367.5"
   class="st9"
   width="27"
   height="7"
   id="rect177" />
	<rect
   x="1044.5"
   y="379.5"
   class="st9"
   width="27"
   height="7"
   id="rect179" />
	<rect
   x="1044.5"
   y="391.5"
   class="st9"
   width="27"
   height="7"
   id="rect181" />
	<rect
   x="1044.5"
   y="403.5"
   class="st9"
   width="27"
   height="7"
   id="rect183" />
	<rect
   x="1044.5"
   y="415.5"
   class="st9"
   width="27"
   height="7"
   id="rect185" />
	<rect
   x="1044.5"
   y="427.5"
   class="st9"
   width="27"
   height="7"
   id="rect187" />
	<rect
   x="1044.5"
   y="439.5"
   class="st9"
   width="27"
   height="7"
   id="rect189" />
	<rect
   x="1044.5"
   y="451.5"
   class="st9"
   width="27"
   height="7"
   id="rect191" />
	<rect
   x="1044.5"
   y="463.5"
   class="st9"
   width="27"
   height="7"
   id="rect193" />
	<rect
   x="1044.5"
   y="475.5"
   class="st9"
   width="27"
   height="7"
   id="rect195" />
	<rect
   x="1075.5"
   y="367.5"
   class="st9"
   width="27"
   height="7"
   id="rect197" />
	<rect
   x="1075.5"
   y="379.5"
   class="st9"
   width="27"
   height="7"
   id="rect199" />
	<rect
   x="1075.5"
   y="391.5"
   class="st9"
   width="27"
   height="7"
   id="rect201" />
	<rect
   x="1075.5"
   y="403.5"
   class="st9"
   width="27"
   height="7"
   id="rect203" />
	<rect
   x="1075.5"
   y="415.5"
   class="st9"
   width="27"
   height="7"
   id="rect205" />
	<rect
   x="1075.5"
   y="427.5"
   class="st9"
   width="27"
   height="7"
   id="rect207" />
	<rect
   x="1075.5"
   y="439.5"
   class="st9"
   width="27"
   height="7"
   id="rect209" />
	<rect
   x="1075.5"
   y="451.5"
   class="st9"
   width="27"
   height="7"
   id="rect211" />
	<rect
   x="1075.5"
   y="463.5"
   class="st9"
   width="27"
   height="7"
   id="rect213" />
	<rect
   x="1075.5"
   y="475.5"
   class="st9"
   width="27"
   height="7"
   id="rect215" />
	<rect
   x="1013.5"
   y="379.5"
   class="st9"
   width="27"
   height="7"
   id="rect217" />
	<rect
   x="1013.5"
   y="391.5"
   class="st9"
   width="27"
   height="7"
   id="rect219" />
	<rect
   x="1013.5"
   y="403.5"
   class="st9"
   width="27"
   height="7"
   id="rect221" />
	<rect
   x="1013.5"
   y="415.5"
   class="st9"
   width="27"
   height="7"
   id="rect223" />
	<rect
   x="1013.5"
   y="427.5"
   class="st9"
   width="27"
   height="7"
   id="rect225" />
	<rect
   x="1013.5"
   y="439.5"
   class="st9"
   width="27"
   height="7"
   id="rect227" />
	<rect
   x="1013.5"
   y="451.5"
   class="st9"
   width="27"
   height="7"
   id="rect229" />
	<rect
   x="1013.5"
   y="463.5"
   class="st9"
   width="27"
   height="7"
   id="rect231" />
	<rect
   x="1013.5"
   y="475.5"
   class="st9"
   width="27"
   height="7"
   id="rect233" />
	<path
   class="st11"
   d="m 1151.5,547.2 c 0,0 -69,-127.7 -68,-167.7 1,-40 21.9,-84 87,-90 0,0 78,2 82,81.5 0,0 0,28.5 -12,56.5 -12,28 6.6,-2.6 -60.7,119.7 0,0 -12.3,16.7 -28.3,0 z"
   id="path235" />
	<circle
   class="st12"
   cx="1168.5"
   cy="372.5"
   r="46"
   id="circle237" />
	<path
   class="st13"
   d="m 741.5,733.5 c 0,0 25,191 27,192 2,1 18,2 18,2 0,0 4,0 4,-4 0,-4 9,-242 -15.5,-299.5 l -51.6,105.9 z"
   id="path239" />
	<path
   class="st13"
   d="m 775,624 h -88.5 c 0,0 -7,127.5 -17,145.5 -10,18 -58,98 -58,98 0,0 7,20 11,20 0,0 83,-96 86,-104 3,-8 14.7,-49.9 14.7,-49.9 z"
   id="path241" />
	<path
   class="st14"
   d="m 642,576 c 0,0 19.4,-7 24.7,-14.5 0,0 16.3,43.5 26.3,47.5 10,4 16.8,5.7 16.8,5.7 0,0 9.2,9.3 9.2,13.3 0,4 -5,13 -11,12 -6,-1 -15.1,-6.6 -18.5,-11.3 -3.4,-4.7 -3.5,-6.7 -6.5,-9.7 -3,-3 -41,-43 -41,-43 z"
   id="path243" />
	<path
   class="st14"
   d="m 799.7,579.6 c 0,0 -16.7,6.4 -17.7,11.4 -1,5 3.7,36.4 8.8,41.7 0,0 -10.8,12.3 -2.8,25.3 0,0 0,3 4,-2 4,-5 -6,14 -4,15 2,1 14,2 24,-15 0,0 7,-9 -3,-21 -10,-12 -6,-23 -7,-29 -1,-6 -2.3,-26.4 -2.3,-26.4 z"
   id="path245" />
	<path
   class="st14"
   d="m 754.2,391.5 -16.3,-17 c -3,6.5 -10.3,3.1 -10.3,3.1 l -6,35.5 c 22.6,10.1 42.3,-2.6 42.3,-2.6 l -1.8,-19 z"
   id="path247" />
	<path
   class="st15"
   d="m 736,371 c 0,0 -4,-12 -9,-12 -5,0 -8,4 -8,4 0,0 -2,5 1,8 3,3 6.3,6.2 7.7,6.6 1.4,0.4 7.3,3.4 10.3,-3.1 z"
   id="path249" />
	<path
   class="st14"
   d="m 755,326 c 0,0 -5,4 -11,4 -6,0 -12,8 -11,13 1,5 14,24 14,24 0,0 6.4,6.6 10.2,1.8 C 761,364 768,358 771,357 Z"
   id="path251" />
	<path
   class="st16"
   d="m 761,320 c 0,0 0,-20 -11,-20 -11,0 -14.2,2.8 -17.1,13.4 0,0 -0.6,5.6 -4.7,6.6 0,0 -3.2,-1 -3.2,3 0,4 -8,-3 -12,1 -4,4 -11,13 -4,18 7,5 2,11 2,11 0,0 -3.3,11.7 7.3,11.3 0,0 1.2,-3.8 6.4,-5.1 5.2,-1.3 9.2,8.7 9.2,8.7 l 4,6.5 16.3,17 h 7.9 L 780,385 c 0,0 5.5,-0.8 2.8,-7.4 C 780.1,371 774,357 774,357 c 0,0 -2.7,-2.8 -6.8,0.6 -4.1,3.4 -6.7,7 -9.9,11.2 C 754,373 748,368 747,367 c -1,-1 -14,-24 -14,-24 0,0 0.5,-8.8 9.8,-12.9 0,0 6.2,1.9 12.2,-4.1 0,0 3,-1 6,-6 z"
   id="path253" />
	<path
   class="st7"
   d="m 677,497 c 0,0 18.9,96.6 12.5,109.3 0,0 9,6.1 20.3,8.4 0,0 10.2,10.3 9.2,13.3 0,0 55,2 56,-4 1,-6 33.8,-152 31.9,-165.5 -1.9,-13.5 -14.1,-54.5 -43,-48 0,0 -18.6,13.7 -42.3,2.6 l 1,-5.8 c 0,0 -61.6,-6.7 -80.6,43 0,0 -20,31.7 -21,57.7 -1,26 16,62 21,68 0,0 16.4,-3 24.7,-14.5 0,0 -8.7,-32.5 10.3,-64.5 z"
   id="path255" />
	<path
   class="st8"
   d="m 801.9,579.6 c 0,0 -18.9,5.4 -19.9,11.4 -1,6 15.4,-73.3 15.4,-73.3 z"
   id="path257" />
	<path
   class="st17"
   d="m 611.5,867.5 c 0,0 4,16 11,20 0,0 7,30.6 0,41.3 -7,10.7 -39,-49.3 -39,-49.3 0,0 18,-13 28,-12 z"
   id="path259" />
	<path
   class="st17"
   d="m 768.5,925.5 c 0,0 15,3 18,2 3,-1 33,6 41,21 0,0 4,3 -5,5 -9,2 -55,4 -55,4 0,0 -4,-17 1,-32 z"
   id="path261" />
</g>
<g
   id="Layer_1"
   class="st18">
</g>
</svg>
