<?xml version="1.0" encoding="utf-8"?>
<!-- Generator: Adobe Illustrator 26.2.1, SVG Export Plug-In . SVG Version: 6.00 Build 0)  -->
<svg version="1.1" xmlns="http://www.w3.org/2000/svg" xmlns:xlink="http://www.w3.org/1999/xlink" x="0px" y="0px"
	 viewBox="0 0 1280 1024" style="enable-background:new 0 0 1280 1024;" xml:space="preserve">
<style type="text/css">
	.st0{fill:#849FF3;}
	.st1{fill:#EAF4FE;}
	.st2{fill:none;stroke:#000000;stroke-width:3;stroke-miterlimit:10;}
	.st3{fill:#194866;}
	.st4{fill:#5757CB;}
	.st5{fill:none;stroke:#849FF3;stroke-miterlimit:10;}
	.st6{fill:#E2C59C;}
	.st7{fill:#E9D6B8;}
	.st8{fill:#163F59;}
	.st9{fill:#F19E38;}
	.st10{fill:#FFFFFF;}
	.st11{fill:#F0D1B6;}
	.st12{fill:#1C435A;}
	.st13{fill:#8289D9;}
	.st14{fill:#F0D1B6;stroke:#F0D1B6;stroke-miterlimit:10;}
	.st15{fill:#8972BF;}
	.st16{display:none;}
	.st17{display:inline;fill:#606060;}
</style>
<g id="Layer_2">
	<path class="st0" d="M881.1,538.2c-122.4,0-221.7,99.3-221.7,221.7s99.3,221.7,221.7,221.7s221.7-99.3,221.7-221.7
		S1003.5,538.2,881.1,538.2z M882,949.3c-105.2,0-190.4-85.3-190.4-190.4c0-105.2,85.3-190.4,190.4-190.4s190.4,85.3,190.4,190.4
		C1072.5,864.1,987.2,949.3,882,949.3z"/>
	<circle class="st1" cx="642.5" cy="524.6" r="372.3"/>
	
		<rect x="1017.8" y="296.2" transform="matrix(0.8115 0.5843 -0.5843 0.8115 387.6069 -558.5836)" class="st0" width="83.9" height="50.6"/>
	<line class="st2" x1="1045.3" y1="272.5" x2="1111.3" y2="321.6"/>
	<path class="st3" d="M858.3,171.8c0,0-25.4,13.5-25.4,20.3s12.7,32,12.7,32s-4.2,60.4,0,83.6l-44.8,89.2c0,0,125.2,59.2,177.7-10.2
		c0,0-38.9-71.1-72.8-84.6l18.6-67.7l22-3.4c0,0,3.4-23.7-10.2-37.2l-44.8,3.1c0,0,5.9,25.3-1.7,27.2c-7.6,1.9-17.8,0.2-22.8-4.9
		c-5.1-5.1,11.8-25.4,11.8-25.4S851.5,176.9,858.3,171.8z"/>
	<polygon class="st4" points="879.4,536.5 896.3,521.3 899.7,524.6 884.5,539.9 	"/>
	<polygon class="st4" points="974.2,426.5 980.9,440 986,438.3 975.9,424.8 974.2,425.8 	"/>
	<path class="st0" d="M872.6,164.2c0,0-28.8-50.8,13.5-62.6c42.3-11.8,49.1,15.2,77.8,5.1c28.8-10.2,58.8-29.4,60.9-30.5
		c3.4-1.7,38.9-8.5,47.4,5.1c8.5,13.5,44,5.1,44,5.1s55.8,10.2,23.7,57.5c-32.2,47.4-33.8,8.8-61.8,35.7
		c-27.9,26.9-44.6,33.7-49.9,33.7c-5.1,0-37.2,0.6-49.9-10.7c-12.7-11.3-53.3-16.4-53.3-16.4s-18.6,0-20.3-3.4"/>
	<path class="st5" d="M886.2,106.6c6.8-8.1,49.1-18.9,60.9-10.8s35.3,6.9,35.3,6.9"/>
	<g>
		<path class="st0" d="M1064.7,193c-10.1,9.3-30.1,25.3-43.7,27.4c-15.5,0.9-34.6-12.7-46.1-22.2c6.8,4.9,14,10.1,21.6,14.1
			c7.5,3.8,15.8,7.8,24.4,7.2c4.3-0.5,8.2-2.5,12-4.4c3.8-2,7.5-4.2,11.1-6.6C1051.3,203.9,1058.2,198.2,1064.7,193L1064.7,193z"/>
	</g>
	<path class="st6" d="M852.8,414.4l-43.2-13.7c0,0-11.5,28.3-9,42.2c2.5,14,7.6,24.1,7.6,24.1l71.1,69.4l16.9-15.2L874.2,486
		c0,0-28.3-32-24.3-44.1C854,429.9,852.8,414.4,852.8,414.4z"/>
	<path class="st7" d="M852.8,414.4c0,0-8.8,56.9,3.4,67c12.2,10.2,43.5,0,43.5,0l81.2-41.4l-6.8-13.5l-60.1,17.9
		c0,0,9.3-23.1,7.6-28.1L852.8,414.4z"/>
	<path class="st6" d="M899.2,524.6l-14.7,14.8l9.8,19.7c0,0,2.5,5.8,3.7,7.8c1.7,2.6,5.1,3.4,6.8-1.7c1.5-4.5-0.7-29.6-0.7-29.6
		L899.2,524.6z"/>
	<path class="st7" d="M986,438.3l24.1-13.5c0,0,9-7.1-3.3-7.8c-12.3-0.7-22.4,1.5-22.4,1.5l-8.6,6.3L986,438.3z"/>
	<path class="st4" d="M988.9,416l10.7-4.7l24.5,0c0,0,3.6,0,0.5,3.4c-3,3.4-14.5,10.2-14.5,10.2s4.3-5.1,1.9-6.8
		c-1.7-1.2-15.4-2.1-22.8-0.3C982.4,419.4,983.3,417.7,988.9,416z"/>
	<path class="st4" d="M903.3,537.5l1.5,26.1c0,0.4,0.2-0.3,0,0c-0.9,1.2-5.1,6.8-6.8,3.4c-1.7-3.4-3.4-6.8-3.4-6.8s8.5,22,11.8,20.3
		c3.1-1.6,4.8-32.1,5-36.7c0-0.4-0.1-0.7-0.3-1l-5.3-6.4C905,535.4,903.3,536.1,903.3,537.5z"/>
	<path class="st7" d="M878.6,193.8c0,0-17.8,12.7-11.8,25.4c5.9,12.7,27.9,7.6,27.9,7.6v-27.8l-1.8-2.1l1.8-8.9
		c0,0,20.3-6.8,22-16.9c0,0,10.2-5.1,8.5-6.8c-1.7-1.7-7.3,0-7.3,0s-7.9-28.8-19.8-28.8c-11.8,0-23.7,22-23.7,30.5
		c0,8.5,6.8,18.6,6.8,18.6L878.6,193.8z"/>
	<path class="st7" d="M942,221.7c0,0,81.2-33.8,110-76.2c0,0,11.8-1.7,18.6-8.5c0,0,11.6-1.7,11.8-1.7s4.6-1.1,1.5-2.3l-15,0.6
		l15.2-6.8c1.6-0.8,1.7-4.3-3.4-1.7c-3.4,1.7-11.8,5.1-11.8,5.1l10.2-10.2c0,0,1.7-3.4-1.7-1.7c-3.4,1.7-11.8,8.5-11.8,8.5l8.5-13.5
		c0,0,1.7-1.7-1.7-1.7l-11.8,13.5c0,0,0-11.8-1.7-10.2l-13.5,23.7c0,0-106.6,59.2-110,57.5L942,221.7z"/>
	<path class="st7" d="M832.9,192.1c0,0-34.7-36.4-21.2-139.6l10.2-1.7c0,0,15.2,105.3,33,122.9L832.9,192.1z"/>
	<path class="st7" d="M821.9,50.8l11.8-11.8c0,0,1.7-1.7-3.4-1.7l-5.1,5.1l-6.8-27.1c0,0-1.4-5.1-2.4,0l2.4,15.2l-9.9-15.9
		c0,0-1.9-2.7-1.9,0.7l5.1,15.2l-10.2-13.5c0,0-3.4-1.7-1.7,1.7l5.1,10.2l-10.2-5.1c0,0-3.4-1.7-1.7,1.7l10.2,8.5
		c0,0,1.7,16.9,8.5,18.6L821.9,50.8z"/>
	<polygon class="st0" points="401.7,706.9 316.3,764.4 286.2,709.2 371.3,652.1 	"/>
	<path class="st2" d="M282,704c7.2-5.2,86.3-57.5,86.3-57.5"/>
	<path class="st8" d="M426.4,390.9l2.8,121.8c0,0-1.4,44.8-32,46.1s-61.1-10.6-61.1-10.6l17.1-35.6l25.2-1.7V399.4L426.4,390.9z"/>
	<path class="st3" d="M332.8,401.1L307.4,506c0,0-13.6,3.4-21.2,0l-49.9-18.6c0,0-15.2,11.8-13.5,28.8l72.8,40.6
		c0,0,30.5,8.5,40.6-8.5c3.8-6.3,10.3-20.1,17.1-35.6c11.6-26.3,24.1-57.3,25.2-62.6l42.3-59.2L332.8,401.1z"/>
	<path class="st4" d="M266.4,540.5l-20.5-11.4l-24.8,34.5c0,0-1.7,11.8,8.5,5.1C239.7,561.9,266.4,540.5,266.4,540.5z"/>
	<path class="st4" d="M236.3,487.4l-6.8-5.1c0,0-3.6-3.4-8.6,0s-38.8,38.9-43.9,52.5c-5.1,13.5,5.1,11.8,5.1,11.8
		s27.1-28.8,32.2-28.8c5.1,0,8.5-1.7,8.5-1.7"/>
	<path class="st7" d="M310.8,238.6l-6.8,35.5l63-17.8l-23.5-32.7l-7.4,3.5c0,0-11.8-3.8-11.8-10.6c0-6.8,6.8-13.5-1.7-28.8
		c-8.5-15.2-20.3-23.7-20.3-23.7l-28.8,10.2l1.7,35.5c0,0-1.7,5.1,3.4,5.1s11.8,0,11.8,0s8.5,11.8,20.3,8.5V238.6z"/>
	<path class="st9" d="M321.7,402.4l114.4-11.4c0,0-0.1-6.8-1.8-13.5c-1.7-7-32.2-107.9-51.6-123.3l23-16.7c0,0-6.2-24.4-24.3-31.9
		l-45.2,21.8c0,0,16.9,2.9,15.2,14.8c-1.7,11.8-5.1,13.5-8.5,16.9c-3.4,3.4-25.4,6.8-28.8,1.7c-3.4-5.1-5.1-3.4-3.4-18.6l-52.5,50.8
		c0,0,16.9,28.8,27.1,28.8c0,0,18.6-18.6,18.6-22s30.3,67.9,17.7,96.5C321.7,396.1,320.8,400.3,321.7,402.4z"/>
	<path class="st0" d="M283.7,211.6l-8.5-13.5c0,0-1.7-6.8,3.4-6.8S277,176,277,176l23.7-1.7c0,0,19.5-10.2,1.3-22l-8.1-6.8
		c0,0-6.8-5.1-10.2,3.4L282,154c0,0-1.7,1.7-3.4,0c-1.7-1.7-11.8,0-10.2,8.5c1.7,8.5-8.5,11.8-8.5,11.8s-1.7,8.5,3.4,10.2
		c5.1,1.7,5.1,3.4,5.1,3.4s-5.1,3.4-3.4,6.8c1.7,3.4,10.2,15.2,10.2,15.2L283.7,211.6z"/>
	<path class="st7" d="M260.6,296.4c0,0-15.8,11.6-19.2,16.7c0,0-47.4,20.3-67.7,44l-20.3-10.2c0,0-5.1-1.7-3.4,1.7
		c1.7,3.4,7.2,8.5,7.2,8.5L129.7,374c0,0-1.7,3.4,1.7,1.7c3.4-1.7,16.9-6.8,16.9-6.8l-16.9,16.9c0,0-1.7,3.4,1.7,1.7
		c3.4-1.7,18.6-11.8,18.6-11.8l-13.5,16.9c0,0-1.7,3.4,1.7,1.7s15.2-13.5,15.2-13.5l-8.5,16.9c0,0-1.7,5.1,1.7,1.7
		s10.2-15.2,10.2-15.2s10.2,0,22-13.5c0,0,71.1-30.5,74.5-42.3c0,0,19.5-9.6,19.9-13.2S260.6,296.4,260.6,296.4z"/>
	<path class="st7" d="M400.2,223.9c0,0,34.5-32,36-38.2s37.1-57,37.1-73.9c0,0,13.5-13.5,11.8-16.9l15.2-10.2c0,0,1.7-3.4-1.7-1.7
		c-3.4,1.7-13.5,5.1-13.5,5.1L497,74.5c0,0,1.7-3.4-1.7-1.7c-3.4,1.7-13.5,11.8-13.5,11.8l6.8-15.2c0,0,1.7-5.1-1.7-1.7
		c-3.4,3.4-13.5,16.9-13.5,16.9l3.4-18.6c0,0,1.7-6.8-1.7-1.7s-13.5,27.1-13.5,27.1s-8.4-5.8-11-5.4c-2.6,0.4-4.3,0.4-2.6,2.1
		c1.7,1.7,10.2,8.5,10.2,8.5s-3.4,6.8,0,11.8c0,0-38.9,45.7-49.1,71.1l-27.6,26.1L400.2,223.9z"/>
	<polygon class="st10" points="833.7,607.6 791.4,526.2 736,559.1 778.3,640.4 	"/>
	<rect x="688.3" y="180.2" transform="matrix(0.866 0.5 -0.5 0.866 210.82 -335.5704)" class="st10" width="86.5" height="90.9"/>
</g>
<g id="Layer_3">
	<path class="st11" d="M697.8,258.6c0,0-9.8-1.6-3.8,3.4s14,13,14,13s-17.9,82.1-15.9,87.6C694,368,665,410,665,410l28,19
		c0,0,19-55,28-65c0,0,8-67.8,0-85.4l3.6-4.6L697.8,258.6z"/>
	<path class="st11" d="M566,479l21,18c0,0-20,35-25,51c0,0-27,35-60,59c0,0-3,11-12,17l-1,16c0,0-2.7,4-2.8,0c-0.2-4,0-13.8,0-13.8
		L478,639c0,0-3,4-2-1s6-14,6-14l-12,11c0,0-5,5-2-2l10-13c0,0,1-3-1-2s-15,10-15,10s-4,3-1-2s20-22,20-22l-10-5c0,0-4-2,1-2
		s21,1,21,1s54-76,56-81S566,479,566,479z"/>
	<path class="st12" d="M675.3,568.5c0,0,61.7,115.5,64.7,135.5s7.9,21.7-4,39.8S666,820,646,829l-17-13c0,0,58.2-81.5,62.6-85.3
		C696,727,682,710,682,710l-29.5-34l1.5-79C654,597,627.6,566,675.3,568.5z"/>
	<path class="st1" d="M607,966"/>
	<path class="st13" d="M643.5,405.8c0,0,21.4-14.5,15.9-48.2S623,305,623,305s-35-39-45-61s-53.3-35.2-72.1-20.1
		c0,0-24.9,6.1-23.9,40.1s9,41,33,60s28,54,28,54s27.7,53.1,72.4,44L643.5,405.8z"/>
	<path class="st14" d="M471.5,820.5L502,799l-7.5-18.5L483,788c0,0-17,17-13,27s-0.6,3.9-0.6,3.9L471.5,820.5z"/>
	<path class="st15" d="M483,789c0,0-12,12-13,27c0,0,4,3,9,1l-20,12c0,0-5,3-3-3s13-31,18-34S481,787,483,789z"/>
	<path class="st12" d="M613,552c0,0,38.1,26,56.5,16.5c0,0-8.5,20.5-15.5,28.5c0,0,1,112-9,143c0,0-3.5,17.7-25.2,24.4
		c0,0-61.8,29.6-117.8,35.6l-9-19l94-50.8c0,0,14-2.2,12-18.2s-5-74-15-98S598,561,613,552z"/>
	<path class="st11" d="M625,427l-1,45l46-9l-23-31c0,0-9-5-9-10c0-3.5,4.3-6.8,5.5-16.2c0.5-4.2,0.4-9.5-1-16.6
		c0,0-8.5-18.2-21.5-19.2s-21,8-22,12s-2,16,2,22h-5c0,0-3,0-1,3s9,3,9,3S612,423,625,427z"/>
	<path class="st15" d="M613,552c0,0,34.6,29,62.3,16.5c0,0,19.9-58.2,16.3-75.8c-3.6-17.7-8.6-24.1-8.6-24.1s13-28.6,14-35.6l-32-23
		c0,0-12,17-18,22c0,0,12,17.4,8,26.7s-22,7.3-22,7.3s-6-4-6-10l-0.6-16.1L597,442c0,0-10,1-18,11s-15,23-15,23l27,25l10-12
		C601,489,613,549,613,552z"/>
	<g>
		<path class="st13" d="M602,246c0.3,16.7,6,33.2,15.7,46.7c3.3,4.5,7.2,8.5,11,12.5c7.5,8.3,14.1,17.5,19,27.6
			c4.7,10,8.7,21,8.1,32.2c0.1-11.2-4-22-8.8-31.9c-3.7-7.4-8.4-14.5-13.6-20.9c-5.2-6.5-11.6-12.1-16.5-18.9
			C607.2,279.6,601.7,262.8,602,246L602,246z"/>
	</g>
	<g>
		<path class="st13" d="M607,421c-22.7-2-48-8.8-63.1-27c-3.7-4.6-6.3-10-8-15.7c-3.8-11.1-6.4-22.6-7.4-34.3
			c-0.5-5.7-0.8-12-5.1-16.3c0,0,1.4,1.7,1.4,1.7c3.2,4.2,3.5,9.6,4.1,14.6c1.4,13.1,4.7,25.9,9.2,38.2
			C548.5,408.2,581.5,418.1,607,421L607,421z"/>
	</g>
	<path class="st14" d="M629,816l-7,11c0,0-9,32.2,5.4,31.2c3.6-0.2,3.6-0.2,3.6-0.2s14.5-24.5,15-29L629,816z"/>
	<path class="st15" d="M622,827l-7,7v37.7c0,0,1,8.7,7,0s10-14.7,10-14.7s-10,4-11-8S622,827,622,827z"/>
</g>
<g id="Layer_1" class="st16">
	<path class="st17" d="M711.8,316.2"/>
</g>
</svg>
