<?xml version="1.0" encoding="utf-8"?>
<!-- Generator: Adobe Illustrator 26.2.1, SVG Export Plug-In . SVG Version: 6.00 Build 0)  -->
<svg version="1.1" id="Layer_1" xmlns="http://www.w3.org/2000/svg" xmlns:xlink="http://www.w3.org/1999/xlink" x="0px" y="0px"
	 viewBox="0 0 657.7 640" style="enable-background:new 0 0 657.7 640;" xml:space="preserve">
<style type="text/css">
	.st0{fill:#849FF3;}
	.st1{fill:#EAF4FE;}
	.st2{fill:none;}
	.st3{fill:none;stroke:#C5E1F9;stroke-width:1.3657;stroke-miterlimit:10;}
	.st4{fill:#9AC7F7;}
	.st5{fill:none;stroke:#EAF4FE;stroke-width:3.1241;stroke-miterlimit:10;}
	.st6{fill:#C5E1F9;}
	.st7{fill:none;stroke:#70C1FB;stroke-width:1.3657;stroke-miterlimit:10;}
	.st8{clip-path:url(#SVGID_00000052064844868410816040000001024318353250024103_);}
	.st9{clip-path:url(#SVGID_00000030461938488228605500000008511976097514548608_);}
	.st10{fill:none;stroke:#9AC7F7;stroke-width:4.1655;stroke-miterlimit:10;}
	.st11{fill:#0561FC;}
	.st12{fill:#3BB6D5;}
	.st13{fill:none;stroke:#9AC7F7;stroke-width:0.4299;stroke-miterlimit:10;}
	.st14{fill:#70C1FB;}
	.st15{fill:#00046D;}
	.st16{fill:#ECF6F8;}
	.st17{fill:none;stroke:#00046D;stroke-width:1.048;stroke-miterlimit:10;}
	.st18{fill:none;stroke:#00046D;stroke-width:1.7745;stroke-miterlimit:10;}
	.st19{fill:#8972BF;}
	.st20{fill:#F19E38;}
	.st21{fill:#E9D6B8;}
	.st22{fill:#E2C59C;}
	.st23{fill:none;stroke:#FFFFFF;stroke-width:1.449;stroke-miterlimit:10;}
	.st24{fill:#F7B68B;}
	.st25{fill:#4747A5;}
	.st26{fill:#5A31DB;}
	.st27{fill:#705ACC;}
	.st28{fill:#194866;}
	.st29{fill:#5757CB;}
</style>
<path class="st0" d="M186.3,53c-57,0-103.2,45.9-103.2,102.6s46.2,102.5,103.2,102.5s103.2-45.9,103.2-102.5S243.3,53,186.3,53z
	 M189.1,234c-43.7,0-79.1-35.1-79.1-78.5S145.4,77,189.1,77s79.1,35.1,79.1,78.5S232.7,234,189.1,234z"/>
<circle class="st1" cx="354.1" cy="283.6" r="213.2"/>
<g>
	<g>
		<g>
			<g>
				<path class="st1" d="M230.1,215.3c0,0-6.3,0.8-23,13"/>
				<g>
					<path class="st1" d="M219.9,224.5c1-0.4,1.9-0.8,2.7-1.2c0.4-0.2,0.8-0.4,1.2-0.6c0.4-0.2,0.7-0.4,1.1-0.6
						c0.7-0.4,1.3-0.8,1.8-1.3c0.5-0.4,1-0.8,1.4-1.2c0.4-0.4,0.7-0.8,1.1-1.2c0.2-0.2,0.3-0.4,0.4-0.6c0.1-0.2,0.2-0.4,0.3-0.5
						c0.1-0.2,0.2-0.4,0.2-0.5c0-0.1,0.1-0.2,0.1-0.3c0-0.1,0-0.2,0.1-0.3c0.1-0.3,0.1-0.7,0-1c-0.1-0.3-0.2-0.6-0.4-0.9
						c-0.2-0.2-0.3-0.3-0.4-0.4s-0.4-0.2-0.6-0.3c-0.4-0.2-0.9-0.3-1.5-0.4c-0.3-0.1-0.6-0.1-0.9-0.1s-0.6,0-1,0.1
						c-0.7,0.1-1.4,0.2-2.2,0.4c-0.7,0.2-1.5,0.5-2.3,0.8c-0.4,0.2-0.8,0.4-1.2,0.6c-0.4,0.2-0.8,0.5-1.2,0.7
						c-0.8,0.5-1.7,1.1-2.5,1.8c-0.7,0.6-1.5,1.3-2.3,2.2c-0.4,0.4-0.8,0.9-1.2,1.3c-0.4,0.5-0.8,1-1.2,1.4c-1.6,2-3,4.1-3.9,5.7
						c1.8-0.3,4.1-0.8,6.4-1.5c0.3-0.1,0.6-0.2,0.8-0.3c0.3-0.1,0.6-0.2,0.8-0.3c0.6-0.2,1.1-0.3,1.7-0.5
						C218,225.4,219,224.9,219.9,224.5z"/>
				</g>
			</g>
			<g>
				<path class="st1" d="M222.8,232.9c0,0-19.8,1-20.6,1.1"/>
				<g>
					<path class="st1" d="M212.4,237.4c6.6,0.9,10.6-1.9,10.4-4.5c-0.1-2.6-4.4-5-10.8-3.5c-1.4,0.3-3.2,1-5,1.9
						c-1.8,0.8-3.6,1.9-4.7,2.7c1.3,0.7,3.1,1.5,4.9,2.1C209,236.7,210.9,237.2,212.4,237.4z"/>
				</g>
			</g>
			<g>
				<line class="st2" x1="206.4" y1="216" x2="200.4" y2="233.8"/>
				<g>
					<path class="st1" d="M207.1,226.4c3.1-5.3,1.8-9.7-0.7-10.4c-2.5-0.8-6.2,1.9-6.9,7.9c-0.4,2.4,0.2,7.3,0.8,10
						C202.6,232.2,205.7,229,207.1,226.4z"/>
				</g>
			</g>
			<g>
				<path class="st1" d="M195.2,215c0,0-6.4,13-0.4,25.1"/>
				<g>
					<path class="st1" d="M196.3,228c0.2-0.9,0.4-1.8,0.5-2.5c0.2-0.8,0.3-1.5,0.3-2.3c0.2-1.4,0.2-2.7,0.2-3.8
						c-0.2-2.2-0.8-3.8-2-4.3c-1.2-0.6-3,0.1-4.6,2.3c-0.8,1.1-1.5,2.5-2,4.3c-0.5,1.8-0.7,3.9-0.4,6.2c0.1,1,0.3,2.1,0.7,3.3
						c0.4,1.2,0.8,2.4,1.5,3.7c0.6,1.2,1.4,2.3,2.1,3.2c0.2,0.2,0.4,0.4,0.6,0.6s0.4,0.4,0.6,0.6c0.4,0.4,0.7,0.7,1.1,1
						c0-0.4,0-0.9,0-1.4c0-0.5,0-1,0.1-1.5c0.1-1.1,0.2-2.1,0.3-3.2c0.2-1.1,0.3-2.1,0.5-3.1C196,229.8,196.2,228.9,196.3,228z"/>
				</g>
			</g>
			<g>
				<path class="st1" d="M216.7,243c0,0-11.7-2.4-21.9-0.3"/>
				<g>
					<path class="st1" d="M205.4,245.9c0.8,0.2,1.6,0.3,2.3,0.4c0.7,0.1,1.4,0.1,2.1,0.2c1.3,0,2.5-0.2,3.5-0.4
						c2-0.6,3.2-1.6,3.4-2.9c0.3-1.3-0.6-2.8-2.5-3.9c-1-0.5-2.2-1-3.7-1.2c-0.7-0.1-1.5-0.2-2.3-0.2c-0.8,0-1.7,0.1-2.7,0.2
						c-1.5,0.2-3.7,0.8-5.7,1.8c-0.5,0.2-1,0.5-1.5,0.7c-0.5,0.3-1,0.5-1.4,0.8c-0.4,0.3-0.8,0.5-1.2,0.8c-0.4,0.3-0.7,0.5-1,0.8
						c0.4,0.1,0.7,0.3,1.2,0.4c0.4,0.2,0.8,0.3,1.3,0.4c0.9,0.3,1.9,0.6,2.8,0.9c0.2,0.1,0.5,0.2,0.7,0.2c0.2,0.1,0.5,0.2,0.7,0.2
						c0.5,0.2,0.9,0.3,1.4,0.4c0.5,0.1,0.9,0.3,1.3,0.4C204.6,245.7,205.1,245.8,205.4,245.9z"/>
				</g>
			</g>
			<g>
				<path class="st1" d="M215.9,252.1c0,0-6.9-5.2-25,3.1"/>
				<g>
					<path class="st1" d="M203.7,255.1c0.5,0,1,0,1.4-0.1c0.1,0,0.2,0,0.3,0c0.1,0,0.2,0,0.3,0c0.2,0,0.4,0,0.6,0
						c0.8-0.1,1.5-0.1,2.2-0.2c1.3-0.1,2.5-0.3,3.5-0.5c1-0.2,1.8-0.5,2.4-0.8s1.2-0.8,1.5-1.3c0.4-0.5,0.4-1.3,0-2.2
						s-1.3-1.8-2.7-2.4c-0.3-0.2-0.7-0.3-1.1-0.5c-0.4-0.2-0.7-0.3-1.2-0.4c-0.2-0.1-0.4-0.1-0.6-0.2c-0.2-0.1-0.4-0.1-0.6-0.1
						c-0.2-0.1-0.5-0.1-0.7-0.1c-0.2,0-0.5-0.1-0.7-0.1c-0.5,0-1,0-1.5,0c-0.1,0-0.3,0-0.4,0s-0.3,0.1-0.4,0.1
						c-0.3,0.1-0.5,0.1-0.7,0.1c-0.3,0.1-0.5,0.1-0.8,0.1c-0.1,0-0.3,0.1-0.4,0.1c-0.1,0.1-0.3,0.1-0.4,0.1
						c-0.5,0.2-1.1,0.3-1.6,0.5c-0.5,0.1-0.9,0.3-1.4,0.5c-0.5,0.2-1,0.5-1.5,0.7c-0.5,0.3-1.1,0.6-1.6,1c-0.5,0.4-1.1,0.7-1.6,1.1
						c-0.5,0.4-1,0.8-1.5,1.2c-0.2,0.2-0.5,0.4-0.7,0.6s-0.4,0.4-0.6,0.6c-0.8,0.8-1.6,1.6-2.2,2.2c0.9,0.1,1.9,0.1,3,0.1
						c0.3,0,0.5,0,0.8,0c0.3,0,0.6,0,0.8,0c0.6,0,1.2,0,1.7,0c0.3,0,0.6,0,0.8,0s0.6,0,0.8,0c0.6,0,1.1,0,1.6,0s1.1,0,1.6,0
						C202.8,255.2,203.2,255.1,203.7,255.1z"/>
				</g>
			</g>
			<g>
				<path class="st1" d="M182.2,227c2.5,4.4,6.7,26.9,6.7,26.9"/>
				<g>
					<path class="st1" d="M190.1,239.8c-0.4-4.6-1.6-8.1-3.2-10.4c-0.8-1.1-1.7-2-2.5-2.4c-0.2-0.1-0.4-0.2-0.6-0.3
						c-0.2-0.1-0.4-0.1-0.6-0.1c-0.4,0-0.7,0.1-1,0.3c-0.3,0.2-0.5,0.4-0.7,0.7c-0.1,0.2-0.2,0.3-0.3,0.4c-0.1,0.2-0.2,0.3-0.3,0.5
						c-0.3,0.7-0.5,1.8-0.6,3c-0.1,2.4,0.4,5.9,2,9.9c0.6,1.7,1.8,4,3,6.3c1.3,2.3,2.6,4.6,3.7,6.1
						C189.8,250.3,190.6,244.2,190.1,239.8z"/>
				</g>
			</g>
			<g>
				<path class="st1" d="M173.7,245.2c0,0,11.7,10.1,16.8,22.5"/>
				<g>
					<path class="st1" d="M186.7,253.5c-0.2-0.3-0.3-0.5-0.5-0.8c-0.2-0.3-0.3-0.5-0.5-0.7c-0.3-0.5-0.6-1-1-1.4
						c-0.7-0.8-1.3-1.6-2-2.3c-1.3-1.3-2.7-2.3-3.9-2.9c-2.4-1.3-4.4-1.2-5.2-0.2c-0.8,1-0.7,2.9,0.4,5.2c0.5,1.2,1.4,2.4,2.4,3.8
						c0.5,0.6,1.1,1.4,1.8,2.1c0.6,0.7,1.3,1.4,2.1,2.2c1.2,1.2,3.1,2.9,5,4.6c0.5,0.4,1,0.8,1.4,1.3c0.5,0.4,0.9,0.8,1.4,1.3
						c0.5,0.4,0.8,0.8,1.3,1.2c0.4,0.4,0.8,0.7,1.1,1.1c0-0.5,0-1-0.1-1.5c-0.1-0.5-0.1-1.1-0.2-1.8c-0.1-0.6-0.2-1.2-0.3-1.9
						c-0.1-0.3-0.1-0.6-0.2-1l-0.2-1c-0.1-0.3-0.2-0.6-0.3-1c-0.1-0.3-0.2-0.6-0.3-1c-0.2-0.6-0.4-1.3-0.7-1.9
						c-0.3-0.6-0.5-1.2-0.8-1.8C187.3,254.5,186.9,254,186.7,253.5z"/>
				</g>
			</g>
			<g>
				<path class="st1" d="M216.2,259.8c0,0-12.2-2.8-24.2,4.3"/>
				<g>
					<path class="st1" d="M204.2,263.9c0.5,0,0.9,0,1.3-0.1c0.4,0,0.8,0,1.2-0.1c0.2,0,0.4-0.1,0.6-0.1c0.2,0,0.4,0,0.6-0.1
						c0.4,0,0.7-0.1,1.1-0.1c1.4-0.2,2.6-0.4,3.7-0.7c2.1-0.7,3.3-1.7,3.6-3c0.2-0.6-0.1-1.4-0.6-2c-0.5-0.7-1.4-1.3-2.6-1.9
						c-1.2-0.5-2.7-0.8-4.5-0.9c-0.4,0-0.9,0-1.4,0.1c-0.2,0-0.5,0.1-0.7,0.1c-0.2,0.1-0.5,0.1-0.7,0.1c-0.5,0.1-1,0.2-1.5,0.3
						c-0.5,0.1-1,0.3-1.5,0.4c-0.4,0.1-0.9,0.3-1.4,0.5c-0.5,0.2-1,0.4-1.5,0.7s-1.1,0.6-1.6,1c-0.3,0.2-0.5,0.3-0.8,0.5
						c-0.3,0.2-0.5,0.4-0.7,0.6c-0.3,0.2-0.5,0.4-0.7,0.6c-0.3,0.2-0.5,0.4-0.7,0.6c-0.5,0.4-0.9,0.8-1.3,1.2
						c-0.8,0.8-1.4,1.7-1.9,2.4c0.8,0,1.9-0.1,2.9-0.2c0.5,0,1.1,0,1.6-0.1c0.3,0,0.5,0,0.8-0.1c0.3,0,0.5,0,0.8,0
						c0.5,0,1.1,0,1.6,0s1.1,0,1.6,0s1,0,1.5,0C203.2,263.9,203.7,263.9,204.2,263.9z"/>
				</g>
			</g>
			<path class="st3" d="M227.6,214.8c0,0-26.9,13.5-34.4,30.7c-6.4,14.6-1,19.1,0.4,32.4c0.3,2.4,9.2,22.4-1.4,56.1"/>
			<path class="st3" d="M205.5,216.2c0,0-2.9,14.8-6.5,20.4"/>
			<path class="st3" d="M222.5,232.9c0,0-15.9-2-22.6,2.4"/>
			<path class="st3" d="M194.4,215.3c0,0-5.7,14.7,1.2,25.9"/>
			<path class="st3" d="M216.3,242.9c0,0-9.9-6.1-21.7-0.2"/>
			<path class="st3" d="M182.4,227.4c0,0,6.2,19.8,7.9,33.6"/>
			<path class="st3" d="M215.9,251.6c-4.7-4.4-24.1-0.6-25.7,5.4"/>
			<path class="st3" d="M174.8,246c0,0,16.3,15.9,18.7,31.5"/>
			<path class="st3" d="M214.9,258.7c0,0-16.1-3.3-23.8,6.7"/>
		</g>
	</g>
	<g>
		<polygon class="st4" points="207.9,340.2 176.5,340.2 171.3,316.8 213.2,316.8 		"/>
		<line class="st5" x1="171.9" y1="324.4" x2="206.2" y2="324.4"/>
		<g>
			<g>
				<path class="st6" d="M120.1,272.6l-6.4,5.5c-5.9-3.3-11.2-7.2-15.7-11.3c3.1-5,7-9.8,11.4-14c21.9-20.8,66.9-4.7,71.2,34.7
					c-12,4.9-29.5,4.9-48.1-1.2c-4.8-1.6-9.4-3.5-13.8-5.6L120.1,272.6z"/>
				<g>
					<path class="st7" d="M98,266.8c0,0,45.9-20.3,79.8,17.4c1,1.1,10.4,12.6,13.7,28.8"/>
					<line class="st7" x1="106.3" y1="256" x2="113.9" y2="262.5"/>
					<line class="st7" x1="113.9" y1="249.5" x2="125" y2="261.4"/>
					<line class="st7" x1="123" y1="245.3" x2="136.3" y2="261.9"/>
					<line class="st7" x1="135.1" y1="243.7" x2="146.6" y2="264.1"/>
					<line class="st7" x1="146.1" y1="245.7" x2="155" y2="267.2"/>
					<line class="st7" x1="158.3" y1="251.3" x2="165.2" y2="273.1"/>
					<line class="st7" x1="168.8" y1="260.3" x2="173.9" y2="280.2"/>
					<line class="st7" x1="106.4" y1="273.4" x2="113.5" y2="262.4"/>
					<line class="st7" x1="125" y1="261.4" x2="112.9" y2="277.6"/>
					<line class="st7" x1="136.3" y1="261.9" x2="123" y2="282.6"/>
					<line class="st7" x1="146.6" y1="264.1" x2="133.7" y2="286.8"/>
					<line class="st7" x1="155" y1="267.2" x2="143.4" y2="289.3"/>
					<line class="st7" x1="165.2" y1="273.1" x2="155" y2="291"/>
					<line class="st7" x1="173.9" y1="280.2" x2="166.5" y2="290.7"/>
				</g>
			</g>
			<g>
				<path class="st1" d="M201.5,132.8c-4,12.3-12.9,17.1-25.7,17.4c-10.1-9.3-12.1-20.9-4.8-33.1c7.3-12.1,21.6-22.1,33.9-25.6
					C206,103.7,205.5,120.6,201.5,132.8z"/>
				<path class="st7" d="M201.2,97c-10.2,15.5-21.2,39.3-27.9,58.6c-2.2,6.4-22,79.3,14.5,121.2"/>
				<path class="st7" d="M193.5,109.9c-0.7-3.2-1.2-7.1-1.4-10.2"/>
				<path class="st7" d="M188.9,119c-1.3-3.9-2.8-7.8-3.5-11.6"/>
				<path class="st7" d="M184.1,128.6c-2.9-6.2-5-13.1-6.2-19.2"/>
				<path class="st7" d="M180.6,136.3c-3.5-5.7-6.1-11.6-8-17.4"/>
				<path class="st7" d="M177.8,143.9c-2.3-3-4.3-6.1-6.1-9.1"/>
				<path class="st7" d="M194.3,108.2c3.1-1.1,6.3-2.1,9.5-3.2"/>
				<path class="st7" d="M189.7,117.9c4.8-1.4,9.1-2.9,14-4.4"/>
				<path class="st7" d="M185.1,127c6-1.5,11.5-3.1,17.5-4.7"/>
				<path class="st7" d="M181.1,135.4c6.2-1.2,12.3-2.5,18.4-3.9"/>
				<path class="st7" d="M178.1,143.1c5.3-0.8,10.7-1.7,16-2.6"/>
			</g>
			<g>
				<path class="st6" d="M175.4,235.6c0,0,14.8-35.6-1-55.5c-15.7-20-45.5-27.3-45.5-27.3s-15.7,41.8,3.9,61.5
					C152.5,233.9,170.4,230.9,175.4,235.6z"/>
				<g>
					<g>
						<path id="SVGID_1_" class="st6" d="M175.4,235.6c0,0,14.8-35.6-1-55.5c-15.7-20-45.5-27.3-45.5-27.3s-15.7,41.8,3.9,61.5
							C152.5,233.9,170.4,230.9,175.4,235.6z"/>
					</g>
					<g>
						<g>
							<defs>
								<path id="SVGID_00000090267845758600600540000017712096411865966241_" d="M175.4,235.6c0,0,14.8-35.6-1-55.5
									c-15.7-20-45.5-27.3-45.5-27.3s-15.7,41.8,3.9,61.5C152.5,233.9,170.4,230.9,175.4,235.6z"/>
							</defs>
							<clipPath id="SVGID_00000167380118048065430990000014053807149803053215_">
								<use xlink:href="#SVGID_00000090267845758600600540000017712096411865966241_"  style="overflow:visible;"/>
							</clipPath>
							<g style="clip-path:url(#SVGID_00000167380118048065430990000014053807149803053215_);">
								<path class="st7" d="M140,152.8c-1.1,3.2-2.5,6.1-4.4,8"/>
								<path class="st7" d="M146.2,155.6c-1.5,4.9-3.6,9.8-6.5,12.4"/>
								<path class="st7" d="M152.6,159c-1.5,5.8-4,12.5-8,15.7"/>
								<path class="st7" d="M158.4,163.3c-1.6,6.3-4.6,14.5-9.5,18.2"/>
								<path class="st7" d="M164.3,167.7c-1.7,6.6-5.2,16.8-11.2,20.9"/>
								<path class="st7" d="M170.1,173.1c-1.8,6.5-5.8,18.4-12.7,22.7"/>
								<path class="st7" d="M175.6,178.9c-1.9,6.4-6.8,19.8-14.6,24.3"/>
								<path class="st7" d="M180.4,187.5c-2.5,7-7.6,18.8-15.2,22.9"/>
								<path class="st7" d="M183.2,200c-3.3,6.9-8.3,15.1-14.5,18.2"/>
								<path class="st7" d="M183.2,214.8c-3.2,4.7-7.2,9-11.5,10.9"/>
							</g>
						</g>
					</g>
					<g>
						<g>
							<defs>
								<path id="SVGID_00000079459043880339247270000009047073323950555062_" d="M175.4,235.6c0,0,14.8-35.6-1-55.5
									c-15.7-20-45.5-27.3-45.5-27.3s-15.7,41.8,3.9,61.5C152.5,233.9,170.4,230.9,175.4,235.6z"/>
							</defs>
							<clipPath id="SVGID_00000023238897068160166600000014894523916568993411_">
								<use xlink:href="#SVGID_00000079459043880339247270000009047073323950555062_"  style="overflow:visible;"/>
							</clipPath>
							<g style="clip-path:url(#SVGID_00000023238897068160166600000014894523916568993411_);">
								<path class="st7" d="M124.9,158.2c3.3,0.5,6.7,1.2,9.9,2.4"/>
								<path class="st7" d="M123.4,165c5.2-0.1,11.3,0.4,16.7,2.6"/>
								<path class="st7" d="M122.1,173.3c6.4-1.3,15.3-2,22.9,1.4"/>
								<path class="st7" d="M120.9,182.7c6.2-2.6,18.2-6.2,28.2-1.3"/>
								<path class="st7" d="M119.8,193.8c0,0,18.9-13.2,33.6-5.3"/>
								<path class="st7" d="M122.9,202.9c0,0,19.2-15.8,34.6-7"/>
								<path class="st7" d="M125.9,211.9c0,0,19.4-18.2,35.4-8.7"/>
								<path class="st7" d="M132.8,217.4c6.4-5.5,20-14.7,32-7"/>
								<path class="st7" d="M138.6,223.7c7.2-5.9,19.1-12.9,30.1-5.6"/>
								<path class="st7" d="M146.1,228.3c7.1-5.3,16.7-9.3,25.9-2.9"/>
							</g>
						</g>
					</g>
				</g>
				<path class="st7" d="M128.9,152.8c0,0,64.4,76.8,62.4,167.7"/>
			</g>
		</g>
	</g>
</g>
<path class="st1" d="M493.8,112.2c0,1.2-0.8,1.5-1.9,1.5H379c-1.1,0-2.9-0.3-2.9-1.5V5.5c0-1.2,1.8-2.2,2.9-2.2h112.9
	c1.1,0,1.9,1,1.9,2.2L493.8,112.2L493.8,112.2z"/>
<path class="st6" d="M366.6,133.7c0,1-0.7,2.4-1.5,2.4h-79.2c-0.7,0-0.7-1.4-0.7-2.4V47.2c0-1-0.1-1.1,0.7-1.1h79.2
	c0.7,0,1.5,0.1,1.5,1.1V133.7z"/>
<path class="st6" d="M416.1,230.5c0,1,0.8,2.2,0.1,2.2h-79.1c-0.7,0-0.9-1.2-0.9-2.2v-86.5c0-1,0.1-1.3,0.9-1.3h79.2
	c0.7,0-0.1,0.3-0.1,1.3L416.1,230.5L416.1,230.5z"/>
<g>
	<line class="st10" x1="299.5" y1="108.5" x2="342.3" y2="108.5"/>
	<line class="st10" x1="299.5" y1="114.7" x2="360.4" y2="114.7"/>
	<line class="st10" x1="299.5" y1="121.8" x2="342.3" y2="121.8"/>
</g>
<path class="st11" d="M334.6,78.7c0,10.1-8.2,18.4-18.4,18.4s-18.4-8.2-18.4-18.4s8.2-18.4,18.4-18.4
	C326.3,60.3,334.6,68.6,334.6,78.7z"/>
<path class="st12" d="M327.3,58.9l-11.9,20.6h23.5c0,0,0-0.5,0-0.8C338.9,70.2,334.3,62.8,327.3,58.9z"/>
<g>
	<g>
		<g>
			<path class="st4" d="M389.7,92.8L389.7,92.8l-0.4,0.2l-0.1-0.3l0.5-0.3h0.3V95h-0.3L389.7,92.8L389.7,92.8z"/>
			<path class="st4" d="M392.6,93.7c0,0.8-0.3,1.3-0.8,1.3c-0.5,0-0.8-0.5-0.8-1.3c0-0.8,0.4-1.3,0.8-1.3
				C392.3,92.4,392.6,92.9,392.6,93.7z M391.2,93.7c0,0.6,0.2,1,0.5,1c0.3,0,0.5-0.4,0.5-1.1s-0.2-1-0.5-1
				C391.4,92.7,391.2,93,391.2,93.7z"/>
		</g>
		<g>
			<path class="st4" d="M388.9,82.1v-0.2l0.3-0.3c0.6-0.6,0.9-0.9,0.9-1.3c0-0.3-0.1-0.5-0.5-0.5c-0.2,0-0.4,0.1-0.5,0.2l-0.1-0.2
				c0.2-0.2,0.4-0.3,0.7-0.3c0.5,0,0.7,0.4,0.7,0.7c0,0.5-0.3,0.8-0.8,1.3l-0.2,0.2l0,0h1.1v0.3L388.9,82.1L388.9,82.1z"/>
			<path class="st4" d="M392.6,80.8c0,0.8-0.3,1.3-0.8,1.3c-0.5,0-0.8-0.5-0.8-1.3c0-0.8,0.4-1.3,0.8-1.3
				C392.3,79.6,392.6,80,392.6,80.8z M391.2,80.9c0,0.6,0.2,1,0.5,1c0.3,0,0.5-0.4,0.5-1.1s-0.2-1-0.5-1
				C391.4,79.8,391.2,80.2,391.2,80.9z"/>
		</g>
		<g>
			<path class="st4" d="M389.1,68.9c0.1,0.1,0.3,0.2,0.5,0.2c0.4,0,0.6-0.3,0.6-0.5c0-0.4-0.3-0.5-0.6-0.5h-0.2v-0.3h0.2
				c0.3,0,0.5-0.1,0.5-0.4c0-0.2-0.1-0.4-0.4-0.4c-0.2,0-0.4,0.1-0.5,0.2l-0.1-0.3c0.1-0.1,0.4-0.2,0.6-0.2c0.5,0,0.7,0.3,0.7,0.6
				c0,0.3-0.2,0.5-0.5,0.6l0,0c0.3,0.1,0.5,0.3,0.5,0.6c0,0.4-0.3,0.7-0.9,0.7c-0.3,0-0.5-0.1-0.6-0.2L389.1,68.9z"/>
			<path class="st4" d="M392.6,68c0,0.8-0.3,1.3-0.8,1.3c-0.5,0-0.8-0.5-0.8-1.3c0-0.8,0.4-1.3,0.8-1.3
				C392.3,66.7,392.6,67.2,392.6,68z M391.2,68c0,0.6,0.2,1,0.5,1c0.3,0,0.5-0.4,0.5-1.1c0-0.6-0.2-1-0.5-1
				C391.4,67,391.2,67.3,391.2,68z"/>
		</g>
		<g>
			<path class="st4" d="M390,56.4v-0.7h-1.2v-0.2l1.1-1.6h0.4v1.5h0.4v0.3h-0.4v0.7H390z M390,55.4v-0.8c0-0.1,0-0.3,0-0.4l0,0
				c-0.1,0.2-0.2,0.3-0.2,0.4l-0.6,0.8l0,0L390,55.4L390,55.4z"/>
			<path class="st4" d="M392.6,55.1c0,0.8-0.3,1.3-0.8,1.3c-0.5,0-0.8-0.5-0.8-1.3c0-0.8,0.4-1.3,0.8-1.3
				C392.3,53.9,392.6,54.3,392.6,55.1z M391.2,55.2c0,0.6,0.2,1,0.5,1c0.3,0,0.5-0.4,0.5-1.1c0-0.6-0.2-1-0.5-1
				C391.4,54.1,391.2,54.5,391.2,55.2z"/>
		</g>
		<g>
			<path class="st4" d="M390.4,41.3h-1l-0.1,0.6c0.1,0,0.1,0,0.2,0c0.2,0,0.4,0.1,0.5,0.2c0.2,0.1,0.4,0.3,0.4,0.6
				c0,0.5-0.4,0.8-0.9,0.8c-0.3,0-0.5-0.1-0.6-0.2l0.1-0.3c0.1,0.1,0.3,0.2,0.5,0.2c0.3,0,0.6-0.2,0.6-0.5s-0.2-0.5-0.7-0.5
				c-0.2,0-0.3,0-0.4,0.1l0.2-1.2h1.2L390.4,41.3C390.4,41.3,390.4,41.3,390.4,41.3z"/>
			<path class="st4" d="M392.6,42.3c0,0.8-0.3,1.3-0.8,1.3c-0.5,0-0.8-0.5-0.8-1.3c0-0.8,0.4-1.3,0.8-1.3
				C392.3,41,392.6,41.5,392.6,42.3z M391.2,42.3c0,0.6,0.2,1,0.5,1c0.3,0,0.5-0.4,0.5-1.1c0-0.6-0.2-1-0.5-1
				C391.4,41.3,391.2,41.6,391.2,42.3z"/>
		</g>
		<g>
			<path class="st4" d="M390.4,28.4c-0.1,0-0.2,0-0.3,0c-0.5,0.1-0.8,0.5-0.8,0.9l0,0c0.1-0.2,0.3-0.3,0.6-0.3
				c0.4,0,0.7,0.3,0.7,0.8s-0.3,0.9-0.8,0.9c-0.5,0-0.9-0.4-0.9-1.1c0-0.5,0.2-0.9,0.4-1.1c0.2-0.2,0.5-0.3,0.8-0.4
				c0.1,0,0.2,0,0.3,0L390.4,28.4L390.4,28.4z M390.3,29.9c0-0.4-0.2-0.6-0.5-0.6c-0.2,0-0.4,0.1-0.5,0.3c0,0.1-0.1,0.1-0.1,0.2
				c0,0.4,0.2,0.7,0.5,0.7S390.3,30.2,390.3,29.9z"/>
			<path class="st4" d="M392.6,29.4c0,0.8-0.3,1.3-0.8,1.3c-0.5,0-0.8-0.5-0.8-1.3c0-0.8,0.4-1.3,0.8-1.3
				C392.3,28.2,392.6,28.6,392.6,29.4z M391.2,29.5c0,0.6,0.2,1,0.5,1c0.3,0,0.5-0.4,0.5-1.1s-0.2-1-0.5-1
				C391.4,28.4,391.2,28.8,391.2,29.5z"/>
		</g>
		<g>
			<path class="st4" d="M404.6,104L404.6,104l-0.4,0.2l-0.1-0.2l0.5-0.3h0.3v2.2h-0.3L404.6,104L404.6,104z"/>
		</g>
		<g>
			<path class="st4" d="M423.7,105.9v-0.2l0.2-0.2c0.5-0.5,0.8-0.8,0.8-1.1c0-0.2-0.1-0.4-0.4-0.4c-0.2,0-0.4,0.1-0.5,0.2l-0.1-0.2
				c0.2-0.1,0.4-0.2,0.6-0.2c0.5,0,0.7,0.3,0.7,0.6c0,0.4-0.3,0.7-0.7,1.2l-0.2,0.2l0,0h1v0.3L423.7,105.9L423.7,105.9z"/>
		</g>
		<g>
			<path class="st4" d="M443.5,105.6c0.1,0.1,0.3,0.2,0.5,0.2c0.4,0,0.5-0.3,0.5-0.4c0-0.3-0.3-0.4-0.6-0.4h-0.2v-0.2h0.2
				c0.2,0,0.5-0.1,0.5-0.4c0-0.2-0.1-0.3-0.4-0.3c-0.2,0-0.3,0.1-0.4,0.2l-0.1-0.2c0.1-0.1,0.3-0.2,0.6-0.2c0.4,0,0.6,0.3,0.6,0.5
				c0,0.2-0.2,0.4-0.4,0.5l0,0c0.3,0.1,0.5,0.3,0.5,0.6c0,0.4-0.3,0.6-0.8,0.6c-0.3,0-0.5-0.1-0.6-0.2L443.5,105.6z"/>
		</g>
		<g>
			<path class="st4" d="M464.2,105.9v-0.6h-1v-0.2l1-1.4h0.3v1.4h0.3v0.2h-0.3v0.6H464.2z M464.2,105.1v-0.7c0-0.1,0-0.2,0-0.3l0,0
				c-0.1,0.1-0.1,0.2-0.2,0.3l-0.5,0.7l0,0H464.2z"/>
		</g>
		<g>
			<path class="st4" d="M484.4,104h-0.8l-0.1,0.6c0.1,0,0.1,0,0.2,0c0.2,0,0.3,0.1,0.5,0.1c0.2,0.1,0.3,0.3,0.3,0.6
				c0,0.4-0.3,0.7-0.8,0.7c-0.2,0-0.4-0.1-0.5-0.2l0.1-0.2c0.1,0.1,0.3,0.1,0.5,0.1c0.3,0,0.5-0.2,0.5-0.5c0-0.3-0.2-0.5-0.6-0.5
				c-0.1,0-0.2,0-0.3,0l0.2-1.1h1.1V104z"/>
		</g>
		<g>
			<rect x="394.6" y="22.5" class="st13" width="100" height="78.6"/>
			<line class="st13" x1="394.6" y1="88" x2="494.6" y2="88"/>
			<line class="st13" x1="394.6" y1="74.9" x2="494.6" y2="74.9"/>
			<line class="st13" x1="394.6" y1="61.8" x2="494.6" y2="61.8"/>
			<line class="st13" x1="394.6" y1="48.7" x2="494.6" y2="48.7"/>
			<line class="st13" x1="394.6" y1="35.6" x2="494.6" y2="35.6"/>
			<line class="st13" x1="474.6" y1="22.5" x2="474.6" y2="101.1"/>
			<line class="st13" x1="454.6" y1="22.5" x2="454.6" y2="101.1"/>
			<line class="st13" x1="434.6" y1="22.5" x2="434.6" y2="101.1"/>
			<line class="st13" x1="414.6" y1="22.5" x2="414.6" y2="101.1"/>
		</g>
	</g>
	<g>
		<rect x="402.2" y="67.7" class="st12" width="4.8" height="33.5"/>
		<rect x="422.2" y="67.7" class="st14" width="4.8" height="33.5"/>
		<rect x="442.2" y="67.7" class="st6" width="4.8" height="33.5"/>
		<rect x="462.2" y="67.7" class="st12" width="4.8" height="33.5"/>
		<rect x="482.1" y="67.7" class="st11" width="4.8" height="33.5"/>
		<rect x="402.2" y="61.8" class="st12" width="4.8" height="5.8"/>
		<rect x="422.2" y="41.9" class="st14" width="4.8" height="25.8"/>
		<rect x="462.2" y="45" class="st12" width="4.8" height="22.7"/>
		<rect x="482.1" y="25.6" class="st11" width="4.8" height="42.1"/>
		<path class="st15" d="M417.8,48.7c0,3-2.4,5.4-5.4,5.4c-3,0-5.4-2.4-5.4-5.4s2.4-5.4,5.4-5.4C415.4,43.3,417.8,45.7,417.8,48.7z"
			/>
		<g>
			<path class="st16" d="M411.4,50.2v-0.9h-1.6V49l1.5-2.2h0.5V49h0.5v0.4h-0.4v1L411.4,50.2L411.4,50.2z M411.4,49v-1.2
				c0-0.2,0-0.4,0-0.5l0,0c-0.1,0.2-0.2,0.4-0.3,0.5l-0.8,1.2l0,0H411.4z"/>
			<path class="st16" d="M414.7,47.2h-1.3l-0.1,0.9c0.1,0,0.2,0,0.3,0c0.3,0,0.5,0.1,0.7,0.2c0.3,0.2,0.5,0.4,0.5,0.9
				c0,0.7-0.5,1.2-1.3,1.2c-0.4,0-0.7-0.1-0.8-0.2l0.1-0.4c0.2,0.1,0.4,0.2,0.7,0.2c0.4,0,0.8-0.3,0.8-0.7c0-0.4-0.3-0.7-1-0.7
				c-0.2,0-0.4,0-0.5,0.1l0.2-1.6h1.6L414.7,47.2L414.7,47.2z"/>
		</g>
		<line class="st17" x1="417.8" y1="48.7" x2="422.2" y2="48.7"/>
		<path class="st15" d="M477.8,35.6c0,3-2.4,5.4-5.4,5.4c-3,0-5.4-2.4-5.4-5.4s2.4-5.4,5.4-5.4C475.4,30.2,477.8,32.6,477.8,35.6z"
			/>
		<g>
			<path class="st16" d="M472,34.1h-1.3l-0.1,0.9c0.1,0,0.2,0,0.3,0c0.3,0,0.5,0.1,0.7,0.2c0.3,0.2,0.5,0.4,0.5,0.9
				c0,0.7-0.5,1.2-1.3,1.2c-0.4,0-0.7-0.1-0.8-0.2l0.1-0.4c0.2,0.1,0.4,0.2,0.7,0.2c0.4,0,0.8-0.3,0.8-0.7c0-0.4-0.3-0.7-1-0.7
				c-0.2,0-0.4,0-0.5,0.1l0.2-1.6h1.6L472,34.1L472,34.1z"/>
			<path class="st16" d="M472.6,36.3c0-0.4,0.3-0.7,0.7-0.9l0,0c-0.4-0.2-0.5-0.5-0.5-0.7c0-0.5,0.5-0.9,1.1-0.9c0.7,0,1,0.4,1,0.8
				c0,0.3-0.2,0.6-0.6,0.8l0,0c0.4,0.2,0.7,0.5,0.7,0.9c0,0.6-0.5,1-1.2,1C473.1,37.2,472.6,36.8,472.6,36.3z M474.4,36.3
				c0-0.4-0.3-0.6-0.7-0.7c-0.4,0.1-0.6,0.4-0.6,0.7c0,0.4,0.3,0.6,0.7,0.6C474.2,36.9,474.4,36.6,474.4,36.3z M473.2,34.6
				c0,0.3,0.3,0.5,0.6,0.6c0.3-0.1,0.5-0.3,0.5-0.6c0-0.3-0.2-0.6-0.6-0.6C473.4,34,473.2,34.3,473.2,34.6z"/>
		</g>
		<line class="st18" x1="477.8" y1="35.6" x2="482.2" y2="35.6"/>
	</g>
</g>
<g>
	<g>
		<g>
			<rect x="345.8" y="154.3" class="st6" width="61.5" height="2.5"/>
		</g>
		<g>
			<rect x="345.8" y="148.9" class="st6" width="19.9" height="2.5"/>
		</g>
	</g>
	<g>
		<rect x="347" y="166.6" class="st1" width="3.3" height="3.3"/>
		<rect x="356.3" y="166.6" class="st1" width="3.3" height="3.3"/>
		<rect x="365.6" y="166.6" class="st1" width="3.3" height="3.3"/>
		<rect x="374.9" y="166.6" class="st14" width="3.3" height="3.3"/>
		<rect x="384.2" y="166.6" class="st14" width="3.3" height="3.3"/>
		<rect x="393.5" y="166.6" class="st6" width="3.3" height="3.3"/>
		<rect x="402.9" y="166.6" class="st6" width="3.3" height="3.3"/>
		<rect x="347" y="174.8" class="st14" width="3.3" height="3.3"/>
		<rect x="356.3" y="174.8" class="st14" width="3.3" height="3.3"/>
		<rect x="365.6" y="174.8" class="st14" width="3.3" height="3.3"/>
		<rect x="374.9" y="174.8" class="st14" width="3.3" height="3.3"/>
		<rect x="384.2" y="174.8" class="st14" width="3.3" height="3.3"/>
		<rect x="393.5" y="174.8" class="st6" width="3.3" height="3.3"/>
		<rect x="402.9" y="174.8" class="st6" width="3.3" height="3.3"/>
		<rect x="347" y="183" class="st14" width="3.3" height="3.3"/>
		<rect x="356.3" y="183" class="st14" width="3.3" height="3.3"/>
		<rect x="365.6" y="183" class="st12" width="3.3" height="3.3"/>
		<rect x="374.9" y="183" class="st12" width="3.3" height="3.3"/>
		<rect x="384.2" y="183" class="st14" width="3.3" height="3.3"/>
		<rect x="393.5" y="183" class="st6" width="3.3" height="3.3"/>
		<rect x="402.9" y="183" class="st6" width="3.3" height="3.3"/>
		<rect x="347" y="191.2" class="st11" width="3.3" height="3.3"/>
		<rect x="356.3" y="191.2" class="st14" width="3.3" height="3.3"/>
		<rect x="365.6" y="191.2" class="st14" width="3.3" height="3.3"/>
		<rect x="374.9" y="191.2" class="st14" width="3.3" height="3.3"/>
		<rect x="384.2" y="191.2" class="st14" width="3.3" height="3.3"/>
		<rect x="393.5" y="191.2" class="st6" width="3.3" height="3.3"/>
		<rect x="402.9" y="191.2" class="st6" width="3.3" height="3.3"/>
		<rect x="347" y="199.4" class="st14" width="3.3" height="3.3"/>
		<rect x="356.3" y="199.4" class="st14" width="3.3" height="3.3"/>
		<rect x="365.6" y="199.4" class="st14" width="3.3" height="3.3"/>
		<rect x="374.9" y="199.4" class="st14" width="3.3" height="3.3"/>
		<rect x="384.2" y="199.4" class="st14" width="3.3" height="3.3"/>
		<rect x="393.5" y="199.4" class="st6" width="3.3" height="3.3"/>
		<rect x="402.9" y="199.4" class="st6" width="3.3" height="3.3"/>
		<rect x="347" y="207.6" class="st14" width="3.3" height="3.3"/>
		<rect x="356.3" y="207.6" class="st14" width="3.3" height="3.3"/>
		<rect x="365.6" y="207.6" class="st14" width="3.3" height="3.3"/>
		<rect x="374.9" y="207.6" class="st14" width="3.3" height="3.3"/>
		<rect x="384.2" y="207.6" class="st14" width="3.3" height="3.3"/>
		<rect x="393.5" y="207.6" class="st1" width="3.3" height="3.3"/>
		<rect x="402.9" y="207.6" class="st1" width="3.3" height="3.3"/>
	</g>
</g>
<path class="st19" d="M217.5,281.4l-11.9,22.9c0,0,0,0,0,0c-0.3,0.9-4.1,29.4-3.9,35.9c0,0.1-0.1,2.8,0,2.8
	c2.9,0.3,32.2-1.8,34.7-1.8c0.1,0,0.2-0.1,0.2-0.1l4.6-10c0.1-0.2,0.3-0.2,0.4,0l5.8,10.1c0,0.1,0.1,0.1,0.2,0.1l31.1,1.7
	c0.2,0-3.1-23.1-1.9-18.9c1.2,4.1-7.5-29.3-10.4-46.1C263.5,260.4,230.2,267.6,217.5,281.4C217.5,281.3,217.5,281.4,217.5,281.4z"/>
<path class="st0" d="M255.3,103.6c0,0-10.6-14.9-22.2,2s-12.4,33.7-2.3,51c11.9,20.6,41,34.8,68.9,29.5c27.8-5.3,15.6-8.9,21.9-11.6
	c6.3-2.7,6.3-6.6,6.6-9.3c0.3-2.7-8.3-15.2-27.2-8s-24.9-15.6-25.2-25.5C275.6,121.8,274.9,96.9,255.3,103.6z"/>
<path class="st20" d="M271.9,176c0,0,10.4,0.9,13.3,21c2.9,20.1,0.6,49.9-5.5,51c-6.2,1.1-23.2-4.2-19.2-24.5
	C264.4,203.2,271.9,176,271.9,176z"/>
<path class="st20" d="M238.8,174.4c-8.2-1-29.2,8.3-29.2,8.3s17.2,74.3,5.3,98.6c-11.9,24.3,53.4,0,53.4,0l-3.1-51.7
	c0,0,7.1-51.2,7.5-53.4c0.4-2.2-10.1,0.9-12.8,3.6C257.4,182.4,244.2,175.1,238.8,174.4z"/>
<path class="st20" d="M216.3,180.1c-8.6,0-17.6,0.6-18.5,29.2c-0.8,24.5,5.6,55.7,13.3,57c7.6,1.3,9.9-2.7,13.6-7.3
	C228.2,254.3,223.2,180.1,216.3,180.1z"/>
<path class="st21" d="M238.1,136.9c0,0,5.7,32.7-10.9,39.5c-5.6,2.3-6.5,4.4-5.6,6.3c3.5,8.2,19.2,18.2,33.3,12.9
	c14.1-5.3,12.4-19,12.4-19s-15.5,6.6-15.5-12.4s7.5-29.2,7.5-29.2L238.1,136.9z"/>
<path class="st22" d="M251.9,160.8c0.8-16.7,7.4-25.6,7.4-25.6l-21.2,1.8c0,0,1.3,7.5,0.8,16c0.7,1.9,1.4,3.5,2.3,4.8
	C244.5,162.5,248.4,162.8,251.9,160.8z"/>
<path class="st21" d="M241.2,112.2c0,0,5.3-4,9.7,6.2s7.1,10.6,9.3,10.6c2.2,0,0.4,7.5-3.1,13.3c-3.6,5.7-11,10.6-16.4,4
	C235.5,139.6,233.3,120.1,241.2,112.2z"/>
<path class="st23" d="M241.4,330.4"/>
<path class="st23" d="M256.5,308.3"/>
<path class="st23" d="M205.7,341.2"/>
<path class="st23" d="M210.9,311.8"/>
<path class="st23" d="M219.8,293.7"/>
<path class="st23" d="M227.3,299"/>
<g>
	<path class="st21" d="M306.7,152.6c-1.8-5-4.6-9.5-4.6-9.5s-0.4,1.7,0.5,5c1.1,3.8,3.5,9.4,2.4,11.7c-1.8,4.1-1.2,4.9-2,2.4
		c-0.8-2.4,0.4-6.4-3.3-10.6c-0.1-0.1,0.9,5.6,0.9,10.9c0.1,4.6,2.8,10.5,0.8,19.7c-6.5,12.3-15.9,30.1-21.1,44.8
		c-5.6,15.8-7.6,20.7-2.3,21.1c10.9,1,15.9-12.1,17.6-18.2c3-11.4,9.2-46.3,9.2-46.3c0.1-0.1,0.1-0.1,0.1-0.2
		c2.7-5.5,5.2-13.5,5.2-16.4C309.9,165.7,308.8,158.7,306.7,152.6z"/>
	<path class="st24" d="M309.5,167.8c0,0,1.1-9.9,0.5-11.8c-0.4-1.4-3.2-7.6-3.2-7.6s-0.7,3.6,0.3,6.2
		C308.2,157.1,309.5,167.8,309.5,167.8z"/>
</g>
<path class="st25" d="M290.5,236c-0.5,1.5-2.2,2.9-3.6,2.9h-21.2c-1.5,0-2.2-1.5-1.7-2.9l13.8-38c0.5-1.5,2.1-2.9,3.6-2.9h21.2
	c1.5,0,2.2,1.4,1.7,2.9L290.5,236z"/>
<path class="st21" d="M271.9,214.9c0,0-2.7,4.6-0.9,5.1c1.8,0.4,12.8-5.7,12.8-5.7l3.6-0.4l-8.7,6.9c-0.6,0.3,5.6-4,8.9-5.5
	c1.9-0.8,3.2-0.4,3.7-0.5c1.3-0.4-11.4,8-11.4,8l5.4-1.8c0,0,2.9-0.6,1.5,1c-0.8,0.9-2,1.1-3.7,3.4c-1.6,2.3-9.5,9.2-17.4,10.1
	c-4,0.5-6.6,2.7-6.6,2.7l-37.3,24.2c0,0-17.2,3-15.2-6.6c2-9.6,34.6-19.7,46.4-23.5c7.7-2.5,8.3-4.6,9.9-6.3
	C264.6,224.2,267.7,217.1,271.9,214.9z"/>
<path class="st19" d="M204.2,313.9c-3.3,18.8-9.6,183.2-9.6,183.2c1.9-0.8,4.3-1.5,7.1-1.8c5.5-0.6,10,0.7,12.8,1.8l26.7-166
	L204.2,313.9z"/>
<path class="st19" d="M241.7,331.1c3,7.6,33.4,133.7,38.4,166c1.9-1.3,4.2-2.8,7.1-3.9c3.8-1.5,7.3-1.9,9.8-1.9l-20-167.9
	L241.7,331.1z"/>
<path class="st19" d="M267.9,466.1"/>
<path class="st26" d="M281.1,491.6c0,0-1.9,6.9-1.1,9.9c0.8,2.9,40,2.9,40,2.9s6.1-2.9,1.1-6.4c-5.1-3.5-20-6.4-20-6.4
	S284.4,487.4,281.1,491.6z"/>
<path class="st26" d="M193.6,496.3c0,0-1.9,6.9-1.1,9.9c0.8,2.9,40,2.9,40,2.9s6.1-2.9,1.1-6.4c-5.1-3.5-20-6.4-20-6.4
	S196.8,492,193.6,496.3z"/>
<path class="st27" d="M402.5,341.3c2.5,22.4-6.6,225.5-9,236.3c0,0,14.1-6.9,21.1,0l33.9-196.1l35.8,196.1c0,0,19.7-9.3,27.7-3.1
	l-15.3-233.2c-14.2,2-30.2,3.3-47.8,3.2C431.9,344.5,416.4,343.3,402.5,341.3z"/>
<g>
	<path class="st28" d="M386,277c0.5,13.2,10.5,45.2,16.6,64.3c10.4,3.7,26.9,8.3,47.5,8.2c20.2-0.1,36.4-4.5,46.7-8.2
		c5.6-15.5,11.2-31.1,16.8-46.6c0,0,35.7-55.7-25.8-92.6c-8.8-5.3-54.7-1.5-54.7-1.5s-34,2.4-79,69.9C352.8,272.7,385.3,258,386,277
		z"/>
	<path class="st21" d="M442.4,169.5c0.7,3.5,6.8,14.2-19.8,38.8c-19.1,17.6,41.6,19.8,62.8-7.1c0,0-32.4-4.2-21.9-63.5
		C471.5,93.3,442.4,169.5,442.4,169.5z"/>
	<path class="st21" d="M428.6,229.5l-12.7,5.2c0,0-4.9,2.3-3.8,2.9c1.4,0.8,11.3-2.2,11.3-2.2s2.8,1.2,7.1,4s11.7,2.3,11.7,2.3
		s25.9,50.4,48.9,58.9c23,8.4,26.3,4.7,29.6-1.4c3.3-6.1,9.4-33.4-14.1-40.5c-23.5-7.1-59.3-19.8-59.3-19.8L436,227l-8-0.4
		c0,0-3.3,2.3-5.2,3.8"/>
	<path class="st29" d="M409.9,262.3c0.6,1.5-0.2,2.8-1.8,2.8h-74.8c-1.5,0-3.3-1.3-3.8-2.8l-19-51.6c-0.6-1.5,0.2-2.2,1.8-2.2h74.8
		c1.5,0,3.3,0.6,3.8,2.2L409.9,262.3z"/>
	<path class="st29" d="M436.6,270.6c0,1.5-0.8,2.2-2.4,2.2h-99.8c-1.5,0-3.5-0.6-3.5-2.2v-2.5c0-1.5,2-3,3.5-3h99.8
		c1.5,0,2.4,1.4,2.4,3V270.6z"/>
	<path class="st22" d="M393.7,272.7h-53.6c0,0-11.3,4.1-0.7,17.5c10.6,13.4,21.5,9.8,27.5,7.3c6-2.5,26.1-20.9,26.1-20.9l8.4,1.1
		l10.6-4.9c0,0-2.5-1.4-5.6,0c-3.2,1.4-4.9,1.1-4.9,1.1l-3.2-1.8l2.1-2.4l1.1-2.5l-4.9,2.6L393.7,272.7z"/>
	<path class="st22" d="M462.3,171.5c-1.3-8.5-1.3-19.6,1.2-33.7c8-44.5-21.2,31.8-21.2,31.8c0.6,3,5.2,11.3-10.2,29.1
		C444.7,195.9,455.5,185.8,462.3,171.5z"/>
	<path class="st21" d="M436,118.7c0,0-7.1,43.8-4.2,53.6c2.8,9.9,11.3,12.2,21.2-1.4c19.1-26.1,18.3-46.6,12.7-50.1
		C460.1,117.3,444.5,103.9,436,118.7z"/>
	<path class="st0" d="M448,125.1c-6.9,1.1-17.6,4.9-24.7-12.7c-7.1-17.6,8.4-21.2,16.2-12c7.8,9.2,7.1,13.4,2.1,9.2
		c-4.9-4.2,2.8-16.9,9.9-8.4c7.1,8.4,9.9,21.2,6.4,20.4c-3.5-0.7,7.8-14.8,12-8.4c4.2,6.4,7.1,15.5,2.1,18.3
		c-4.9,2.8-10.6-7.1-5.6-3.5c4.9,3.5,6.4,22.6,0,25.4c-6.4,2.8-6.4-2.1-0.7-7.8c5.6-5.6-2.1-17.3-4.9-6c-0.3,1-2.1,7.4-2.1,7.4
		l-4.2,3.5c0,0,0-12.7,2.8-17.3C463.6,122.8,463.4,122.6,448,125.1z"/>
	<path class="st21" d="M397.7,274.1c0,0-38.2,3.7-47.7,4.6c-6.3,0.6-12.2,3.3-13.9,6.7c0.7,1.5,1.8,3.2,3.3,5.2
		c10.6,13.4,21.5,9.7,27.5,7.2c6-2.5,26.1-20.9,26.1-20.9l8.5,1C401.9,277.1,398.5,274.2,397.7,274.1z"/>
	<path class="st22" d="M519.9,300.6c-2.5,1.8-3.3,3.1-7.4,2.5c-6.2-0.8-25.6-11.9-34.9-18.9c-14.6-11.1-34.6-42.4-35.4-42.4
		c1.4,2.7,26.4,50.4,48.9,58.7C512.2,308.2,516.7,305.8,519.9,300.6z"/>
</g>
<path class="st27" d="M449.2,335.2"/>
<path class="st28" d="M484.4,577.6c1-0.4,19.9-9,27.5-3.2c0.1,0.1,0.2,0.2,0.3,0.4c0.5,1.7,3.8,12.6,1.7,14.5
	c-2.1,2.1-46.6,0.1-49.3,0c-0.1,0-0.2,0-0.3-0.1c-0.9-0.5-6-3.7,0.1-5.8C470.8,581.3,483.5,577.9,484.4,577.6
	C484.4,577.6,484.4,577.6,484.4,577.6z"/>
<path class="st28" d="M386.5,577.6c1-0.4,19.9-9,27.5-3.2c0.1,0.1,0.2,0.2,0.3,0.4c0.5,1.7,3.8,12.6,1.7,14.5
	c-2.1,2.1-46.6,0.1-49.3,0c-0.1,0-0.2,0-0.3-0.1c-0.9-0.5-6-3.7,0.1-5.8C372.9,581.3,385.5,577.9,386.5,577.6
	C386.4,577.6,386.4,577.6,386.5,577.6z"/>
<path class="st28" d="M369.8,551.4"/>
</svg>
