<?xml version="1.0" encoding="utf-8"?>
<!-- Generator: Adobe Illustrator 26.2.1, SVG Export Plug-In . SVG Version: 6.00 Build 0)  -->
<svg version="1.1" id="dizajn" xmlns="http://www.w3.org/2000/svg" xmlns:xlink="http://www.w3.org/1999/xlink" x="0px" y="0px"
	 viewBox="0 0 844.3 803.4" style="enable-background:new 0 0 844.3 803.4;" xml:space="preserve">
<style type="text/css">
	.st0{opacity:0.28;fill:#849FF3;enable-background:new    ;}
	.st1{fill:#849FF3;}
	.st2{fill:#FFD917;}
	.st3{fill:#E9E9E1;}
	.st4{fill:#EAF4FE;}
	.st5{fill:#DEE9F9;}
	.st6{fill:#C9DFEB;}
	.st7{fill:#FFC40E;}
	.st8{fill:#3BB6D5;}
	.st9{fill:#AABDC6;}
	.st10{fill:#F3F8FD;}
	.st11{fill:#AABCC6;}
	.st12{fill:#FFFFFF;}
	.st13{fill:#EDF4FC;}
	.st14{fill:#D9E1E4;}
	.st15{fill:#BAC2C6;}
	.st16{fill:#F19E38;}
	.st17{fill:#165670;}
	.st18{fill:#ECF6F8;}
	.st19{fill:#5BA9DD;}
	.st20{fill:#9EA6A9;}
	.st21{fill:#D1DBEA;}
	.st22{enable-background:new    ;}
	.st23{fill:#D2D7D9;}
	.st24{fill:#163F59;}
	.st25{fill:#E2C59C;}
	.st26{fill:#194866;}
	.st27{fill:#E9D6B8;}
	.st28{fill:#5757CB;}
</style>
<path class="st0" d="M705.6,3.6c-67.4,0-122,54.6-122,122s54.6,122,122,122s122-54.6,122-122S773,3.6,705.6,3.6z M705.6,199.4
	c-40.7,0-73.8-33-73.8-73.8s33-73.8,73.8-73.8s73.8,33,73.8,73.8S746.4,199.4,705.6,199.4z"/>
<path class="st1" d="M196,275.8c-108.2,0-196,87.8-196,196s87.8,196,196,196s196-87.8,196-196S304.2,275.8,196,275.8z M196,626.7
	c-85.6,0-155-69.4-155-155s69.4-155,155-155s155,69.4,155,155S281.6,626.7,196,626.7z"/>
<path class="st2" d="M306.9,47.3c-34.1,0-61.8,27.7-61.8,61.8s27.7,61.8,61.8,61.8s61.8-27.7,61.8-61.8S341,47.3,306.9,47.3z
	 M306.9,158c-27,0-48.9-21.9-48.9-48.9s21.9-48.9,48.9-48.9s48.9,21.9,48.9,48.9S333.9,158,306.9,158z"/>
<path class="st3" d="M319.1,144.1c0,27.3-22.1,49.3-49.3,49.3c-27.3,0-49.3-22.1-49.3-49.3c0-27.3,22.1-49.3,49.3-49.3
	C297,94.7,319.1,116.8,319.1,144.1z"/>
<circle class="st4" cx="496.7" cy="444.2" r="291"/>
<circle class="st1" cx="744.4" cy="617.9" r="72"/>
<path class="st5" d="M265.7,180.5L265.7,180.5c-0.2,0.2-0.4,0.5-0.6,0.7l-1.5,1.6l0,0c0.5,0,1,0.1,1.4,0.1l0.5-1.7
	C265.5,181,265.6,180.8,265.7,180.5 M139.9,180.1c-0.7,0.3-1.8,4.2-1.3,4.4s1.8-3.6,1.5-4.3C140.1,180.1,140,180.1,139.9,180.1
	 M176.2,157.2c-20.7,14.7-21.9,15.6-31.8,24.4c1.7-0.5,3.4-1,5.2-1.4c6.7-1.7,13.9-3.1,21.6-4.3L176.2,157.2 M176.5,155.6
	c-7.7,1.2-14.9,2.6-21.5,4.3c-2.3,0.6-4.5,1.2-6.6,1.9l-0.9,0.8v-0.4l-5.4,20c0.1,0,0.1,0,0.1,0C161.3,166.1,162,165.5,176.5,155.6
	L176.5,155.6 M209,152.5c-10.6,0.5-20.7,1.4-30,2.7l-2.5,1.7l-0.1,0.1l-5,18.7c10.7-1.6,22.4-2.6,34.8-3.2l4.5-16.7
	C209.2,155.8,208.6,154.5,209,152.5 M342.5,160.9c-16-2.3-31.7-4.2-46.9-5.7l-5.4,20.2c15.1,1.4,30.8,3.3,46.8,5.7L342.5,160.9
	 M145.4,159.5c-0.7,0.3-1.8,4.2-1.3,4.4s1.8-3.6,1.5-4.3C145.6,159.5,145.5,159.5,145.4,159.5 M196.2,144.1L179.4,155
	c9.2-1.3,19.1-2.2,29.6-2.7c0.1-0.2,0.1-0.3,0.2-0.5L196.2,144.1 M183.6,136.7c-1,1.4-1.8,1.7-2.3,1.8l-4.5,16.7c0.1,0,0.1,0,0.1,0
	c5.4-3.6,12.6-8.5,18.1-11.9L183.6,136.7 M179.8,137.3c-20.4,14.8-21.6,15.7-31,24.1c2-0.6,4.1-1.2,6.3-1.8
	c6.7-1.7,13.9-3.1,21.6-4.3l4.5-16.7C180.4,138.6,180,138.3,179.8,137.3 M217.1,132.1c-5.8,3.3-13.6,7.6-19.3,11.1
	c3.7,2.2,8.6,5,12.3,7.2c1.1-1.3,2-1.6,2.6-1.7L217.1,132.1 M179.9,135.5c-6.9,1.1-13.4,2.4-19.4,4c-2.6,0.7-5.1,1.4-7.4,2.1
	l-5.2,19.5c19-16.1,19.3-16.4,31.9-25C179.8,135.8,179.8,135.6,179.9,135.5 M214.6,132c-10.7,0.5-20.7,1.4-30,2.7
	c-0.1,0.2-0.1,0.3-0.2,0.5l12.2,7.2L214.6,132 M348,140.4c-16.1-2.4-31.7-4.2-46.9-5.7l-5.4,20.2c15.1,1.4,30.8,3.3,46.8,5.7
	L348,140.4 M150.9,139c-0.7,0.3-1.8,4.2-1.3,4.4s1.8-3.6,1.5-4.3C151.1,139,151,139,150.9,139 M187.6,114.6
	c-7.7,1.2-14.9,2.6-21.6,4.3c-2.6,0.7-5,1.4-7.4,2.1l-5.4,20.2c2.4-0.7,4.8-1.4,7.4-2.1c6-1.6,12.5-2.9,19.4-4
	c0.6-2,1.9-3.5,3.2-3.8L187.6,114.6 M222.6,111.4c-12.5,0.5-24.1,1.6-34.8,3.2l-4.5,16.7c1.2,0,1.8,1.2,1.3,3.2
	c9.5-1.3,19.7-2.2,30.5-2.8l2.3-1.2l0.2-0.1L222.6,111.4 M353.5,119.9c-14.9-2.2-29.5-4-43.7-5.4c-0.7,1.9-2.2,3.1-4,3.1l-4.5,16.8
	c15.1,1.4,30.8,3.3,46.8,5.7L353.5,119.9 M156.5,118.5c-0.7,0.3-1.8,4.2-1.3,4.4c0.5,0.2,1.8-3.6,1.5-4.3
	C156.6,118.4,156.6,118.4,156.5,118.5 M358.8,100.2c-30.1,7.8-31.9,8.3-48.8,13.4c0,0.3,0,0.3-0.1,0.7c14.2,1.4,28.8,3.2,43.7,5.4
	L358.8,100.2 M193.1,94.2c-7.7,1.2-14.9,2.6-21.6,4.3c-2.6,0.7-5,1.4-7.4,2.1l-5.4,20.2c2.4-0.7,4.8-1.4,7.4-2.1
	c6.7-1.7,13.9-3.2,21.6-4.3L193.1,94.2 M228.1,91c-12.5,0.5-24.1,1.6-34.8,3.2l-5.4,20.2c10.7-1.6,22.4-2.6,34.8-3.2L228.1,91
	 M357,99.1c-15.4-2.2-30.4-4-44.9-5.4l-4.5,16.6c1.1,0.2,1.7,0.7,2.1,1.8C340.3,103.3,340.3,103.3,357,99.1 M160.2,98.8L160.2,98.8
	c-0.1,0.3-0.3,0.6-0.4,0.9l-1.1,2l0,0c0.3-0.1,0.6-0.2,0.8-0.3l0.5-1.8C160,99.3,160.1,99,160.2,98.8 M162,97.9
	c-0.7,0.3-1.8,4.2-1.3,4.4c0.5,0.2,1.8-3.6,1.5-4.3C162.2,97.9,162.1,97.9,162,97.9 M198.7,73.7c-7.7,1.2-14.9,2.6-21.6,4.3
	c-2.6,0.7-5,1.4-7.4,2.1l-5.4,20.2c2.4-0.7,4.8-1.4,7.4-2.1c6.7-1.7,13.9-3.1,21.6-4.3L198.7,73.7 M233.6,70.5
	c-12.5,0.5-24.1,1.6-34.8,3.2l-5.4,20.2c10.7-1.6,22.4-2.6,34.8-3.2L233.6,70.5 M364.5,78.9c-14.6-2.1-28.9-3.9-42.8-5.3
	c-0.3,0.1-0.7,0.2-1,0.3c-0.3,2.3-2.1,4-4.3,4l-4.2,15.5c14.7,1.4,29.9,3.2,45.5,5.5l1.3-0.3V99L364.5,78.9 M167.5,77.4
	c-0.7,0.3-1.8,4.2-1.3,4.4c0.5,0.2,1.9-3.6,1.5-4.3C167.7,77.4,167.6,77.3,167.5,77.4 M369.8,59.2c-30.1,8.6-31.3,8.9-47.5,14.2
	c13.7,1.4,27.9,3.1,42.3,5.2L369.8,59.2 M204.1,53.2c-7.7,1.2-14.9,2.6-21.6,4.3c-2.6,0.7-5.1,1.4-7.4,2.1l-5.4,20.2
	c2.4-0.7,4.8-1.4,7.4-2.1c6.7-1.7,13.9-3.1,21.6-4.3L204.1,53.2 M239.1,50c-12.5,0.5-24.1,1.6-34.8,3.2l-5.4,20.2
	c10.7-1.6,22.4-2.6,34.8-3.2L239.1,50 M368.1,58.2c-15.3-2.2-30.4-4-44.9-5.4l-4.8,18c1.1,0.2,1.7,0.7,2.2,1.8
	C350.1,63.1,350.7,63,368.1,58.2 M123.7,247.4l1.4-5.2c2.7-0.9,5.5-1.7,8.4-2.4c16.9-4.4,37.3-6.9,60.4-7.7l-1.4,5.2
	c-23,0.8-43.4,3.3-60.3,7.7C129.2,245.7,126.4,246.5,123.7,247.4 M221.2,237.1l1.4-5.2c29.4,0.6,61.9,3.5,96.2,8.5l-1.4,5.2
	C283.1,240.7,250.6,237.8,221.2,237.1 M127.1,234.8l1.4-5.2c1.1-0.3,2.2-0.7,3.3-1l-1.4,5.2C129.3,234.1,128.2,234.5,127.1,234.8
	 M224.6,224.6l1.4-5.2c1.8,0,3.5,0.1,5.3,0.1l-1.4,5.2C228.1,224.7,226.4,224.6,224.6,224.6 M152.9,186.2l0.1-0.5l0.8-0.7
	c0.1,0,0.2-0.1,0.3-0.1l-1.3,5c-0.1,0-0.3,0.1-0.4,0.1l1.2-4.4l0,0L152.9,186.2 M262.8,183.4l0.1-0.5l2.8-3.1c0.2,0,0.4,0,0.6,0
	l-0.8,3.1c0.2,0,0.4,0,0.6,0l-0.1,0.5c-0.2,0-0.4,0-0.6,0l-0.4,1.4c-0.2,0-0.4,0-0.6,0l0.4-1.3C264.2,183.5,263.5,183.4,262.8,183.4
	 M309.1,186.4l1-2.4c0.7,0.1,1.5,0.2,2.2,0.3l-0.2,0.6c-0.6-0.1-1.2-0.1-1.8-0.2c-0.2,0.4-0.4,0.9-0.5,1.3c2.1,0,2,1.8,1.1,2.7
	s-2.2,0.6-2.7,0.1c0.1-0.1,0.2-0.3,0.3-0.5c1.1,1,2.5,0.2,2.4-1C310.8,186.8,310.5,186.3,309.1,186.4 M184.8,181.1
	c0-0.1,0-0.3,0-0.5c0.9-0.8,1.9-0.9,1.9,0.2c0,1.2-1,2.3-2,3.3l-0.4,0.4l0,0c0.5-0.1,1-0.1,1.6-0.1l-0.1,0.6
	c-0.8,0.1-1.5,0.1-2.2,0.2l0.1-0.4c1.8-1.9,2-2.2,2.4-2.9c0.1-0.3,0.5-1.4-0.3-1.3C185.5,180.6,185.2,180.7,184.8,181.1
	 M222.2,179.2c0-0.1,0-0.3,0-0.5c0.7-0.6,2.1-0.6,2,0.6c0,0.3-0.2,1-1.1,1.4l0,0c1.1,0.3,0.6,2.1-0.5,2.6c-0.6,0.3-1.4,0.2-1.8-0.1
	c0.1-0.2,0.2-0.4,0.3-0.5c1,0.8,2-0.1,2-1c0-0.3-0.2-0.6-0.8-0.6c-0.1,0-0.2,0-0.3,0l0.1-0.5c0.1,0,0.2,0,0.3,0c1,0,1.4-1.1,1-1.5
	C223.3,178.9,222.8,178.9,222.2,179.2 M138.6,185c-1.1,0.2,0.1-3.6,0.8-4.8c0.5-0.9,1-1,1.1-0.5C140.7,180.6,139.7,184.7,138.6,185
	 M142.7,161.1l0.1-0.5l0.7-0.8c0.1,0,0.2-0.1,0.3-0.1l-1.4,5.3c-0.1,0-0.2,0.1-0.3,0.1l1.3-4.7l0,0L142.7,161.1 M144.1,164.5
	c-1.1,0.2,0.1-3.6,0.8-4.8c0.5-0.9,1-1,1.1-0.5C146.3,160.1,145.2,164.1,144.1,164.5 M148.1,140.4c0.1-1.3,1.2-1.3,1.3-1.2
	c0.3,0.4,0.3,1.4-1.6,4.4l-0.3,0.5l0,0c0.4-0.1,0.8-0.3,1.1-0.4l-0.2,0.6c-0.6,0.2-1.1,0.4-1.6,0.6l0.1-0.4c1.4-2.1,1.6-2.6,1.9-3.2
	c0.3-0.8,0.5-1.6,0.1-1.5C148.6,139.8,148.2,140.3,148.1,140.4 M149.6,143.9c-1.1,0.2,0.1-3.6,0.8-4.8c0.5-0.9,1-1,1.2-0.5
	C151.8,139.5,150.7,143.6,149.6,143.9 M153.7,119.8c0.2-1.4,1.2-1.1,1.2-1.1c0.2,0.3,0,1.6-0.8,2.4l0,0c0.7,0.2,0,2.4-0.9,3
	c-0.2,0.1-0.5,0.3-0.8,0c0.1-0.2,0.2-0.4,0.2-0.6c0.5,0.6,1.3-0.5,1.4-1.5c0-0.3,0-0.6-0.4-0.5c-0.1,0-0.1,0-0.2,0.1l0.2-0.5
	c0.1,0,0.1,0,0.2-0.1c0.7-0.3,1.1-1.6,0.8-1.7C154.3,119.2,154,119.4,153.7,119.8 M155.1,123.4c-1.1,0.2,0.1-3.6,0.8-4.8
	c0.5-0.9,1-1,1.1-0.5C157.3,119,156.3,123,155.1,123.4 M158.1,102.4l0.1-0.5l2-3.8c0.1,0,0.2-0.1,0.4-0.1l-0.9,3.3
	c0.1,0,0.2-0.1,0.4-0.1l-0.1,0.6c-0.1,0-0.3,0.1-0.4,0.1l-0.4,1.4c-0.1,0-0.2,0.1-0.3,0.1l0.4-1.4
	C158.9,102.1,158.5,102.2,158.1,102.4 M160.6,102.9c-1.1,0.2,0.1-3.6,0.8-4.8c0.5-0.9,1-1,1.1-0.5
	C162.9,98.4,161.8,102.5,160.6,102.9 M164.2,80.4l0.9-2.6c0.4-0.1,0.8-0.3,1.2-0.4l-0.2,0.6c-0.3,0.1-0.7,0.2-1,0.3
	c-0.1,0.4-0.3,1-0.5,1.4c0.8-0.5,0.9,0.3,0.7,1.2c-0.5,1.8-1.6,2.6-2,2.1c0.1-0.2,0.2-0.4,0.3-0.6c0.4,0.5,1.3-0.5,1.4-1.6
	C165.2,79.9,164.6,80.2,164.2,80.4 M166.2,82.3c-1.1,0.2,0.1-3.6,0.8-4.8c0.5-0.9,1-1,1.1-0.5C168.4,77.9,167.3,82,166.2,82.3
	 M368.7,58l1.4-0.4l0.1,0.6c0.1,0,0.1,0,0.2,0l-0.1,0.5l0.1,0.4l-0.2,0.1l-10.9,40.6v0.4h-0.2l-21.8,81.2
	c-76.2-11.1-143.8-12.3-187.8-1c-1.9,0.5-3.8,1-5.6,1.5l-2.2,2l0.1-1.3l0.1-0.1l5.6-20.9v-0.3l0.1-0.1L175,59.4
	c2.4-0.8,4.9-1.5,7.6-2.1C226.2,46,293.2,47.1,368.7,58 M176.9,49.7l1.4-5.2c2.7-0.8,5.5-1.7,8.4-2.4c20.6-5.3,46.5-7.9,76-7.9
	l-1.4,5.2c-29.5,0.1-55.4,2.6-76,7.9C182.4,48,179.6,48.8,176.9,49.7 M179.9,38.5l1.4-5.2c2.7-0.8,5.5-1.6,8.4-2.4
	c4.7-1.2,9.7-2.3,14.9-3.2l-1.4,5.2c-5.2,0.9-10.2,2-14.9,3.2C185.4,36.9,182.6,37.7,179.9,38.5 M405.7,12.4
	C320.6-1.9,244-4.5,195.9,7.9c-9.7,2.5-17.9,5.5-24.6,9L86,333.8c6.7-3.5,14.9-6.5,24.6-9c48.2-12.4,124.7-9.8,209.9,4.5L405.7,12.4
	"/>
<path class="st6" d="M262.7,34.1c-29.5,0.1-55.4,2.6-76,7.9c-2.9,0.8-5.7,1.6-8.4,2.4l-1.4,5.2c2.7-0.8,5.4-1.6,8.4-2.4
	c20.6-5.3,46.5-7.9,76-7.9L262.7,34.1"/>
<path class="st7" d="M131.8,228.6c-1.1,0.3-2.2,0.7-3.3,1l-1.4,5.2c1.1-0.3,2.2-0.7,3.3-1L131.8,228.6"/>
<path class="st6" d="M193.9,232.1c-23,0.8-43.4,3.3-60.4,7.7c-2.9,0.8-5.7,1.6-8.4,2.4l-1.4,5.2c2.7-0.9,5.5-1.7,8.4-2.4
	c16.9-4.3,37.3-6.9,60.3-7.7L193.9,232.1"/>
<path class="st8" d="M231.3,219.5c-1.8-0.1-3.6-0.1-5.3-0.1l-1.4,5.2c1.8,0,3.5,0.1,5.3,0.1L231.3,219.5"/>
<path class="st6" d="M318.8,240.4c-34.3-4.9-66.8-7.8-96.2-8.5l-1.4,5.2c29.4,0.6,61.9,3.5,96.2,8.5L318.8,240.4"/>
<path class="st6" d="M204.6,27.7c-5.2,0.9-10.2,2-14.9,3.2c-2.9,0.8-5.7,1.6-8.4,2.4l-1.4,5.2c2.7-0.9,5.5-1.7,8.4-2.4
	c4.7-1.2,9.7-2.3,14.9-3.2L204.6,27.7"/>
<path class="st9" d="M295.6,155.2h-0.1l-5.4,20.2c0.1,0,0.1,0,0.1,0L295.6,155.2 M301.1,134.7H301l-5.4,20.2h0.1L301.1,134.7
	 M305.7,117.6h-0.1l-4.5,16.8h0.1L305.7,117.6 M312.2,93.8C312.1,93.8,312.1,93.8,312.2,93.8l-4.6,16.6h0.1L312.2,93.8 M316.4,78
	h-0.1l-4.1,15.4h0.1L316.4,78 M323.2,52.8h-0.1l-4.8,18h0.1L323.2,52.8"/>
<path class="st9" d="M210.7,155.9l-4.5,16.7h0.1L210.7,155.9L210.7,155.9 M217.2,132l-0.1,0.1l-4.5,16.6h0.1L217.2,132 M222.7,111.4
	L222.7,111.4l-5.2,19l0.1-0.1L222.7,111.4 M228.2,90.9h-0.1l-5.4,20.2h0.1L228.2,90.9 M233.7,70.5L233.7,70.5l-5.5,20.2h0.1
	L233.7,70.5 M239.2,50h-0.1l-5.4,20.2h0.1L239.2,50"/>
<path class="st9" d="M176.4,157.1l-0.2,0.1l-5,18.6c0.1,0,0.1,0,0.2,0L176.4,157.1 M181.2,138.6l-4.5,16.7c0.1,0,0.1,0,0.2,0
	l4.5-16.7C181.3,138.6,181.2,138.6,181.2,138.6 M187.8,114.6c-0.1,0-0.1,0-0.2,0l-4.5,16.7c0.1,0,0.1,0,0.2,0L187.8,114.6
	 M193.3,94.1c-0.1,0-0.1,0-0.2,0l-5.4,20.2c0,0,0.1,0,0.2,0L193.3,94.1 M198.8,73.6c-0.1,0-0.1,0-0.2,0l-5.4,20.2c0.1,0,0.1,0,0.2,0
	L198.8,73.6 M204.3,53.2c-0.1,0-0.1,0-0.2,0l-5.4,20.2c0.1,0,0.1,0,0.2,0L204.3,53.2"/>
<path class="st10" d="M279,49.9c-14-0.5-27.2-0.5-39.7,0.1l-5.4,20.2c12.5-0.5,25.7-0.6,39.7-0.1L279,49.9 M322.9,52.8
	c-15.1-1.4-29.7-2.4-43.7-2.9l-5.4,20.2c13.1,0.4,26.7,1.3,40.8,2.6c0.9-1.3,2.1-2,3.5-1.9L322.9,52.8"/>
<path class="st11" d="M323.1,52.8H323l-4.9,18h0.1L323.1,52.8"/>
<path class="st11" d="M279.3,49.9c-0.1,0-0.2,0-0.2,0l-5.4,20.2c0.1,0,0.2,0,0.2,0L279.3,49.9"/>
<path class="st10" d="M314.9,77.5c-4.8,4.4-11.1,10.4-15.9,14.9c4.3,0.3,8.6,0.7,13,1.1l4.2-15.5C315.7,77.9,315.3,77.8,314.9,77.5
	 M273.5,70.4c-13.9-0.5-27.2-0.5-39.7,0.1l-5.4,20.2c12.5-0.5,25.7-0.6,39.7-0.1L273.5,70.4 M314.4,73c-14.1-1.3-27.7-2.1-40.7-2.6
	l-5.4,20.2c9.4,0.3,19,0.9,29,1.6c5-4.7,11.7-11.1,16.8-15.8C313.6,75.3,313.8,74.1,314.4,73"/>
<path class="st11" d="M316.2,78L312,93.5h0.1l4.2-15.4C316.2,78,316.2,78,316.2,78"/>
<path class="st11" d="M273.7,70.4c-0.1,0-0.1,0-0.2,0l-5.4,20.2c0.1,0,0.2,0,0.2,0L273.7,70.4"/>
<path class="st10" d="M268,90.9c-13.9-0.5-27.2-0.4-39.7,0.1l-5.4,20.2c11.3-0.5,23.3-0.5,35.8-0.2c0.8-2.5,2.9-4,4.8-3.3L268,90.9
	 M297,92.5c-9.9-0.8-19.5-1.3-28.8-1.6l-4.5,16.9c0.8,0.5,1.2,1.3,1.2,2.4c4.3,0.2,8.7,0.4,13.2,0.6
	C283.8,105.3,291.3,97.9,297,92.5 M311.9,93.7c-4.4-0.4-8.9-0.8-13.2-1.1c-5.7,5.5-13.3,12.8-19,18.3c7.8,0.5,15.8,1.1,23.9,1.8
	c0.9-1.5,2.2-2.4,3.8-2.3L311.9,93.7"/>
<path class="st11" d="M312,93.8h-0.1l-4.5,16.6h0.1L312,93.8"/>
<path class="st11" d="M268.2,90.9c-0.1,0-0.2,0-0.2,0l-4.5,16.8c0.1,0,0.1,0.1,0.2,0.1L268.2,90.9"/>
<path class="st10" d="M258.7,113.2c-26.4,11.2-27.4,11.7-40.8,18.4c11.5-0.5,23.8-0.5,36.6-0.1c0.9-1.2,1.9-1.9,3.1-2l4-14.9
	C260.2,114.9,259.3,114.5,258.7,113.2 M276.6,112.2c-4.1-0.2-8.1-0.4-12-0.6c-0.6,1.4-1.5,2.3-2.7,2.8l-4,15
	c0.5,0.1,0.8,0.2,1.2,0.4C264.3,124.6,271.3,117.5,276.6,112.2 M303.2,114.2c-8.5-0.8-16.8-1.4-24.8-1.9c-5.6,5.6-13.1,13-18.6,18.6
	c0.1,0.2,0.1,0.4,0.2,0.7c13.1,0.5,26.9,1.4,41.1,2.8l4.5-16.8C303.8,117.3,303,116.1,303.2,114.2 M258.6,111.2
	c-12.5-0.3-24.5-0.3-35.8,0.2l-5.1,18.9c25.9-12.4,25.9-12.4,40.8-18.5C258.6,111.6,258.6,111.4,258.6,111.2"/>
<path class="st11" d="M305.5,117.6l-4.5,16.8h0.1l4.5-16.8C305.6,117.6,305.5,117.6,305.5,117.6"/>
<path class="st11" d="M261.9,114.5c-0.1,0-0.2,0.1-0.3,0.1l-4,14.9c0.1,0,0.1,0,0.2,0L261.9,114.5"/>
<path class="st10" d="M253.7,135c-11.8,4.7-27.5,11.3-39.1,16.6c0,0.1-0.1,0.3-0.1,0.4c11.7-0.4,24.1-0.4,37.1,0l4.1-15.3
	C254.6,136.6,254,136.1,253.7,135 M254.3,131.7c-12.9-0.4-25.3-0.3-36.9,0.2h-0.1l-4.5,16.7c1,0.1,1.4,0.5,1.8,1.6
	c11.6-5.2,27.2-11.9,39.1-16.6C253.7,133.1,253.8,132.5,254.3,131.7 M300.9,134.7c-14.2-1.3-27.9-2.3-41-2.8
	c0.1,2.4-1.8,4.7-4.1,4.9l-4.1,15.3c13.9,0.5,28.6,1.4,43.7,2.9L300.9,134.7"/>
<path class="st11" d="M301,134.7h-0.1l-5.4,20.2h0.1L301,134.7"/>
<path class="st11" d="M255.7,136.8l-4.1,15.3c0.1,0,0.1,0,0.2,0l4.1-15.3C255.8,136.8,255.7,136.8,255.7,136.8"/>
<path class="st10" d="M251.5,152.3c-13-0.4-25.4-0.4-37.1,0c-0.7,2-2,3.4-3.6,3.6l-4.5,16.7c12.5-0.5,25.7-0.6,39.7-0.1L251.5,152.3
	 M295.4,155.2c-15.1-1.4-29.7-2.4-43.7-2.9l-5.4,20.2c14,0.5,28.6,1.4,43.7,2.9L295.4,155.2"/>
<path class="st11" d="M295.5,155.2h-0.1l-5.4,20.2h0.1L295.5,155.2"/>
<path class="st11" d="M251.7,152.3c-0.1,0-0.1,0-0.2,0l-5.4,20.2c0.1,0,0.2,0,0.2,0L251.7,152.3"/>
<path class="st11" d="M210.9,155.9C210.8,155.9,210.8,155.9,210.9,155.9l-4.6,16.7h0.1L210.9,155.9 M217.3,131.9l-0.1,0.1l-4.5,16.6
	h0.1L217.3,131.9 M222.8,111.4C222.8,111.4,222.7,111.4,222.8,111.4l-5.2,19l0.1-0.1L222.8,111.4 M228.3,90.9L228.3,90.9l-5.5,20.2
	h0.1L228.3,90.9 M233.8,70.5L233.8,70.5l-5.5,20.2h0.1L233.8,70.5 M239.3,50L239.3,50l-5.5,20.2h0.1L239.3,50"/>
<path class="st9" d="M147.6,161.6l-5.6,20.9l0.3-0.3c-0.1,0-0.1,0-0.1,0l5.4-20V162l0,0v-0.1L147.6,161.6 M359.1,100.2l-0.3,0.1
	l-5.2,19.4h0.1l-0.1,0.3h-0.1l-5.4,20.2h0.1l-0.1,0.3H348l-5.4,20.2h0.1l-0.1,0.3c-0.1,0-0.1,0-0.1,0l-5.4,20.2
	c-16-2.3-31.7-4.3-46.8-5.7h-0.1h-0.1c-15.1-1.4-29.7-2.4-43.7-2.9c-0.1,0-0.1,0-0.2,0c-13.9-0.5-27.2-0.5-39.7,0.1h-0.1h-0.1
	c-12.5,0.5-24.1,1.6-34.8,3.2c0,0-0.1,0-0.2,0c-7.7,1.1-14.9,2.6-21.6,4.3c-1.8,0.5-3.5,0.9-5.2,1.4l-0.4,0.4c1.8-0.5,3.6-1,5.6-1.5
	c43.9-11.3,111.6-10.1,187.8,1L359.1,100.2 M370.1,59.1l-0.3,0.1l-5.2,19.5h0.1l-0.1,0.3h-0.1l-5.4,20v0.1c0,0,0,0,0.1,0l-0.1,0.2
	v0.4L370.1,59.1 M368.7,58c-75.5-10.9-142.5-12-186.1-0.8c-2.6,0.7-5.1,1.4-7.6,2.1l-27.4,101.8l0.2-0.2l5.2-19.5c0,0,0,0-0.1,0
	l0.1-0.3c0,0,0,0,0.1,0l5.4-20.2c0,0,0,0-0.1,0l0.1-0.3c0,0,0,0,0.1,0l5.4-20.2c0,0,0,0-0.1,0l0.1-0.3c0,0,0,0,0.1,0l5.4-20.2
	c0,0,0,0-0.1,0l0.1-0.3c0,0,0,0,0.1,0l5.4-20.2c2.4-0.7,4.8-1.4,7.4-2.1c6.7-1.7,13.9-3.1,21.6-4.3c0.1,0,0.1,0,0.2,0
	c10.7-1.6,22.4-2.7,34.8-3.2h0.1h0.1c12.5-0.5,25.7-0.6,39.7-0.1c0.1,0,0.1,0,0.2,0c14,0.5,28.6,1.4,43.7,2.9h0.1h0.1
	c14.5,1.4,29.5,3.2,44.9,5.4L368.7,58 M370.4,58.3c-0.1,0-0.1,0-0.2,0l0.1,0.5L370.4,58.3"/>
<path class="st9" d="M147.6,161.9v0.1l0,0V161.9 M177,155.3c-0.1,0-0.1,0-0.1,0s-0.1,0-0.2,0c-7.7,1.2-14.9,2.6-21.6,4.3
	c-2.2,0.6-4.3,1.1-6.3,1.8l-0.4,0.4c2.1-0.6,4.3-1.3,6.6-1.9c6.6-1.7,13.8-3.1,21.5-4.3L177,155.3 M209.1,152.3
	c-10.5,0.5-20.4,1.4-29.6,2.7l-0.4,0.3c9.3-1.3,19.4-2.2,30-2.7C209,152.4,209,152.3,209.1,152.3 M342.7,160.6h-0.1
	c-16-2.3-31.7-4.2-46.8-5.7h-0.1h-0.1c-15.1-1.4-29.8-2.4-43.7-2.9c-0.1,0-0.1,0-0.2,0c-13-0.4-25.4-0.4-37.1,0l-0.1,0.3
	c11.7-0.4,24.1-0.4,37.1,0c0.1,0,0.1,0,0.2,0c13.9,0.5,28.6,1.4,43.7,2.9h0.1h0.1c15.2,1.4,30.8,3.3,46.9,5.7h0.1V160.6"/>
<path class="st9" d="M180,135.2c-6.9,1.1-13.4,2.4-19.4,4c-2.6,0.7-5.1,1.4-7.4,2.1h-0.1l-0.1,0.3c0,0,0,0,0.1,0
	c2.4-0.7,4.8-1.4,7.4-2.1c6-1.6,12.5-2.9,19.4-4C179.9,135.4,179.9,135.3,180,135.2 M215.1,131.8c-10.8,0.5-21,1.4-30.5,2.8
	c0,0.1,0,0.2-0.1,0.3c9.3-1.3,19.4-2.2,30-2.7L215.1,131.8 M254.5,131.5c-12.8-0.4-25-0.3-36.6,0.1l-0.5,0.3h-0.1
	c11.6-0.5,24-0.5,36.9-0.2C254.3,131.7,254.4,131.6,254.5,131.5 M348.2,140.2c-0.1,0-0.1,0-0.1,0c-16-2.3-31.7-4.2-46.8-5.7h-0.1
	h-0.1c-14.2-1.3-27.9-2.3-41.1-2.8v0.3c13.1,0.5,26.8,1.4,41,2.8h0.1h0.1c15.1,1.4,30.8,3.3,46.9,5.7h0.1V140.2"/>
<path class="st9" d="M258.7,111c-12.5-0.3-24.5-0.3-35.8,0.2h-0.1h-0.1c-12.5,0.5-24.2,1.6-34.9,3.2c-0.1,0-0.1,0-0.2,0
	c-7.7,1.2-14.9,2.6-21.6,4.3c-2.6,0.7-5.1,1.4-7.4,2.1c0,0,0,0-0.1,0l-0.1,0.3c0,0,0,0,0.1,0c2.4-0.7,4.8-1.4,7.4-2.1
	c6.7-1.7,13.9-3.1,21.6-4.3c0.1,0,0.1,0,0.2,0c10.7-1.6,22.4-2.6,34.8-3.2h0.1h0.1c11.3-0.5,23.3-0.5,35.8-0.2L258.7,111
	 M353.7,119.7c-0.1,0-0.1,0-0.1,0c-14.9-2.2-29.5-4-43.7-5.4c0,0.1-0.1,0.2-0.1,0.3c14.2,1.4,28.8,3.2,43.7,5.4c0.1,0,0.1,0,0.1,0
	L353.7,119.7"/>
<path class="st9" d="M297.3,92.2c-9.9-0.8-19.6-1.3-29-1.6c-0.1,0-0.2,0-0.2,0c-14-0.5-27.2-0.4-39.7,0.1h-0.1h-0.1
	c-12.5,0.5-24.1,1.6-34.8,3.2c0,0-0.1,0-0.2,0c-7.7,1.1-14.9,2.6-21.6,4.3c-2.6,0.7-5.1,1.4-7.4,2.1c0,0,0,0-0.1,0l-0.1,0.3l0,0
	c2.4-0.7,4.9-1.4,7.4-2.1c6.7-1.7,13.9-3.1,21.6-4.3c0.1,0,0.1,0,0.2,0c10.7-1.6,22.4-2.6,34.8-3.2h0.1h0.1
	c12.5-0.5,25.7-0.6,39.7-0.1c0.1,0,0.2,0,0.2,0c9.3,0.3,18.9,0.9,28.8,1.6L297.3,92.2 M357.7,99c-15.6-2.3-30.8-4.1-45.5-5.5h-0.1
	H312c-4.4-0.4-8.7-0.8-13-1.1l-0.3,0.3c4.3,0.3,8.7,0.7,13.2,1.1h0.1h0.1c14.5,1.4,29.5,3.2,44.9,5.4L357.7,99 M359.2,99.2
	L359.2,99.2l-0.1,0.2L359.2,99.2"/>
<path class="st9" d="M314.6,72.7c-14.1-1.3-27.7-2.2-40.8-2.6c-0.1,0-0.2,0-0.2,0c-13.9-0.5-27.2-0.4-39.7,0.1h-0.1h-0.1
	c-12.5,0.5-24.2,1.6-34.9,3.2c0,0-0.1,0-0.2,0c-7.7,1.2-14.9,2.6-21.6,4.3c-2.6,0.7-5.1,1.4-7.4,2.1c0,0,0,0-0.1,0l-0.1,0.3
	c0,0,0,0,0.1,0c2.4-0.7,4.8-1.4,7.4-2.1c6.7-1.7,13.9-3.1,21.6-4.3c0.1,0,0.1,0,0.2,0c10.7-1.6,22.4-2.6,34.8-3.2h0.1h0.1
	c12.5-0.5,25.7-0.5,39.7-0.1c0.1,0,0.2,0,0.2,0c13,0.4,26.6,1.3,40.7,2.6L314.6,72.7 M364.7,78.7h-0.1c-14.4-2.1-28.6-3.9-42.3-5.2
	l-0.6,0.2c13.9,1.4,28.2,3.2,42.8,5.3c0.1,0,0.1,0,0.1,0L364.7,78.7"/>
<path class="st9" d="M138.7,184.5c-0.7,0.1,0.3-3.3,0.9-4.1c0.3-0.4,0.5-0.4,0.5-0.2C140.3,180.9,139.4,184.3,138.7,184.5
	 M140.1,179.5c-0.6,0.2-1.1,1.1-1.6,2.8c-0.2,0.7-0.7,2.7-0.1,2.8c1,0.2,2.5-4.5,2.1-5.4C140.3,179.5,140.2,179.5,140.1,179.5"/>
<path class="st9" d="M143.8,159.7c-0.1,0-0.2,0.1-0.3,0.1l-0.7,0.8l-0.1,0.5l0.6-0.7l0,0l-1.3,4.7c0.1,0,0.2-0.1,0.3-0.1
	L143.8,159.7"/>
<path class="st9" d="M144.2,163.9c-0.7,0.1,0.3-3.3,0.9-4.1c0.3-0.4,0.5-0.4,0.5-0.2C145.8,160.3,144.9,163.7,144.2,163.9
	 M145.6,159c-0.6,0.2-1.1,1.1-1.6,2.8c-0.2,0.7-0.7,2.7-0.1,2.8c1,0.2,2.5-4.5,2.1-5.4C145.9,158.9,145.7,159,145.6,159"/>
<path class="st9" d="M149,139.2c-0.2,0.1-0.5,0.2-0.9,0.8c0,0.1,0,0.3,0,0.5c0.6-0.8,0.9-0.8,1-0.5c0.1,0.8-0.8,2.3-1.8,3.8
	l-0.4,0.7l-0.1,0.4c0.5-0.2,1.1-0.4,1.6-0.6l0.2-0.6c-0.4,0.1-0.8,0.3-1.1,0.4l0,0C150.8,138.9,149.1,139.1,149,139.2
	C149.1,139.1,149.1,139.2,149,139.2"/>
<path class="st9" d="M149.8,143.4c-0.7,0.1,0.3-3.3,0.9-4.1c0.3-0.4,0.5-0.4,0.5-0.2C151.3,139.8,150.4,143.2,149.8,143.4
	 M151.1,138.4c-1.2,0.6-2.4,5.1-1.8,5.5c0.8,0.5,2.6-3.9,2.2-5.3C151.5,138.4,151.3,138.4,151.1,138.4"/>
<path class="st9" d="M154.5,118.6c-0.3,0.1-0.6,0.4-0.8,0.7c0,0.1,0,0.3,0,0.5c0.4-0.6,0.8-0.7,0.9-0.4c0.1,0.3-0.2,1.3-0.9,1.6
	c-0.1,0-0.1,0-0.2,0.1l-0.2,0.5c0.1,0,0.1,0,0.2-0.1c0.7-0.2,0.5,0.8,0.1,1.5c-0.3,0.6-0.8,0.8-1.1,0.5c-0.1,0.2-0.2,0.4-0.2,0.6
	c0.6,0.7,1.9-0.8,2-2.3c0-0.4-0.1-0.6-0.3-0.7l0,0c0.9-0.9,1.2-2.5,0.6-2.5C154.6,118.6,154.6,118.6,154.5,118.6"/>
<path class="st9" d="M155.3,122.8c-0.7,0.1,0.3-3.3,0.9-4.1c0.3-0.4,0.5-0.4,0.5-0.2C156.9,119.2,156,122.6,155.3,122.8
	 M156.7,117.9c-1.2,0.5-2.4,5.1-1.8,5.5c0.8,0.5,2.6-3.9,2.2-5.3C157,117.9,156.9,117.8,156.7,117.9"/>
<path class="st9" d="M158.6,101.7L158.6,101.7c1.1-2,1.1-2,1.5-2.9l0,0c-0.1,0.3-0.2,0.5-0.2,0.8l-0.5,1.8
	C159.2,101.5,158.9,101.6,158.6,101.7 M160.6,98c-0.1,0-0.2,0.1-0.4,0.1l-2,3.8l-0.1,0.5c0.4-0.1,0.8-0.3,1.2-0.4l-0.4,1.4
	c0.1,0,0.2-0.1,0.3-0.1l0.4-1.4c0.1,0,0.2-0.1,0.4-0.1l0.1-0.6c-0.1,0-0.2,0.1-0.4,0.1L160.6,98"/>
<path class="st9" d="M160.8,102.3c-0.7,0.1,0.3-3.3,0.9-4.1c0.3-0.4,0.5-0.4,0.5-0.2C162.4,98.7,161.5,102.1,160.8,102.3
	 M162.2,97.3c-0.6,0.2-1.1,1.1-1.6,2.8c-0.2,0.7-0.7,2.7-0.1,2.8c1,0.2,2.5-4.5,2.1-5.4C162.4,97.3,162.3,97.3,162.2,97.3"/>
<path class="st9" d="M166.3,77.4c-0.4,0.1-0.8,0.3-1.2,0.4c-0.3,0.8-0.6,1.8-0.9,2.6c0.3-0.2,1.2-0.6,0.8,0.9
	c-0.3,1.1-1,1.5-1.3,1.1c-0.1,0.2-0.2,0.4-0.3,0.6c0.6,0.7,2-1.1,2.1-2.7c0-0.3,0-1-0.8-0.6l0.5-1.4c0.3-0.1,0.6-0.2,1-0.3
	L166.3,77.4"/>
<path class="st9" d="M166.4,81.8c-0.7,0.1,0.3-3.3,0.9-4.1c0.3-0.4,0.5-0.4,0.5-0.2C167.9,78.1,167,81.5,166.4,81.8 M167.7,76.8
	c-0.6,0.2-1.1,1.1-1.6,2.7c-0.2,0.7-0.7,2.7-0.1,2.8c1,0.2,2.5-4.5,2.1-5.4C168,76.8,167.8,76.8,167.7,76.8"/>
<path class="st9" d="M154.1,184.9c-0.1,0-0.2,0.1-0.3,0.1l-0.8,0.7l-0.1,0.5l0.6-0.6l0,0l-1.2,4.4c0.1,0,0.3-0.1,0.4-0.1
	L154.1,184.9"/>
<path class="st9" d="M185.9,180.1c-0.2,0-0.6,0.1-1.1,0.6c0,0.1,0,0.3,0,0.5c0.7-0.7,1.3-0.7,1.3,0c0,1-0.9,2-2.1,3.2l-0.5,0.5
	l-0.1,0.4c0.7-0.1,1.5-0.1,2.2-0.2l0.1-0.6c-0.5,0-1,0.1-1.6,0.1l0,0C188.1,180.5,185.9,180.1,185.9,180.1
	C186,180,186,180,185.9,180.1"/>
<path class="st9" d="M223.4,178.4c-0.6,0-0.9,0.2-1.1,0.4c0,0.1,0,0.3,0,0.5c0.7-0.5,1.5-0.5,1.4,0.3c-0.1,0.5-0.5,1-1.1,1
	c-0.1,0-0.2,0-0.3,0l-0.1,0.5c0.1,0,0.2,0,0.3,0c1.2,0,0.8,1.2,0.4,1.6c-0.4,0.4-1.1,0.4-1.6,0c-0.1,0.2-0.2,0.4-0.3,0.5
	c0.9,0.9,2.8,0,2.9-1.5c0-0.3,0-0.8-0.6-0.9l0,0c1.2-0.5,1.5-2,0.6-2.3C223.7,178.4,223.6,178.4,223.4,178.4"/>
<path class="st9" d="M263.6,182.9L263.6,182.9c1.6-1.7,1.6-1.7,2.1-2.4l0,0c-0.1,0.3-0.1,0.5-0.2,0.8L265,183
	C264.6,182.9,264.1,182.9,263.6,182.9 M266.4,179.9c-0.2,0-0.4,0-0.6,0L263,183l-0.1,0.5c0.7,0,1.4,0.1,2,0.1l-0.4,1.3
	c0.2,0,0.4,0,0.6,0l0.4-1.4c0.2,0,0.4,0,0.6,0l0.1-0.5c-0.2,0-0.4,0-0.6,0L266.4,179.9"/>
<path class="st9" d="M312.3,184.3c-0.8-0.1-1.5-0.2-2.2-0.3c-0.3,0.7-0.7,1.7-1,2.4c2.4-0.1,1.8,1.4,1.4,1.8c-0.6,0.6-1.5,0.5-2,0
	c-0.1,0.2-0.2,0.4-0.3,0.5c1.1,1,3.4,0.2,3.4-1.6c0-0.6-0.5-1.2-1.7-1.2l0.5-1.3c0.6,0.1,1.2,0.1,1.8,0.2L312.3,184.3"/>
<path class="st7" d="M195.1,143.4c-5.4,3.6-12.7,8.2-18.1,11.9l-0.5,0.3l0,0c-20.8,14.8-22.5,16-34.2,26.6l-0.3,0.3l-0.1,0.1
	l-0.1,1.3l2.2-1.9l0.4-0.4c19.3-15.8,19.6-16.2,31.8-24.4l0.2-0.1l0.1-0.1l2.5-1.7l0.4-0.3l16.8-10.9L195.1,143.4 M258.5,111.8
	c-26.4,11.3-27.4,11.7-40.8,18.5l-0.1,0.1l-0.1,0.1l-0.2,0.1l-2.3,1.2l-0.5,0.3l-18,10.4l1.2,0.7c5.8-3.3,13.4-7.9,19.3-11.1
	l0.1-0.1l0.1-0.1h0.1h0.1l0.5-0.3c25.9-12.4,25.9-12.4,40.8-18.4C258.5,112.6,258.5,112.3,258.5,111.8 M278.1,110.8
	c-4.5-0.3-8.9-0.5-13.2-0.6c0,0.5-0.1,1-0.3,1.5c4,0.1,8,0.3,12,0.6L278.1,110.8 M303.7,112.7c-8.1-0.7-16.1-1.3-23.9-1.8l-1.5,1.4
	c8.1,0.5,16.4,1.1,24.8,1.9C303.3,113.6,303.4,113.2,303.7,112.7 M359.1,98.6l-1.3,0.3l-0.7,0.2c-30.9,8.1-31.5,8.2-47.2,13
	c0.1,0.3,0.2,0.7,0.2,1.4c30.2-8.8,30.8-9,48.8-13.4l0.3-0.1h0.2v-0.4v-0.4V99v-0.1L359.1,98.6"/>
<path class="st8" d="M253.6,133.6c-11.8,4.8-27.4,11.4-39.1,16.6c0.1,0.4,0.1,0.7,0,1.4c11.6-5.2,27.3-11.8,39.1-16.6
	C253.6,134.7,253.5,134.3,253.6,133.6 M179.8,136c-20.6,15-21.8,15.8-31.9,25l-0.2,0.2l-0.1,0.1v0.3v0.3v0.1v0.2v0.4l0.9-0.8
	l0.4-0.4c19.3-16.1,19.3-16.1,31-24.1C179.7,137,179.7,136.6,179.8,136 M184.4,135.3c-0.2,0.6-0.4,0.9-0.8,1.4l11.4,6.7l1.1,0.7
	c3.9,2.3,9.1,5.4,13,7.6c0.2-0.6,0.4-0.9,0.8-1.4l-12.3-7.2l-1.2-0.7L184.4,135.3 M314.1,76.4c-5,4.7-11.8,11-16.8,15.8l-0.3,0.3
	c-5.7,5.5-13.3,12.8-18.9,18.3l-1.5,1.5c-5.3,5.3-12.4,12.4-17.6,17.7c0.3,0.2,0.5,0.5,0.7,1c5.6-5.6,13-13.1,18.6-18.6l1.5-1.4
	c5.7-5.5,13.2-12.8,19-18.3l0.3-0.3c4.8-4.5,11.1-10.4,15.9-14.9C314.6,77.2,314.3,77,314.1,76.4 M370.1,57.6l-1.4,0.4l-0.6,0.2
	c-30.1,8.6-31.3,9-47.6,14.4c0.1,0.3,0.2,0.7,0.2,1.4l1-0.3l0.6-0.2c29.7-9.4,30.2-9.5,47.5-14.2l0.3-0.1l0.2-0.1l-0.1-0.4l-0.1-0.5
	V57.6"/>
<path class="st12" d="M317.8,72.3c-2.1-0.1-3.3,2.6-2.1,3.8c1.2,1.3,3.6-0.2,3.6-2.1C319.2,73.1,318.6,72.4,317.8,72.3"/>
<path class="st8" d="M316.7,76.5c-1.8-0.3-1.8-2.6-0.4-3.7s3.1-0.3,3,1.4C319.1,75.5,317.9,76.6,316.7,76.5 M318.2,70.8
	c-3.2-0.3-5.7,4.1-3.7,6.4c0.4,0.5,1,0.8,1.8,0.9c3.2,0.2,5.7-4.1,3.7-6.4C319.5,71.1,318.9,70.8,318.2,70.8"/>
<path class="st12" d="M257.3,131c-2,0.1-3.1,2.7-2,3.8c1.1,1.2,3.3-0.4,3.3-2.3C258.6,131.7,258.1,131.1,257.3,131"/>
<path class="st8" d="M256.2,135.3c-1.7-0.2-1.7-2.4-0.3-3.7c1.3-1.2,2.9-0.5,2.7,1.2C258.5,134.1,257.3,135.3,256.2,135.3
	 M257.7,129.5c-3-0.1-5.4,4.6-3.5,6.6c1.8,1.9,5.6-0.6,5.7-3.9C260,130.7,259.1,129.6,257.7,129.5"/>
<path class="st12" d="M212.3,150.1c-1.8,0.2-2.9,3.1-1.8,4c1.1,0.9,3-1,2.9-2.8C213.4,150.6,212.9,150.1,212.3,150.1"/>
<path class="st8" d="M211.2,154.4c-1.5,0-1.4-2.3-0.1-3.6c1.1-1.1,2.5-0.7,2.4,0.8C213.4,152.9,212.2,154.3,211.2,154.4
	 M212.7,148.6c-2.8,0.2-5.1,5.2-3.1,6.8c0.3,0.3,0.7,0.4,1.2,0.4c2.8-0.2,5.1-5.1,3.2-6.8C213.5,148.7,213,148.6,212.7,148.6"/>
<path class="st12" d="M182.8,132.9c-1.7,0.4-2.6,3.5-1.6,4.1c1.1,0.6,2.9-2,2.5-3.5C183.5,133,183.2,132.8,182.8,132.9"/>
<path class="st8" d="M181.7,137.1c-1.3,0.1-1.1-2.1,0-3.5c0.9-1.1,1.9-1,2,0.2C183.8,135.1,182.7,136.9,181.7,137.1 M183.2,131.4
	c-2.6,0.5-4.7,5.9-2.8,7.1c1.8,1.1,5-3.4,4.2-6C184.3,131.3,183.5,131.3,183.2,131.4"/>
<path class="st12" d="M262.3,109c-1.9,0.1-3.1,2.7-2,3.8c1.1,1.2,3.3-0.4,3.3-2.3C263.6,109.6,263,109,262.3,109"/>
<path class="st7" d="M261.2,113.2c-1.7-0.2-1.6-2.5-0.3-3.6c1.3-1.2,2.9-0.5,2.7,1.2C263.4,112,262.3,113.2,261.2,113.2
	 M262.7,107.5c-3.4,0.1-5.3,5-3.3,6.7c2,1.8,5.6-1,5.6-4.2C264.9,108.3,263.7,107.5,262.7,107.5"/>
<path class="st12" d="M307.1,111.9c-2.1-0.1-3.3,2.6-2.1,3.8c1.2,1.3,3.6-0.2,3.6-2.1C308.6,112.7,308,112,307.1,111.9"/>
<path class="st7" d="M306,116.1c-1.8-0.3-1.8-2.6-0.4-3.7s3.1-0.3,3,1.4C308.5,115.1,307.2,116.2,306,116.1 M307.5,110.4
	c-3.2-0.2-5.7,4-3.7,6.3c1.9,2.2,5.9,0.2,6.2-3.1C310.1,111.9,309.1,110.5,307.5,110.4"/>
<g>
	<path class="st13" d="M549.4,355.3L549.4,355.3c-0.1,0.1-0.2,0.2-0.3,0.3l-0.9,0.7l0,0c0.3,0.1,0.6,0.2,0.9,0.3l0.2-0.9
		L549.4,355.3 M462.4,311.9c-0.8-0.2-1.3,1.8-1,2.3c0.2,0.4,1,0.5,1.3-1C462.9,312.5,462.8,312,462.4,311.9 M477.2,310.1
		c-3.2-0.9-6.4-1.9-9.5-2.8l-4.3,16c3.2,0.9,6.4,1.8,9.5,2.7L477.2,310.1 M492.8,314.8c-3.2-1-6.3-1.9-9.5-2.9l-4.3,16
		c3.2,0.9,6.3,1.9,9.5,2.9L492.8,314.8 M502.5,317.8c-3.1-1-6.3-2-9.4-2.9l-4.3,15.9c3.1,1,6.3,1.9,9.4,2.9L502.5,317.8
		 M517.9,322.8c-3.1-1-6.3-2.1-9.4-3.1l-4.3,15.9c3.2,1,6.3,2,9.4,3.1L517.9,322.8 M527.5,326c-3.1-1.1-6.2-2.1-9.3-3.1l-4.3,15.9
		c3.1,1,6.2,2.1,9.3,3.1L527.5,326 M542.8,331.3c-3.1-1.1-6.2-2.2-9.3-3.3l-4.3,16c3.1,1.1,6.2,2.2,9.3,3.3L542.8,331.3
		 M552.2,334.6c-3.1-1.1-6.1-2.2-9.2-3.3l-4.3,15.9c3.1,1.1,6.1,2.2,9.2,3.3L552.2,334.6 M567.3,340.3c-3.1-1.2-6.1-2.3-9.2-3.5
		l-4.3,15.9c3.1,1.1,6.1,2.3,9.2,3.5L567.3,340.3 M576.5,343.8c-3-1.2-6-2.3-9-3.5l-4.3,15.9c3,1.1,6,2.3,9,3.5L576.5,343.8
		 M591.3,349.7c-3-1.2-6-2.4-9-3.6L578,362c3,1.2,6,2.4,9,3.6L591.3,349.7 M466.7,296c-0.8-0.2-1.3,1.8-1,2.3c0.2,0.4,1,0.5,1.3-1
		C467.2,296.6,467,296.1,466.7,296 M481.6,293.9c-3.2-0.9-6.3-1.8-9.5-2.8l-4.3,16c3.2,0.9,6.4,1.8,9.5,2.7L481.6,293.9
		 M497.2,298.5c-3.2-1-6.3-1.9-9.5-2.9l-4.3,16c3.2,0.9,6.3,1.9,9.5,2.9L497.2,298.5 M506.8,301.6c-3.2-1-6.3-2-9.5-2.9l-4.3,16
		c3.2,1,6.3,1.9,9.4,2.9L506.8,301.6 M522.3,306.5c-3.1-1-6.3-2.1-9.4-3.1l-4.3,16c3.2,1,6.3,2,9.4,3.1L522.3,306.5 M531.9,309.7
		c-3.1-1.1-6.2-2.1-9.3-3.1l-4.3,16c3.1,1,6.2,2.1,9.3,3.1L531.9,309.7 M547.2,315.1c-3.1-1.1-6.2-2.2-9.3-3.3l-4.3,16
		c3.1,1.1,6.3,2.2,9.3,3.3L547.2,315.1 M556.6,318.4c-3.1-1.1-6.1-2.2-9.2-3.3l-4.3,16c3.1,1.1,6.1,2.2,9.2,3.3L556.6,318.4
		 M571.6,324.1c-3-1.2-6.1-2.3-9.2-3.5l-4.3,16c3.1,1.1,6.2,2.3,9.2,3.5L571.6,324.1 M580.9,327.6c-3-1.2-6-2.3-9-3.5l-4.3,16
		c3,1.1,6,2.3,9,3.5L580.9,327.6 M595.6,333.5c-3-1.2-6-2.4-9-3.6l-4.3,16c3,1.2,6,2.4,9,3.6L595.6,333.5 M470.9,280.2
		c-0.8-0.2-1.3,1.8-1,2.3c0.2,0.4,1,0.5,1.3-1C471.4,280.7,471.3,280.3,470.9,280.2 M501.5,282.3c-3.2-1-6.3-1.9-9.5-2.9l-1.9,7.1
		c-2-0.6-4-1.2-6.1-1.8l1.9-7.1c-3.2-0.9-6.4-1.8-9.5-2.7l-4.3,16c3.2,0.9,6.4,1.8,9.5,2.7l2.4-8.8c2,0.6,4.1,1.2,6.1,1.8l-2.4,8.8
		c3.2,0.9,6.3,1.9,9.5,2.9L501.5,282.3 M526.7,290.3c-3.1-1-6.3-2.1-9.4-3.1l-1.9,7.1c-2-0.6-4-1.3-6-1.9l1.9-7.1
		c-3.1-1-6.3-2-9.4-2.9l-4.3,16c3.2,1,6.3,1.9,9.5,2.9l2.4-8.8c2,0.6,4,1.3,6,1.9l-2.4,8.8c3.1,1,6.3,2,9.4,3.1L526.7,290.3
		 M551.5,298.8c-8.1-2.9-16.4-5.7-24.6-8.4l-4.3,16c3.1,1,6.2,2.1,9.3,3.1l2.4-8.8c2,0.7,4,1.4,6,2l-2.4,8.8
		c3.1,1.1,6.2,2.2,9.3,3.3L551.5,298.8 M576,307.8c-3.1-1.2-6.1-2.3-9.2-3.5l-1.9,7.1c-1.9-0.7-3.9-1.4-5.9-2.2l1.9-7.1
		c-3-1.1-6.1-2.2-9.2-3.3l-4.3,16c3.1,1.1,6.1,2.2,9.2,3.3l2.4-8.8c1.9,0.7,3.9,1.4,5.9,2.2l-2.4,8.8c3.1,1.1,6.1,2.3,9.2,3.5
		L576,307.8 M600,317.3c-3-1.2-6-2.4-9-3.6l-1.9,7.1c-1.9-0.8-3.8-1.5-5.8-2.3l1.9-7.1c-3-1.2-6-2.3-9-3.5l-4.3,16
		c3,1.1,6,2.3,9,3.5l2.4-8.8c1.9,0.8,3.8,1.5,5.8,2.3l-2.4,8.8c3,1.2,6,2.4,9,3.6L600,317.3 M473,263.8L473,263.8
		c-0.1,0.1-0.3,0.3-0.4,0.4l-1.1,0.8c0.3,0.1,0.7,0.2,1,0.3l0.3-1C472.9,264.1,472.9,263.9,473,263.8 M475.2,264.3
		c-0.8-0.2-1.3,1.8-1,2.3c0.2,0.4,1,0.5,1.3-1C475.7,264.8,475.6,264.4,475.2,264.3 M496.4,263.3c-5.2-1.6-10.4-3.1-15.6-4.5
		l-4.3,15.9c8.4,2.4,16.8,4.9,25.1,7.4l2.7-9.9C499.7,272.6,495.3,268.8,496.4,263.3 M510,267.4L510,267.4c-0.9,2.6-2.7,4.2-5.5,4.7
		l-2.7,10.1c3.2,1,6.3,1.9,9.4,2.9l4.2-15.8c-1.8-0.6-3.7-1.2-5.6-1.7L510,267.4 M531,274.2c-3.1-1-6.3-2.1-9.4-3.1l-4.3,16
		c3.2,1,6.3,2,9.4,3.1L531,274.2 M555.9,282.7c-8.2-2.9-16.4-5.7-24.6-8.4l-4.3,16c8.3,2.7,16.5,5.5,24.6,8.4L555.9,282.7
		 M565.3,286c-3-1.1-6.1-2.2-9.2-3.3l-4.3,15.9c3.1,1.1,6.1,2.2,9.2,3.3L565.3,286 M580.4,291.7c-3.1-1.2-6.1-2.3-9.2-3.5l-4.3,16
		c3.1,1.1,6.1,2.3,9.2,3.5L580.4,291.7 M589.6,295.2c-3-1.2-6-2.3-9-3.5l-4.3,15.9c3,1.1,6,2.3,9,3.5L589.6,295.2 M604.4,301.1
		c-3-1.2-6-2.4-9-3.6l-4.3,15.9c3,1.2,6,2.4,9,3.6L604.4,301.1 M479.5,248.4c-0.8-0.2-1.3,1.8-1,2.3c0.2,0.4,1,0.5,1.3-1
		C480,249,479.9,248.5,479.5,248.4 M510.2,249.9c-8.3-2.6-16.7-5-25.1-7.4l-4.3,16c5.2,1.5,10.4,3,15.6,4.5
		c1.8-5.3,7.5-6.1,11.1-3.2L510.2,249.9 M535.4,257.9c-8.3-2.7-16.6-5.4-24.9-7.9l-2.7,10.1c2.1,2,2.9,4.4,2.3,7.1l0,0V267
		c1.9,0.6,3.7,1.2,5.6,1.7l2.2-8.1c2,0.6,4,1.3,6,1.9l-2.2,8.3c3.1,1,6.3,2,9.4,3.1L535.4,257.9 M560.2,266.5
		c-8.2-2.9-16.4-5.7-24.6-8.4l-4.3,16c8.3,2.7,16.5,5.5,24.6,8.4L560.2,266.5 M575.6,272c-5-1.9-10.1-3.7-15.1-5.5l-4.3,16
		c3.1,1.1,6.1,2.2,9.2,3.3l1.2-4.5c2,0.7,3.9,1.4,5.9,2.1l-1.2,4.5c3.1,1.1,6.2,2.3,9.2,3.5l2.7-9.9
		C578.7,281.6,574.5,277.5,575.6,272 M588.7,277L588.7,277c-0.9,2.6-2.7,4.1-5.3,4.5l-2.7,10c3,1.1,6,2.3,9,3.5l4.2-15.8
		c-1.7-0.7-3.5-1.4-5.2-2V277 M608.7,284.9c-3-1.2-6-2.4-9-3.6l-4.3,16c3,1.2,6,2.4,9,3.6L608.7,284.9 M480.9,232.9
		c-0.2,0-0.5,0-0.7,0.2c-0.4,0.8,0.2,1.4,0.7,1.3c0.5-0.1,0.8-1,0.2-1.4C481.1,233,481,232.9,480.9,232.9 M483.7,232.5
		c-0.8-0.2-1.3,1.8-1,2.3c0.2,0.4,1,0.5,1.3-1C484.2,233.1,484.1,232.6,483.7,232.5 M514.6,233.8c-8.3-2.6-16.7-5-25.1-7.4
		l-4.3,15.9c8.4,2.4,16.7,4.8,25.1,7.4L514.6,233.8 M539.7,241.8c-8.3-2.7-16.6-5.4-24.9-7.9l-4.3,15.9c8.3,2.6,16.6,5.2,24.9,7.9
		L539.7,241.8 M564.6,250.3c-8.1-2.9-16.4-5.7-24.6-8.4l-4.3,16c8.3,2.7,16.5,5.5,24.6,8.4L564.6,250.3 M589.1,259.3
		c-8-3-16.1-6-24.2-8.9l-4.3,16c5.1,1.8,10.1,3.6,15.1,5.5c1.8-5.2,7.3-5.7,10.7-2.6L589.1,259.3 M613.1,268.7
		c-7.8-3.2-15.8-6.3-23.8-9.4l-2.7,10c2,2.1,2.7,4.6,2.2,7.3l0,0v-0.2c1.8,0.7,3.5,1.3,5.2,2l3.3-12.1c1.9,0.8,3.8,1.5,5.8,2.3
		l-3.3,12.2c3,1.2,6,2.4,9,3.7L613.1,268.7 M474.3,330.8v-0.3l0.7-0.1c0.1,0,0.2,0.1,0.3,0.1l-0.7,2.7c-0.1,0-0.2-0.1-0.4-0.1
		l0.6-2.4L474.3,330.8 M547.7,356.4l0.1-0.2l1.7-1.3c0.1,0.1,0.3,0.1,0.4,0.1l-0.5,1.7c0.1,0.1,0.3,0.1,0.4,0.1l-0.1,0.3
		c-0.1,0-0.3-0.1-0.4-0.1l-0.2,0.7c-0.1,0-0.2-0.1-0.3-0.1l0.2-0.7C548.5,356.7,548.1,356.6,547.7,356.4 M572.2,364.9l0.5-1.2
		c0.4,0.2,0.8,0.3,1.2,0.5l-0.1,0.3c-0.3-0.1-0.7-0.3-1-0.4l-0.3,0.6c1.3,0.4,1.1,1.5,0.6,1.8s-1.2,0-1.5-0.4
		c0.1-0.1,0.1-0.2,0.2-0.2c0.5,0.6,1.3,0.5,1.3-0.1C573.2,365.4,572.9,365.1,572.2,364.9 M499.2,338.3c0-0.1-0.1-0.2-0.1-0.3
		c1-0.3,1.8,0.4,1.4,1.2c-0.2,0.4-0.6,0.7-1.3,1l-0.3,0.1c0.4,0.1,0.8,0.3,1.2,0.4L500,341c-0.6-0.2-1.2-0.4-1.8-0.6l0.1-0.2
		c1.4-0.8,1.5-0.8,1.7-1.1c0.1-0.1,0.3-0.7-0.3-0.9C499.8,338.2,499.5,338.1,499.2,338.3 M524,346.3c0-0.1,0-0.2,0-0.3
		c0.7-0.2,1.7,0.3,1.3,1c-0.1,0.3-0.5,0.4-0.6,0.4c0.7,0.4,0.5,1.3-0.2,1.4c-0.4,0.1-1-0.1-1.3-0.5c0-0.1,0.1-0.2,0.2-0.3
		c0.5,0.6,1.3,0.6,1.3-0.1c0-0.2-0.1-0.4-0.6-0.6c-0.1,0-0.1,0-0.2-0.1l0.1-0.3c0.1,0,0.1,0.1,0.2,0.1c0.7,0.2,0.9-0.3,0.7-0.6
		C524.8,346.4,524.4,346.2,524,346.3 M459.1,311.5v-0.4l0.8-0.2c0.1,0,0.3,0.1,0.4,0.1l-0.8,3.1c-0.1,0-0.3-0.1-0.4-0.1l0.7-2.7
		L459.1,311.5 M461.6,314.8c-1.3-0.4-0.7-2.7,0.2-3.1c0.8-0.4,1.9,0.2,1.2,2.2C462.7,314.6,462.2,315,461.6,314.8 M463.2,295.4
		c0-0.1,0-0.2,0-0.3c0.9-0.4,2,0.2,1.7,1.2c-0.2,0.5-0.7,0.8-1.5,1.3l-0.3,0.2c0.5,0.1,1,0.3,1.4,0.4l-0.1,0.4
		c-0.7-0.2-1.4-0.4-2-0.6l0.1-0.3c1.7-0.9,1.7-0.9,1.9-1.3c0.1-0.2,0.4-0.8-0.4-1C463.8,295.3,463.6,295.3,463.2,295.4 M465.9,298.9
		c-1.3-0.5-0.6-2.7,0.2-3.1c0.7-0.3,1.9,0.1,1.3,2C467,298.7,466.5,299.1,465.9,298.9 M467.6,279.5c0-0.1,0-0.2,0-0.3
		c0.9-0.3,2,0.3,1.5,1.1c-0.2,0.3-0.6,0.4-0.7,0.4c0.9,0.5,0.5,1.5-0.2,1.6c-0.5,0.1-1.2-0.1-1.5-0.5c0.1-0.1,0.1-0.2,0.2-0.3
		c0.4,0.5,1.4,0.7,1.5-0.1c0-0.2,0-0.6-0.7-0.8c-0.1,0-0.2,0-0.2-0.1l0.1-0.3c0.1,0,0.2,0.1,0.2,0.1c0.7,0.2,1-0.4,0.8-0.7
		C468.5,279.4,467.9,279.3,467.6,279.5 M470.1,283c-1.3-0.5-0.6-2.7,0.2-3.1c0.7-0.3,1.9,0.1,1.3,2
		C471.3,282.8,470.8,283.2,470.1,283 M471,265.2l0.1-0.3l1.9-1.6c0.2,0,0.3,0.1,0.5,0.1l-0.5,1.9c0.1,0,0.3,0.1,0.4,0.1l-0.1,0.3
		c-0.1,0-0.3-0.1-0.4-0.1l-0.2,0.8c-0.1,0-0.3-0.1-0.4-0.1l0.2-0.8C472,265.5,471.5,265.3,471,265.2 M474.4,267.1
		c-1.2-0.4-0.7-2.7,0.2-3.1c0.7-0.4,1.9,0.2,1.2,2.2C475.5,267,475,267.3,474.4,267.1 M475.8,248.6l0.6-1.4c0.5,0.1,1,0.3,1.5,0.4
		l-0.1,0.3c-0.4-0.1-0.8-0.2-1.2-0.3l-0.3,0.8c1.5,0.2,1.3,1.4,0.8,1.9c-0.6,0.5-1.5,0.1-1.8-0.2c0.1-0.1,0.1-0.2,0.2-0.3
		c0.8,0.7,1.6,0.4,1.6-0.3C477,248.8,476.1,248.7,475.8,248.6 M478.7,251.2c-1.3-0.4-0.6-2.7,0.2-3.1c0.7-0.3,1.9,0.1,1.3,2
		C479.9,251,479.3,251.4,478.7,251.2 M480.5,234.7c-1.4-0.5-0.9-2.4,0.2-2.9c0.4-0.2,0.9-0.2,1.1-0.1l0.3,0.1L482,232
		c-0.4-0.1-1.3-0.2-1.7,0.7l0,0c0.7-0.5,1.7,0,1.6,1C481.8,234.4,481.2,234.9,480.5,234.7 M482.9,235.4c-1.3-0.5-0.6-2.7,0.2-3.1
		c0.7-0.3,1.9,0.1,1.3,2C484.1,235.1,483.6,235.5,482.9,235.4 M463.1,323.5l26.2-97.4c42.4,12,84.5,26.3,124.1,42.5L587.2,366
		C547.6,349.8,505.5,335.5,463.1,323.5 M498.6,193.6l1.8-6.8c2.3,0.7,4.6,1.3,7,2l-1.8,6.8C503.3,194.9,500.9,194.2,498.6,193.6
		 M518.3,199.3l1.8-6.8c2.3,0.7,4.6,1.4,6.9,2.1l-1.8,6.8C522.9,200.7,520.6,200,518.3,199.3 M537.9,205.4l1.8-6.8
		c2.3,0.7,4.6,1.5,6.9,2.2l-1.8,6.8C542.5,206.9,540.2,206.2,537.9,205.4 M557.3,211.8l1.8-6.8c2.3,0.8,4.5,1.5,6.8,2.3l-1.8,6.8
		C561.9,213.4,559.6,212.6,557.3,211.8 M576.6,218.5l1.8-6.8c2.3,0.8,4.5,1.6,6.8,2.4l-1.8,6.8C581.1,220.1,578.8,219.3,576.6,218.5
		 M595.6,225.5l1.8-6.8c2.2,0.8,4.4,1.7,6.6,2.5l-1.8,6.8C600,227.2,597.8,226.4,595.6,225.5 M614.3,232.8l1.8-6.8
		c2.2,0.9,4.3,1.8,6.5,2.6l-1.8,6.8C618.6,234.5,616.5,233.7,614.3,232.8 M503.2,176.7l1.8-6.8c2.3,0.7,4.6,1.3,7,2l-1.8,6.8
		C507.8,178,505.5,177.3,503.2,176.7 M522.9,182.4l1.8-6.8c2.3,0.7,4.6,1.4,6.9,2.1l-1.8,6.8C527.5,183.8,525.2,183.1,522.9,182.4
		 M542.4,188.5l1.8-6.8c2.3,0.7,4.6,1.5,6.9,2.2l-1.8,6.8C547,190,544.7,189.2,542.4,188.5 M561.9,194.9l1.8-6.8
		c2.3,0.8,4.5,1.5,6.8,2.3l-1.8,6.8C566.4,196.4,564.2,195.7,561.9,194.9 M581.1,201.6l1.8-6.8c2.3,0.8,4.5,1.6,6.7,2.4l-1.8,6.8
		C585.6,203.2,583.4,202.4,581.1,201.6 M600.1,208.6l1.8-6.8c2.2,0.8,4.4,1.7,6.6,2.5l-1.8,6.8C604.6,210.3,602.3,209.4,600.1,208.6
		 M618.8,215.9l1.8-6.8c2.2,0.9,4.4,1.7,6.5,2.6l-1.8,6.8C623.2,217.6,621,216.7,618.8,215.9 M507.7,159.7l1.8-6.8
		c2.3,0.7,4.6,1.3,7,2l-1.8,6.8C512.4,161,510,160.4,507.7,159.7 M527.4,165.5l1.8-6.8c2.3,0.7,4.6,1.4,6.9,2.1l-1.8,6.8
		C532,166.9,529.7,166.2,527.4,165.5 M547,171.6l1.8-6.8c2.3,0.7,4.6,1.5,6.9,2.2l-1.8,6.8C551.6,173,549.3,172.3,547,171.6
		 M566.4,178l1.8-6.8c2.3,0.8,4.5,1.6,6.8,2.3l-1.8,6.8C571,179.5,568.7,178.7,566.4,178 M585.7,184.6l1.8-6.8
		c2.3,0.8,4.5,1.6,6.7,2.4l-1.8,6.8C590.2,186.3,587.9,185.4,585.7,184.6 M604.7,191.6l1.8-6.8c2.2,0.8,4.4,1.7,6.6,2.5l-1.8,6.8
		C609.1,193.3,606.9,192.5,604.7,191.6 M623.4,198.9l1.8-6.8c2.2,0.9,4.4,1.7,6.5,2.6l-1.8,6.8C627.8,200.7,625.6,199.8,623.4,198.9
		 M512.3,142.8l1.8-6.8c2.3,0.7,4.6,1.3,7,2l-1.8,6.8C516.9,144.1,514.6,143.4,512.3,142.8 M532,148.5l1.8-6.8
		c2.3,0.7,4.6,1.4,6.9,2.1l-1.8,6.8C536.6,149.9,534.3,149.2,532,148.5 M551.6,154.6l1.8-6.8c2.3,0.7,4.6,1.5,6.9,2.2l-1.8,6.8
		C556.1,156.1,553.9,155.4,551.6,154.6 M571,161l1.8-6.8c2.3,0.8,4.5,1.5,6.8,2.3l-1.8,6.8C575.5,162.6,573.3,161.8,571,161
		 M590.2,167.7l1.8-6.8c2.3,0.8,4.5,1.6,6.7,2.4l-1.8,6.8C594.7,169.3,592.5,168.5,590.2,167.7 M609.2,174.7l1.8-6.8
		c2.2,0.8,4.4,1.7,6.6,2.5l-1.8,6.8C613.7,176.4,611.5,175.5,609.2,174.7 M627.9,182l1.8-6.8c2.2,0.9,4.4,1.8,6.5,2.6l-1.8,6.8
		C632.3,183.7,630.1,182.9,627.9,182 M516.8,125.8l1.8-6.8c2.3,0.7,4.6,1.3,6.9,2l-1.8,6.8C521.5,127.2,519.2,126.5,516.8,125.8
		 M536.5,131.6l1.8-6.8c2.3,0.7,4.6,1.4,6.9,2.1l-1.8,6.8C541.1,133,538.8,132.3,536.5,131.6 M556.1,137.7l1.8-6.8
		c2.3,0.7,4.6,1.5,6.9,2.2l-1.8,6.8C560.7,139.2,558.4,138.4,556.1,137.7 M575.6,144.1l1.8-6.8c2.3,0.8,4.5,1.5,6.8,2.3l-1.8,6.8
		C580.1,145.6,577.8,144.9,575.6,144.1 M594.8,150.8l1.8-6.8c2.3,0.8,4.5,1.6,6.7,2.4l-1.8,6.8C599.3,152.4,597,151.6,594.8,150.8
		 M613.8,157.8l1.8-6.8c2.2,0.8,4.4,1.7,6.6,2.5l-1.8,6.8C618.2,159.5,616,158.6,613.8,157.8 M632.5,165.1l1.8-6.8
		c2.2,0.9,4.4,1.7,6.5,2.6l-1.8,6.8C636.9,166.8,634.7,165.9,632.5,165.1 M521.4,108.9l1.8-6.8c2.3,0.7,4.6,1.3,7,2l-1.8,6.8
		C526,110.2,523.7,109.6,521.4,108.9 M541.1,114.7l1.8-6.8c2.3,0.7,4.6,1.4,6.9,2.1l-1.8,6.8C545.7,116.1,543.4,115.4,541.1,114.7
		 M560.7,120.7l1.8-6.8c2.3,0.7,4.6,1.5,6.9,2.2l-1.8,6.8C565.3,122.2,563,121.5,560.7,120.7 M580.1,127.1l1.8-6.8
		c2.3,0.8,4.5,1.5,6.8,2.3l-1.8,6.8C584.7,128.7,582.4,127.9,580.1,127.1 M599.3,133.8l1.8-6.8c2.3,0.8,4.5,1.6,6.7,2.4l-1.8,6.8
		C603.8,135.4,601.6,134.6,599.3,133.8 M618.4,140.8l1.8-6.8c2.2,0.8,4.4,1.7,6.6,2.5l-1.8,6.8C622.8,142.5,620.6,141.7,618.4,140.8
		 M637.1,148.1l1.8-6.8c2.2,0.9,4.4,1.8,6.5,2.6l-1.8,6.8C641.4,149.9,639.2,149,637.1,148.1 M528.6,82l1.4-5.2
		c43.4,12.3,86.5,27.1,126.9,43.8l-1.4,5.2C615.1,109,572.1,94.3,528.6,82 M531.6,70.9l1.4-5.2c14.1,4,28.1,8.2,42,12.7l-1.4,5.2
		C559.7,79.1,545.7,74.9,531.6,70.9 M681.7,93.1c-3.3-1.5-6.7-2.9-10.1-4.3c-49.9-21-104.1-39-158.2-53.1l-85.2,316.9
		c54.1,14.2,108.3,32.1,158.2,53.1c3.4,1.4,6.8,2.9,10.1,4.3L681.7,93.1"/>
	<path class="st13" d="M742.1,382.1c-0.5,0.7-0.7,0.4-1.1-0.1c-5-5.6-13.5-3.2-18.3,9.3c-3.7,9.8-3.5,24.9,3.3,33.2l0,0
		c3.7,4.2,7.1,3.4,8.8,2.5c0.8-0.4,0.9-0.5,1.2,0.3C745.3,421.8,750.6,394.3,742.1,382.1 M726.9,428.6c-14.2-11.3-8.6-50.2,7.4-52
		c3.4-0.4,8.4,2.4,8,5.1c8.1,11.6,4.3,38.9-6.4,46.3C735.6,430.6,730.5,431.4,726.9,428.6 M741.3,374.6
		c-12.1-8.9-28.2,11.9-24.4,38.5c2.4,16.5,12.8,31.1,23.7,16.5c4.2-5.6,9-17.7,8.9-33.4c-0.5-0.2-0.5-0.2-0.6-2.5
		C748.5,387,746.3,378.5,741.3,374.6 M723.1,432.7c-17.8-21-4.4-64.7,13.6-62.7c19.7,2.2,16.4,51.7,0.5,63.8
		c-3.1,2.3-7.9,4-13.2-1.3C723.3,432.9,723.3,432.8,723.1,432.7 M746.3,370.6c-0.1,0.2-0.4,0.4-0.7,0.4c-17-16.5-33.6,11-33.1,35.7
		c0.2,10.7,3.1,21,7.7,27.4c3.2,4.4,5.9,5.8,7.8,6.4c2.9,1,5.5-1.2,8.3-0.9c0.1,0.1,0.1,0.2,0.2,0.3
		C747.4,436.4,760.8,391,746.3,370.6 M763.5,291.4c-3.4-2.6-7.2-2.3-11.2,0.9c0,1.1-0.2,1.2-1,2c-6.2,6.1-9.2,19.5-6.9,30.4
		c2.8,13.3,10.5,18.4,17.1,11.4c1.7-1.8,4.8-6.1,6.7-14.6l0,0c0.2-0.7,0.4-0.8,0.7-1C770.9,311.8,770.5,297,763.5,291.4
		 M752.1,291.8c10.9-8.6,20.2,5,17.6,25.4c-3.3,25.6-15.4,29.1-22,20.2c-13.2-17.8,0.8-47.1,4-46C751.9,291.4,752,291.5,752.1,291.8
		 M765.1,285.2c-0.3-0.2-0.5-0.4-0.8-0.6c-0.5,0.8-0.5,0.8-1.7,0.2c-8.1-3.9-19.8,6.3-22.3,24.7c-2.8,20.9,6.5,37.7,15.7,36.2
		c0.2,0,0.2,0,6.8-4.1c0.2,0.1,0.4,0.3,0.5,0.4C774.4,328.5,777.3,295,765.1,285.2 M748.7,346.2c-17.9-14.9-11.4-62.1,9-64.7
		c0.1,0,6.8-0.4,6.7,2.6c8.7,5.8,9.9,21.5,8.4,33.3c0,0.3-4.3,29.1-16.8,31C752.5,349,749.7,347.1,748.7,346.2 M766.8,279
		c-5.4-4.1-11.4-3.5-17.8,1.6c0,1.1,0,1.1-1.4,2.4c-8.4,8.2-14.6,27-10.4,47c3.7,17.5,15.3,29.3,25.9,18.1
		c4.5-4.7,8.3-12.9,10.5-23.1l0,0c0.2-0.7,0.2-0.7,0.7-1C778.4,303.6,775.4,286,766.8,279 M786.1,203.4c-10.2-6.2-22.6,11.3-19.2,33
		c0.6,0,0.6,0.1,1,1.8c3,13.7,12.1,17.9,18.5,8.4c7.9-11.7,8.6-33.1,1.2-40.8C786,204.2,786,204.2,786.1,203.4 M786.2,202.9
		c0.2-0.5,0.3-0.5,0.6-0.6c13,9.3,7.3,49.7-7.3,52c-12.5,2-20-29-7.4-46.5C773.7,205.6,779.4,198.8,786.2,202.9 M788.4,197.7
		c-8.5-6.1-18.9,1.3-23.8,16.9c0.4,0.7,0.4,0.7-0.1,3.1c-3.6,14.5,0.2,32.6,8.2,38.6c8.1,6.1,17.3-2.1,21.4-19.2
		C794.1,236.8,801,207.5,788.4,197.7 M764.3,214.4c6.7-21.3,21.7-24.7,28.5-11.8c2.2,4.1,2.9,8.6,3.2,10.6c0.1,0,0.2,0,0.3,0
		c4.2,6.1-2.9,50-19.5,47.7c-17.3-2.3-17.3-42.3-13.2-46.3C763.8,214.4,764.1,214.4,764.3,214.4 M789.4,191
		c-15.9-10.2-35.7,17.4-29.8,50.7c0.7,0.1,0.7,0.2,1,1.6c4.3,19.2,17.5,29.6,28.2,14.3c10.8-15.5,14.5-49.3,3.4-62.7
		C789.4,191.4,789.4,191.4,789.4,191 M755,427.2l1.4-5.2c10.6,11.2,17.4,21.9,20.1,31.6l-1.4,5.2C772.5,449.1,765.7,438.4,755,427.2
		 M758,416.1l1.4-5.2c3.4,3.6,6.5,7.2,9.1,10.7l-1.4,5.2C764.5,423.3,761.5,419.7,758,416.1 M723.5,440.9
		c-21.9-17.6-13.8-74.8,11-77.6c22.6-2.5,23.9,50.9,7,72.7c-2.2,2.8-3.9,4-5,4.8C736.2,443.3,729.6,445.6,723.5,440.9 M778.7,339.4
		l1.4-5.2c10.6,11.2,17.4,21.8,20.1,31.6l-1.4,5.2C796.1,361.2,789.3,350.6,778.7,339.4 M781.7,328.3l1.4-5.2
		c3.4,3.6,6.5,7.2,9.1,10.7l-1.4,5.2C788.1,335.5,785.1,331.9,781.7,328.3 M748.9,280.1c16.9-13.5,30.7,5.4,26.9,36.7
		c-4.3,35.4-20.9,46.3-32.2,32.1c-18.1-22.7-5.8-64.6,4.8-69.3C748.5,279.8,748.8,280,748.9,280.1 M800.6,257.9l1.4-5.2
		c10.6,11.2,17.4,21.8,20.1,31.6l-1.4,5.2C818,279.7,811.2,269.1,800.6,257.9 M803.6,246.8l1.4-5.2c3.5,3.6,6.5,7.2,9.1,10.7
		l-1.4,5.2C810.1,254,807,250.4,803.6,246.8 M789.5,190.6c0.1-0.2,0.4-0.5,0.6-0.6c18.3,11.2,10.4,71.9-10.1,77.3
		c-17.7,4.7-30.9-37.5-15.1-65.6C769,194.3,778.8,183.7,789.5,190.6 M843.2,222c1.6-24-26.1-54.9-79.1-87.1l-85.2,316.9
		c53,32.2,80.7,63.1,79.1,87.1L843.2,222"/>
	<path class="st14" d="M656.9,120.5c-40.4-16.7-83.5-31.4-126.9-43.8l-1.4,5.2c43.4,12.3,86.5,27.1,126.9,43.8L656.9,120.5"/>
	<path class="st14" d="M575.1,78.4c-13.9-4.5-28-8.7-42-12.7l-1.4,5.2c14.1,4,28.1,8.3,42,12.7L575.1,78.4"/>
	<path class="st14" d="M822.1,284.3c-2.7-9.8-9.5-20.4-20.1-31.6l-1.4,5.2c10.6,11.2,17.4,21.8,20.1,31.6L822.1,284.3"/>
	<path class="st14" d="M814.1,252.3c-2.6-3.5-5.7-7.1-9.1-10.7l-1.4,5.2c3.4,3.6,6.5,7.2,9.1,10.7L814.1,252.3"/>
	<path class="st14" d="M800.2,365.8c-2.7-9.8-9.5-20.4-20.1-31.6l-1.4,5.2c10.6,11.2,17.4,21.8,20.1,31.6L800.2,365.8"/>
	<path class="st14" d="M792.2,333.8c-2.6-3.5-5.7-7.1-9.1-10.7l-1.4,5.2c3.4,3.6,6.5,7.2,9.1,10.7L792.2,333.8"/>
	<path class="st14" d="M776.5,453.6c-2.7-9.8-9.5-20.4-20.1-31.6l-1.4,5.2c10.6,11.2,17.4,21.8,20.1,31.6L776.5,453.6"/>
	<path class="st14" d="M768.6,421.6c-2.6-3.5-5.7-7.1-9.1-10.7l-1.4,5.2c3.4,3.6,6.5,7.2,9.1,10.7L768.6,421.6"/>
	<path class="st14" d="M530.2,104.1c-2.3-0.7-4.6-1.3-7-2l-1.8,6.8c2.3,0.7,4.6,1.3,7,2L530.2,104.1"/>
	<path class="st14" d="M549.8,110c-2.3-0.7-4.6-1.4-6.9-2.1l-1.8,6.8c2.3,0.7,4.6,1.4,6.9,2.1L549.8,110"/>
	<path class="st14" d="M569.4,116.2c-2.3-0.8-4.6-1.5-6.9-2.2l-1.8,6.8c2.3,0.7,4.6,1.5,6.9,2.2L569.4,116.2"/>
	<path class="st15" d="M588.7,122.7c-2.3-0.8-4.5-1.6-6.8-2.3l-1.8,6.8c2.3,0.8,4.5,1.5,6.8,2.3L588.7,122.7"/>
	<path class="st15" d="M607.9,129.5c-2.2-0.8-4.5-1.6-6.7-2.4l-1.8,6.8c2.3,0.8,4.5,1.6,6.7,2.4L607.9,129.5"/>
	<path class="st16" d="M626.8,136.6c-2.2-0.8-4.4-1.7-6.6-2.5l-1.8,6.8c2.2,0.8,4.4,1.7,6.6,2.5L626.8,136.6"/>
	<path class="st16" d="M645.4,144c-2.2-0.9-4.4-1.8-6.5-2.6l-1.8,6.8c2.2,0.9,4.4,1.8,6.5,2.6L645.4,144"/>
	<path class="st15" d="M525.6,121.1c-2.3-0.7-4.6-1.3-6.9-2l-1.8,6.8c2.3,0.7,4.6,1.3,7,2L525.6,121.1"/>
	<path class="st15" d="M545.3,126.9c-2.3-0.7-4.6-1.4-6.9-2.1l-1.8,6.8c2.3,0.7,4.6,1.4,6.9,2.1L545.3,126.9"/>
	<path class="st15" d="M564.8,133.1c-2.3-0.7-4.6-1.5-6.9-2.2l-1.8,6.8c2.3,0.7,4.6,1.5,6.9,2.2L564.8,133.1"/>
	<path class="st15" d="M584.2,139.6c-2.3-0.8-4.5-1.6-6.8-2.3l-1.8,6.8c2.3,0.8,4.5,1.5,6.8,2.3L584.2,139.6"/>
	<path class="st15" d="M603.3,146.4c-2.2-0.8-4.5-1.6-6.7-2.4l-1.8,6.8c2.3,0.8,4.5,1.6,6.7,2.4L603.3,146.4"/>
	<path class="st16" d="M622.3,153.5c-2.2-0.9-4.4-1.7-6.6-2.5l-1.8,6.8c2.2,0.8,4.4,1.7,6.6,2.5L622.3,153.5"/>
	<path class="st16" d="M640.9,160.9c-2.2-0.9-4.4-1.8-6.5-2.6l-1.8,6.8c2.2,0.9,4.4,1.8,6.5,2.6L640.9,160.9"/>
	<path class="st15" d="M521.1,138c-2.3-0.7-4.6-1.3-7-2l-1.8,6.8c2.3,0.7,4.6,1.3,7,2L521.1,138"/>
	<path class="st15" d="M540.7,143.9c-2.3-0.7-4.6-1.4-6.9-2.1l-1.8,6.8c2.3,0.7,4.6,1.4,6.9,2.1L540.7,143.9"/>
	<path class="st8" d="M560.2,150.1c-2.3-0.7-4.6-1.5-6.9-2.2l-1.8,6.8c2.3,0.7,4.6,1.5,6.9,2.2L560.2,150.1"/>
	<path class="st8" d="M579.6,156.6c-2.3-0.8-4.5-1.6-6.8-2.3L571,161c2.3,0.8,4.5,1.5,6.8,2.3L579.6,156.6"/>
	<path class="st15" d="M598.8,163.4c-2.2-0.8-4.5-1.6-6.7-2.4l-1.8,6.8c2.3,0.8,4.5,1.6,6.7,2.4L598.8,163.4"/>
	<path class="st16" d="M617.7,170.5c-2.2-0.9-4.4-1.7-6.6-2.5l-1.8,6.8c2.2,0.8,4.4,1.7,6.6,2.5L617.7,170.5"/>
	<path class="st16" d="M636.3,177.8c-2.2-0.9-4.3-1.8-6.5-2.6L628,182c2.2,0.9,4.4,1.8,6.5,2.6L636.3,177.8"/>
	<path class="st17" d="M516.5,154.9c-2.3-0.7-4.6-1.3-7-2l-1.8,6.8c2.3,0.7,4.6,1.3,7,2L516.5,154.9"/>
	<path class="st15" d="M536.2,160.8c-2.3-0.7-4.6-1.4-6.9-2.1l-1.8,6.8c2.3,0.7,4.6,1.4,6.9,2.1L536.2,160.8"/>
	<path class="st15" d="M555.7,167c-2.3-0.7-4.6-1.5-6.9-2.2l-1.8,6.8c2.3,0.7,4.6,1.5,6.9,2.2L555.7,167"/>
	<path class="st15" d="M575.1,173.5c-2.3-0.8-4.5-1.6-6.8-2.3l-1.8,6.8c2.3,0.8,4.5,1.5,6.8,2.3L575.1,173.5"/>
	<path class="st15" d="M594.2,180.3c-2.2-0.8-4.5-1.6-6.7-2.4l-1.8,6.8c2.3,0.8,4.5,1.6,6.7,2.4L594.2,180.3"/>
	<path class="st16" d="M613.2,187.4c-2.2-0.9-4.4-1.7-6.6-2.5l-1.8,6.8c2.2,0.8,4.4,1.7,6.6,2.5L613.2,187.4"/>
	<path class="st16" d="M631.7,194.8c-2.2-0.9-4.3-1.8-6.5-2.6l-1.8,6.8c2.2,0.9,4.4,1.8,6.5,2.6L631.7,194.8"/>
	<path class="st15" d="M512,171.9c-2.3-0.7-4.6-1.3-7-2l-1.8,6.8c2.3,0.7,4.6,1.3,7,2L512,171.9"/>
	<path class="st15" d="M531.6,177.7c-2.3-0.7-4.6-1.4-6.9-2.1l-1.8,6.8c2.3,0.7,4.6,1.4,6.9,2.1L531.6,177.7"/>
	<path class="st15" d="M551.1,183.9c-2.3-0.7-4.6-1.5-6.9-2.2l-1.8,6.8c2.3,0.7,4.6,1.5,6.9,2.2L551.1,183.9"/>
	<path class="st15" d="M570.5,190.4c-2.3-0.8-4.5-1.6-6.8-2.3l-1.8,6.8c2.3,0.8,4.5,1.6,6.8,2.3L570.5,190.4"/>
	<path class="st15" d="M589.7,197.2c-2.2-0.8-4.5-1.6-6.7-2.4l-1.8,6.8c2.3,0.8,4.5,1.6,6.7,2.4L589.7,197.2"/>
	<path class="st16" d="M608.6,204.3c-2.2-0.8-4.4-1.7-6.6-2.5l-1.8,6.8c2.2,0.8,4.4,1.7,6.7,2.5L608.6,204.3"/>
	<path class="st16" d="M627.2,211.7c-2.2-0.9-4.3-1.8-6.5-2.6l-1.8,6.8c2.2,0.9,4.4,1.8,6.5,2.6L627.2,211.7"/>
	<path class="st15" d="M507.4,188.8c-2.3-0.7-4.6-1.3-7-2l-1.8,6.8c2.3,0.7,4.6,1.3,7,2L507.4,188.8"/>
	<path class="st15" d="M527,194.7c-2.3-0.7-4.6-1.4-6.9-2.1l-1.8,6.8c2.3,0.7,4.6,1.4,6.9,2.1L527,194.7"/>
	<path class="st15" d="M546.6,200.9c-2.3-0.7-4.6-1.5-6.9-2.2l-1.8,6.8c2.3,0.7,4.6,1.5,6.9,2.2L546.6,200.9"/>
	<path class="st15" d="M566,207.4c-2.3-0.8-4.5-1.6-6.8-2.3l-1.8,6.8c2.3,0.8,4.5,1.5,6.8,2.3L566,207.4"/>
	<path class="st15" d="M585.1,214.2c-2.2-0.8-4.5-1.6-6.8-2.4l-1.8,6.8c2.3,0.8,4.5,1.6,6.7,2.4L585.1,214.2"/>
	<path class="st14" d="M604,221.3c-2.2-0.8-4.4-1.7-6.6-2.5l-1.8,6.8c2.2,0.8,4.4,1.7,6.7,2.5L604,221.3"/>
	<path class="st14" d="M622.6,228.6c-2.2-0.9-4.3-1.8-6.5-2.6l-1.8,6.8c2.2,0.9,4.4,1.8,6.5,2.6L622.6,228.6"/>
	<path class="st15" d="M460.3,311.1c-0.1,0-0.2-0.1-0.4-0.1l-0.8,0.2v0.4l0.6-0.1L459,314c0.2,0,0.3,0.1,0.4,0.1L460.3,311.1"/>
	<path class="st15" d="M461.7,314.5c-0.9-0.3-0.2-2.2,0.3-2.5c0.4-0.2,1.1,0.1,0.6,1.5C462.4,314.2,462.1,314.6,461.7,314.5
		 M462.5,311.6c-1.4-0.3-2,1.9-1.5,2.8c0.4,0.6,1.7,0.9,2.1-1.1C463.3,312.4,463.1,311.8,462.5,311.6"/>
	<path class="st15" d="M464.2,295c-0.2-0.1-0.6-0.1-1,0.1c0,0.1,0,0.2,0,0.3c0.7-0.3,1.5,0.1,1.2,0.8c-0.2,0.4-0.6,0.7-1.6,1.2
		l-0.4,0.2l-0.1,0.3c0.7,0.2,1.3,0.4,2,0.6l0.1-0.4c-0.5-0.1-1-0.3-1.4-0.4c0.9-0.4,1.5-0.8,1.8-1.3c0.2-0.5,0.2-1.1-0.5-1.3
		C464.3,295,464.2,295,464.2,295"/>
	<path class="st15" d="M466,298.6c-0.9-0.3-0.2-2.2,0.3-2.5c0.3-0.2,1.1,0,0.6,1.6C466.7,298.3,466.4,298.7,466,298.6 M466.8,295.7
		c-1.4-0.3-2,1.9-1.5,2.8c0.4,0.6,1.7,0.9,2.1-1.1C467.6,296.5,467.4,295.9,466.8,295.7"/>
	<path class="st15" d="M468.4,279.1c-0.4-0.1-0.7,0-0.9,0c0,0.1,0,0.2,0,0.3c0.5-0.2,1.3,0.1,1.1,0.6c-0.1,0.3-0.4,0.4-0.8,0.3
		c-0.1,0-0.2-0.1-0.2-0.1l-0.1,0.3c0.1,0,0.2,0.1,0.3,0.1c0.9,0.3,0.7,1,0.3,1.2c-0.4,0.2-1-0.1-1.2-0.4c-0.1,0.1-0.1,0.2-0.2,0.3
		c0.6,0.7,2.1,0.8,2.2-0.3c0-0.2-0.1-0.6-0.5-0.8c0.9-0.1,1-0.9,0.5-1.3C468.8,279.3,468.6,279.2,468.4,279.1"/>
	<path class="st15" d="M470.2,282.7c-0.8-0.3-0.3-2.2,0.3-2.5c0.4-0.2,1.1,0.1,0.6,1.5C471,282.5,470.6,282.8,470.2,282.7
		 M471,279.8c-1.4-0.3-2,2-1.5,2.8c0.4,0.6,1.7,0.9,2.1-1.1C471.9,280.6,471.6,280,471,279.8"/>
	<path class="st15" d="M471.5,265c1.2-1,1.2-1,1.4-1.2l0,0c0,0.2-0.1,0.3-0.1,0.5l-0.3,1C472.2,265.2,471.9,265.1,471.5,265
		 M473.5,263.5c-0.2,0-0.3-0.1-0.5-0.1l-1.9,1.6l-0.1,0.3c0.5,0.1,1,0.3,1.5,0.4l-0.2,0.8c0.1,0,0.3,0.1,0.4,0.1l0.2-0.8
		c0.1,0,0.3,0.1,0.4,0.1l0.1-0.3c-0.1,0-0.3-0.1-0.4-0.1L473.5,263.5"/>
	<path class="st15" d="M474.5,266.8c-0.9-0.3-0.2-2.2,0.3-2.5c0.4-0.2,1.1,0.1,0.6,1.5C475.2,266.6,474.9,266.9,474.5,266.8
		 M475.3,264c-1.4-0.3-2,1.9-1.5,2.8c0.4,0.6,1.7,0.9,2.1-1.1C476.2,264.7,475.9,264.1,475.3,264"/>
	<path class="st15" d="M477.9,247.7c-0.5-0.1-1-0.3-1.5-0.4c-0.2,0.4-0.4,1-0.6,1.4c1.8,0.3,1.1,1.3,0.9,1.4c-0.4,0.3-1,0.1-1.3-0.2
		c0,0.1-0.1,0.2-0.2,0.3c0.6,0.7,2.2,0.6,2.2-0.5c0-0.5-0.3-0.9-0.9-1.1h-0.3l0.3-0.8c0.4,0.1,0.8,0.2,1.2,0.3L477.9,247.7"/>
	<path class="st15" d="M478.8,250.9c-0.9-0.3-0.2-2.2,0.3-2.5c0.3-0.2,1.1,0,0.6,1.6C479.5,250.7,479.2,251,478.8,250.9
		 M479.6,248.1c-1.4-0.3-2,1.9-1.4,2.8c0.4,0.6,1.7,0.9,2.1-1.1C480.4,248.9,480.2,248.2,479.6,248.1"/>
	<path class="st15" d="M480.6,234.3c-0.2-0.1-0.6-0.2-0.5-1.1c0.1-0.1,0.2-0.4,0.7-0.4c0.2,0,0.5,0.1,0.6,0.5
		C481.6,233.8,481.2,234.5,480.6,234.3 M482.1,231.7c-2.5-0.5-2.6,2-2.3,2.5c0.5,0.8,1.7,0.7,2-0.3s-0.8-1.6-1.5-1.2
		c0,0-0.1,0-0.1,0.1l0,0c0.3-0.6,0.8-0.8,1.4-0.8l0.3,0.1L482.1,231.7"/>
	<path class="st15" d="M483.1,235c-0.8-0.3-0.3-2.2,0.3-2.5c0.4-0.2,1.1,0.1,0.6,1.5C483.8,234.8,483.4,235.1,483.1,235
		 M483.9,232.2c-1.4-0.3-2,2-1.5,2.8c0.4,0.6,1.7,0.9,2.1-1.1C484.7,233,484.5,232.4,483.9,232.2"/>
	<path class="st15" d="M475.3,330.4c-0.1,0-0.2-0.1-0.3-0.1l-0.7,0.1v0.3l0.6-0.1l-0.6,2.4c0.1,0,0.2,0.1,0.4,0.1L475.3,330.4"/>
	<path class="st15" d="M500,337.9c-0.3-0.1-0.6-0.1-0.9,0c0,0.1,0,0.2,0.1,0.3c0.6-0.2,1.2,0.1,1,0.7c-0.2,0.4-0.6,0.6-1.4,1
		l-0.4,0.2l-0.1,0.2c0.6,0.2,1.2,0.4,1.8,0.6l0.1-0.3c-0.4-0.1-0.8-0.3-1.2-0.4c1.1-0.5,1.4-0.8,1.6-1.2
		C500.7,338.8,500.8,338.2,500,337.9"/>
	<path class="st15" d="M524.7,346.1c-0.3-0.1-0.6-0.1-0.8,0c0,0.1,0,0.2,0,0.3c0.7-0.2,1.2,0.3,0.9,0.7c0,0.1-0.2,0.3-0.7,0.1
		c-0.1,0-0.1,0-0.2-0.1l-0.1,0.3c0.1,0,0.1,0.1,0.2,0.1c0.8,0.3,0.6,1,0.3,1.1s-0.7,0-1-0.4c-0.1,0.1-0.1,0.2-0.2,0.3
		c0.7,0.7,1.8,0.6,1.9-0.2c0-0.2,0-0.5-0.4-0.8c0.8-0.1,0.8-0.8,0.5-1.1C525.1,346.2,524.9,346.2,524.7,346.1"/>
	<path class="st15" d="M548.2,356.3L548.2,356.3c1-0.7,1-0.7,1.2-1l0,0l-0.1,0.4l-0.2,0.9C548.7,356.5,548.4,356.4,548.2,356.3
		 M549.8,355c-0.1-0.1-0.3-0.1-0.4-0.1l-1.7,1.3l-0.1,0.2c0.4,0.2,0.8,0.3,1.3,0.5l-0.2,0.7c0.1,0,0.2,0.1,0.3,0.1l0.2-0.7
		c0.1,0,0.3,0.1,0.4,0.1l0.1-0.3c-0.1-0.1-0.3-0.1-0.4-0.1L549.8,355"/>
	<path class="st15" d="M573.9,364.2c-0.4-0.2-0.8-0.3-1.2-0.5c-0.2,0.4-0.4,0.9-0.5,1.2c1.4,0.3,0.9,1.2,0.8,1.3
		c-0.4,0.2-0.8-0.1-1.1-0.3c0,0.1-0.1,0.2-0.2,0.2c0.5,0.7,1.7,0.8,1.9-0.2c0.1-0.7-0.7-1.1-0.7-1.1l-0.2-0.1l0.3-0.6
		c0.3,0.1,0.7,0.3,1,0.4L573.9,364.2"/>
	<path class="st15" d="M589.1,259.3v-0.1c0.1,0,0.2,0.1,0.2,0.1v0.1c8,3.1,15.9,6.2,23.8,9.4l-4.3,16h0.1l-0.1,0.2
		c0,0-0.1,0-0.1-0.1l-4.3,16h0.1l-0.1,0.2h-0.1L600,317h0.1l-0.1,0.2h-0.1l-4.3,16h0.1l-0.1,0.2h-0.1l-4.3,16c0,0,0.1,0,0.1,0.1
		l-0.1,0.2h-0.1l-4.3,16c-3-1.2-6-2.4-9-3.6v0.1c-1.9-0.8-3.8-1.5-5.8-2.3v-0.1c-3-1.2-6-2.3-9-3.5v0.1c-0.1,0-0.2-0.1-0.2-0.1v-0.1
		c-3.1-1.2-6.1-2.3-9.2-3.5v0.1c-1.9-0.7-3.9-1.4-5.9-2.2v-0.1c-3-1.1-6.1-2.2-9.2-3.3v0.1c-0.1,0-0.2-0.1-0.2-0.1v-0.1
		c-3.1-1.1-6.2-2.2-9.3-3.3v0.1c-2-0.7-4-1.4-6-2v-0.1c-3.1-1.1-6.2-2.1-9.3-3.1v0.1c-0.1,0-0.2-0.1-0.3-0.1l0.1-0.1
		c-3.1-1-6.3-2.1-9.4-3.1v0.1c-2-0.6-4-1.3-6-1.9v-0.1c-3.1-1-6.3-2-9.4-2.9v0.1c-0.1,0-0.2-0.1-0.3-0.1v-0.1
		c-3.2-1-6.3-1.9-9.5-2.9v0.1c-2-0.6-4-1.2-6.1-1.8v-0.1c-3.2-0.9-6.3-1.8-9.5-2.7l4.3-16h-0.1l0.1-0.2h0.1l4.3-16h-0.1l0.1-0.2h0.1
		l4.3-16h-0.1l0.1-0.2h0.1l4.3-15.9h-0.1l0.1-0.3h0.1l4.3-16h-0.1l0.1-0.2c0.1,0,0.1,0,0.1,0l4.3-15.9c8.4,2.4,16.7,4.8,25.1,7.4
		v-0.1c0.1,0,0.2,0.1,0.3,0.1v0.1c8.3,2.6,16.6,5.2,24.9,7.9v-0.1c0.1,0,0.2,0.1,0.2,0.1v0.1c8.3,2.7,16.5,5.5,24.6,8.4v-0.1
		c0.1,0,0.2,0.1,0.2,0.1v0.1C573,253.2,581.1,256.2,589.1,259.3 M613.4,268.6c-39.6-16.2-81.6-30.5-124.1-42.5l-26.2,97.4
		c42.4,12,84.5,26.3,124.1,42.5L613.4,268.6"/>
	<path class="st15" d="M477.3,309.9c-3.2-0.9-6.4-1.8-9.5-2.7h-0.1l-0.1,0.2h0.1c3.2,0.9,6.4,1.8,9.5,2.8L477.3,309.9 M492.9,314.5
		c-3.2-1-6.3-1.9-9.5-2.9l-0.1,0.2c3.2,0.9,6.3,1.9,9.5,2.9L492.9,314.5 M502.5,317.5c-3.1-1-6.3-2-9.4-2.9l-0.1,0.2
		c3.1,1,6.3,1.9,9.4,2.9L502.5,317.5 M518,322.5c-3.1-1-6.3-2.1-9.4-3.1l-0.1,0.2c3.1,1,6.3,2,9.4,3.1L518,322.5 M527.6,325.7
		c-3.1-1-6.2-2.1-9.3-3.1l-0.1,0.2c3.1,1,6.2,2.1,9.3,3.1L527.6,325.7 M542.9,331c-3.1-1.1-6.2-2.2-9.3-3.3l-0.1,0.2
		c3.1,1.1,6.2,2.2,9.3,3.3L542.9,331 M552.3,334.4c-3-1.1-6.1-2.2-9.2-3.3l-0.1,0.2c3.1,1.1,6.1,2.2,9.2,3.3L552.3,334.4 M567.4,340
		c-3.1-1.2-6.1-2.3-9.2-3.5l-0.1,0.2c3.1,1.1,6.2,2.3,9.2,3.5L567.4,340 M576.6,343.6c-3-1.2-6-2.3-9-3.5l-0.1,0.2
		c3,1.1,6,2.3,9,3.5L576.6,343.6 M591.5,349.5c0,0-0.1,0-0.1-0.1c-3-1.2-6-2.4-9-3.6l-0.1,0.2c3,1.2,6,2.4,9,3.6h0.1L591.5,349.5"/>
	<path class="st15" d="M481.7,293.7c-3.2-0.9-6.4-1.8-9.5-2.7h-0.1l-0.1,0.2h0.1c3.2,0.9,6.4,1.8,9.5,2.8L481.7,293.7 M497.2,298.3
		c-3.2-1-6.3-1.9-9.5-2.9l-0.1,0.2c3.2,0.9,6.3,1.9,9.5,2.9L497.2,298.3 M506.9,301.3c-3.1-1-6.3-2-9.5-2.9l-0.1,0.2
		c3.2,1,6.3,1.9,9.5,2.9L506.9,301.3 M522.4,306.3c-3.1-1-6.3-2.1-9.4-3.1l-0.1,0.2c3.1,1,6.3,2,9.4,3.1L522.4,306.3 M531.9,309.5
		c-3.1-1.1-6.2-2.1-9.3-3.1l-0.1,0.2c3.1,1,6.2,2.1,9.3,3.1L531.9,309.5 M547.2,314.8c-3.1-1.1-6.2-2.2-9.3-3.3l-0.1,0.2
		c3.1,1.1,6.2,2.2,9.3,3.3L547.2,314.8 M556.7,318.2c-3-1.1-6.1-2.2-9.2-3.3l-0.1,0.2c3.1,1.1,6.1,2.2,9.2,3.3L556.7,318.2
		 M571.7,323.8c-3.1-1.2-6.1-2.3-9.2-3.5l-0.1,0.2c3.1,1.1,6.1,2.3,9.2,3.5L571.7,323.8 M580.9,327.4c-3-1.2-6-2.3-9-3.5l-0.1,0.2
		c3,1.1,6,2.3,9,3.5L580.9,327.4 M595.8,333.3L595.8,333.3c-3.1-1.2-6.1-2.4-9.1-3.6l-0.1,0.2c3,1.2,6,2.4,9,3.6h0.1L595.8,333.3"/>
	<path class="st15" d="M501.6,282.1c-8.3-2.6-16.7-5-25.1-7.4h-0.1l-0.1,0.2h0.1c3.2,0.9,6.4,1.8,9.5,2.7v-0.1
		c2,0.6,4.1,1.2,6.1,1.8v0.1c3.2,0.9,6.3,1.9,9.5,2.9L501.6,282.1 M511.3,285.1c-3.1-1-6.3-2-9.4-2.9l-0.1,0.2
		c3.2,1,6.3,1.9,9.4,2.9L511.3,285.1 M526.7,290.1c-3.1-1-6.3-2.1-9.4-3.1l-0.1,0.2c3.1,1,6.3,2,9.4,3.1L526.7,290.1 M551.6,298.6
		c-8.1-2.9-16.4-5.7-24.6-8.4l-0.1,0.2c8.3,2.7,16.5,5.5,24.6,8.4L551.6,298.6 M561,302c-3.1-1.1-6.1-2.2-9.2-3.3l-0.1,0.2
		c3.1,1.1,6.1,2.2,9.2,3.3L561,302 M576.1,307.6c-3.1-1.2-6.1-2.3-9.2-3.5l-0.1,0.2c3.1,1.1,6.2,2.3,9.2,3.5L576.1,307.6
		 M585.3,311.2c-3-1.2-6-2.3-9-3.5l-0.1,0.2c3,1.1,6,2.3,9,3.5L585.3,311.2 M600.2,317.1L600.2,317.1c-3.1-1.2-6.1-2.4-9.1-3.6
		l-0.1,0.2c3,1.2,6,2.4,9,3.6h0.1L600.2,317.1"/>
	<path class="st15" d="M496.5,263c-5.2-1.5-10.4-3.1-15.6-4.5h-0.1l-0.1,0.3h0.1c5.2,1.5,10.4,3,15.6,4.5
		C496.4,263.2,496.4,263.1,496.5,263 M510.1,267.2L510.1,267.2c0,0.1,0,0.2-0.1,0.2l0,0L510.1,267.2 M531.1,273.9
		c-3.1-1-6.3-2.1-9.4-3.1l-0.1,0.2c3.2,1,6.3,2,9.4,3.1L531.1,273.9 M556,282.4c-8.2-2.9-16.4-5.7-24.6-8.4l-0.1,0.2
		c8.3,2.7,16.5,5.5,24.6,8.4L556,282.4 M565.4,285.8c-3-1.1-6.1-2.2-9.2-3.3l-0.1,0.2c3.1,1.1,6.1,2.2,9.2,3.3L565.4,285.8
		 M580.4,291.4c-3.1-1.2-6.1-2.3-9.2-3.5l-0.1,0.2c3.1,1.1,6.1,2.3,9.2,3.5L580.4,291.4 M589.6,295c-3-1.2-6-2.3-9-3.5l-0.1,0.2
		c3,1.1,6,2.3,9,3.5L589.6,295 M604.5,300.9L604.5,300.9c-3.1-1.2-6.1-2.4-9.1-3.6l-0.1,0.2c3,1.2,6,2.4,9,3.6h0.1L604.5,300.9"/>
	<path class="st15" d="M510.3,249.7c-8.4-2.6-16.7-5-25.1-7.4h-0.1l-0.1,0.2h0.1c8.4,2.4,16.8,4.8,25.1,7.4L510.3,249.7
		 M535.4,257.7c-8.3-2.7-16.6-5.4-24.9-7.9l-0.1,0.2c8.3,2.6,16.6,5.2,24.9,7.9L535.4,257.7 M560.3,266.2
		c-8.2-2.9-16.4-5.7-24.6-8.4l-0.1,0.2c8.3,2.7,16.5,5.5,24.6,8.4L560.3,266.2 M575.7,271.8c-5-1.9-10.1-3.7-15.1-5.5l-0.1,0.2
		c5.1,1.8,10.1,3.6,15.1,5.5C575.6,271.9,575.7,271.9,575.7,271.8 M588.8,276.7L588.8,276.7c0,0.1-0.1,0.2-0.1,0.2l0,0v-0.1
		L588.8,276.7 M608.9,284.7L608.9,284.7c-3.1-1.2-6.1-2.4-9.1-3.7l-0.1,0.2c3,1.2,6,2.4,9,3.6c0,0,0.1,0,0.1,0.1L608.9,284.7"/>
	<path class="st15" d="M583.4,281.5h-0.3l-2.7,9.9l-0.1,0.2l-4.3,15.9l-0.1,0.2l-4.3,16l-0.1,0.2l-4.3,16l-0.1,0.2l-4.3,15.9v0.1
		c0.1,0,0.2,0.1,0.2,0.1v-0.1l4.3-15.9l0.1-0.2l4.3-16l0.1-0.2l4.3-16l0.1-0.2l4.3-15.9l0.1-0.2L583.4,281.5 M589.4,259.2
		c-0.1,0-0.2-0.1-0.2-0.1v0.1l-2.7,9.9c0.1,0.1,0.1,0.1,0.2,0.2l2.7-10V259.2"/>
	<path class="st15" d="M564.9,250.2c-0.1,0-0.2-0.1-0.2-0.1v0.1l-4.3,16l-0.1,0.2l-4.3,16l-0.1,0.2l-4.3,15.9l-0.1,0.2l-4.3,16
		l-0.1,0.2l-4.3,16l-0.1,0.2l-4.3,16v0.1c0.1,0,0.2,0.1,0.2,0.1v-0.1l4.3-15.9l0.1-0.2l4.3-16l0.1-0.2l4.3-16l0.1-0.2l4.3-15.9
		l0.1-0.2l4.3-16l0.1-0.2l4.3-16V250.2"/>
	<path class="st15" d="M540,241.7c-0.1,0-0.2-0.1-0.2-0.1v0.1l-4.3,15.9l-0.1,0.2l-4.3,16L531,274l-4.3,15.9l-0.1,0.2l-4.3,16
		l-0.1,0.2l-4.3,16l-0.1,0.2l-4.3,16l-0.1,0.1c0.1,0,0.2,0.1,0.3,0.1v-0.1l4.3-15.9l0.1-0.2l4.3-16l0.1-0.2l4.3-16l0.1-0.2l4.3-16
		l0.1-0.2l4.3-16l0.1-0.2L540,241.7L540,241.7"/>
	<path class="st15" d="M504.5,272.1h-0.3l-2.7,9.9l-0.1,0.2l-4.3,16l-0.1,0.2l-4.3,16l-0.1,0.2l-4.3,16v0.1c0.1,0,0.2,0.1,0.2,0.1
		v-0.1l4.3-15.9l0.1-0.2l4.3-16l0.1-0.2l4.3-16l0.1-0.2L504.5,272.1 M514.9,233.7c-0.1,0-0.2-0.1-0.3-0.1v0.1l-4.3,15.9l-0.1,0.2
		l-2.7,9.9c0.1,0.1,0.1,0.1,0.2,0.2l2.7-10.1l0.1-0.2L514.9,233.7L514.9,233.7"/>
	<path class="st17" d="M490.1,286.6c-2-0.6-4-1.2-6.1-1.8l-2.4,8.8l-0.1,0.2l-4.3,16l-0.1,0.2l-4.3,15.9v0.1c2,0.6,4.1,1.2,6.1,1.8
		v-0.1l4.3-16l0.1-0.2l4.3-16l0.1-0.2L490.1,286.6"/>
	<path class="st7" d="M515.3,294.4c-2-0.6-4-1.3-6-1.9l-2.4,8.8l-0.1,0.2l-4.3,16l-0.1,0.2l-4.3,15.9v0.1c2,0.6,4,1.3,6,1.9v-0.1
		l4.3-15.9l0.1-0.2l4.3-16l0.1-0.2L515.3,294.4"/>
	<path class="st8" d="M540.3,302.7c-2-0.7-4-1.4-6-2l-2.4,8.8l-0.1,0.2l-4.3,16l-0.1,0.2l-4.3,16v0.1c2,0.7,4,1.4,6,2v-0.1l4.3-16
		l0.1-0.2l4.3-16l0.1-0.2L540.3,302.7"/>
	<path class="st17" d="M564.9,311.5c-1.9-0.7-3.9-1.4-5.9-2.2l-2.4,8.8l-0.1,0.2l-4.3,16l-0.1,0.2l-4.3,15.9v0.1
		c2,0.7,3.9,1.4,5.9,2.2v-0.1l4.3-15.9l0.1-0.2l4.3-16l0.1-0.2L564.9,311.5"/>
	<path class="st8" d="M589.1,320.8c-1.9-0.8-3.8-1.5-5.8-2.3l-2.4,8.8l-0.1,0.2l-4.3,16l-0.1,0.2l-4.3,15.9v0.1
		c1.9,0.8,3.8,1.5,5.8,2.3v-0.1l4.3-15.9l0.1-0.2l4.3-16l0.1-0.2L589.1,320.8"/>
	<path class="st17" d="M492.1,279.4c-2-0.6-4.1-1.2-6.1-1.8v0.1l-1.9,7.1c2,0.6,4.1,1.2,6.1,1.8l1.9-7.1V279.4"/>
	<path class="st7" d="M523.9,262.5c-2-0.6-4-1.3-6-1.9l-2.2,8.1l-0.2,0.6l-4.2,15.8l-0.1,0.2l-1.9,7.1c2,0.6,4,1.3,6,1.9l1.9-7.1
		l0.1-0.2l4.3-16l0.1-0.2L523.9,262.5"/>
	<path class="st17" d="M572.4,283.5c-1.9-0.7-3.9-1.4-5.9-2.1l-1.2,4.5l-0.1,0.2l-4.3,16l-0.1,0.2l-1.9,7.1c1.9,0.7,3.9,1.4,5.9,2.2
		l1.9-7.1l0.1-0.2l4.3-16l0.1-0.2L572.4,283.5"/>
	<path class="st8" d="M603,268.8c-1.9-0.8-3.8-1.5-5.8-2.3l-3.3,12.1h0.1l-0.2,0.6c0,0,0,0-0.1,0l-4.2,15.8l-0.1,0.2l-4.3,15.9
		l-0.1,0.2l-1.9,7.1c1.9,0.8,3.8,1.5,5.8,2.3l1.9-7.1l0.1-0.2l4.3-15.9l0.1-0.2l4.3-16l0.1-0.2L603,268.8"/>
	<path class="st7" d="M502.4,263.1L502.4,263.1c-0.2,0.2-0.4,0.3-0.5,0.5l-1.5,1.1l0,0c0.5,0.1,1,0.3,1.4,0.4l0.4-1.4
		C502.3,263.5,502.3,263.3,502.4,263.1 M499.7,265l0.1-0.4l2.6-2.1c0.2,0.1,0.4,0.1,0.6,0.2l-0.7,2.6c0.2,0.1,0.4,0.1,0.6,0.2
		l-0.1,0.5c-0.2-0.1-0.4-0.1-0.6-0.2l-0.3,1.2c-0.2-0.1-0.4-0.1-0.6-0.2l0.3-1.2C501,265.4,500.4,265.2,499.7,265 M503.8,265.1
		l0.8-2c0.7,0.2,1.4,0.4,2.1,0.6l-0.1,0.5c-0.5-0.2-1.1-0.3-1.6-0.5c-0.2,0.3-0.3,0.7-0.5,1c1.8,0.3,2,1.9,1.1,2.6
		c-0.8,0.6-2.1,0.1-2.5-0.4c0.1-0.1,0.2-0.3,0.3-0.4c1,1,2.2,0.6,2.2-0.4C505.4,265.4,504.4,265.2,503.8,265.1 M505,258.5
		c-6.8-1.7-10.8,4.9-7.8,10c3.2,5.5,11.3,4.7,12.9-1.2C511.1,263.2,508.3,259.5,505,258.5"/>
	<path class="st18" d="M500.4,264.7L500.4,264.7c1.6-1.3,1.6-1.3,2-1.6l0,0c-0.1,0.2-0.1,0.4-0.2,0.7l-0.4,1.4
		C501.4,265,500.9,264.9,500.4,264.7 M503.1,262.7c-0.2-0.1-0.4-0.1-0.6-0.2l-2.6,2.1l-0.1,0.4c0.7,0.2,1.3,0.4,2,0.6l-0.3,1.2
		c0.2,0.1,0.4,0.1,0.6,0.2l0.3-1.2c0.2,0.1,0.4,0.1,0.6,0.2l0.1-0.5c-0.2-0.1-0.4-0.1-0.6-0.2L503.1,262.7"/>
	<path class="st18" d="M506.7,263.8c-0.7-0.2-1.4-0.4-2.1-0.6c-0.3,0.6-0.6,1.4-0.8,2c2.7,0.6,1.3,1.9,1.3,1.9
		c-0.5,0.4-1.3,0.1-1.8-0.4c-0.1,0.1-0.2,0.3-0.3,0.4c1,1.1,3,0.9,3.1-0.7c0-0.8-0.6-1.4-1.6-1.6l0.5-1c0.5,0.2,1.1,0.3,1.6,0.5
		L506.7,263.8"/>
	<path class="st7" d="M515.7,268.8c-1.9-0.6-3.7-1.2-5.6-1.7v0.2l-0.1,0.2v0.2c1.8,0.6,3.7,1.2,5.6,1.7L515.7,268.8"/>
	<path class="st8" d="M583.8,274.9c-1.1-0.1-1.2,1-0.8,1.4c0.5,0.5,1.4,0.5,1.5-0.4C584.5,275.3,583.8,274.9,583.8,274.9 M584.4,273
		c-0.8-0.3-1.1,0.5-0.9,0.9c0.1,0.3,0.5,0.6,0.5,0.6c0.2,0,0.7-0.1,0.8-0.5C585,273.8,585,273.3,584.4,273 M579.5,273l0.8-1.9
		c0.7,0.3,1.3,0.5,2,0.8l-0.1,0.5c-0.5-0.2-1.1-0.4-1.6-0.6c-0.1,0.3-0.3,0.7-0.4,1c1.9,0.4,1.8,2.2,0.9,2.8c-0.8,0.5-2-0.2-2.3-0.6
		c0.1-0.1,0.2-0.3,0.3-0.4c0.8,0.9,2,0.9,2.1-0.2C581.1,273.4,579.9,273.1,579.5,273 M583.3,277c-1.6-0.7-1.3-2.1-0.4-2.4
		c0.2-0.1,0.4-0.1,0.5-0.1l0,0c-0.9-1-0.3-2,0.7-1.9c1.3,0,1.9,1.4,1.2,2.1c-0.2,0.2-0.5,0.2-0.7,0.3l0,0c1.1,1,0.5,2.2-0.5,2.2
		C583.8,277.1,583.5,277.1,583.3,277 M584,267.7c-6.5-2.1-10.5,4.4-7.7,9.7c3,5.6,10.6,5.4,12.4-0.4
		C589.8,273.3,587.6,269,584,267.7"/>
	<path class="st18" d="M582.3,271.9c-0.7-0.2-1.3-0.5-2-0.8c-0.3,0.6-0.6,1.4-0.8,1.9c1.9,0.4,1.8,1.6,1.2,2s-1.4-0.1-1.8-0.5
		c-0.1,0.1-0.2,0.3-0.3,0.4c0.9,1,2.9,1.1,3-0.5c0-0.8-0.6-1.5-1.5-1.7l0.4-1c0.5,0.2,1.1,0.4,1.6,0.6L582.3,271.9"/>
	<path class="st18" d="M583.4,276.6c-1-0.4-0.7-1.4-0.1-1.6c0.5-0.2,0.6,0,0.9,0.3c0.1,0.1,0.4,0.5,0.2,1
		C584.3,276.6,583.9,276.8,583.4,276.6 M584.1,274.5c-1.1-0.8-0.5-1.5-0.1-1.5c0.1,0,0.6,0,0.8,0.4c0.1,0.2,0.1,0.6,0,0.8
		C584.5,274.5,584.1,274.5,584.1,274.5 M584.5,272.6c-1.3-0.5-1.9,0.7-1.5,1.4c0.1,0.2,0.2,0.4,0.3,0.5l0,0
		c-1.4,0.1-1.4,1.5-0.6,2.2c1.1,0.9,2.5,0.4,2.3-0.8c-0.1-0.5-0.4-0.8-0.6-0.9l0,0c1.3-0.2,1.2-1.5,0.4-2
		C584.8,272.8,584.7,272.7,584.5,272.6"/>
	<path class="st19" d="M594.1,278.6L594.1,278.6c-1.8-0.7-3.6-1.4-5.3-2.1v0.2v0.1v0.1l-0.1,0.2c1.8,0.7,3.5,1.4,5.2,2h0.1
		L594.1,278.6"/>
	<path class="st20" d="M789.5,190.6c-16.2-10.4-36.3,17.6-30.2,51.4c0.1-0.1,0.2-0.1,0.2-0.2c-5.6-37.5,15.4-59.9,29.8-50.7
		C789.5,190.9,789.5,190.7,789.5,190.6"/>
	<path class="st20" d="M788.5,197.2c-8.6-6.2-19.3,1.4-24.2,17.2c0.1,0,0.2,0.1,0.3,0.2c7.1-21.4,21.4-24.3,28.1-11.6
		c2.1,4,2.9,8.5,3.2,10.4c0.1-0.1,0.2-0.2,0.2-0.2C794.9,205.5,792.3,200.2,788.5,197.2"/>
	<path class="st20" d="M786.2,202.9c-10.4-6.3-23,11.5-19.6,33.7l0.1-0.1c-0.3-12.9-0.5-18.2,4.5-26.6c0.7-1.2,6.9-11.3,14.9-6.4
		C786.1,203.2,786.1,203.1,786.2,202.9"/>
	<path class="st7" d="M790.4,190c-0.1,0-0.3,0-0.4,0c-0.2,0.2-1.4,1.5,0.2,2.9c12.3,10.7,10.9,41.6,1.6,60
		c-10.7,21.1-26.3,12.2-31.1-9.5c-0.3-1.4-0.3-1.5-1-1.6c-3.6,2.6,6.2,24.4,16.5,25.8c19.4,2.6,32.7-54.4,17.4-74.3
		C792,191.2,790.6,190.1,790.4,190"/>
	<path class="st17" d="M796.4,213.2c-1.2-0.4-0.9,2-0.8,3.1c1.8,16-5.1,41.3-17,42c-10.4,0.7-19.3-20.5-13.8-42.2
		c0.3-1.1-0.3-1.8-0.6-1.8c-0.2,0-0.4,0.1-0.5,0.3c-0.9,1.1-5.2,20,2.1,35.7c7.7,16.4,20.5,13.5,27.5-6.2
		C798.7,228.6,796.9,213.6,796.4,213.2"/>
	<path class="st8" d="M787.1,202.4c-1-0.3-1.1,1.5-0.9,2.1c0.1,0.3,0.6,0.6,0.8,0.9c2.7,2.3,4.3,6.8,5,10.3c1.1,5.9,0.9,12-0.4,18.3
		c-2.8,12.8-9.3,20.1-15.5,17.3c-2.2-1-6.3-4.1-8.4-14c-0.3-1.2-1.5-1-1.5,0.8c0,0.2,0.6,3,1.6,5.8c4.6,12.4,14.7,15.6,21.7,0.3
		C795.7,230.8,795.7,208.9,787.1,202.4"/>
	<path class="st20" d="M766.9,278.5c-3.7-2.8-9.8-4.9-18,1.6c0.1,0.1,0.1,0.3,0.1,0.4c17.3-13.2,30.8,6.4,26.3,38.1
		c-0.3,2.2-0.7,4.1-0.9,5.4c0.1,0,0.1,0.1,0.2,0.1C778,307.9,777.1,286.7,766.9,278.5"/>
	<path class="st20" d="M765.2,284.7c-0.3-0.2-0.5-0.4-0.8-0.6c-0.1,0.4-0.1,0.5,0.3,0.8c11.7,7.9,10.8,42.1-1.4,57.3
		c0,0.1,0,0.2,0.1,0.3C772.7,333.6,779.4,296.1,765.2,284.7"/>
	<path class="st20" d="M763.6,290.9c-3.5-2.7-7.3-2.4-11.4,0.9c0.1,0.2,0.1,0.2,0.1,0.4c11.6-8.8,19.6,6.5,17.2,24.9
		c-0.2,1.4-0.4,2.6-0.6,3.5c0.1,0,0.1,0,0.1,0.1C770.7,314.7,771.5,297.3,763.6,290.9"/>
	<path class="st17" d="M748.6,279.8c-0.1,0-0.3-0.1-0.4-0.1c-20.3,15.9-16.9,72.3,4.6,75.4c14.1,2,23.1-28.6,21.8-30.9
		c-0.1,0-0.3,0-0.4,0c-0.3,0.4-0.3,0.4-0.5,0.9l0,0c-5.9,26.5-20.7,35.7-31,19.3c-11.1-17.7-8.4-48.9,5.4-61.7
		C749.9,280.9,748.6,279.8,748.6,279.8"/>
	<path class="st7" d="M764,282.8c-16.7-8.5-31.9,24.9-23.2,51c6.9,20.9,19.9,15,22.3,10.1c0,0,0.6-1.2-0.1-2.1
		c-0.4,0-0.9,0.5-1.2,0.8c-2.4,2.4-6.3,4.8-11.2,2.1c-1.5-0.8-6.4-4.2-9.3-14.7c-3.9-14.3-0.7-31.8,7.4-40.7
		c6.7-7.4,12.6-5,13.7-4.5C765.2,286.1,764.1,282.8,764,282.8"/>
	<path class="st8" d="M751.9,291.4c-2.7-1-15.6,20.7-6.7,41.4c5.7,13.3,15.9,12,21.9-2.8c0.1-0.3,3.4-8.5,1.9-9.3
		c-0.3,0.1-0.5,0.2-0.7,1l0,0c-3.8,17-13.9,23.1-20.4,12.4c-6.2-10.2-5.8-30.4,4-40.1C752.4,293.1,752.4,291.7,751.9,291.4"/>
	<path class="st20" d="M746.4,370.1c0,0.1-0.1,0.2-0.1,0.3c13.5,22.6,3.6,60.6-9.8,69.8c0,0.1,0,0.3,0,0.4
		C749.4,433.6,760.1,389.3,746.4,370.1"/>
	<path class="st20" d="M749.8,396c-0.1,0-0.1,0.1-0.2,0.1c-1,32.2-14.9,46.5-25.6,35.7c0,0.1-0.1,0.3-0.1,0.4
		c7.1,9.3,21.6,1.4,25.3-25.7C749.8,401.6,749.8,398,749.8,396"/>
	<path class="st20" d="M742.3,381.7c-0.1,0.2-0.1,0.4,0.7,1.8c6.4,10.4,3.5,36.7-7.1,44c0,0.1,0,0.3,0,0.5
		C745.8,421.6,751,394.2,742.3,381.7"/>
	<path class="st17" d="M743.6,366c-15.8-11.7-36.9,14.7-32.1,48.9c4.2,30.3,22.2,31.1,24.7,26.8c0,0,0.6-1,0-2.1
		c-2.7-0.7-5.1,1.7-7.8,1c-2.3-0.6-4.8-2.3-6.8-4.6c-6.3-7.3-8.3-18-8.9-23.7c-2-18.7,4.8-37.7,15.7-44.3c4-2.4,7.4-2.3,9-2
		c3.4,0.6,5.3,3.7,8.3,5C748.1,369.5,745,367.1,743.6,366"/>
	<path class="st8" d="M742,372.2c-13.3-9.7-30.8,12.8-26.6,41.7c1.8,12.5,7.1,18.5,7.8,18.9c0,0,1.9-0.8-0.1-3.2
		c-8.1-9.8-10-33.6-0.2-48.5c4.9-7.5,11.7-10.4,17.3-7.2c3,1.7,8,6.7,8.8,21.4c0,0.5,0.2,0.7,0.4,0.9
		C752.3,395.8,748.9,377.5,742,372.2"/>
	<path class="st7" d="M740.3,378.4c-11.5-8.4-24.6,13.4-21,34.8c3.2,18.6,13.9,18.9,16.2,16c0.3-0.3,0.7-1.9-0.1-2.4
		c-2,0.8-5.5,2.3-9.5-2.3l0,0c-12.4-15.1-2.7-46.7,9.9-45.4c2.6,0.3,4.4,2,5.2,2.9c1.7,1.9,1.3-1.7,0.9-2.2
		C741.7,379.7,741,378.9,740.3,378.4"/>
</g>
<g>
	<path class="st21" d="M756.6,545.9c29.2-108.7,58.5-217.4,87.7-326.1c-3.8,14.3-19.2,25.6-47,32.8l-87.7,326.1
		C737.4,571.5,752.8,560.1,756.6,545.9z"/>
</g>
<g class="st22">
	<g>
		<path class="st13" d="M97.3,377.2c0.5,1.1-0.1,2.5-0.6,2.3c-0.6-0.3-0.4-2.1,0.2-2.3C97.1,377.1,97.2,377.2,97.3,377.2
			 M135.4,404.3c0.9,0.7-0.3,4.7-1,4.9c-1.1,0.2-0.5-3.3,0.3-4.6C134.9,404.2,135.1,404.1,135.4,404.3 M101.5,378.1
			c0.3,0.3,0.3,1.2-0.1,2.6c-0.2,0.9-0.7,2.3-1.1,2.3c-0.8-0.1,0.2-4.2,0.8-4.8C101.4,378,101.5,378,101.5,378.1 M80.4,353.5
			c0.4,0.8-0.9,4.9-1.2,4.9C78.8,358.4,79.7,354,80.4,353.5C80.3,353.4,80.3,353.4,80.4,353.5 M78.5,350.3c0.3,0.6-0.4,2.9-0.7,2.7
			c0,0-0.2-0.1-0.1-1.1C77.8,351.3,78.3,349.9,78.5,350.3 M97.9,374.6c0.4,0.5,0.2,2-0.5,2h-0.1C97,375.6,97.4,374.3,97.9,374.6
			C97.8,374.5,97.9,374.5,97.9,374.6 M170,393.3c1.1,0.8-0.1,4.8-1,4.9c-1.2,0.2-0.7-3.4,0.2-4.6C169.4,393.3,169.7,393.2,170,393.3
			 M124.8,350.9c10.7,8.5,23.4,17.2,38,26l-8.5,31.5c-14.6-8.8-27.3-17.5-38-26L124.8,350.9 M98.6,325.7c2.3,2.8,4.9,5.6,7.7,8.5
			l-0.1,0.3c5.3,5.3,11.4,10.8,18.4,16.3l-8.5,31.5c-10.7-8.5-19.4-16.8-26.1-24.8L98.6,325.7 M84.8,302.8
			c2.5,7.2,7.1,14.9,13.7,22.8L90,357.5c-6.7-8-11.3-15.6-13.8-22.8L84.8,302.8 M178.5,361.5c1.1,0.8-0.1,4.7-1,4.9
			c-1.3,0.2-0.7-3.4,0.2-4.6C178,361.4,178.3,361.3,178.5,361.5 M187.1,329.6c1.1,0.8-0.1,4.7-1,4.9c-1.2,0.2-0.7-3.4,0.2-4.6
			C186.6,329.6,186.8,329.5,187.1,329.6 M142.1,286.5c10.7,8.5,23.4,17.2,38,26l-8.6,31.8c-14.6-8.8-27.3-17.5-38-26L142.1,286.5
			 M115.9,261.6c6.7,8,15.4,16.3,26.1,24.8l-8.6,31.8c-10.7-8.5-19.5-16.8-26.1-24.8L115.9,261.6 M102,238.7
			c2.5,7.2,7.1,14.9,13.7,22.8l-8.6,31.8c-6.7-8-11.3-15.6-13.8-22.8L102,238.7 M198.5,299.6L198.5,299.6c0.1,0.4,0.1,0.7,0.1,1.1
			l0.5,2.6l0,0c-0.5-0.3-0.9-0.5-1.4-0.8l0.5-2C198.3,300.3,198.4,300,198.5,299.6 M195.7,297.8c1.1,0.8-0.1,4.8-1,4.9
			c-1.2,0.2-0.7-3.4,0.2-4.6C195.1,297.7,195.4,297.6,195.7,297.8 M204.2,265.9c1.1,0.8-0.1,4.7-1,4.9c-1.3,0.2-0.7-3.4,0.2-4.6
			C203.7,265.9,204,265.8,204.2,265.9 M159.3,222.3c10.7,8.5,23.4,17.2,38,26l-8.6,31.8c-14.6-8.8-27.3-17.5-38-26L159.3,222.3
			 M133.1,197.4c6.7,8,15.4,16.3,26.1,24.8l-8.6,31.8c-10.7-8.5-19.4-16.8-26.1-24.8L133.1,197.4 M119.3,174.5
			c2.5,7.2,7.1,14.9,13.7,22.8l-8.6,31.8c-6.7-8-11.3-15.6-13.8-22.8L119.3,174.5 M215.5,238c0.7,0.4,0.6,1.4,0.6,1.4
			c0,0.2-0.3,1.2-0.9,1.4c-0.8,0.3-1.4-1.1-0.8-2.3C214.7,237.9,215.1,237.8,215.5,238 M212.8,234.1c1.1,0.8-0.1,4.8-1,4.9
			c-1.2,0.2-0.7-3.4,0.2-4.6C212.3,234,212.5,233.9,212.8,234.1 M221.4,202.2c1.1,0.8-0.1,4.7-1,4.9c-1.3,0.2-0.7-3.4,0.2-4.6
			C220.8,202.2,221.1,202.1,221.4,202.2 M176.6,158.1c10.7,8.5,23.4,17.2,38,26L206,216c-14.6-8.8-27.3-17.5-38-26L176.6,158.1
			 M150.4,133.3c6.7,8,15.4,16.3,26.1,24.8l-8.6,31.8c-10.7-8.5-19.4-16.8-26.1-24.8L150.4,133.3 M136.5,110.4
			c2.5,7.2,7.1,14.9,13.8,22.8l-8.6,31.8c-6.7-8-11.3-15.6-13.8-22.8L136.5,110.4 M133.2,403.7l0.2-0.5l-0.6-1.2
			c-0.1-0.1-0.3-0.2-0.4-0.3l-1.6,5.8c0.1,0.1,0.3,0.2,0.4,0.3l1.4-5.1l0,0L133.2,403.7 M131,401.5l0.2-0.6c-0.7-0.5-1.4-1-2.1-1.5
			l-0.1,0.5v6.3c0.2,0.1,0.3,0.2,0.5,0.3l-0.1-6.2l0,0C129.9,400.7,130.4,401.1,131,401.5 M100,377.6l0.2-0.5l-0.3-1.2
			c-0.1-0.1-0.2-0.2-0.3-0.2l-1.6,5.8c0.1,0.1,0.2,0.2,0.3,0.3l1.4-5.1l0,0L100,377.6 M79.4,353.1l0.2-0.5l-0.1-1.1
			c-0.1-0.1-0.1-0.2-0.1-0.2l-1.6,5.8c0.1,0.1,0.1,0.2,0.2,0.3l1.4-5.1l0,0V353.1 M138.9,407.2c0.1-0.1,0.2-0.3,0.3-0.5
			c-0.5-1.4-1.6-2-2.2-0.7c-0.6,1.2-0.2,2.8,0.2,4.4l0.2,0.6l0,0c-0.5-0.3-1-0.7-1.6-1l-0.2,0.7c0.7,0.5,1.5,1,2.3,1.5l0.1-0.5
			c-0.7-2.8-0.9-3.4-0.8-4.3c0-0.4,0.3-1.7,1.1-1.2C138.5,406.4,138.7,406.7,138.9,407.2 M133.9,409.7c1.5,0.8,2.5-3.6,2.1-5.1
			c-0.3-1-1.1-1.6-1.9-0.4C133.6,405.2,132.5,408.8,133.9,409.7 M103.9,380.9c0.3-0.6,0.3-0.6,0.1-1.2c-0.1-0.3-0.4-0.8-0.8-0.7
			c-0.6,0.2-1.2,1.2-0.7,5.1l0.1,0.6l0,0c-0.4-0.3-0.7-0.7-1.1-1l-0.2,0.7c0.5,0.5,1,0.9,1.6,1.4l0.1-0.5c-0.4-3.4-0.4-3.4-0.3-4.2
			c0-0.4,0.3-1.7,0.9-1.2C103.8,380.2,103.9,380.7,103.9,380.9 M100.1,383.5c1.1,0.8,2.2-3.6,1.9-5.2c-0.1-0.9-0.6-1.4-1.1-0.6
			C100.2,378.7,99.1,382.6,100.1,383.5 M96.5,380c0.8,0.7,1.4-0.9,1.3-2c0-0.4-0.1-0.7-0.1-0.8c1.3-0.7,0.9-3.2,0.2-3.4
			c-0.5-0.1-1.2,1.3-0.8,2.7l0,0C95.9,376.6,95.7,379.3,96.5,380 M81.6,356.2c0.6-1.3-0.2-1.8-0.3-1.8c-0.3,0.2-0.9,1-1,5v0.6l0,0
			c-0.2-0.3-0.4-0.6-0.6-0.9l-0.2,0.7c0.3,0.4,0.6,0.9,0.9,1.3l0.1-0.5c0.1-3.1,0.1-3.3,0.2-3.9c0.1-0.7,0.4-1.8,0.7-1.5
			C81.5,355.3,81.6,355.6,81.6,356.2 M78.9,358.9c0.6,0.7,1.6-3.2,1.7-4.8c0.1-1.3-0.2-1.5-0.4-1.3
			C79.7,353.3,78.4,358.1,78.9,358.9 M77.6,353.6c0.3,0.5,0.8-0.8,1-1.8c0.3-1.5,0.1-2.5-0.2-2.2c-0.5,0.4-1.9,5.1-1.1,6.6l0.2-0.6
			c-0.1-0.2-0.4-0.9,0.1-3.1l0,0C77.5,352.7,77.5,353.4,77.6,353.6 M173.9,396.4l0.3-0.5l-0.7-1.2c-0.2-0.1-0.3-0.2-0.5-0.3
			l-1.6,5.8c0.2,0.1,0.4,0.2,0.5,0.3l1.4-5.1l0,0L173.9,396.4 M168.6,398.8c1.8,0.8,2.8-3.6,2.3-5.2c-0.4-1-1.5-1.8-2.4,0.1
			C167.9,394.7,167,397.9,168.6,398.8 M182.7,364.5c0.1-0.1,0.2-0.3,0.3-0.5c-0.6-1.5-2-2-2.6-0.6c-0.5,1.2,0,2.7,0.5,4.2l0.2,0.6
			l0,0c-0.6-0.4-1.3-0.7-1.9-1.1l-0.2,0.7c0.9,0.5,1.8,1,2.7,1.5l0.1-0.5c-1.1-3.4-1.1-3.4-1.1-4.3c0-0.4,0.2-1.7,1.2-1.2
			C182.3,363.6,182.5,364,182.7,364.5 M177.1,366.9c1.8,0.8,2.8-3.6,2.3-5.2c-0.3-1-1.5-1.8-2.4,0.1
			C176.5,362.9,175.6,366,177.1,366.9 M191.3,332.5c0.1-0.1,0.2-0.3,0.3-0.5c-0.6-1.2-2-1.9-2.5-0.5c-0.2,0.5-0.2,1.2,0.3,1.9l0,0
			c-1.3-0.3-1.8,1.8-1,2.9c0.5,0.7,1.3,1,1.9,0.9c0-0.2,0-0.5,0-0.7c-1.1,0.3-2.2-0.9-1.6-2.1c0.1-0.3,0.5-0.7,1.3-0.3
			c0.1,0.1,0.2,0.1,0.3,0.2l0.2-0.6c-0.1-0.1-0.2-0.1-0.3-0.2c-1-0.6-0.8-1.9-0.2-2.1C190.5,331.4,191.1,331.9,191.3,332.5
			 M185.7,335.1c1.8,0.8,2.8-3.6,2.3-5.1c-0.4-1-1.6-1.8-2.4,0.1C185,331,184.1,334.2,185.7,335.1 M199.5,304.2l0.1-0.5l-0.9-4.8
			c-0.2-0.1-0.4-0.2-0.6-0.3l-1,3.6c-0.2-0.1-0.4-0.2-0.6-0.3l-0.2,0.6c0.2,0.1,0.4,0.2,0.6,0.3l-0.4,1.6c0.2,0.1,0.4,0.2,0.5,0.3
			l0.4-1.6C198.2,303.5,198.8,303.9,199.5,304.2 M194.3,303.2c1.8,0.8,2.8-3.6,2.2-5.1c-0.3-1-1.5-1.8-2.4,0.1
			C193.6,299.2,192.7,302.3,194.3,303.2 M208,270.7l0.5-2.9c-0.7-0.4-1.3-0.8-2-1.1l-0.2,0.7c0.5,0.3,1.1,0.6,1.6,0.9
			c-0.1,0.5-0.2,1.1-0.2,1.6c-1.2-1.1-2.5-0.2-2.4,1.6c0.1,1.7,1.4,2.4,2.2,2.2c0-0.2,0-0.5,0-0.7c-1.1,0.3-2.2-1.1-1.5-2.4
			C206.4,269.9,207.1,270,208,270.7 M202.8,271.4c1.8,0.8,2.8-3.6,2.3-5.2c-0.3-1-1.5-1.8-2.4,0.1
			C202.2,267.3,201.3,270.5,202.8,271.4 M214.6,241.3c2,1,2.8-2.9,2.1-4.8c-0.3-1-1-1.5-1.5-1.8l-0.2,0.6c1.4,0.8,1.4,2.3,1.3,3.2
			l0,0c-0.3-1.4-1.6-1.9-2.3-0.8C213.5,238.7,213.4,240.7,214.6,241.3 M211.4,239.5c1.8,0.8,2.8-3.6,2.2-5.2c-0.4-1-1.5-1.8-2.4,0.1
			C210.7,235.5,209.8,238.6,211.4,239.5 M225.9,205l0.2-0.7c-0.9-0.5-1.8-1-2.6-1.5l-0.1,0.5l0.4,6.3c0.2,0.1,0.4,0.2,0.6,0.3
			l-0.4-6.2l0,0C224.5,204.2,225.2,204.6,225.9,205 M220,207.7c1.8,0.8,2.8-3.6,2.3-5.2c-0.4-1-1.5-1.8-2.4,0.1
			C219.3,203.6,218.4,206.8,220,207.7 M214.8,184.1L214.8,184.1c-44-26.6-70.8-52.3-78.2-74L76.1,334.8c7.4,21.7,34.3,47.4,78.3,74
			l8.6-31.9l4.1,14.1l0.2-0.1l-4.2-14.3l8.5-31.7l4.1,14.1l0.2-0.1l-4.2-14.3l8.5-31.7l4.1,14.1l0.2-0.1l-4.2-14.3l8.5-31.7
			l4.1,14.1l0.2-0.1l-4.2-14.3l8.5-31.7l4.1,14.1l0.2-0.1l-4.2-14.3l8.5-31.7l4.1,14.1l0.2-0.1l-4.2-14.3l8.5-31.7l4.1,14.1l0.2-0.1
			L214.8,184.1 M221,175.2l1.4-5.2c-28.7-17-50.4-33.7-64.5-49.3l-1.4,5.2C170.6,141.5,192.3,158.2,221,175.2 M224,164.1l1.4-5.2
			c-9.3-5.5-17.9-11-25.7-16.4l-1.4,5.2C206.1,153.1,214.7,158.6,224,164.1 M148,49.4c1.1,28.3,41,65.5,113.3,102.9L176,469.1
			c-72.2-37.3-112.1-74.5-113.2-102.9L148,49.4"/>
		<path class="st14" d="M157.9,120.7c14.1,15.6,35.8,32.3,64.5,49.3l-1.4,5.2c-28.7-17-50.4-33.7-64.5-49.3L157.9,120.7"/>
		<path class="st14" d="M199.7,142.4c7.8,5.4,16.4,10.9,25.7,16.4L224,164c-9.3-5.5-17.9-11-25.7-16.4L199.7,142.4"/>
		<path class="st15" d="M171.5,344.6v0.2l-8.5,31.7l0,0l-0.1,0.1v-0.1L171.5,344.6 M180.1,312.5L180.1,312.5l0.1,0.3l-8.5,31.7l0,0
			l-0.1,0.1v-0.1c0,0,0,0-0.1-0.1L180.1,312.5 M188.8,280.5v0.2l-8.5,31.7l0,0h-0.1v-0.1L188.8,280.5 M197.3,248.3
			C197.4,248.3,197.4,248.3,197.3,248.3l0.1,0.2l-8.5,31.7l0,0l-0.1,0.1v-0.1c0,0-0.1,0-0.1-0.1L197.3,248.3 M206.1,216.3v0.2
			l-8.5,31.7l0,0h-0.1v-0.1L206.1,216.3 M136.6,110c7.4,21.7,34.3,47.4,78.3,74v0.1l0,0l-0.2,0.1l0.1,0.3l-8.5,31.7l0,0h-0.1v-0.1
			c0,0,0,0-0.1,0l8.6-31.8c-14.6-8.8-27.3-17.5-38-26v-0.1l-0.1-0.1v0.1c-10.7-8.5-19.4-16.8-26.1-24.8v-0.1l-0.1-0.1v0.1
			c-6.7-8-11.3-15.6-13.8-22.8l-8.6,31.8l0,0v0.1l-8.6,32.1l-0.1,0.1l0,0l-8.6,31.8l0,0v0.1l-8.6,32.1v0.1l0,0l-8.6,31.8l0,0v0.1
			l-8.6,32.1v0.1l0,0l-8.6,31.8c2.5,7.2,7.1,14.9,13.8,22.8v0.1c0,0,0,0.1,0.1,0.1v-0.1c6.7,8,15.4,16.3,26.1,24.8v0.1l0.1,0.1v-0.1
			c10.7,8.5,23.4,17.2,38,26l8.5-31.5h0.1l0.1-0.2v0.2l-8.6,31.9c-44-26.5-70.9-52.3-78.3-74L136.6,110"/>
		<path class="st15" d="M98.6,325.6c2.3,2.8,4.9,5.6,7.7,8.5v0.1c-2.8-2.9-5.4-5.7-7.7-8.5V325.6 M84.8,302.7
			c2.5,7.2,7.1,14.9,13.8,22.9v0.1c-6.7-8-11.3-15.6-13.7-22.8l0,0L84.8,302.7"/>
		<path class="st15" d="M133.5,318.3c10.7,8.5,23.4,17.2,38,26c0,0,0,0,0.1,0.1v0.1c-14.6-8.8-27.3-17.5-38.1-26.1V318.3
			 M107.3,293.4c6.7,8,15.4,16.3,26.1,24.8v0.1c-10.7-8.5-19.5-16.8-26.1-24.8L107.3,293.4 M93.4,270.5
			C93.4,270.5,93.5,270.5,93.4,270.5c2.5,7.2,7.1,14.9,13.8,22.9v0.1c-6.7-8-11.3-15.7-13.8-22.9V270.5"/>
		<path class="st15" d="M115.9,261.5c6.7,8,15.4,16.3,26.1,24.8v0.1c-10.7-8.5-19.4-16.8-26.1-24.8V261.5 M102,238.5
			c2.5,7.2,7.1,14.9,13.8,22.9v0.1c-6.7-8-11.3-15.6-13.7-22.8l0,0L102,238.5 M180.2,312.3v0.1l-0.1,0.1l0,0l0,0
			c-14.6-8.8-27.3-17.5-38-26v-0.1c10.7,8.5,23.5,17.3,38.1,26.1L180.2,312.3"/>
		<path class="st15" d="M150.8,254.2c10.7,8.5,23.4,17.2,38,26c0,0,0.1,0,0.1,0.1v0.1c-14.6-8.8-27.3-17.5-38.1-26.1L150.8,254.2
			 M124.5,229.3c6.7,8,15.4,16.3,26.1,24.8v0.1c-10.7-8.5-19.4-16.8-26.1-24.8L124.5,229.3 M110.7,206.3L110.7,206.3
			c2.5,7.2,7.1,14.9,13.8,22.9v0.1c-2.9-3.4-5.4-6.8-7.5-10.2c-2.8-4.4-4.9-8.6-6.3-12.7V206.3"/>
		<path class="st15" d="M133.1,197.3c6.7,8,15.4,16.3,26.1,24.8v0.1c-10.7-8.5-19.4-16.8-26.1-24.8V197.3 M119.3,174.4
			c2.5,7.2,7.1,14.9,13.8,22.9v0.1c-6.7-8-11.3-15.6-13.7-22.8l0,0L119.3,174.4 M197.5,248.1v0.1h-0.1v0.1c0,0,0,0-0.1,0
			c-14.6-8.8-27.3-17.5-38-26v-0.1c10.7,8.5,23.5,17.3,38.1,26.1L197.5,248.1"/>
		<path class="st15" d="M168,190c10.7,8.5,23.4,17.2,38,26h0.1v0.1C191.5,207.3,178.8,198.6,168,190L168,190 M141.8,165.1
			c6.7,8,15.4,16.3,26.1,24.8v0.1c-3.7-3-7.2-5.9-10.5-8.8c-6.1-5.4-11.3-10.8-15.7-16L141.8,165.1 M128,142.2L128,142.2
			c2.5,7.2,7.1,14.9,13.8,22.9v0.1c-6.7-8-11.3-15.6-13.8-22.9V142.2"/>
		<path class="st15" d="M98.5,325.5C98.6,325.6,98.6,325.6,98.5,325.5v0.2L90,357.6v0.1c0,0,0-0.1-0.1-0.1v-0.1l8.6-31.8V325.5
			 M115.8,261.4C115.8,261.4,115.9,261.4,115.8,261.4v0.2l-8.6,31.8v0.1c0,0,0-0.1-0.1-0.1v-0.1l8.6-31.8L115.8,261.4 M133.1,197.2
			C133.1,197.3,133.1,197.3,133.1,197.2v0.2l-8.6,31.8v0.1c0,0,0-0.1-0.1-0.1v-0.1L133.1,197.2L133.1,197.2 M150.3,133.1
			C150.3,133.1,150.4,133.1,150.3,133.1v0.2l-8.6,31.8v0.1c0,0-0.1,0-0.1-0.1V165l8.6-31.8L150.3,133.1"/>
		<path class="st15" d="M124.6,350.8l0.1,0.1l-8.5,31.5v0.1l-0.1-0.1v-0.1L124.6,350.8 M142,286.3l0.1,0.1v0.1l-8.6,31.8v0.1
			l-0.1-0.1v-0.1l8.6-31.8V286.3 M159.3,222.1l0.1,0.1v0.1l-8.6,31.8v0.1l-0.1-0.1V254l8.6-31.8V222.1 M176.5,157.9l0.1,0.1v0.1
			L168,190v0.1l-0.1-0.1v-0.1l8.6-31.8V157.9"/>
		<polyline class="st15" points="214.8,184 214.8,184.1 219,198.4 218.8,198.5 214.7,184.4 214.6,184.1 214.8,184 		"/>
		<polyline class="st15" points="206.2,216.1 206.2,216.2 210.4,230.5 210.2,230.6 206.1,216.5 206.1,216.3 206.1,216.2 
			206.2,216.1 		"/>
		<polyline class="st15" points="197.5,248.2 197.6,248.2 201.7,262.6 201.6,262.7 197.5,248.6 197.4,248.4 197.4,248.3 
			197.5,248.2 197.5,248.2 		"/>
		<polyline class="st15" points="188.9,280.3 188.9,280.3 193.1,294.6 192.9,294.7 188.8,280.7 188.8,280.5 188.8,280.3 
			188.9,280.3 		"/>
		<polyline class="st15" points="180.3,312.4 180.3,312.4 184.5,326.7 184.3,326.8 180.2,312.7 180.1,312.5 180.1,312.5 
			180.2,312.4 180.3,312.4 		"/>
		<polyline class="st15" points="171.7,344.4 171.7,344.5 175.9,358.8 175.7,358.9 171.6,344.8 171.5,344.6 171.6,344.5 
			171.7,344.4 		"/>
		<polyline class="st15" points="163,376.5 163,376.6 167.2,390.9 167.1,391 162.9,376.9 162.9,376.7 162.9,376.6 163,376.5 		"/>
		<path class="st15" d="M173,394.4c0.2,0.1,0.3,0.2,0.5,0.3l0.7,1.2l-0.3,0.5l-0.6-1l0,0l-1.4,5.1c-0.2-0.1-0.4-0.2-0.5-0.3
			L173,394.4"/>
		<path class="st15" d="M168.7,398.1c1.2,0.5,2-3.3,1.6-4.3c-0.2-0.5-0.8-1-1.3,0.1C168.6,394.6,167.7,397.5,168.7,398.1
			 M170.1,392.7c1.9,1.2,0.3,5.9-0.9,6.2c-1.8,0.3-1.9-3.6-0.5-5.6C169.1,392.6,169.6,392.4,170.1,392.7"/>
		<path class="st15" d="M182,362.8c0.3,0.2,0.7,0.5,1,1.3c-0.1,0.1-0.2,0.3-0.3,0.5c-0.5-1.2-1.4-1.5-1.8-0.5c-0.4,1,0,2.1,0.7,4.1
			l0.3,0.9l-0.1,0.5c-0.9-0.5-1.8-1-2.7-1.5l0.2-0.7c0.6,0.4,1.2,0.7,1.9,1.1l0,0C178.8,361.9,181.9,362.9,182,362.8
			C181.9,362.7,182,362.7,182,362.8"/>
		<path class="st15" d="M177.3,366.3c1.1,0.5,2-3.2,1.6-4.3c-0.2-0.5-0.8-1-1.3,0.1C177.2,362.7,176.2,365.7,177.3,366.3
			 M178.7,360.9c1.9,1.2,0.3,5.9-0.9,6.2c-1.8,0.3-1.9-3.6-0.5-5.6C177.6,360.7,178.1,360.6,178.7,360.9"/>
		<path class="st15" d="M190.7,330.9c0.5,0.3,0.8,0.8,1,1.1c-0.1,0.1-0.2,0.3-0.3,0.5c-0.4-0.9-1.3-1.4-1.7-0.5
			c-0.2,0.6,0.1,1.2,0.6,1.6c0.1,0.1,0.2,0.1,0.3,0.2l-0.2,0.6c-0.1-0.1-0.2-0.1-0.3-0.2c-1.2-0.6-1.6,0.7-1.4,1.4
			c0.2,0.8,1.1,1.1,1.7,0.9c0,0.2,0,0.5,0,0.7c-1.6,0.4-3-1.8-2-3.3c0.3-0.4,0.6-0.6,1.1-0.5l0,0c-0.9-1.2-0.3-2.9,0.7-2.7
			C190.3,330.8,190.5,330.8,190.7,330.9"/>
		<path class="st15" d="M185.8,334.4c1.2,0.5,2-3.3,1.6-4.3c-0.2-0.5-0.7-1-1.3,0.1C185.8,330.9,184.8,333.8,185.8,334.4 M187.2,329
			c1.8,1.3,0.3,6-1,6.2c-1.8,0.3-1.9-3.6-0.5-5.6C186.2,328.9,186.7,328.7,187.2,329"/>
		<path class="st15" d="M199.1,303.3L199.1,303.3c-0.5-2.7-0.5-2.7-0.6-3.6l0,0c-0.1,0.3-0.1,0.6-0.2,0.9l-0.5,2
			C198.2,302.8,198.6,303,199.1,303.3 M198.2,298.6c0.2,0.1,0.4,0.2,0.6,0.3l0.9,4.8l-0.1,0.5c-0.6-0.4-1.3-0.7-1.9-1.1l-0.4,1.6
			c-0.2-0.1-0.3-0.2-0.5-0.3l0.4-1.6c-0.2-0.1-0.4-0.2-0.6-0.3l0.2-0.6c0.2,0.1,0.4,0.2,0.6,0.3L198.2,298.6"/>
		<path class="st15" d="M194.4,302.6c1.2,0.5,2-3.2,1.6-4.3c-0.2-0.5-0.7-1-1.3,0.1C194.3,299.1,193.4,302,194.4,302.6 M195.8,297.2
			c1.9,1.2,0.4,5.9-0.9,6.2c-1.8,0.3-1.9-3.6-0.5-5.6C194.8,297,195.3,296.9,195.8,297.2"/>
		<path class="st15" d="M206.5,266.6c0.7,0.4,1.3,0.8,2,1.1c-0.1,0.9-0.3,2.1-0.5,2.9c-2.1-1.6-2.2,0.6-2.2,0.9
			c0.1,1.1,1.1,1.4,1.7,1.3c0,0.2,0,0.5,0,0.7c-1.5,0.3-3-1.9-1.9-3.7c0.6-1,1.6-0.6,2.1-0.2l0.2-1.6c-0.5-0.3-1.1-0.6-1.6-0.9
			L206.5,266.6"/>
		<path class="st15" d="M203,270.7c1.2,0.5,2-3.3,1.6-4.3c-0.2-0.5-0.7-1-1.3,0.1C202.9,267.2,201.9,270.2,203,270.7 M204.4,265.3
			c1.8,1.2,0.3,5.9-0.9,6.2c-1.8,0.3-1.9-3.6-0.5-5.6C203.3,265.2,203.9,265,204.4,265.3"/>
		<path class="st15" d="M214.7,240.7c0.9,0.4,1.6-1,1.3-2c-0.3-0.9-1.1-1.2-1.6-0.3C214.1,239.1,214,240.3,214.7,240.7 M215.2,234.8
			c2.8,1.6,1.7,6.4,0.2,6.7c-1.4,0.3-2.3-2.1-1.3-3.7c0.7-1.1,1.9-0.6,2.3,0.8l0,0c0.1-0.8,0.1-2.4-1.3-3.2L215.2,234.8"/>
		<path class="st15" d="M211.5,238.9c1.2,0.5,2-3.3,1.6-4.3c-0.2-0.5-0.7-1-1.3,0.1C211.5,235.3,210.5,238.3,211.5,238.9
			 M212.9,233.4c1.9,1.2,0.3,5.9-0.9,6.2c-1.8,0.3-1.9-3.6-0.5-5.6C211.9,233.3,212.4,233.1,212.9,233.4"/>
		<path class="st15" d="M223.4,202.8c0.9,0.5,1.8,1,2.6,1.5l-0.2,0.7c-0.7-0.4-1.4-0.8-2-1.1l0,0l0.4,6.2c-0.2-0.1-0.4-0.2-0.6-0.3
			l-0.4-6.3L223.4,202.8"/>
		<path class="st15" d="M220.1,207c1.1,0.5,2-3.2,1.6-4.3c-0.2-0.5-0.7-1-1.3,0.1C219.9,203.6,219.1,206.5,220.1,207 M221.5,201.6
			c1.9,1.2,0.3,5.9-0.9,6.2c-1.8,0.3-1.9-3.6-0.5-5.6C220.5,201.5,221,201.3,221.5,201.6"/>
		<path class="st15" d="M138.3,405.5c0.3,0.2,0.6,0.5,0.9,1.2c-0.1,0.1-0.2,0.3-0.3,0.5c-0.4-1.2-1.1-1.4-1.5-0.7
			c-0.5,1-0.1,2.5,0.3,4.3l0.2,0.9l-0.1,0.5c-0.8-0.5-1.5-1-2.3-1.5l0.2-0.7c0.5,0.3,1,0.7,1.6,1l0,0c-0.6-2.3-0.8-3.2-0.6-4.3
			C136.9,406.2,137.3,404.9,138.3,405.5"/>
		<path class="st15" d="M134.1,409.1c1,0.5,1.9-3.4,1.5-4.5c-0.1-0.4-0.6-0.8-1.1,0.2C134.1,405.7,133.3,408.5,134.1,409.1
			 M135.5,403.6c1.6,1.2,0.1,5.9-1,6.2c-1.6,0.3-1.5-3.6-0.2-5.6C134.6,403.5,135,403.3,135.5,403.6"/>
		<path class="st15" d="M132.5,401.7c0.1,0.1,0.3,0.2,0.4,0.3l0.6,1.2l-0.2,0.5l-0.4-1l0,0l-1.4,5.1c-0.2-0.1-0.3-0.2-0.4-0.3
			L132.5,401.7"/>
		<path class="st15" d="M129.1,399.4c0.7,0.5,1.4,1,2.1,1.5l-0.2,0.6c-0.6-0.4-1.1-0.7-1.6-1.1l0,0l0.1,6.2
			c-0.1-0.1-0.3-0.2-0.5-0.3V400L129.1,399.4"/>
		<path class="st15" d="M103.7,379.3c0.2,0.2,0.4,0.5,0.5,1.2c-0.1,0.1-0.2,0.3-0.3,0.5c-0.2-1.2-0.7-1.2-1-0.8
			c-0.6,0.9-0.3,2.7-0.1,4.4l0.1,0.8l-0.1,0.5c-0.5-0.5-1.1-0.9-1.6-1.4l0.2-0.7c0.4,0.3,0.7,0.7,1.1,1l0,0c-0.9-6.5,1-5.6,1-5.6
			C103.6,379.2,103.6,379.2,103.7,379.3"/>
		<path class="st15" d="M100.3,382.9c0.7,0.5,1.6-3.4,1.4-4.5c-0.1-0.3-0.3-0.6-0.6-0.1C100.6,379,99.6,382.3,100.3,382.9
			 M101.7,377.5c1.1,1.2-0.4,6.1-1.3,6.2c-1.2,0-0.5-4.8,0.6-6.1C101.2,377.3,101.5,377.3,101.7,377.5"/>
		<path class="st15" d="M99.6,375.6c0.1,0.1,0.2,0.2,0.3,0.2l0.3,1.2l-0.2,0.5l-0.3-0.9l0,0l-1.4,5.1c-0.1-0.1-0.2-0.2-0.3-0.3
			L99.6,375.6"/>
		<path class="st15" d="M96.6,379.4c0.5,0.4,0.9-0.8,0.8-1.6c0-0.3-0.1-0.6-0.2-0.7c-0.3-0.1-0.6,0-0.8,0.7
			C96.3,378.4,96.3,379.1,96.6,379.4L96.6,379.4 M97.3,376.5c0.8,0.2,0.9-1.4,0.7-1.9c-0.2-0.4-0.6-0.2-0.7,0.6
			C97.1,375.7,97.2,376.1,97.3,376.5 M98,374c0.7,0.8,0.4,3-0.4,3.2c0.5,3-0.8,3.1-1.1,2.9c-0.9-0.6-0.6-3.4,0.4-3.6H97l0,0
			c-0.4-1.4,0.3-2.9,0.9-2.6C97.9,373.9,98,373.9,98,374"/>
		<path class="st15" d="M81.6,354.5c0.1,0.2,0.2,0.5,0.2,1.2c-0.1,0.1-0.1,0.3-0.2,0.5c0-1.4-0.4-1-0.4-0.9c-0.6,0.7-0.6,3-0.6,4.5
			v0.8l-0.1,0.5c-0.3-0.4-0.6-0.9-0.9-1.3l0.2-0.7c0.2,0.3,0.4,0.6,0.6,0.9l0,0C80.4,353.7,81.5,354.5,81.6,354.5
			C81.5,354.5,81.6,354.5,81.6,354.5"/>
		<path class="st15" d="M79.1,358.3c0.4,0.4,1.3-3.1,1.3-4.2c0-0.7-0.1-0.7-0.2-0.6C79.8,353.8,78.7,357.8,79.1,358.3 M80.5,352.9
			c0.2,0.5,0.2,1.6-0.3,3.4c-0.2,0.8-0.8,2.9-1.2,2.8c-0.7-0.2,0.5-5.8,1.3-6.2C80.4,352.7,80.4,352.8,80.5,352.9"/>
		<path class="st15" d="M79.4,351.2c0.1,0.1,0.1,0.2,0.1,0.2l0.1,1.1l-0.2,0.5l-0.1-0.9l0,0l-1.4,5.1c-0.1-0.1-0.1-0.2-0.2-0.3
			L79.4,351.2"/>
		<path class="st15" d="M77.8,353c0.2,0.3,0.5-0.7,0.7-1.5c0.2-1,0-1.4-0.1-1.3c-0.2,0.1-0.5,1.1-0.6,1.4
			C77.6,352.5,77.7,352.9,77.8,353 M78.6,349.7c0.5,1.1-0.5,4.3-0.9,4c-0.1-0.1-0.2-0.3-0.2-1.2l0,0c-0.5,2.3-0.2,2.9-0.1,3.1
			l-0.2,0.6C76.5,354.8,78.1,349.4,78.6,349.7C78.6,349.6,78.6,349.7,78.6,349.7"/>
		<path class="st10" d="M163,208.7c10.7,8.5,23.4,17.2,38,26l-2.3,8.4c-12.1-7.3-22.8-14.5-32.2-21.6l-1.3,5c-2-1.5-3.9-3-5.8-4.4
			L163,208.7 M136.8,183.8c6.7,8,15.4,16.3,26.1,24.8l-3.6,13.4c-10.7-8.5-19.4-16.8-26.1-24.8L136.8,183.8 M166.6,195.2
			c10.7,8.5,23.4,17.2,38,26l-2.2,8.3c-14.6-8.8-27.3-17.5-38-26L166.6,195.2 M141.7,165.4c4.4,5.2,9.6,10.5,15.7,16l-1.4,5
			c3.3,2.9,6.7,5.8,10.5,8.8l-2.2,8.4c-10.7-8.5-19.5-16.8-26.1-24.8L141.7,165.4 M127.9,142.4c2.5,7.2,7.1,14.9,13.7,22.8
			l-3.6,13.4c-2.1-2.5-4-5-5.7-7.4l-1.4,5.1c1.7,2.4,3.6,4.9,5.7,7.4l-3.6,13.4c-6.7-8-11.3-15.6-13.8-22.8L127.9,142.4"/>
		<path class="st23" d="M206.1,216.3l-8.6,31.8l1.4-5c0,0-0.1,0-0.1-0.1l2.3-8.4c0,0,0.1,0,0.1,0.1l1.4-5.1c0,0-0.1,0-0.1-0.1
			l2.2-8.3c0,0,0.1,0,0.1,0.1L206.1,216.3 M127.9,142.3v0.1l0,0l-8.6,31.9l0,0v0.1L127.9,142.3"/>
		<path class="st23" d="M159.4,222.1c1.9,1.5,3.8,3,5.8,4.4v0.1c9.4,7.1,20.2,14.3,32.3,21.6v-0.1v0.1
			C182.9,239.4,170.2,230.7,159.4,222.1L159.4,222.1 M133.2,197.2c6.7,8,15.4,16.3,26.1,24.8v0.1c-10.7-8.5-19.5-16.8-26.1-24.8
			V197.2 M119.3,174.2C119.3,174.2,119.4,174.3,119.3,174.2c2.5,7.2,7.1,14.9,13.8,22.9v0.1c-6.7-8-11.3-15.7-13.8-22.9V174.2"/>
		<path class="st23" d="M141.8,165.2c4.4,5.2,9.6,10.6,15.7,16v0.1c-6.1-5.4-11.3-10.8-15.7-16V165.2 M127.9,142.3
			c2.5,7.2,7.1,14.9,13.8,22.9v0.1c-6.7-8-11.3-15.6-13.7-22.8l0,0L127.9,142.3"/>
		<path class="st23" d="M136.7,183.8L136.7,183.8l-3.5,13.4v0.1c0,0,0,0-0.1-0.1v-0.1L136.7,183.8 M141.7,165.1
			C141.7,165.2,141.7,165.2,141.7,165.1v0.2l-3.6,13.4l-0.1-0.1l3.6-13.4L141.7,165.1"/>
		<path class="st23" d="M162.9,208.6l0.1,0.1l-3.6,13.4v0.1l-0.1-0.1V222L162.9,208.6 M166.5,195.1l0.1,0.1l-2.3,8.3l-0.1-0.1
			L166.5,195.1"/>
		<path class="st10" d="M145.8,272.9c10.7,8.5,23.4,17.2,38,26l-2.3,8.4c-14.6-8.8-27.3-17.5-38-26L145.8,272.9 M149.4,259.4
			c10.7,8.5,23.4,17.2,38,26l-2.2,8.3c-14.6-8.8-27.3-17.5-38-26L149.4,259.4 M123.1,234.5c6.7,8,15.4,16.3,26.1,24.8l-5.9,21.8
			c-10.7-8.5-19.5-16.8-26.1-24.8L123.1,234.5 M110.7,206.6c1.4,4.1,3.5,8.3,6.3,12.7l-1.4,5c2.1,3.3,4.6,6.7,7.5,10.2l-7.2,26.8
			c-6.7-8-11.3-15.6-13.8-22.8L110.7,206.6"/>
		<path class="st23" d="M188.8,280.5l-8.6,31.8l1.3-5c0,0-0.1,0-0.1-0.1l2.3-8.4h0.1l1.4-5.1h-0.1l2.2-8.3h0.1L188.8,280.5
			 M110.7,206.4v0.1l0,0l-8.6,31.9l0,0v0.1L110.7,206.4"/>
		<path class="st23" d="M102.1,238.4L102.1,238.4c2.5,7.2,7.1,14.9,13.8,22.9v0.1c-6.7-8-11.3-15.6-13.8-22.9V238.4"/>
		<path class="st23" d="M110.7,206.4c1.4,4.1,3.5,8.3,6.3,12.7v0.1c-2.8-4.3-4.9-8.6-6.3-12.7l0,0V206.4"/>
		<path class="st23" d="M123.1,234.4C123.1,234.5,123.1,234.5,123.1,234.4l-5.8,21.9c0,0,0,0,0-0.1l-1.4,5.1l0,0l-0.1-0.1v-0.1
			L123.1,234.4"/>
		<path class="st23" d="M149.3,259.3l0.1,0.1l-2.3,8.4c0,0,0,0-0.1-0.1l-1.4,5.1c0,0,0,0,0.1,0l-2.3,8.4l-0.1-0.1L149.3,259.3"/>
		<path class="st10" d="M128.4,337.4c10.7,8.5,23.4,17.2,38,26l-2.2,8.4c-14.6-8.8-27.3-17.5-38-26L128.4,337.4 M102.1,312.6
			c6.7,8,15.4,16.3,26.1,24.8l-2.2,8.4c-7-5.5-13.1-11-18.4-16.3l-1.2,4.6c-2.8-2.9-5.4-5.7-7.7-8.5L102.1,312.6 M132,324
			c10.7,8.5,23.4,17.2,38,26l-2.3,8.4c-14.6-8.8-27.3-17.5-38-26L132,324 M133.5,318.5c10.7,8.5,23.4,17.2,38,26l-0.1,0.3
			c-14.6-8.8-27.3-17.5-38-26L133.5,318.5 M107.2,293.7c6.7,8,15.4,16.3,26.1,24.8l-3.7,13.8c-10.7-8.5-19.5-16.8-26.1-24.8
			L107.2,293.7 M93.4,270.8c2.5,7.2,7.1,14.9,13.8,22.8l-8.6,31.8c-6.7-8-11.3-15.6-13.7-22.8L93.4,270.8"/>
		<path class="st23" d="M171.5,344.6L171.5,344.6L171.5,344.6l-8.5,31.9l1.2-4.6c0,0,0,0-0.1,0l2.2-8.4c0,0,0.1,0,0.1,0.1l1.4-5.1
			h-0.1l2.3-8.4c0,0,0.1,0,0.1,0.1l1.4-5.1c0,0,0,0-0.1-0.1L171.5,344.6 M93.4,270.6v0.1l0,0l-8.6,31.8l0,0v0.1L93.4,270.6"/>
		<path class="st23" d="M98.7,325.5c2.3,2.8,4.9,5.6,7.7,8.5v0.1c-2.8-2.9-5.4-5.7-7.7-8.5V325.5 M84.8,302.5
			C84.8,302.6,84.8,302.6,84.8,302.5c2.5,7.2,7.1,14.9,13.8,22.9v0.1c-6.7-8-11.3-15.6-13.8-22.9V302.5"/>
		<path class="st23" d="M133.5,318.4c10.7,8.5,23.5,17.3,38.1,26.1l-0.1,0.1v0.1c0,0,0,0-0.1,0c-14.6-8.8-27.3-17.5-38-26
			L133.5,318.4 M107.2,293.5c6.7,8,15.4,16.3,26.1,24.8v0.1c-10.7-8.5-19.4-16.8-26.1-24.8L107.2,293.5 M93.4,270.6
			c2.5,7.2,7.1,14.9,13.8,22.9v0.1c-6.7-8-11.3-15.6-13.8-22.8l0,0V270.6"/>
		<path class="st23" d="M107.2,293.5L107.2,293.5v0.2l-3.7,13.8l0,0l-1.4,5.1l0,0l-3.5,13v0.1c0,0,0-0.1-0.1-0.1v-0.1l8.6-31.8
			L107.2,293.5"/>
		<path class="st23" d="M128.3,337.3l0.1,0.1l-2.2,8.4l-0.1-0.1L128.3,337.3 M133.4,318.3l0.1,0.1v0.1l-0.1,0.3c0,0,0,0-0.1-0.1
			l-1.4,5.1h0.1l-2.2,8.4c-0.1,0-0.1-0.1-0.1-0.1L133.4,318.3L133.4,318.3"/>
		<polyline class="st23" points="171.6,344.5 171.5,344.6 171.5,344.6 171.5,344.5 171.6,344.5 		"/>
		<path class="st16" d="M157.4,181.2c3.2,2.9,6.7,5.8,10.5,8.8l0.1,0.1c10.8,8.5,23.5,17.3,38.1,26.1v0.2l-1.3,5c0,0-0.1,0-0.1-0.1
			c-14.6-8.8-27.3-17.5-38-26l-0.1-0.1c-3.7-3-7.2-5.9-10.5-8.8l1.4-5L157.4,181.2"/>
		<path class="st17" d="M132.4,171.2c1.7,2.4,3.6,4.9,5.7,7.4c0,0,0,0.1,0.1,0.1c6.7,8,15.4,16.3,26.1,24.8l0.1,0.1
			c10.7,8.5,23.4,17.2,38,26c0,0,0,0,0.1,0.1l-1.4,5.1c0,0-0.1,0-0.1-0.1c-14.6-8.8-27.3-17.5-38-26l-0.1-0.1
			c-10.7-8.5-19.5-16.8-26.1-24.8c0,0,0-0.1-0.1-0.1c-2.1-2.5-4-5-5.7-7.4L132.4,171.2"/>
		<path class="st8" d="M166.5,221.5c9.4,7.1,20.2,14.3,32.2,21.6c0,0,0.1,0,0.1,0.1l-1.4,5v0.1c-12.1-7.3-22.9-14.5-32.3-21.6v-0.1
			L166.5,221.5"/>
		<path class="st16" d="M116.9,219.1c2.1,3.3,4.6,6.7,7.5,10.2l0.1,0.1c6.7,8,15.4,16.3,26.1,24.8l0.1,0.1
			c10.7,8.5,23.5,17.3,38.1,26.1v0.2l-1.3,5h-0.1c-14.6-8.8-27.3-17.5-38-26l-0.1-0.1c-10.7-8.5-19.4-16.8-26.1-24.8
			c0,0,0-0.1-0.1-0.1c-2.9-3.5-5.4-6.9-7.5-10.2l1.4-5L116.9,219.1"/>
		<path class="st17" d="M147.1,267.7L147.1,267.7c10.8,8.6,23.5,17.3,38.1,26.1h0.1l-1.4,5.1h-0.1c-14.6-8.8-27.3-17.5-38-26
			c0,0,0,0-0.1,0L147.1,267.7"/>
		<path class="st8" d="M117.2,256.3L117.2,256.3c6.7,8,15.5,16.3,26.2,24.8l0.1,0.1c10.7,8.5,23.4,17.2,38,26c0,0,0.1,0,0.1,0.1
			l-1.3,5v0.1c-29.3-17.6-50.9-34.9-64.3-50.9l0,0L117.2,256.3"/>
		<path class="st16" d="M133.3,318.8C133.3,318.8,133.4,318.8,133.3,318.8c10.8,8.6,23.5,17.3,38.1,26.1c0,0,0.1,0,0.1,0.1l-1.4,5.1
			c0,0-0.1,0-0.1-0.1c-14.6-8.8-27.3-17.5-38-26c0,0,0,0-0.1,0L133.3,318.8"/>
		<path class="st17" d="M103.5,307.4L103.5,307.4c6.7,8,15.5,16.3,26.2,24.8l0.1,0.1c10.7,8.5,23.4,17.2,38,26h0.1l-1.4,5.1
			c0,0-0.1,0-0.1-0.1c-14.6-8.8-27.3-17.5-38-26l-0.1-0.1c-10.7-8.5-19.4-16.8-26.1-24.8l0,0L103.5,307.4"/>
		<path class="st8" d="M107.6,329.4c5.3,5.3,11.4,10.8,18.4,16.3l0.1,0.1c10.7,8.5,23.4,17.2,38,26h0.1l-1.2,4.6v0.1v0.2l-0.1,0.2
			h-0.1c-14.6-8.8-27.3-17.5-38-26l-0.1-0.1c-7-5.5-13.1-11-18.4-16.3l0.1-0.3v-0.1V334L107.6,329.4"/>
	</g>
</g>
<path class="st24" d="M502.7,628.3c83.5,54.5,29.7,5.1,30.5,3.5c3.1-9.7-22.8-5.9-19.1-25.7c3.6-19.2,5.9-49.4,0.4-89.6
	c-0.5-4-1.5-7.9-3-11.5c-15.9-11.1-34.3-17-51.9-25.7c-8.1,0.7-15.9,2.8-22.4,7.1c-31.1,18.5-51.3,10.6-62.3,22.1
	c-10.9,11-34.5,26.4-40.2,32.3C367.7,601.1,451.3,595.6,502.7,628.3z"/>
<path class="st25" d="M319.2,791c0,0,4-6.1,8.5-14.8c3.7-7.2,8.1-27.7,8.2-30.6c0.2-4.8,9-34.5,9.7-34.9c7.1-4.1-11.7,46.7,2.6,58.1
	c4.1,3.3-23.9,23-25.6,24.3C320.8,794.4,318.3,791,319.2,791z"/>
<path class="st25" d="M381.7,550.2c2,3.7,10.3,14.3,10.5,24.8c0.4,20.6-0.5,31-6.9,50.8c-10.1,31.4-27.3,81.2-34.8,102.1
	c-6.8,18.9-7.5,49.7-14.8,39.2c1.9-28.4-2.5-33.6,5.6-87.6C364.4,525,378.1,543.7,381.7,550.2z"/>
<path class="st26" d="M322.2,786c3,5.7,15.9-8.9,18.6-13.4c2.6-4.3,4.5-6.7,4.5-6.7c0.1-0.1,0.3-0.3,0.4-0.4
	c0.1,0.1,0.3,0.2,0.4,0.3c2.3,2.6,6.4,5.1,2.3,8.7l-26.1,22.8C300.9,815.9,322.1,785.9,322.2,786z"/>
<path class="st25" d="M482.3,459.3c5.7,3.8,15.4,3.8,13.3,13c-5,21.9-4.4,31.6-38.9,60.2c-105.2,87-59.9,22.4-88.6,33.4
	c-4.3-14.2,15.3-37.3,48.2-69.5C448.9,464.7,464.8,447.7,482.3,459.3z"/>
<path class="st27" d="M388.3,522.7c2.6-5.7,5-11.3,7.5-16.8c1.5-9.5,1.1-15.4-1.6-16.5c-10.3-4.3-47,29.8-87.4,144.4
	c-2,5.8-42.8,101.6-41.5,99.5C300.2,678,350.4,606.7,388.3,522.7z"/>
<path class="st26" d="M279.9,727.2c-8.4,10.3-14.3,31.4-22.4,28.4c-3.3-1.2,2.3-12.6,7.9-26.7c4.9-12.4,10.6-20.9,13.5-19
	C281.9,711.8,292,712.5,279.9,727.2z"/>
<path class="st27" d="M274.1,727.6c-4.4,5.9-10,16.5-13,14.6c0,0,1-6.7,5.1-15.6c5-11,7.9-15.2,11.6-22.1c4.8-8.8,9.1-11.2,3.6,5.5
	C280,714.4,278.8,721.3,274.1,727.6z"/>
<path class="st27" d="M502.7,544.1c-2,9.3-4.9,8.5-14,12.4c-17.9,7.8-40.7,7.8-61.3-4.4c-19.2-11.3-35-26.3-45.4-41.8
	c-2.6-3.9,1.5-19.7,5.2-20.3c11.7-1.9,32.5,0,45.5,1.3C486.5,497,508.8,515.6,502.7,544.1z"/>
<path class="st1" d="M495.7,259.2c-0.3,20.1,15.7,36.7,35.8,37l9.4-17.1c20.1,0.3,36.9-29.7,37.2-49.8l0.2-13.7
	c0.3-20.1-15.7-36.7-35.8-37l-9.1-0.1c-20.1-0.3-36.7,15.7-37,35.8L495.7,259.2z"/>
<path class="st24" d="M493.4,290.4c-38.4,17.3-75.3,81.9-75.3,81.9s4.2,18.1,11.5,16.1c9.2-2.5,40.9-29.9,79.5-71.4
	C533,291.3,499.8,287.5,493.4,290.4z"/>
<path class="st24" d="M420.2,380.1c-14.7-23.9,0.5-57.4,0.5-57.4s7.1,0,10.7,4.3c4.4,5.4,5.6,17.8,6.9,46.4
	C439,391,422.7,384.1,420.2,380.1z"/>
<path class="st27" d="M426,349.3c0,0-5.5,0-8.6-23.4s3.6-49.8,3.6-49.8l8.3,45.8C429.2,321.8,433.1,342.5,426,349.3z"/>
<path class="st1" d="M569.4,206.8c2.6-1.3,5.2-2.4,7.8-3.4c1.1,3.3,2.4,6.7,4,9.9c16,31.1,53.1,44.4,85.7,32.1
	c10.4,31.5-3.8,67-34.8,83c-34.3,17.7-76.1,4.8-93.5-28.7C521.4,266.1,535.2,224.5,569.4,206.8z"/>
<path class="st27" d="M511.4,191.9c0,3.4,0.2,6.8,0.7,10.3c3.3,23.4,17.2,41.4,32.7,43.8c0.3,10.6,3.9,19.8,4.7,28.3
	c1.7,18.4,22,20.7,22,20.7c2.4,16.4-62.2,38-60.8,35.3c1.4-2.6,15.4-21.6,20.1-39.2c3.3-12.2-0.5-22.4-5.1-29.5
	c-8.5-10.4-21.1-10.4-21.1-10.4c-1.2,0-2.3-0.6-3-1.4c-0.7-2.4-1.1-5-1-7.6l0.5-30C501.1,203.9,505.2,196.6,511.4,191.9z"/>
<path class="st27" d="M587,387.3l28.1-52.5c8.4-15.6,2.7-31-12.5-34.1l-86-17.8c-9.5-1-24.3,14.8-20.4,32.9l19.8,59.1L587,387.3z"/>
<path class="st24" d="M600.7,304.9C582.9,357.6,637,431.2,637,431.2s17.3,0.5,19.1-7.4c2.3-10.1-12.5-31.3-30.7-92.3
	C614.1,293.8,603.2,297.6,600.7,304.9z"/>
<path class="st16" d="M513.4,449c-0.2,12,0.2,26.5,5.5,26.3l36.2-4.6c5.3-0.2,22.5,1.9,22.7-10.1l10.9-49.5c0.2-12-4-21.6-9.2-21.4
	l-65.2-27.3c-5.3,0.2-9.7,10-9.8,22L513.4,449z"/>
<path class="st16" d="M501.7,306.4c0.8-3.4,2-6.4,3.4-9.1c42.4,34.2,72.8,20.7,94.6,15.5c0.2,1.4,0.3,2.9,0.4,4.4
	c0.6,16.5-0.6,33.1-0.2,49.6c0.4,13.2-16.6,24.3-24.7,24.5c-30.2,0.8-37-1.3-66-10.6c-7.8-2.5-22.1-16.7-18.9-28.7
	C494.2,336.9,498,321.7,501.7,306.4z"/>
<path class="st26" d="M575.1,293.8c0,0,34.7-0.5,40.5,16.2s-9.3,40.6-9.3,40.6s-9.3,30.6-12,47.3c-2.7,16.7,7.7,32.7,4.4,29.4
	c-0.7-0.7-8.5,0-20.9-6.1s-5.1-28.7-3.8-36s8-43.3,6.8-49.3C579.5,329.8,575.1,293.8,575.1,293.8z"/>
<path class="st26" d="M492.1,306.8c3.7-11.1,14.3-28.5,20.8-26.4c6.5,2,14.1,3.9,14.1,3.9s-23,9.6-22.9,57.1c0,8.1-1.4,24.3,1.2,37
	s3.1,37.4,3.1,37.4s-13.8,2.6-14.4,4.6c-0.7,2,2.1-13.1-3.6-34.2C477.8,339.3,485.4,327.1,492.1,306.8z"/>
<path class="st28" d="M564,327.5l9.9,10.5c2.1,2.2,2.2,5.5,0.3,7.3l-3.9,3.7l1.7,1.8c3,3.1,3.2,7.8,0.4,10.3l-16.1,15.2
	c-2.7,2.6-7.3,2.1-10.3-1l-21.7-22.9l25.9-24.5l2.6,2.7l3.9-3.7C558.7,324.9,561.9,325.3,564,327.5z M561.1,330.2
	c-0.3-0.3-0.8-0.4-1.1-0.1l-3.9,3.7l11.1,11.7l3.9-3.7c0.3-0.3,0.3-0.8-0.1-1.1L561.1,330.2z"/>
<g>
	<path class="st27" d="M606.2,381.8c-6-11-10.7-23.7-16.3-28.3c-8.1-6.5-15.1-6.2-18.5-12.5c-0.4-0.7-0.9-1.3-1.4-1.9
		c-1.2-1.7-2.3-3.8-2.9-4.4c-0.7-0.7-2.9-2.5-1.7-2.2c10.3,3.3,21.4,8,23.2,9.9c3.6,3.9,22.8,26.5,28.1,36.4
		C622.7,390,614.3,396.6,606.2,381.8z"/>
	<path class="st27" d="M589.8,350.7c0,0,2.4-0.9,1.8-2.8c-0.9-3.2-5.2-8.2-6.9-9.9c-1.8-1.9-11.8-9.6-11.8-9.6s1,4.6,5,7.7
		C583.9,340.6,589.8,350.7,589.8,350.7z"/>
	<path class="st27" d="M628.8,394.2c-4.1,1.6-8.3,3-12.6,4.2c-15.5-28.8-27.3-54-27.3-54L628.8,394.2z"/>
	<path class="st27" d="M580.9,337.9l-14.3-10.6l-6.1,3.5l-0.9,2.5l1.1,1.6c0,0,1.4,0.2,1.3,0.4c-0.7,0.7,1.6,2.6,2.2,2.1
		c0.1-0.1,1.9,3.1,2.4,3.4c1.4,0.6,3.2-1.4,6.2,0s4.2,5.1,5.6,4.2C579.7,343.9,580.9,337.9,580.9,337.9z"/>
</g>
<path class="st24" d="M624.4,387.3c-2.1-1.6-13.4,7.9-11.5,12.4l1.1,3.7c0,0,10.8,31.1,26.3,24C640.3,427.4,652.1,414.6,624.4,387.3
	z"/>
<path class="st26" d="M334.4,541c0.9-2.3,19.8-33.3,24.7-37.5c23.3-20.3,144.2-75.3,155.2-71.2c25.1,9.3,51.6,12.8,65.5,27.1
	c-1.5,8.3,17.4,35.8,9.8,48.2c-28.8,47.2-94.2,11.6-55.1,91.5c12.6,25.7,24.5,48.8,18.3,60.7C512.6,678.6,391.7,531.9,334.4,541z"/>
<g>
	<path class="st27" d="M418.3,281.6c0.3-2.1,2.4-4.7,3.7-7.5c2.2-4.8,6.7-11.6,9.6-15.8c3.4-4.9,6.2-10.6,6.2-10.5
		c0.6,6.3-3,9-3.8,11.8s-0.9,1.7,3.5-0.9c2.4-1.5,3.9-8.1,5.4-12.3c1.3-3.6,2.8-4.9,2.8-4.9s-0.3,5.9-1.9,11.6
		c-2,6.9-5.4,14-6.5,15.4c-1.8,2.6-6.1,7.5-10.4,11.9c-1.3,1.4-6.3,8.4-5.1,17.4C422.3,303,416.9,291.3,418.3,281.6z"/>
	<path class="st27" d="M436.5,268.9c0,0,7.4-8.3,8.2-10.4c0.6-1.5,2-9,2-9s-3,2.8-3.7,5.8C442.2,258.2,436.5,268.9,436.5,268.9z"/>
</g>
</svg>
